<?xml version="1.0" encoding="utf-8"?>
<!-- Generator: Adobe Illustrator 19.2.0, SVG Export Plug-In . SVG Version: 6.00 Build 0)  -->
<svg version="1.1" id="Capa_1" xmlns="http://www.w3.org/2000/svg" xmlns:xlink="http://www.w3.org/1999/xlink" x="0px" y="0px"
	 width="50.4px" height="50.4px" viewBox="0 0 50.4 50.4" style="enable-background:new 0 0 50.4 50.4;" xml:space="preserve">
<style type="text/css">
	.st0{fill:#8A9E9E;}
	.st1{opacity:0.22;fill:#231F20;enable-background:new    ;}
	.st2{fill:#FFFFFF;}
	-webkit-keyframes bounce {
		0%, 20%, 50%, 80%, 100% {-webkit-transform: translateY(0);} 
		40% {-webkit-transform: translateY(-3px);}
		60% {-webkit-transform: translateY(-3px);}
		}
		
		@-moz-keyframes bounce {
		0%, 20%, 50%, 80%, 100% {-moz-transform: translateY(0);}
		40% {-moz-transform: translateY(-3px);}
		60% {-moz-transform: translateY(-3px);}
		}
		
		@-o-keyframes bounce {
		0%, 20%, 50%, 80%, 100% {-o-transform: translateY(0);}
		40% {-o-transform: translateY(-3px);}
		60% {-o-transform: translateY(-3px);}
		}
		@keyframes bounce {
		0%, 20%, 50%, 80%, 100% {transform: translateY(0);}
		40% {transform: translateY(-3px);}
		60% {transform: translateY(-3px);}
		}

		.bounce-1{
		animation: bounce 2s infinite;
		-webkit-animation: bounce 2s infinite;
		-moz-animation: bounce 2s infinite;
		-o-animation: bounce 2s infinite;
		}

		.bounce-2{
		animation: bounce 2s infinite;
		-webkit-animation: bounce 2s infinite;
		-moz-animation: bounce 2s infinite;
		-o-animation: bounce 2s infinite;
		animation-delay: 0.6s;
		}
		.bounce-3{
		animation: bounce 2s infinite;
		-webkit-animation: bounce 2s infinite;
		-moz-animation: bounce 2s infinite;
		-o-animation: bounce 2s infinite;
		animation-delay: 1.2s;
		}
</style>
<title>SHIFT_FINAL ICONS_aboutus</title>
<circle class="st0" cx="25.2" cy="25.2" r="25.2"/>
<path class="st1" d="M29.4,50c10.5-1.8,18.7-9.9,20.6-20.3l-9.8-9.8L40,20l-0.4-0.4L37,21.5l-4-4l-7.7-3.1l-7,3.6L15,22.9l-1.6-1.6
	l-0.1,0.1L12.9,21l-2.4,5l1.5,1.5l-4,1.2L29.4,50z"/>
	<g class="bounce-2">
<path class="st2" d="M24.6,16.2c-4.2,0.2-7.5,3.9-7.3,8.1c0.2,4.2,3.9,7.5,8.1,7.3c4.2-0.2,7.5-3.8,7.3-8.1S28.8,15.9,24.6,16.2z
	 M25.5,34.2c-5.7,0.3-10.5-4.1-10.8-9.7c-0.3-5.7,4.1-10.5,9.7-10.8s10.5,4.1,10.8,9.7l0,0C35.6,29,31.2,33.8,25.5,34.2L25.5,34.2z"
	/>
<path class="st2" d="M40.9,38.4c-0.5,0.5-1.3,0.6-1.8,0.1L31,31.2c-0.5-0.5-0.6-1.3-0.1-1.8s1.3-0.6,1.8-0.1l8.1,7.3
	C41.3,37,41.4,37.9,40.9,38.4z"/>
<path class="st2" d="M22.5,22.7L22.5,22.7l0.3,1.5c0.4,1,1.3,1.7,2.4,1.8c1.1-0.2,1.9-1,2.2-2l0.1-1.6c0.2-0.4,0.3-0.9,0.3-1.3
	c-0.1-2.3-1-1.6-1-1.6s-0.3-1.3-2.1-1.2c-1,0.1-1.8,0.6-2.4,1.4l0.4,0.1c-0.2,0.2-0.4,0.5-0.5,0.8c-0.1,0.4,0,0.8,0.1,1.2
	C22.3,22.1,22.2,22.3,22.5,22.7L22.5,22.7z"/>

<path class="st2" d="M25.4,30.6c2.2-0.1,4.2-1.3,5.4-3.2v-0.1c-0.2-0.6-0.8-1-1.5-1h-0.1l-4,0.1H25l-3.7,0.3h-0.1
	c-0.7,0.1-1.2,0.5-1.4,1.2v0.2C21.1,29.8,23.2,30.7,25.4,30.6L25.4,30.6z"/>
	</g>
	<g class="bounce-3">
<path class="st2" d="M36.4,22.4L36.4,22.4l0.2,1.2c0.3,1,1.2,1.6,2.2,1.3c0.7-0.2,1.2-0.8,1.3-1.5l0.1-1.2c0.2-0.3,0.3-0.7,0.2-1
	c-0.1-1.8-0.8-1.3-0.8-1.3s-0.2-1-1.7-0.9c-0.7,0.1-1.4,0.5-1.8,1.1l0.3,0.1c-0.2,0.2-0.3,0.4-0.4,0.6c-0.1,0.3-0.1,0.7,0,1
	C36.3,22,36.2,22.2,36.4,22.4L36.4,22.4z"/>
<path class="st2" d="M38.7,28.6c1.7-0.1,3.3-1,4.2-2.5V26c-0.2-0.5-0.7-0.8-1.2-0.8h-0.1l-3.1,0.1h-0.1l-2.9,0.2h-0.1
	c-0.5,0-0.9,0.4-1.1,0.9v0.1C35.4,27.9,37,28.7,38.7,28.6L38.7,28.6z"/>
</g>
<g class="bounce-1">
<path class="st2" d="M9.6,23.8L9.6,23.8L9.8,25c0.3,0.8,1,1.4,1.9,1.4c0.8-0.1,1.5-0.8,1.7-1.6l0.1-1.3c0.2-0.3,0.3-0.7,0.2-1
	c-0.1-1.8-0.8-1.3-0.8-1.3s-0.2-1-1.7-0.9c-0.7,0.1-1.4,0.5-1.8,1.1l0.3,0.1c-0.2,0.2-0.3,0.4-0.4,0.6c-0.1,0.3-0.1,0.7,0,1
	C9.5,23.4,9.4,23.5,9.6,23.8L9.6,23.8z"/>
<path class="st2" d="M11.9,30c1.7-0.1,3.3-1,4.3-2.5v-0.1c-0.2-0.5-0.7-0.8-1.2-0.8h-0.1h-3.1h-0.1l-3,0.4H8.6
	c-0.5,0-0.9,0.4-1.1,0.9V28C8.6,29.4,10.2,30.1,11.9,30L11.9,30z"/>
</g>
</svg>
