<?xml version="1.0" encoding="utf-8"?>
<!-- Generator: Adobe Illustrator 19.2.0, SVG Export Plug-In . SVG Version: 6.00 Build 0)  -->
<svg version="1.1" id="Capa_1" xmlns="http://www.w3.org/2000/svg" xmlns:xlink="http://www.w3.org/1999/xlink" x="0px" y="0px" width="50.4px" height="50.4px" viewBox="0 0 50.4 50.4" style="enable-background:new 0 0 50.4 50.4;" xml:space="preserve">
   <style type="text/css">
      .st0{fill:#2D99D4;}
      .st1{opacity:0.22;fill:#231F20;enable-background:new    ;}
      .st2{fill:#FFFFFF;}
      @keyframes fadeIn { 
      from { opacity: 0; } 
      }
      .opacit-1 {
      animation: fadeIn 1s infinite alternate;
      animation-delay: 1s;
      }
      .opacity-2 {
      animation: fadeIn 1s infinite alternate;
      animation-delay: 1.3s;
      }
      .opacity-3 {
      animation: fadeIn 1s infinite alternate;
      animation-delay: 1.6s;
      }
      .opacity-4 {
      animation: fadeIn 1s infinite alternate;
      animation-delay: 1.9s;
      }
      .opacity-5 {
      animation: fadeIn 1s infinite alternate;
      animation-delay: 2.2s;
      }
      .opacity-6 {
      animation: fadeIn 1s infinite alternate;
      animation-delay: 2.5s;
      }
   </style>
   <title>SHIFT_FINAL ICONS_aboutus</title>
   <g>
      <circle class="st0" cx="25.2" cy="25.2" r="25.2"/>
      <path class="st1" d="M49.7,31.2L31.4,13h-0.1l-0.4-0.4l-1.1-0.2l-3.3-3.3h-0.1L26,8.7l-1.8,3.6l8.2,8.1l0.2,0.4l0.8,0.8L31.2,22
         l-4.4-4.4l-0.2-0.1l-0.3-0.3L25.6,17l-4-4h-0.1l-0.4-0.4l-1.7,3.6l4.5,4.6l0.3,0.6l0.9,0.9l-2.2,0.2l-4.6-4.7h-0.1l-0.4-0.4
         l-1.9,3.5l0.9,0.9l-2.8,8l0.8,0.8l0.6,7.7l12,12C38,49.4,47.1,41.7,49.7,31.2z"/>
         <g class="opacit-1">
      <path class="st2" d="M15.5,19.4L15.5,19.4l0.1,0.9c0.2,0.6,0.7,1,1.3,1.1c0.6-0.1,1.1-0.5,1.3-1.1l0.1-0.9c0.1-0.2,0.2-0.5,0.2-0.7
         c0-1.3-0.5-0.9-0.5-0.9s-0.1-0.7-1.1-0.7c-0.5,0-1,0.3-1.3,0.7l0.2,0.1c-0.1,0.1-0.2,0.2-0.3,0.4c-0.1,0.2-0.1,0.5,0,0.7
         C15.4,19,15.3,19.1,15.5,19.4z"/>
      <path class="st2" d="M19.5,21.6L19.5,21.6l-2.7-0.1l0,0l-2.7,0.1H14c-0.4,0-0.8,0.3-0.9,0.8l0.4,6.7c-0.1,0.5,0.3,0.9,0.8,1
         c0.1,1.8,0.6,7.7,0.6,7.7c0,0.4,0.3,0.7,0.7,0.8h1.1l0,0h1.1c0.4,0,0.7-0.4,0.7-0.8c0,0,0.5-5.9,0.6-7.7c0.5-0.1,0.8-0.5,0.8-1
         l0.4-6.7C20.3,21.9,20,21.6,19.5,21.6z"/>
     </g>
     <g class="opacity-2">
      <path class="st2" d="M23.6,19.5L23.6,19.5l0.1,1c0.2,0.7,0.8,1.2,1.5,1.3c0.7-0.1,1.3-0.6,1.5-1.2l0.1-1c0.2-0.2,0.2-0.5,0.2-0.8
         c0-1.5-0.6-1.1-0.6-1.1s-0.2-0.8-1.4-0.8c-0.6,0-1.2,0.3-1.6,0.8l0.2,0.1c-0.2,0.1-0.3,0.3-0.4,0.5c-0.1,0.3-0.1,0.5,0,0.8
         C23.5,19.1,23.4,19.2,23.6,19.5z"/>
      <path class="st2" d="M28.4,22.1L28.4,22.1L25.2,22l0,0l-3.1,0.1H22c-0.5,0-0.9,0.4-1,0.9l0.5,7.8c-0.1,0.6,0.3,1.1,0.9,1.2
         c0.2,2.1,0.7,9,0.7,9c0,0.5,0.3,0.9,0.8,0.9l0,0h1.3l0,0h1.3c0.5,0,0.8-0.4,0.8-0.9l0,0c0,0,0.5-6.9,0.7-9c0.6-0.1,1-0.6,0.9-1.2
         l0.5-7.8C29.3,22.5,28.9,22.2,28.4,22.1z"/>
     </g>
     <g class="opacity-3">
      <path class="st2" d="M32.2,19.4L32.2,19.4l0.1,0.9c0.1,0.7,0.8,1.2,1.5,1c0.5-0.1,0.9-0.5,1-1l0.1-0.9c0.1-0.2,0.2-0.5,0.2-0.7
         c0-1.3-0.5-0.9-0.5-0.9s-0.1-0.7-1.2-0.7c-0.5,0-1,0.3-1.3,0.7l0.2,0.1c-0.1,0.1-0.2,0.2-0.3,0.4c-0.1,0.2-0.1,0.5,0,0.7
         C32.2,19,32.1,19.1,32.2,19.4z"/>
      <path class="st2" d="M36.3,21.6L36.3,21.6l-2.7-0.1l0,0L31,21.6h-0.1c-0.4,0-0.8,0.3-0.9,0.8l0.4,6.7c-0.1,0.5,0.3,0.9,0.8,1
         c0.1,1.8,0.6,7.7,0.6,7.7c0,0.4,0.3,0.7,0.7,0.8h1.1l0,0h1.1c0.4,0,0.7-0.4,0.7-0.8c0,0,0.5-5.9,0.6-7.7c0.5-0.1,0.8-0.5,0.8-1
         l0.5-6.7C37.1,21.9,36.8,21.6,36.3,21.6z"/>
     </g>
      <path class="st2 opacity-5" d="M23.8,10.8L23.8,10.8l0.1,0.9c0.1,0.7,0.8,1.2,1.5,1c0.5-0.1,0.9-0.5,1-1l0.1-0.9c0.1-0.2,0.2-0.5,0.2-0.7
         c0-1.3-0.5-0.9-0.5-0.9s-0.1-0.7-1.1-0.7c-0.5,0-1,0.3-1.3,0.7L24,9.3c-0.1,0.1-0.2,0.2-0.3,0.4c-0.1,0.2-0.1,0.5,0,0.7
         C23.8,10.5,23.7,10.6,23.8,10.8z" />
     <path class="st2 opacity-4" d="M18.9,14.6L18.9,14.6l0.1,0.9c0.2,0.6,0.6,1,1.2,1.1c0.6,0,1.1-0.5,1.3-1.1l0.1-0.9c0.1-0.2,0.2-0.5,0.2-0.7
         c0-1.3-0.5-0.9-0.5-0.9s-0.1-0.7-1.1-0.7c-0.5,0-1,0.3-1.3,0.7l0.2,0.1c-0.1,0.1-0.2,0.2-0.3,0.4c-0.1,0.2-0.1,0.5,0,0.7
         C18.8,14.3,18.7,14.4,18.9,14.6z"/>
      <path class="st2 opacity-6" d="M28.7,14.6L28.7,14.6l0.1,0.9c0.1,0.7,0.8,1.2,1.5,1c0.5-0.1,0.9-0.5,1-1l0.1-0.9c0.1-0.2,0.2-0.5,0.2-0.7
         c0-1.3-0.5-0.9-0.5-0.9S31,12.2,30,12.2c-0.5,0-1,0.3-1.3,0.7l0.2,0.1c-0.1,0.1-0.2,0.2-0.3,0.4c-0.1,0.2-0.1,0.5,0,0.7
         C28.6,14.3,28.5,14.4,28.7,14.6z"/>
      
     
   </g>
</svg>