<?xml version="1.0" encoding="utf-8"?>
<!-- Generator: Adobe Illustrator 19.2.0, SVG Export Plug-In . SVG Version: 6.00 Build 0)  -->
<svg version="1.1" id="Capa_1" xmlns="http://www.w3.org/2000/svg" xmlns:xlink="http://www.w3.org/1999/xlink" x="0px" y="0px"
	 width="50.9px" height="50.4px" viewBox="0 0 50.9 50.4" style="enable-background:new 0 0 50.9 50.4;" xml:space="preserve">
<style type="text/css">
	.st0{fill:#ED6A53;}
	.st1{opacity:0.22;fill:#231F20;enable-background:new    ;}
	.st2{fill:#FFFFFF;}
	@-webkit-keyframes rotating /* Safari and Chrome */ {
  from {
    -webkit-transform: rotate(0deg);
    -o-transform: rotate(0deg);
    transform: rotate(0deg);
  }
  to {
    -webkit-transform: rotate(360deg);
    -o-transform: rotate(360deg);
    transform: rotate(360deg);
  }
}
@keyframes rotating {
  from {
    -ms-transform: rotate(0deg);
    -moz-transform: rotate(0deg);
    -webkit-transform: rotate(0deg);
    -o-transform: rotate(0deg);
    transform: rotate(0deg);
  }
  to {
    -ms-transform: rotate(360deg);
    -moz-transform: rotate(360deg);
    -webkit-transform: rotate(360deg);
    -o-transform: rotate(360deg);
    transform: rotate(360deg);
  }
}
.rotating {
  -webkit-animation: rotating 4s linear infinite;
  -moz-animation: rotating 4s linear infinite;
  -ms-animation: rotating 4s linear infinite;
  -o-animation: rotating 4s linear infinite;
  animation: rotating 4s linear infinite;
}
</style>
<title>SHIFT_FINAL ICONS_business</title>
<circle class="st0" cx="25.5" cy="25.2" r="25.2"/>
	<path class="st1" d="M26.7,50.4c12.8-0.6,23.1-10.8,23.9-23.6L37.1,13.3l-1,0.4l-2.2-2.2L32,12.8l-2-2l-0.8,1.8l-1.2,0.7l-1.7-1.7
		l-0.9,3l-1.8,0.6l-0.3,1.9l-3,1l2,2L20,21.8l2,2l-1.5,0.5l-0.7-0.7l-2,1l-1.8-1.8c0,0-0.4,1.3-0.5,1.4s-1.9,1.3-1.9,1.3l-1.3-1.3
		L13,26l-0.8,1.6l-2.7,1.2l1.6,1.6l-1.3,2.3l2.1,2.1l-0.4,0.4L26.7,50.4z"/>
<g class="rotating" style="transform-origin: 50% 50%;">
	
	<path class="st2" d="M16.5,33.6c-2,0-3.6-1.6-3.6-3.6s1.6-3.6,3.6-3.6s3.6,1.6,3.6,3.6l0,0C20.2,32,18.5,33.6,16.5,33.6z
		 M23.6,29.9c0-0.3,0-0.5,0-0.6c0-0.1-0.1-0.2-0.1-0.2c-0.3,0-1.1,0-1.4,0c-0.1,0-0.2,0-0.2-0.1c0-0.1-0.1-0.3-0.1-0.4l-0.1-0.3
		l-0.1-0.2c0-0.1-0.1-0.2-0.1-0.4l0.1-0.2c0.3-0.2,0.9-0.6,1.1-0.8c0.1-0.1,0.1-0.2,0-0.2l-0.3-0.5c-0.1-0.2-0.3-0.4-0.3-0.5
		c0-0.1-0.1-0.1-0.2-0.1c0,0,0,0,0,0c-0.3,0.1-0.9,0.5-1.2,0.7h-0.2c-0.1-0.2-0.3-0.3-0.5-0.4c0,0-0.4-0.3-0.5-0.4
		c-0.1,0-0.1-0.1-0.1-0.2c0.1-0.3,0.4-1,0.5-1.3c0-0.1,0-0.2-0.1-0.2c0,0-0.3-0.1-0.5-0.2c-0.2-0.1-0.4-0.1-0.5-0.2
		c-0.1,0-0.2,0-0.2,0.1c0,0,0,0,0,0c-0.1,0.3-0.5,0.9-0.6,1.2c0,0.1-0.1,0.1-0.2,0.1c-0.2-0.1-0.4-0.1-0.6-0.1c-0.2,0-0.4,0-0.6-0.1
		c-0.1,0-0.2-0.1-0.2-0.2c0-0.3-0.2-1.1-0.3-1.4c0-0.1-0.1-0.1-0.2-0.1c-0.4,0-0.8,0.1-1.1,0.2c-0.1,0-0.1,0.1-0.1,0.2c0,0,0,0,0,0
		c0,0.3,0.1,1,0.2,1.4c0,0.1,0,0.2-0.1,0.2l-0.4,0.1l-0.2,0.1l-0.2,0.1c-0.1,0.1-0.3,0.2-0.3,0.2h-0.2c-0.2-0.2-0.7-0.8-1-1
		c-0.1-0.1-0.2-0.1-0.2,0c0,0,0,0,0,0c-0.3,0.2-0.6,0.5-0.9,0.8c-0.1,0.1-0.1,0.2,0,0.2c0.2,0.2,0.7,0.8,0.9,1.1v0.2
		c-0.1,0.1-0.4,0.5-0.4,0.5c-0.1,0.2-0.2,0.4-0.3,0.6c0,0.1-0.1,0.1-0.2,0.1c-0.3-0.1-1.1-0.3-1.3-0.3c-0.1,0-0.2,0-0.2,0.1
		c0,0,0,0,0,0c0,0.1-0.1,0.3-0.2,0.6s-0.1,0.5-0.1,0.6c0,0.1,0,0.2,0.1,0.2c0.3,0.1,1,0.3,1.3,0.4c0.1,0,0.1,0.1,0.1,0.2
		c0,0.2,0,0.6,0,0.6v0.3c0,0.1,0,0.3,0,0.4c0,0.1,0,0.2-0.1,0.2c-0.3,0.1-1,0.3-1.3,0.4c-0.1,0-0.1,0.1-0.1,0.2c0,0,0,0,0,0l0.1,0.6
		l0.2,0.5c0,0.1,0.1,0.1,0.2,0.1c0.3-0.1,1-0.3,1.3-0.4c0.1,0,0.2,0,0.2,0.1c0.1,0.1,0.2,0.2,0.3,0.2l0.1,0.2c0,0,0.3,0.4,0.4,0.5
		v0.2c-0.2,0.2-0.7,0.8-0.9,1.1c-0.1,0.1-0.1,0.2,0,0.2c0,0,0.2,0.2,0.4,0.4s0.4,0.3,0.5,0.4c0.1,0.1,0.2,0.1,0.2,0
		c0.2-0.2,0.7-0.8,0.9-1h0.2c0.2,0.1,0.4,0.2,0.6,0.3c0,0,0.5,0.2,0.6,0.2c0.1,0,0.1,0.1,0.1,0.2c0,0.3-0.1,1.1-0.1,1.4
		c0,0.1,0.1,0.2,0.1,0.2c0.4,0.1,0.8,0.1,1.1,0.1c0.1,0,0.2-0.1,0.2-0.1c0.1-0.3,0.2-1,0.2-1.4c0-0.1,0.1-0.2,0.2-0.2
		c0.1,0,0.2,0,0.4,0h0.3h0.3l0.4-0.1l0.2,0.1c0.1,0.3,0.5,1,0.6,1.2c0,0.1,0.1,0.1,0.2,0.1c0,0,0,0,0,0c0.3-0.1,0.7-0.3,1-0.5
		c0.1,0,0.1-0.1,0.1-0.2c-0.1-0.3-0.4-1-0.5-1.3c0-0.1,0-0.2,0-0.2c0.1-0.1,0.5-0.4,0.5-0.4c0.2-0.1,0.3-0.3,0.5-0.5h0.2
		c0.3,0.2,0.9,0.6,1.2,0.7c0.1,0,0.2,0,0.2-0.1c0,0,0,0,0,0c0.1-0.2,0.2-0.3,0.3-0.5c0.1-0.2,0.3-0.4,0.3-0.5c0.1-0.1,0.1-0.1,0-0.2
		c-0.2-0.2-0.9-0.6-1.1-0.8l-0.1-0.2c0-0.1,0.2-0.6,0.2-0.6c0.1-0.2,0.1-0.4,0.1-0.6c0-0.1,0.1-0.1,0.2-0.1c0.3,0,1.1,0,1.4-0.1
		c0,0,0.1,0,0.1-0.2s0-0.3,0-0.6L23.6,29.9z"/>
	</g>
	<g class="rotating" style="transform-origin: 50% 50%;">
	<path class="st2" d="M36.8,21.2c0,3.6-2.9,6.6-6.6,6.6c-3.6,0-6.6-2.9-6.6-6.6c0-3.6,2.9-6.6,6.6-6.6l0,0
		C33.9,14.6,36.8,17.5,36.8,21.2z M40.5,22.4c-0.3-0.1-1.1-0.3-1.4-0.4l0,0c0-0.3,0-0.5,0-0.8s0-0.5,0-0.8l0,0
		c0.3-0.1,1.1-0.3,1.4-0.4c0.1,0,0.1-0.1,0.1-0.2c0-0.4-0.1-0.7-0.2-1.1c0-0.1-0.1-0.1-0.2-0.1c0,0,0,0,0,0c-0.3,0-1.1,0.1-1.5,0.2
		l0,0c-0.1-0.5-0.3-1-0.6-1.5l0,0c0.3-0.2,0.9-0.7,1.2-0.8c0.1-0.1,0.1-0.2,0-0.2l-0.6-0.9c0-0.1-0.1-0.1-0.2-0.1c0,0,0,0,0,0
		c-0.3,0.1-1,0.5-1.3,0.7l0,0c-0.3-0.4-0.7-0.8-1.1-1.2l0,0c0.2-0.3,0.6-0.9,0.8-1.2c0.1-0.1,0.1-0.1,0-0.2l-0.9-0.7
		c-0.1-0.1-0.1-0.1-0.2,0c-0.2,0.2-0.7,0.8-1,1.1l0,0c-0.5-0.3-0.9-0.5-1.5-0.7l0,0c0.1-0.3,0.2-1.1,0.3-1.4c0-0.1,0-0.2-0.1-0.2
		c-0.3-0.1-0.7-0.2-1-0.3c-0.1,0-0.2,0-0.2,0.1c-0.1,0.3-0.4,1-0.5,1.4l0,0c-0.5-0.1-1.1-0.2-1.6-0.2l0,0l0,0c0-0.3-0.2-1.1-0.2-1.4
		c0-0.1-0.1-0.1-0.2-0.1c0,0,0,0,0,0h-0.5c-0.2,0-0.5,0.1-0.5,0.1c-0.1,0-0.1,0.1-0.1,0.2c0,0,0,0,0,0c0,0.3,0,1.1,0,1.4l0,0
		c-0.5,0.1-1.1,0.3-1.6,0.4l0,0c-0.2-0.3-0.6-1-0.7-1.3c0-0.1-0.1-0.1-0.2-0.1c-0.1,0-0.9,0.4-1,0.5c-0.1,0-0.1,0.1-0.1,0.2
		c0.1,0.3,0.4,1,0.6,1.3l0,0c-0.5,0.3-0.9,0.6-1.3,1l0,0c-0.3-0.2-0.9-0.7-1.1-0.9c-0.1-0.1-0.2-0.1-0.2,0l-0.7,0.8
		c-0.1,0.1-0.1,0.2,0,0.2c0.2,0.2,0.8,0.8,1,1.1l0,0c-0.3,0.4-0.6,0.9-0.9,1.4l0,0c-0.3-0.1-1.1-0.3-1.4-0.4c-0.1,0-0.2,0-0.2,0.1
		c-0.1,0.1-0.4,0.9-0.4,1c0,0.1,0,0.2,0.1,0.2c0,0,0,0,0,0c0.3,0.1,1,0.5,1.3,0.6l0,0c-0.1,0.5-0.2,1.1-0.3,1.6l0,0
		c-0.3,0-1.1,0.1-1.5,0.1c-0.1,0-0.1,0.1-0.1,0.2c0,0,0,0,0,0v0.6v0.5c0,0.1,0.1,0.2,0.1,0.2c0,0,0,0,0,0c0.3,0,1.1,0.1,1.5,0.1l0,0
		c0.1,0.5,0.2,1.1,0.3,1.6l0,0c-0.3,0.1-1,0.5-1.3,0.6c-0.1,0-0.1,0.1-0.1,0.2c0,0,0,0,0,0c0,0.1,0.3,0.9,0.4,1
		c0,0.1,0.1,0.1,0.2,0.1c0.3-0.1,1.1-0.3,1.4-0.4l0,0c0.2,0.5,0.5,0.9,0.9,1.4l0,0c-0.2,0.2-0.8,0.8-1,1.1c-0.1,0.1-0.1,0.2,0,0.2
		l0.7,0.8c0.1,0.1,0.2,0.1,0.2,0c0.2-0.2,0.9-0.7,1.1-0.9l0,0c0.4,0.4,0.8,0.7,1.3,1l0,0c-0.1,0.3-0.5,1-0.6,1.3
		c0,0.1,0,0.2,0.1,0.2l1,0.5c0.1,0,0.2,0,0.2-0.1c0.2-0.3,0.6-1,0.7-1.3l0,0c0.5,0.2,1,0.5,1.5,0.6l0,0c0,0.3,0,1.1,0,1.4
		c0,0.1,0.1,0.2,0.1,0.2c0,0,0,0,0,0c0,0,0.3,0.1,0.5,0.1h0.5c0.1,0,0.2,0,0.2-0.1c0,0,0,0,0,0c0.1-0.3,0.2-1.1,0.2-1.4l0,0l0,0
		c0.5,0,1.1-0.1,1.6-0.1l0,0c0.1,0.3,0.4,1.1,0.5,1.4c0,0.1,0.1,0.1,0.2,0.1c0.1,0,1-0.2,1-0.3c0.1,0,0.1-0.1,0.1-0.2
		c-0.1-0.3-0.2-1.1-0.3-1.4l0,0c0.5-0.2,1-0.4,1.5-0.7l0,0c0.2,0.3,0.7,0.9,1,1.1c0.1,0.1,0.1,0.1,0.2,0l0.9-0.7
		c0.1-0.1,0.1-0.1,0-0.2c-0.2-0.3-0.6-0.9-0.8-1.2l0,0c0.4-0.4,0.8-0.8,1.1-1.2l0,0c0.3,0.2,1,0.6,1.3,0.7c0.1,0,0.2,0,0.2,0
		c0,0,0,0,0,0l0.6-0.9c0.1-0.1,0.1-0.2,0-0.2c-0.2-0.2-0.9-0.7-1.2-0.8l0,0c0.2-0.5,0.4-1,0.6-1.5l0,0c0.3,0.1,1.1,0.2,1.5,0.2
		c0.1,0,0.2,0,0.2-0.1c0,0,0,0,0,0c0.1-0.4,0.2-0.7,0.2-1.1C40.6,22.5,40.5,22.4,40.5,22.4L40.5,22.4z"/>
		</g>
	<path class="st2" d="M29,24.6c-0.3,0-0.6-0.1-0.8-0.3L26,22c-0.4-0.4-0.5-1.1-0.1-1.5c0.4-0.4,1.1-0.5,1.5-0.1c0,0,0.1,0.1,0.1,0.1
		L29,22l4-4c0.4-0.4,1.1-0.5,1.5-0.1c0.4,0.4,0.5,1.1,0.1,1.5c0,0-0.1,0.1-0.1,0.1l-4.8,4.8C29.5,24.6,29.3,24.7,29,24.6L29,24.6z"
		/>

</svg>
