<?xml version="1.0" encoding="utf-8"?>
<!-- Generator: Adobe Illustrator 19.2.0, SVG Export Plug-In . SVG Version: 6.00 Build 0)  -->
<svg version="1.1" id="Capa_1" xmlns="http://www.w3.org/2000/svg" xmlns:xlink="http://www.w3.org/1999/xlink" x="0px" y="0px"
	 width="50.9px" height="50.4px" viewBox="0 0 50.9 50.4" style="enable-background:new 0 0 50.9 50.4;" xml:space="preserve">
<style type="text/css">
	.st0{fill:#6878B4;}
	.st1{opacity:0.22;fill:#231F20;enable-background:new    ;}
	.st2{fill:#FFFFFF;}
	@-webkit-keyframes rotate {
		0%, 20%, 50%, 80%, 100% {-webkit-transform: rotate(0);} 
		40% {-webkit-transform: rotate(-18deg);}
		60% {-webkit-transform: rotate(-18deg);}
		}

		@-moz-keyframes rotate {
		0%, 20%, 50%, 80%, 100% {-moz-transform: rotate(0);}
		40% {-moz-transform: rotate(-18deg);}
		60% {-moz-transform: rotate(-18deg);}
		}

		@-o-keyframes rotate {
		0%, 20%, 50%, 80%, 100% {-o-transform: rotate(0);}
		40% {-o-transform: rotate(-18deg);}
		60% {-o-transform: rotate(-18deg);}
		}
		@keyframes rotate {
		0%, 20%, 50%, 80%, 100% {transform: rotate(0);}
		40% {transform: rotate(-18deg);}
		60% {transform: rotate(-18deg);}
		}

		.rotate{
		animation: rotate 2s infinite;
		-webkit-animation: rotate 2s infinite;
		-moz-animation: rotate 2s infinite;
		-o-animation: rotate 2s infinite;
		animation-delay: 0.6s;
		}
</style>
<title>SHIFT_FINAL ICONS_business</title>
<circle class="st0" cx="25.5" cy="25.2" r="25.2"/>
	<path class="st1" d="M50,30.8L38.1,18.9l-4-1.8L27,15l-6.6,0.6l-7.5,4l-3.1,5.6l0.2,3.6l21,21C40.5,47.6,47.9,40.2,50,30.8z"/>
<g class="rotate" style="transform-origin: 50% 100%;">	
	<path class="st2" d="M36.7,23c-0.3-0.2-0.7-0.2-0.9,0.1l-1.6,2c-0.2,0.3-0.2,0.7,0.1,0.9c0.1,0.1,0.3,0.2,0.5,0.1
		c0.2,0,0.3-0.1,0.4-0.2l1.6-2C37,23.7,36.9,23.3,36.7,23C36.7,23,36.7,23,36.7,23L36.7,23z"/>
	<path class="st2" d="M23.4,22.1c0.3,0,0.6,0,0.9,0s0.6,0,0.9,0.1s0.6,0.1,0.9,0.1c0.4,0.1,0.8-0.2,0.8-0.5c0.1-0.4-0.2-0.8-0.5-0.8
		c-0.3-0.1-0.7-0.1-1-0.2c-0.4,0-0.7-0.1-1-0.1s-0.7,0-1,0s-0.7,0.1-1,0.1s-0.7,0.1-1,0.2s-0.7,0.2-1,0.3s-0.6,0.3-1,0.4
		s-0.6,0.3-0.9,0.5s-0.6,0.4-0.9,0.6c-0.3,0.2-0.4,0.7-0.1,1c0.2,0.2,0.4,0.3,0.7,0.3c0.1,0,0.2-0.1,0.3-0.1
		c0.2-0.2,0.5-0.4,0.8-0.5c0.3-0.2,0.5-0.3,0.8-0.4c0.3-0.1,0.5-0.3,0.8-0.4s0.6-0.2,0.9-0.3c0.3-0.1,0.6-0.1,0.9-0.2
		c0.3-0.1,0.6-0.1,0.9-0.1L23.4,22.1z"/>
	<path class="st2" d="M33.9,20.9c-0.3-0.2-0.7-0.1-0.9,0.2c0,0,0,0,0,0l-1.5,2.4c-0.2,0.3-0.1,0.7,0.2,0.9c0.1,0.1,0.3,0.1,0.4,0.1
		c0.2,0,0.4-0.1,0.5-0.3l1.5-2.4C34.3,21.5,34.2,21.1,33.9,20.9L33.9,20.9z"/>
	<path class="st2" d="M26.4,29.8c-0.1,0.2-0.4,0.4-0.6,0.5c-0.3,0.1-0.6,0-0.8-0.1c-0.5-0.2-0.8-0.8-0.6-1.3
		c0.1-0.4,0.5-0.6,0.9-0.7c0.2,0,0.5,0,0.7,0.1l0.1,0.1H26c0.2,0.1,0.4,0.3,0.4,0.6C26.5,29.2,26.5,29.5,26.4,29.8L26.4,29.8z
		 M30.2,19.5L26,26.3c-1.7-0.3-3.2,0.8-3.5,2.5s0.8,3.2,2.5,3.5c0.4,0.1,0.7,0.1,1.1,0h0.2c1.6-0.4,2.6-2,2.2-3.6
		c-0.1-0.5-0.4-1-0.8-1.4l3.5-7.2c0.1-0.3,0-0.7-0.3-0.8C30.7,19.2,30.4,19.3,30.2,19.5L30.2,19.5z"/>
	<path class="st2" d="M20.9,19.7c0.7-0.2,1.5-0.3,2.3-0.4c0.8-0.1,1.6-0.1,2.3,0c0.8,0.1,1.6,0.3,2.3,0.5c0.4,0.1,0.8-0.1,0.9-0.5
		c0.1-0.4-0.1-0.8-0.5-0.9l0,0c-1.7-0.5-3.5-0.8-5.2-0.6c-0.9,0.1-1.7,0.2-2.6,0.4c-0.8,0.2-1.6,0.5-2.4,0.9
		c-0.8,0.4-1.5,0.9-2.2,1.4c-0.3,0.2-0.4,0.7-0.1,1s0.7,0.4,1,0.1c0.6-0.5,1.3-0.9,1.9-1.2C19.4,20.2,20.1,19.9,20.9,19.7L20.9,19.7
		z"/>
</g>
	<path class="st2" d="M38,30h-5.1c-0.4,0-0.7-0.3-0.7-0.7s0.3-0.7,0.7-0.7c0,0,0,0,0,0H38c0.9,0,1.8-0.5,2.3-1.2
		c0.5-0.8,0.6-1.8,0.2-2.7c-2.3-5.4-8.3-9.1-15.1-9.1s-12.8,3.7-15.1,9.1c-0.4,0.9-0.3,1.9,0.2,2.7c0.5,0.8,1.4,1.2,2.3,1.2h5.2
		c0.4,0,0.7,0.3,0.7,0.7c0,0.4-0.3,0.7-0.7,0.7c0,0,0,0,0,0h-5.2c-1.4,0-2.7-0.7-3.5-1.9c-0.8-1.2-0.9-2.7-0.4-4
		c2.5-6,9.1-10,16.4-10s13.9,4,16.4,10c0.5,1.3,0.4,2.8-0.4,4C40.7,29.3,39.4,30,38,30z"/>

</svg>
