<?xml version="1.0" encoding="utf-8"?>
<!-- Generator: Adobe Illustrator 19.2.0, SVG Export Plug-In . SVG Version: 6.00 Build 0)  -->
<svg version="1.1" id="Capa_1" xmlns="http://www.w3.org/2000/svg" xmlns:xlink="http://www.w3.org/1999/xlink" x="0px" y="0px"
	 width="50.9px" height="50.3px" viewBox="0 0 50.9 50.3" style="enable-background:new 0 0 50.9 50.3;" xml:space="preserve">
<style type="text/css">
	.st0{fill:#458FCD;}
	.st1{opacity:0.22;fill:#231F20;enable-background:new    ;}
	.st2{fill:#FFFFFF;}
	@-webkit-keyframes bounce {
		0%, 20%, 50%, 80%, 100% {-webkit-transform: translateY(0);} 
		40% {-webkit-transform: translateY(-3px);}
		60% {-webkit-transform: translateY(-3px);}
		}

		@-moz-keyframes bounce {
		0%, 20%, 50%, 80%, 100% {-moz-transform: translateY(0);}
		40% {-moz-transform: translateY(-3px);}
		60% {-moz-transform: translateY(-3px);}
		}

		@-o-keyframes bounce {
		0%, 20%, 50%, 80%, 100% {-o-transform: translateY(0);}
		40% {-o-transform: translateY(-3px);}
		60% {-o-transform: translateY(-3px);}
		}
		@keyframes bounce {
		0%, 20%, 50%, 80%, 100% {transform: translateY(0);}
		40% {transform: translateY(-3px);}
		60% {transform: translateY(-3px);}
		}

		.bounce{
		animation: bounce 2s infinite;
		-webkit-animation: bounce 2s infinite;
		-moz-animation: bounce 2s infinite;
		-o-animation: bounce 2s infinite;
		animation-delay: 0.8s;
		}
</style>
<title>SHIFT_FINAL ICONS_business</title>
<circle class="st0" cx="25.2" cy="25.2" r="25.2"/>
	<path class="st1" d="M49.8,30.8L30.3,11.3L18.6,28.5l2.1,2.1L14.3,31l-0.4-0.4l-3,7.7l12,12c0.8,0.1,1.5,0.1,2.3,0.1
		C36.9,50.4,47.1,42.3,49.8,30.8z"/>
<g class="bounce">
	
	<path class="st2" d="M39.6,33.6l-0.2-0.4c-0.5-0.9-1.8-0.6-2.8-0.4c0,0-5.6,1.6-8,1.6l-5.7-0.8c-0.2,0-0.3-0.1-0.3-0.3
		c0-0.2,0.1-0.3,0.3-0.3l4.6,0.4c0.9,0.1,1.7-0.5,2-1.4c0.3-1.1-0.7-1.6-1.8-1.7l-2.4-0.2l-0.4-0.1l-2.7-0.8c-0.9-0.3-1.9-0.3-2.8,0
		L15,30.8h-1c-0.1-0.2-0.3-0.4-0.5-0.4h-2.2c-0.2,0-0.4,0.2-0.5,0.4l0,0V37l0,0v0.9c0,0.3,0.2,0.5,0.5,0.5h2.3
		c0.3,0,0.5-0.2,0.5-0.5V37h1l3.4,0.8c0.3,0.1,0.6,0.2,0.9,0.2l7.2,0.7c1.5,0.1,3.1,0,4.6-0.5l7.9-3C39.6,34.9,39.9,34.3,39.6,33.6
		C39.6,33.7,39.6,33.6,39.6,33.6z"/>
	<path class="st2" d="M24,16.9c-3.1,3.1-5.8,6.8-5.4,11.3c0,0.1,0,0.2,0.1,0.4l0.4-0.2c1.1-0.4,2.3-0.4,3.4,0l2.7,0.8h0.1h0.2
		l2.3,0.2c0.9,0,1.8,0.4,2.4,1.1c0.4,0.5,0.5,1.2,0.3,1.8c-0.1,0.4-0.2,0.8-0.5,1.1c0.9-0.1,1.8-0.2,2.7-0.5
		c1.4-1.2,2.2-2.9,2.3-4.7c0.5-4.5-2.3-8.2-5.4-11.3c-0.2-0.2-0.3-0.4-0.3-0.7v-0.6c0-0.1,0-0.3,0.1-0.4l0.8-1.6
		c0.2-0.5,0.3-1,0.3-1.5v-0.5c0-0.2-0.2-0.4-0.4-0.4c0,0,0,0,0,0h-6.5c-0.2,0-0.4,0.2-0.4,0.4c0,0,0,0,0,0v0.5c0,0.5,0.1,1,0.3,1.5
		l0.8,1.6c0.1,0.1,0.1,0.3,0.1,0.4v0.6C24.3,16.4,24.1,16.7,24,16.9z M26,24.5c-0.8-0.2-1.4-0.8-1.3-1.7c0-1,0.7-1.9,1.8-2v-1h0.8v1
		c0.6,0,1.1,0.2,1.6,0.5l-0.6,1.2c-0.3-0.3-0.7-0.4-1.1-0.4c-0.4,0-0.7,0.1-0.7,0.5s0.5,0.6,0.8,0.7c1,0.3,1.9,0.7,1.9,1.8
		c0,1.1-0.8,2-1.8,2v1h-0.8v-1c-0.4,0-0.8-0.1-1.1-0.2c-0.4-0.1-0.7-0.3-1-0.6l0.7-1.3c0.4,0.4,1,0.7,1.6,0.7c0.4,0,0.8-0.2,0.8-0.6
		S26.8,24.8,26,24.5L26,24.5z"/>
</g>
</svg>
