<?xml version="1.0" encoding="utf-8"?>
<!-- Generator: Adobe Illustrator 19.2.0, SVG Export Plug-In . SVG Version: 6.00 Build 0)  -->
<svg version="1.1" id="Capa_1" xmlns="http://www.w3.org/2000/svg" xmlns:xlink="http://www.w3.org/1999/xlink" x="0px" y="0px"
	 width="25.5px" height="25.5px" viewBox="0 0 25.5 25.5" style="enable-background:new 0 0 25.5 25.5;" xml:space="preserve">
<style type="text/css">
	.st0{fill:#3CB696;}
	.st1{opacity:0.22;fill:#231F20;enable-background:new    ;}
	.st2{fill:#FFFFFF;}
	@-webkit-keyframes bounce {
		0%, 20%, 50%, 80%, 100% {-webkit-transform: translateY(0);} 
		40% {-webkit-transform: translateY(2px);}
		60% {-webkit-transform: translateY(2px);}
	}

	@-moz-keyframes bounce {
	0%, 20%, 50%, 80%, 100% {-moz-transform: translateY(0);}
	40% {-moz-transform: translateY(2px);}
	60% {-moz-transform: translateY(2px);}
	}

	@-o-keyframes bounce {
	0%, 20%, 50%, 80%, 100% {-o-transform: translateY(0);}
	40% {-o-transform: translateY(2px);}
	60% {-o-transform: translateY(2px);}
	}
	@keyframes bounce {
	0%, 20%, 50%, 80%, 100% {transform: translateY(0);}
	40% {transform: translateY(2px);}
	60% {transform: translateY(2px);}
	}

	@-webkit-keyframes rotate {
		0%, 20%, 50%, 80%, 100% {-webkit-transform: rotate(0deg);} 
		40% {-webkit-transform: rotate(-7deg);}
		60% {-webkit-transform: rotate(-7deg);}
	}

	@-moz-keyframes rotate {
	0%, 20%, 50%, 80%, 100% {-moz-transform: rotate(0deg);}
	40% {-moz-transform: rotate(-7deg);}
	60% {-moz-transform: rotate(-7deg);}
	}

	@-o-keyframes rotate {
	0%, 20%, 50%, 80%, 100% {-o-transform: rotate(0deg);}
	40% {-o-transform: rotate(-7deg);}
	60% {-o-transform: rotate(-7deg);}
	}
	@keyframes rotate {
	0%, 20%, 50%, 80%, 100% {transform: rotate(0deg);}
	40% {transform: rotate(-7deg);}
	60% {transform: rotate(-7deg);}
	}

	.bounce-1{
	  animation: bounce 2s infinite;
	 -webkit-animation: bounce 2s infinite;
	 -moz-animation: bounce 2s infinite;
	 -o-animation: bounce 2s infinite;
	}

	.bounce-2{
	  animation: bounce 2s infinite;
	 -webkit-animation: bounce 2s infinite;
	 -moz-animation: bounce 2s infinite;
	 -o-animation: bounce 2s infinite;
	 animation-delay: 0.6s;
	}
	.bounce-3{
	  animation: bounce 2s infinite;
	 -webkit-animation: bounce 2s infinite;
	 -moz-animation: bounce 2s infinite;
	 -o-animation: bounce 2s infinite;
	 animation-delay: 1.2s;
	}

	.rotate{
	  animation: rotate 3s infinite;
	 -webkit-animation: rotate 3s infinite;
	 -moz-animation: rotate 3s infinite;
	 -o-animation: rotate 3s infinite;
	}
</style>

<g>
	<circle class="st0" cx="12.7" cy="12.7" r="12.7"/>
	<path class="st1" d="M25.3,14.7l-8.9-8.9l-3.1,3.5l-2,0.8L9.2,8L7.5,9.8l1.9,1.9l-3.8,0.7v4.4l0.1,0.6l7.9,7.9
		C19.4,25,24.3,20.6,25.3,14.7z"/>
</g>
<g class="column-1 bounce-1">
	<path class="st2" d="M5.6,13.2c-0.1,0.1-0.1,0.2-0.1,0.3c0,0.4,0.9,1,2.3,1s2.3-0.6,2.3-1c0-0.1-0.1-0.2-0.1-0.3
		C8.6,14.1,6.9,14.1,5.6,13.2z"/>
	<path class="st2" d="M5.6,14.4c-0.1,0.1-0.1,0.2-0.1,0.3c0,0.4,0.9,1,2.3,1s2.3-0.6,2.3-1c0-0.1-0.1-0.2-0.1-0.3
		C8.6,15.3,6.9,15.3,5.6,14.4z"/>
	<path class="st2" d="M5.6,15.6c-0.1,0.1-0.1,0.2-0.1,0.3c0,0.4,0.9,1,2.3,1s2.3-0.6,2.3-1c0-0.1-0.1-0.2-0.1-0.3
		C8.6,16.5,6.9,16.5,5.6,15.6z"/>
	<path class="st2" d="M5.6,16.8c-0.1,0.1-0.1,0.2-0.1,0.3c0,0.4,0.9,1,2.3,1s2.3-0.6,2.3-1c0-0.1-0.1-0.2-0.1-0.3
		C8.6,17.7,6.9,17.7,5.6,16.8z"/>
	<path class="st2" d="M7.7,11.4c-1.4,0-2.3,0.6-2.3,1c0,0.4,0.9,1,2.3,1s2.3-0.6,2.3-1C10,11.9,9.1,11.4,7.7,11.4z"/>
</g>
<g class="column-2 bounce-3">
	<path class="st2" d="M15.6,10.8c-0.1,0.1-0.1,0.2-0.1,0.3c0,0.4,0.9,1,2.3,1c1.4,0,2.3-0.6,2.3-1c0-0.1-0.1-0.2-0.1-0.3
		C18.6,11.7,16.9,11.7,15.6,10.8z"/>
	<path class="st2" d="M15.6,12c-0.1,0.1-0.1,0.2-0.1,0.3c0,0.4,0.9,1,2.3,1c1.4,0,2.3-0.6,2.3-1c0-0.1-0.1-0.2-0.1-0.3
		C18.6,12.9,16.9,12.9,15.6,12z"/>
	<path class="st2" d="M15.6,13.2c-0.1,0.1-0.1,0.2-0.1,0.3c0,0.4,0.9,1,2.3,1c1.4,0,2.3-0.6,2.3-1c0-0.1-0.1-0.2-0.1-0.3
		C18.6,14.1,16.9,14.1,15.6,13.2z"/>
	<path class="st2" d="M15.6,14.4c-0.1,0.1-0.1,0.2-0.1,0.3c0,0.4,0.9,1,2.3,1c1.4,0,2.3-0.6,2.3-1c0-0.1-0.1-0.2-0.1-0.3
		C18.6,15.3,16.9,15.3,15.6,14.4z"/>
	<path class="st2" d="M17.8,8.9c-1.4,0-2.3,0.6-2.3,1s0.9,1,2.3,1c1.4,0,2.3-0.6,2.3-1S19.2,8.9,17.8,8.9z"/>
	
	<path class="st2" d="M15.6,15.6c-0.1,0.1-0.1,0.2-0.1,0.3c0,0.4,0.9,1,2.3,1c1.4,0,2.3-0.6,2.3-1c0-0.1-0.1-0.2-0.1-0.3
		C18.6,16.5,16.9,16.5,15.6,15.6z"/>

	<path class="st2" d="M15.6,16.8c-0.1,0.1-0.1,0.2-0.1,0.3c0,0.4,0.9,1,2.3,1c1.4,0,2.3-0.6,2.3-1c0-0.1-0.1-0.2-0.1-0.3
		C18.6,17.7,16.9,17.7,15.6,16.8z"/>
		</g>
<g class="column-3 bounce-2">
	<path class="st2" d="M10.6,15.6c-0.1,0.1-0.1,0.2-0.1,0.3c0,0.4,0.9,1,2.3,1s2.3-0.6,2.3-1c0-0.1-0.1-0.2-0.1-0.3
		C13.6,16.5,11.9,16.5,10.6,15.6L10.6,15.6z"/>
	<path class="st2" d="M10.6,16.8c-0.1,0.1-0.1,0.2-0.1,0.3c0,0.4,0.9,1,2.3,1s2.3-0.6,2.3-1c0-0.1-0.1-0.2-0.1-0.3
		C13.6,17.7,11.9,17.7,10.6,16.8z"/>
	<path class="st2" d="M12.7,13.7c-1.4,0-2.3,0.6-2.3,1s0.9,1,2.3,1s2.3-0.6,2.3-1S14.1,13.7,12.7,13.7z"/>
	
</g>
<path class="st2 rotate" d="M15.6,5.6c-0.7,0-1.2,0.6-1.2,1.2l0,0c0,0.2,0.1,0.4,0.2,0.6l-1.4,1.7c-0.6-0.3-1.2-0.1-1.6,0.4L9.6,9l0,0
		c0-0.7-0.6-1.2-1.2-1.2C7.7,7.8,7.1,8.3,7.1,9l0,0l0,0c0,0.1,0,0.2,0,0.2v0.1c0,0.1,0,0.1,0,0.2v0c0,0.1,0.1,0.1,0.1,0.2l0,0
		c0.2,0.2,0.4,0.4,0.6,0.5l0,0H8h0.1h0.2c0.1,0,0.3,0,0.4-0.1h0.1l0.1,0L9.1,10h0.1l0.1-0.1l0,0l2,0.6c0.1,0.7,0.7,1.2,1.4,1.1
		c0.7-0.1,1.2-0.7,1.1-1.4c0-0.1,0-0.3-0.1-0.4L15.1,8c0.6,0.2,1.4-0.1,1.6-0.7c0.2-0.6-0.1-1.4-0.7-1.6C15.8,5.6,15.6,5.6,15.6,5.6
		L15.6,5.6z" />
</svg>
