<?xml version="1.0" encoding="utf-8"?>
<!-- Generator: Adobe Illustrator 19.2.0, SVG Export Plug-In . SVG Version: 6.00 Build 0)  -->
<svg version="1.1" id="Capa_1" xmlns="http://www.w3.org/2000/svg" xmlns:xlink="http://www.w3.org/1999/xlink" x="0px" y="0px"
	width="25.5px" height="25.5px" viewBox="0 0 25.5 25.5" style="enable-background:new 0 0 25.5 25.5;" xml:space="preserve">
	<style type="text/css">
		.st0{fill:#6783BC;}
		.st1{opacity:0.22;fill:#231F20;enable-background:new    ;}
		.st2{fill:#FFFFFF;}
		@-webkit-keyframes bounce-1 {
		0%, 20%, 50%, 80%, 100% {-webkit-transform: translateY(0);} 
		40% {-webkit-transform: translateY(-2px);}
		60% {-webkit-transform: translateY(-2px);}
		}

		@-moz-keyframes bounce-1 {
		0%, 20%, 50%, 80%, 100% {-moz-transform: translateY(0);}
		40% {-moz-transform: translateY(-2px);}
		60% {-moz-transform: translateY(-2px);}
		}

		@-o-keyframes bounce-1 {
		0%, 20%, 50%, 80%, 100% {-o-transform: translateY(0);}
		40% {-o-transform: translateY(-2px);}
		60% {-o-transform: translateY(-2px);}
		}
		@keyframes bounce-1 {
		0%, 20%, 50%, 80%, 100% {transform: translateY(0);}
		40% {transform: translateY(-2px);}
		60% {transform: translateY(-2px);}
		}

		@-webkit-keyframes bounce-2 {
		0%, 20%, 50%, 80%, 100% {-webkit-transform: translateY(0);} 
		40% {-webkit-transform: translateY(2px);}
		60% {-webkit-transform: translateY(2px);}
		}

		@-moz-keyframes bounce-2 {
		0%, 20%, 50%, 80%, 100% {-moz-transform: translateY(0);}
		40% {-moz-transform: translateY(2px);}
		60% {-moz-transform: translateY(2px);}
		}

		@-o-keyframes bounce-2 {
		0%, 20%, 50%, 80%, 100% {-o-transform: translateY(0);}
		40% {-o-transform: translateY(2px);}
		60% {-o-transform: translateY(2px);}
		}
		@keyframes bounce-2 {
		0%, 20%, 50%, 80%, 100% {transform: translateY(0);}
		40% {transform: translateY(2px);}
		60% {transform: translateY(2px);}
		}

		.bounce-1{
		animation: bounce-1 2s infinite;
		-webkit-animation: bounce-1 2s infinite;
		-moz-animation: bounce-1 2s infinite;
		-o-animation: bounce-1 2s infinite;
		animation-delay: 0.8s;
		}
		.bounce-2{
		animation: bounce-2 2s infinite;
		-webkit-animation: bounce-2 2s infinite;
		-moz-animation: bounce-2 2s infinite;
		-o-animation: bounce-2 2s infinite;
		animation-delay: 0.8s;
		}
	</style>
	<circle class="st0" cx="12.7" cy="12.7" r="12.7"/>

	<path class="st1" d="M15.7,25.1c4.7-1.1,8.3-4.8,9.4-9.4L16.4,7L16,7.3l-2.6-2.6L12,6.5l0.8,0.8L9.4,8.4l-0.1,2.8l2,2l-2,1.3l3,3
		l-3.1,1.1L15.7,25.1z"/>
	<g class="bounce-1">

	<path class="st2" d="M16.5,7.8V7.2c0-0.2-0.2-0.4-0.4-0.4h-4.9C9.7,6.8,8.6,8,8.6,9.4S9.7,12,11.1,12h1.5c0.2,0,0.4,0.2,0.4,0.4l0,0
		v0.5c0,0.2,0.2,0.3,0.4,0.3c0.1,0,0.1,0,0.2,0l2.6-1.5c0.2-0.1,0.2-0.3,0.1-0.5c0,0-0.1-0.1-0.1-0.1l-2.6-1.5
		c-0.2-0.1-0.4,0-0.5,0.1c0,0.1,0,0.1,0,0.2v0.5c0,0.2-0.2,0.4-0.4,0.4l0,0h-1.5c-0.6,0-1.1-0.5-1.1-1.1c0-0.6,0.5-1.1,1.1-1.1H16
		C16.3,8.2,16.5,8.1,16.5,7.8L16.5,7.8z"/>
		<path class="st2" d="M12,6.6V5c0-0.2,0.2-0.4,0.4-0.4l0,0H13c0.2,0,0.4,0.2,0.4,0.4l0,0v1.6H12z"/>
	</g>
	<g class="bounce-2">
	<path class="st2" d="M9,17.7v0.6c0,0.2,0.2,0.4,0.4,0.4l0,0h4.9c1.4,0,2.6-1.1,2.6-2.6s-1.1-2.6-2.6-2.6h-1.5
			c-0.2,0-0.4-0.2-0.4-0.4l0,0v-0.5c0-0.2-0.2-0.3-0.4-0.3c-0.1,0-0.1,0-0.2,0L9.4,14c-0.2,0.1-0.2,0.3-0.1,0.5c0,0,0.1,0.1,0.1,0.1
			l2.6,1.5c0.2,0.1,0.4,0,0.5-0.1c0-0.1,0-0.1,0-0.2v-0.5c0-0.2,0.2-0.3,0.4-0.3h1.5c0.6,0,1.1,0.5,1.1,1.1c0,0.6-0.5,1.1-1.1,1.1h-5
			C9.2,17.2,9,17.4,9,17.7L9,17.7z"/>	
	<path class="st2" d="M13.5,18.9v1.6c0,0.2-0.2,0.4-0.4,0.4h-0.6c-0.2,0-0.4-0.2-0.4-0.4v-1.6H13.5z"/>
</g>
</svg>
