<?xml version="1.0" encoding="utf-8"?>
<!-- Generator: Adobe Illustrator 19.2.0, SVG Export Plug-In . SVG Version: 6.00 Build 0)  -->
<svg version="1.1" id="Capa_1" xmlns="http://www.w3.org/2000/svg" xmlns:xlink="http://www.w3.org/1999/xlink" x="0px" y="0px"
	 width="25.5px" height="25.5px" viewBox="0 0 25.5 25.5" style="enable-background:new 0 0 25.5 25.5;" xml:space="preserve">
<style type="text/css">
	.st0{fill:url(#SVGID_1_);}
	.st1{fill:url(#SVGID_2_);}
</style>
<g>
	
		<radialGradient id="SVGID_1_" cx="27.102" cy="2.93" r="10.638" gradientTransform="matrix(1 0 0 -1 -16.6 15.67)" gradientUnits="userSpaceOnUse">
		<stop  offset="0" style="stop-color:#F7B3D1"/>
		<stop  offset="0" style="stop-color:#F7B2CD"/>
		<stop  offset="4.000000e-02" style="stop-color:#F7ABA4"/>
		<stop  offset="9.000000e-02" style="stop-color:#F7A580"/>
		<stop  offset="0.14" style="stop-color:#F7A061"/>
		<stop  offset="0.19" style="stop-color:#F79B48"/>
		<stop  offset="0.25" style="stop-color:#F79835"/>
		<stop  offset="0.31" style="stop-color:#F79627"/>
		<stop  offset="0.4" style="stop-color:#F7941F"/>
		<stop  offset="0.56" style="stop-color:#F7941D"/>
		<stop  offset="0.57" style="stop-color:#F69024"/>
		<stop  offset="0.64" style="stop-color:#F28537"/>
		<stop  offset="0.71" style="stop-color:#EF7D44"/>
		<stop  offset="0.81" style="stop-color:#ED784C"/>
		<stop  offset="1" style="stop-color:#ED774E"/>
	</radialGradient>
	<path class="st0" d="M8.2,2.3L8.2,2.3c-5.8,1.4-9.3,7.2-7.9,13c1.4,5.8,7.2,9.3,13,7.9l0,0c1.2-0.3,2.3-0.8,3.3-1.4
		c-0.7-0.4-1.3-1-1.8-1.6c-0.2,0.6-0.6,1.1-1.2,1.5l-1.3-5.5l1.1-0.3c0-0.5,0.1-0.9,0.2-1.4L12,14.9l-1.1-4.6l3.5-0.9
		c0.3,0.7,0.5,1.4,0.7,2.1c0.3-0.4,0.7-0.7,1.1-1c-0.1-0.5-0.3-1-0.5-1.5l3.5-0.9c0.2,0.4,0.4,0.7,0.5,1.1c0.5,0,0.9,0,1.4,0.1
		C19.2,4.1,13.7,1,8.2,2.3z M5.6,4.8c-0.7,1.8-1,3.7-0.9,5.6l-3.3,0.8C1.9,8.6,3.4,6.3,5.6,4.8L5.6,4.8z M1.6,15
		c-0.2-0.8-0.3-1.6-0.3-2.4l3.5-0.9c0.1,0.8,0.2,1.6,0.4,2.3c0.2,0.8,0.4,1.5,0.7,2.3l-3.5,0.9C2.1,16.5,1.8,15.7,1.6,15z M3.2,18.3
		l3.3-0.8c0.7,1.8,1.9,3.3,3.3,4.6C7.1,21.9,4.7,20.5,3.2,18.3L3.2,18.3z M12.3,22c-1.5-0.2-3.3-1.9-4.6-4.7l3.3-0.8L12.3,22z
		 M10.7,15.2l-3.5,0.9c-0.6-1.5-0.9-3-1.1-4.6l3.5-0.9L10.7,15.2z M9.3,9.3L6,10.1C5.9,7,6.8,4.6,8,3.8L9.3,9.3z M10.6,9L9.2,3.5
		c1.5,0.2,3.3,1.9,4.6,4.7L10.6,9z M15.1,7.9c-0.7-1.8-1.9-3.3-3.3-4.6c2.6,0.3,5,1.7,6.6,3.8L15.1,7.9z"/>
	
		<radialGradient id="SVGID_2_" cx="36.5793" cy="-0.3661" r="5.4838" gradientTransform="matrix(1 0 0 -1 -16.6 15.67)" gradientUnits="userSpaceOnUse">
		<stop  offset="0" style="stop-color:#F7B3D1"/>
		<stop  offset="0" style="stop-color:#F7B2CD"/>
		<stop  offset="4.000000e-02" style="stop-color:#F7ABA4"/>
		<stop  offset="9.000000e-02" style="stop-color:#F7A580"/>
		<stop  offset="0.14" style="stop-color:#F7A061"/>
		<stop  offset="0.19" style="stop-color:#F79B48"/>
		<stop  offset="0.25" style="stop-color:#F79835"/>
		<stop  offset="0.31" style="stop-color:#F79627"/>
		<stop  offset="0.4" style="stop-color:#F7941F"/>
		<stop  offset="0.56" style="stop-color:#F7941D"/>
		<stop  offset="0.56" style="stop-color:#F79420"/>
		<stop  offset="0.59" style="stop-color:#F69543"/>
		<stop  offset="0.63" style="stop-color:#F69661"/>
		<stop  offset="0.68" style="stop-color:#F6977A"/>
		<stop  offset="0.73" style="stop-color:#F5978D"/>
		<stop  offset="0.78" style="stop-color:#F5989A"/>
		<stop  offset="0.86" style="stop-color:#F598A2"/>
		<stop  offset="1" style="stop-color:#F598A4"/>
	</radialGradient>
	<path class="st1" d="M24.3,13.9c-0.5,0.1-0.9-0.2-1-0.7c0-0.2,0-0.4,0.1-0.6l0.4-0.6l-1.8-1.1l-0.4,0.6c-0.3,0.4-0.8,0.5-1.2,0.3
		c-0.2-0.1-0.3-0.3-0.4-0.5l-0.2-0.7l-2.1,0.5l0.2,0.7c0.1,0.5-0.2,0.9-0.7,1c-0.2,0-0.4,0-0.6-0.1L16,12.3l-1.1,1.8l0.6,0.4
		c0.4,0.3,0.5,0.8,0.3,1.2c-0.1,0.2-0.3,0.3-0.5,0.4l-0.7,0.2l0.5,2.1l0.7-0.2c0.5-0.1,0.9,0.2,1,0.7c0,0.2,0,0.4-0.1,0.6l-0.4,0.6
		l1.8,1.1l0.4-0.6c0.3-0.4,0.8-0.5,1.2-0.3c0.2,0.1,0.3,0.3,0.4,0.5l0.2,0.7l2.1-0.5l-0.2-0.7c-0.1-0.5,0.2-0.9,0.7-1
		c0.2,0,0.4,0,0.6,0.1l0.6,0.4l1.1-1.8l-0.6-0.4c-0.4-0.3-0.5-0.8-0.3-1.2c0.1-0.2,0.3-0.3,0.5-0.4l0.7-0.2l-0.5-2.1L24.3,13.9z
		 M20.5,18.1c-1.2,0.3-2.3-0.5-2.6-1.6s0.5-2.3,1.6-2.6c1.1-0.3,2.3,0.4,2.6,1.6C22.4,16.6,21.7,17.8,20.5,18.1
		C20.5,18.1,20.5,18.1,20.5,18.1z"/>
</g>
</svg>
