<?xml version="1.0" encoding="utf-8"?>
<!-- Generator: Adobe Illustrator 19.2.0, SVG Export Plug-In . SVG Version: 6.00 Build 0)  -->
<svg version="1.1" id="Capa_1" xmlns="http://www.w3.org/2000/svg" xmlns:xlink="http://www.w3.org/1999/xlink" x="0px" y="0px"
	 width="25.5px" height="25.5px" viewBox="0 0 25.5 25.5" style="enable-background:new 0 0 25.5 25.5;" xml:space="preserve">
<style type="text/css">
	.st0{fill:#6783BC;}
	.st1{opacity:0.22;fill:#231F20;enable-background:new    ;}
	.st2{fill:#FFFFFF;}
	@-webkit-keyframes bounce {
 0%, 20%, 50%, 80%, 100% {-webkit-transform: translateY(0);} 
 40% {-webkit-transform: translateY(-3px);}
 60% {-webkit-transform: translateY(-3px);}
}
 
@-moz-keyframes bounce {
 0%, 20%, 50%, 80%, 100% {-moz-transform: translateY(0);}
 40% {-moz-transform: translateY(-3px);}
 60% {-moz-transform: translateY(-3px);}
}
 
@-o-keyframes bounce {
 0%, 20%, 50%, 80%, 100% {-o-transform: translateY(0);}
 40% {-o-transform: translateY(-3px);}
 60% {-o-transform: translateY(-3px);}
}
@keyframes bounce {
 0%, 20%, 50%, 80%, 100% {transform: translateY(0);}
 40% {transform: translateY(-3px);}
 60% {transform: translateY(-3px);}
}

.bounce-1{
  animation: bounce 2s infinite;
 -webkit-animation: bounce 2s infinite;
 -moz-animation: bounce 2s infinite;
 -o-animation: bounce 2s infinite;
}

.bounce-2{
  animation: bounce 2s infinite;
 -webkit-animation: bounce 2s infinite;
 -moz-animation: bounce 2s infinite;
 -o-animation: bounce 2s infinite;
 animation-delay: 0.6s;
}
.bounce-3{
  animation: bounce 2s infinite;
 -webkit-animation: bounce 2s infinite;
 -moz-animation: bounce 2s infinite;
 -o-animation: bounce 2s infinite;
 animation-delay: 1.2s;
}
</style>

	<circle class="st0" cx="12.8" cy="12.8" r="12.7"/>
<g>	
	<path class="st1" d="M14.9,25.3c5.3-0.9,9.4-5,10.4-10.2l-4.9-4.9h-0.1L20,9.9l-1.3,0.9l-2-2l-3.9-1.6L9.3,9.1l-1.7,2.6l-0.8-0.8
		H6.8l-0.2-0.2l-1.2,2.5l0.8,0.8l-2,0.6L14.9,25.3z"/>
	<path class="st2 bounce-2" d="M12.4,8.2c-2.1,0.1-3.8,1.9-3.7,4.1c0.1,2.1,1.9,3.8,4.1,3.7s3.8-1.9,3.7-4.1c0,0,0,0,0,0
		C16.4,9.7,14.6,8.1,12.4,8.2C12.4,8.2,12.4,8.2,12.4,8.2L12.4,8.2z M12.9,17.3c-2.9,0.1-5.3-2.1-5.4-4.9S9.6,7,12.4,6.9
		c2.9-0.1,5.3,2.1,5.4,4.9C18,14.7,15.8,17.1,12.9,17.3L12.9,17.3z"/>
	<path class="st2 bounce-2" d="M20.7,19.4c-0.3,0.3-0.7,0.3-0.9,0l-4.1-3.7c-0.3-0.2-0.3-0.7-0.1-0.9c0.2-0.3,0.7-0.3,0.9-0.1l0,0l4.1,3.7
		C20.9,18.6,20.9,19.1,20.7,19.4L20.7,19.4z"/>
	<path class="st2 bounce-2" d="M11.4,11.5L11.4,11.5l0.1,0.8c0.2,0.6,0.8,1,1.4,0.8c0.5-0.1,0.8-0.5,0.9-1l0-0.8c0.1-0.2,0.2-0.4,0.1-0.7
		c-0.1-1.2-0.5-0.8-0.5-0.8s-0.1-0.6-1.1-0.6c-0.5,0-0.9,0.3-1.2,0.7l0.2,0.1c-0.1,0.1-0.2,0.2-0.2,0.4c-0.1,0.2-0.1,0.4,0,0.6
		C11.3,11.2,11.2,11.3,11.4,11.5L11.4,11.5z"/>
	<path class="st2 bounce-2" d="M12.9,15.5c1.1-0.1,2.1-0.7,2.7-1.6l0,0c-0.1-0.3-0.4-0.5-0.8-0.5h-0.1h-2h-0.1l-1.9,0.2h-0.1
		c-0.3,0-0.6,0.3-0.7,0.6v0.1C10.7,15.1,11.8,15.5,12.9,15.5z"/>
	<path class="st2 bounce-3" d="M18.4,11.3L18.4,11.3l0.1,0.6c0.1,0.5,0.6,0.8,1.1,0.7c0.4-0.1,0.6-0.4,0.7-0.8v-0.6c0.1-0.2,0.1-0.3,0.1-0.5
		C20.4,9.8,20,10,20,10s-0.1-0.5-0.8-0.5c-0.4,0-0.7,0.2-0.9,0.6l0.2,0.1c-0.1,0.1-0.2,0.2-0.2,0.3c0,0.2,0,0.3,0,0.5
		C18.3,11.1,18.2,11.2,18.4,11.3L18.4,11.3z"/>
	<path class="st2 bounce-3" d="M19.5,14.5c0.9,0,1.7-0.5,2.1-1.3l0,0c-0.1-0.2-0.3-0.4-0.6-0.4h0h-1.6h-0.1L18,13h-0.1
		c-0.3,0-0.5,0.2-0.5,0.5v0.1C17.9,14.2,18.7,14.5,19.5,14.5L19.5,14.5z"/>
	<path class="st2 bounce-1" d="M4.9,12L4.9,12L5,12.7c0.1,0.5,0.6,0.8,1.1,0.7c0.4-0.1,0.6-0.4,0.7-0.8v-0.6c0.1-0.2,0.1-0.3,0.1-0.5
		c0-0.9-0.4-0.6-0.4-0.6s-0.1-0.5-0.8-0.5c-0.3,0.1-0.6,0.3-0.8,0.6L5,10.9c-0.1,0.1-0.2,0.2-0.2,0.3c0,0.2,0,0.3,0,0.5
		C4.9,11.8,4.8,11.9,4.9,12L4.9,12z"/>
	<path class="st2 bounce-1" d="M6.1,15.2c0.9,0,1.7-0.5,2.1-1.3l0,0c-0.1-0.2-0.3-0.4-0.6-0.4h0H6H5.9l-1.5,0.1H4.4c-0.3,0-0.5,0.2-0.5,0.5
		v0.1C4.3,14.9,5.2,15.2,6.1,15.2L6.1,15.2z"/>
</g>
</svg>
