<?xml version="1.0" encoding="utf-8"?>
<!-- Generator: Adobe Illustrator 19.2.0, SVG Export Plug-In . SVG Version: 6.00 Build 0)  -->
<svg version="1.1" id="Capa_1" xmlns="http://www.w3.org/2000/svg" xmlns:xlink="http://www.w3.org/1999/xlink" x="0px" y="0px"
	 width="51.7px" height="50px" viewBox="0 0 51.7 50" style="enable-background:new 0 0 51.7 50;" xml:space="preserve">
<style type="text/css">
	.st0{fill:#F26E49;}
	.st1{fill:#FFFFFF;}
	@-webkit-keyframes bounce {
		0%, 20%, 50%, 80%, 100% {-webkit-transform: translateY(0);} 
		40% {-webkit-transform: translateY(-3px);}
		60% {-webkit-transform: translateY(-3px);}
		}

		@-moz-keyframes bounce {
		0%, 20%, 50%, 80%, 100% {-moz-transform: translateY(0);}
		40% {-moz-transform: translateY(-3px);}
		60% {-moz-transform: translateY(-3px);}
		}

		@-o-keyframes bounce {
		0%, 20%, 50%, 80%, 100% {-o-transform: translateY(0);}
		40% {-o-transform: translateY(-3px);}
		60% {-o-transform: translateY(-3px);}
		}
		@keyframes bounce {
		0%, 20%, 50%, 80%, 100% {transform: translateY(0);}
		40% {transform: translateY(-3px);}
		60% {transform: translateY(-3px);}
		}

		@-webkit-keyframes bounce-2 {
		0%, 20%, 50%, 80%, 100% {-webkit-transform: translateY(0);} 
		40% {-webkit-transform: translateY(3px);}
		60% {-webkit-transform: translateY(3px);}
		}

		@-moz-keyframes bounce-2 {
		0%, 20%, 50%, 80%, 100% {-moz-transform: translateY(0);}
		40% {-moz-transform: translateY(3px);}
		60% {-moz-transform: translateY(3px);}
		}

		@-o-keyframes bounce-2 {
		0%, 20%, 50%, 80%, 100% {-o-transform: translateY(0);}
		40% {-o-transform: translateY(3px);}
		60% {-o-transform: translateY(3px);}
		}
		@keyframes bounce-2 {
		0%, 20%, 50%, 80%, 100% {transform: translateY(0);}
		40% {transform: translateY(3px);}
		60% {transform: translateY(3px);}
		}

		.bounce-1{
		animation: bounce 2s infinite;
		-webkit-animation: bounce 2s infinite;
		-moz-animation: bounce 2s infinite;
		-o-animation: bounce 2s infinite;
		animation-delay: 0.6s;
		}
		.bounce-2{
		animation: bounce-2 2s infinite;
		-webkit-animation: bounce-2 2s infinite;
		-moz-animation: bounce-2 2s infinite;
		-o-animation: bounce-2 2s infinite;
		animation-delay: 0.6s;
		}
</style>
<title>SHIFT_FINAL ICONS_technology</title>
<circle class="st0" cx="25.9" cy="25" r="25"/>
<g class="bounce-2">
	<path class="st1" d="M39.8,31.7c0-1.5-0.6-2.9-1.6-3.9c-2.6,3.7-7.5,6.3-13.1,6.3c-0.5,0-1,0-1.5-0.1c1.2,2.6,4.2,4.4,7.8,4.4
		c1,0,2-0.1,3-0.4c1.5,1,3.4,1.4,5.2,1c-1.1-0.5-1.9-1.4-2.4-2.4C38.9,35.3,39.8,33.6,39.8,31.7z"/>
</g>
<g class="bounce-1">	
	<circle class="st1" cx="28.3" cy="24.7" r="1.3"/>
	<circle class="st1" cx="28.3" cy="24.7" r="1.3"/>
	<circle class="st1" cx="22.1" cy="18.5" r="1.3"/>
	<path class="st1" d="M25.2,11c-7.4,0-13.3,4.8-13.3,10.7c0.1,3.1,1.6,5.9,4.1,7.7c-0.7,1.7-2.1,3.1-3.8,3.9c2.9,0.6,5.8,0,8.3-1.6
		c1.5,0.5,3.1,0.7,4.8,0.7c7.4,0,13.3-4.8,13.3-10.7S32.5,11,25.2,11z M19.3,18.5c0-1.5,1.3-2.8,2.8-2.8s2.8,1.3,2.8,2.8
		c0,1.5-1.3,2.8-2.8,2.8C20.6,21.3,19.3,20.1,19.3,18.5C19.3,18.5,19.3,18.5,19.3,18.5z M21.7,26.3c-0.4,0.3-0.9,0.2-1.2-0.1
		c-0.2-0.3-0.2-0.7,0-1l8.5-8.6c0.2-0.2,0.4-0.2,0.6-0.2c0.2,0,0.4,0.1,0.6,0.2c0.3,0.3,0.3,0.9,0,1.2c0,0,0,0,0,0L21.7,26.3z
		 M28.3,27.5c-1.5,0-2.8-1.3-2.8-2.8c0-1.5,1.3-2.8,2.8-2.8c1.5,0,2.8,1.3,2.8,2.8C31.1,26.2,29.8,27.5,28.3,27.5L28.3,27.5z"/>
</g>
</svg>
