<?xml version="1.0" encoding="utf-8"?>
<!-- Generator: Adobe Illustrator 19.2.0, SVG Export Plug-In . SVG Version: 6.00 Build 0)  -->
<svg version="1.1" id="Capa_1" xmlns="http://www.w3.org/2000/svg" xmlns:xlink="http://www.w3.org/1999/xlink" x="0px" y="0px"
	 width="51.7px" height="50.4px" viewBox="0 0 51.7 50.4" style="enable-background:new 0 0 51.7 50.4;" xml:space="preserve">
<style type="text/css">
	.st0{fill:#3CB696;}
	.st1{opacity:0.22;fill:#231F20;enable-background:new    ;}
	.st2{fill:#FFFFFF;}
	@-webkit-keyframes bounce {
		0%, 20%, 50%, 80%, 100% {-webkit-transform: translateX(0);} 
		40% {-webkit-transform: translateX(-3px);}
		60% {-webkit-transform: translateX(-3px);}
		}

		@-moz-keyframes bounce {
		0%, 20%, 50%, 80%, 100% {-moz-transform: translateX(0);}
		40% {-moz-transform: translateX(-3px);}
		60% {-moz-transform: translateX(-3px);}
		}

		@-o-keyframes bounce {
		0%, 20%, 50%, 80%, 100% {-o-transform: translateX(0);}
		40% {-o-transform: translateX(-3px);}
		60% {-o-transform: translateX(-3px);}
		}
		@keyframes bounce {
		0%, 20%, 50%, 80%, 100% {transform: translateX(0);}
		40% {transform: translateX(-3px);}
		60% {transform: translateX(-3px);}
		}

		@-webkit-keyframes bounce-2 {
		0%, 20%, 50%, 80%, 100% {-webkit-transform: translateX(0);} 
		40% {-webkit-transform: translateX(3px);}
		60% {-webkit-transform: translateX(3px);}
		}

		@-moz-keyframes bounce-2 {
		0%, 20%, 50%, 80%, 100% {-moz-transform: translateX(0);}
		40% {-moz-transform: translateX(3px);}
		60% {-moz-transform: translateX(3px);}
		}

		@-o-keyframes bounce-2 {
		0%, 20%, 50%, 80%, 100% {-o-transform: translateX(0);}
		40% {-o-transform: translateX(3px);}
		60% {-o-transform: translateX(3px);}
		}
		@keyframes bounce-2 {
		0%, 20%, 50%, 80%, 100% {transform: translateX(0);}
		40% {transform: translateX(3px);}
		60% {transform: translateX(3px);}
		}

		.bounce-1{
		animation: bounce 2s infinite;
		-webkit-animation: bounce 2s infinite;
		-moz-animation: bounce 2s infinite;
		-o-animation: bounce 2s infinite;
		animation-delay: 0.6s;
		}
		.bounce-2{
		animation: bounce-2 2s infinite;
		-webkit-animation: bounce-2 2s infinite;
		-moz-animation: bounce-2 2s infinite;
		-o-animation: bounce-2 2s infinite;
		animation-delay: 0.6s;
		}
</style>
<title>SHIFT_FINAL ICONS_technology</title>
<circle class="st0" cx="25.9" cy="25.2" r="25.2"/>
	<path class="st1" d="M35.6,15.9L32.9,16l-3.6-3.6l-3.1,3.8l-2-2l-5.8,1.5l2,2l-4.6,1.5l2.1,2.1l-3.7,1.3l2.3,2.3L12.7,26l3.1,3.1
		l-1.6,0.3l1.9,1.9l-0.4,1.5l2.7,2.7v0.8l13.3,13.3c9.3-2.3,16.6-9.6,18.7-19L35.6,15.9z"/>
<g class="bounce-2">	
	<path class="st2" d="M26.2,20.5L26.2,20.5c2.6,0,4.7,2.1,4.7,4.7c0,2.6-2.1,4.7-4.7,4.7l0,0l0,0v5.4c0.1,0,0.3,0.1,0.3,0.3
		c0.1,0.6,0.3,2,0.5,2.5c0,0.1,0.2,0.2,0.3,0.2c0.7-0.1,1.4-0.2,2.1-0.3c0.3-0.1,0.3-0.2,0.2-0.3c0-0.6-0.2-1.9-0.3-2.5
		c0-0.2,0-0.3,0.2-0.4l0.7-0.2c0.2-0.1,0.4-0.2,0.4-0.2l0.4-0.2c0.2-0.1,0.5-0.3,0.6-0.4c0.1-0.1,0.3,0,0.4,0.1
		c0.4,0.5,1.3,1.5,1.7,1.8c0.1,0.1,0.3,0.1,0.4,0c0,0,0,0,0,0c0.6-0.4,1.1-0.9,1.6-1.4c0.1-0.1,0.1-0.3,0-0.4
		c-0.3-0.4-1.2-1.5-1.6-2c-0.1-0.1-0.1-0.3,0-0.4c0.2-0.2,0.7-1,0.7-1c0.2-0.3,0.4-0.7,0.6-1c0.1-0.1,0.2-0.2,0.4-0.1
		c0.6,0.2,1.9,0.5,2.5,0.6c0.1,0,0.3-0.1,0.3-0.2c0,0,0,0,0,0c0-0.1,0.2-0.5,0.3-1s0.2-0.9,0.2-1c0-0.1,0-0.3-0.2-0.4
		c-0.5-0.2-1.8-0.6-2.4-0.8c-0.1,0-0.2-0.2-0.2-0.3c0-0.3,0.1-1.2,0-1.2v-0.5c0-0.2,0-0.5-0.1-0.7c0-0.2,0.1-0.3,0.2-0.3
		c0.6-0.2,1.9-0.6,2.4-0.8c0.1,0,0.2-0.2,0.2-0.3c0,0,0,0,0,0l-0.3-1l-0.4-1c0-0.1-0.2-0.2-0.3-0.2c0,0,0,0,0,0
		c-0.5,0.1-1.9,0.5-2.5,0.7c-0.1,0.1-0.3,0-0.4-0.1c-0.1-0.2-0.2-0.4-0.3-0.6l-0.2-0.4c0,0-0.5-0.7-0.7-1c-0.1-0.1-0.1-0.3,0-0.4
		c0.4-0.4,1.2-1.5,1.6-2c0.1-0.1,0.1-0.3,0-0.4c-0.1-0.1-0.4-0.4-0.8-0.7s-0.8-0.6-0.8-0.6c-0.1-0.1-0.3-0.1-0.4,0c0,0,0,0,0,0
		c-0.4,0.4-1.3,1.4-1.7,1.9c-0.1,0.1-0.3,0.2-0.4,0.1c-0.3-0.2-0.7-0.4-1.1-0.6c0,0-0.8-0.3-1.1-0.4c-0.1,0-0.2-0.2-0.2-0.3
		c0.1-0.6,0.2-2,0.2-2.5c0-0.2-0.1-0.3-0.3-0.3c-0.7-0.1-1.4-0.2-2.1-0.3c-0.2,0-0.3,0.1-0.3,0.2c0,0,0,0,0,0
		c-0.1,0.5-0.3,1.9-0.4,2.5c0,0,0,0,0,0.1L26.2,20.5z"/>
</g>
<g class="bounce-1">
	<path class="st2" d="M23.6,15.9h-4.4c-0.6,0-1-0.4-1-1s0.4-1,1-1h4.4c0.6,0,1,0.4,1,1S24.1,15.9,23.6,15.9z"/>
	<path class="st2" d="M23.6,19.4h-7.1c-0.6,0-1-0.4-1-1s0.4-1,1-1h7.1c0.6,0,1,0.4,1,1S24.1,19.4,23.6,19.4z"/>
	<path class="st2" d="M23.6,22.8h-8.7c-0.6,0-1-0.4-1-1s0.4-1,1-1h8.7c0.6,0,1,0.4,1,1S24.1,22.8,23.6,22.8z"/>
	<path class="st2" d="M23.6,26.3H13.4c-0.6,0-1-0.4-1-1s0.4-1,1-1h10.2c0.6,0,1,0.4,1,1S24.1,26.3,23.6,26.3z"/>
	<path class="st2" d="M23.6,36.8h-4.4c-0.6,0-1-0.4-1-1s0.4-1,1-1h4.4c0.6,0,1,0.4,1,1S24.1,36.8,23.6,36.8z"/>
	<path class="st2" d="M23.6,33.4h-7.1c-0.6,0-1-0.4-1-1s0.4-1,1-1h7.1c0.6,0,1,0.4,1,1S24.1,33.4,23.6,33.4z"/>
	<path class="st2" d="M23.6,29.8h-8.7c-0.6,0-1-0.4-1-1s0.4-1,1-1h8.7c0.6,0,1,0.4,1,1S24.1,29.8,23.6,29.8z"/>
</g>
</svg>
