<?xml version="1.0" encoding="utf-8"?>
<!-- Generator: Adobe Illustrator 19.2.0, SVG Export Plug-In . SVG Version: 6.00 Build 0)  -->
<svg version="1.1" id="Capa_1" xmlns="http://www.w3.org/2000/svg" xmlns:xlink="http://www.w3.org/1999/xlink" x="0px" y="0px"
	 width="51.7px" height="50.4px" viewBox="0 0 51.7 50.4" style="enable-background:new 0 0 51.7 50.4;" xml:space="preserve">
<style type="text/css">
	.st0{fill:#5C6FB3;}
	.st1{opacity:0.22;fill:#231F20;enable-background:new    ;}
	.st2{fill:#FFFFFF;}
	@-webkit-keyframes rotating /* Safari and Chrome */ {
  from {
    -webkit-transform: rotate(0deg);
    -o-transform: rotate(0deg);
    transform: rotate(0deg);
  }
  to {
    -webkit-transform: rotate(360deg);
    -o-transform: rotate(360deg);
    transform: rotate(360deg);
  }
}
@keyframes rotating {
  from {
    -ms-transform: rotate(0deg);
    -moz-transform: rotate(0deg);
    -webkit-transform: rotate(0deg);
    -o-transform: rotate(0deg);
    transform: rotate(0deg);
  }
  to {
    -ms-transform: rotate(360deg);
    -moz-transform: rotate(360deg);
    -webkit-transform: rotate(360deg);
    -o-transform: rotate(360deg);
    transform: rotate(360deg);
  }
}
.rotating {
  -webkit-animation: rotating 4s linear infinite;
  -moz-animation: rotating 4s linear infinite;
  -ms-animation: rotating 4s linear infinite;
  -o-animation: rotating 4s linear infinite;
  animation: rotating 4s linear infinite;
}
</style>
<title>SHIFT_FINAL ICONS_technology</title>
<circle class="st0" cx="26.5" cy="25.2" r="25.2"/>
	<path class="st1" d="M30,50.2c11.1-1.6,19.9-10.3,21.5-21.5L37.2,14.5l-3.4,2.8l-7.1-7.1l-2,3.2l1.1,1.1l0.6,2.5l-3.3,2.2l-3.8-3.8
		L16.7,18l4.4,4.4l-0.5,1.6L16.2,25l-1.6-1.6l-3.1,2.1l7.2,7.2l-2.9,3.2L30,50.2z"/>
<g class="bounce rotating" style="transform-origin: 50% 50%;">	
	<path class="st2" d="M27.2,29.4v1.4h-1v-1.3c-0.5,0-1-0.1-1.5-0.3c-0.5-0.2-1-0.4-1.4-0.8l1-1.7c0.6,0.5,1.3,0.9,2.1,1
		c0.5,0,1.1-0.3,1.1-0.8s-0.9-0.7-1.8-1.1c-1.1-0.2-1.8-1.1-1.8-2.2c0-1.4,1-2.5,2.3-2.7v-1.4h1v1.4c0.7,0,1.5,0.3,2.1,0.7l-0.9,1.6
		c-0.4-0.3-0.9-0.5-1.5-0.5c-0.5,0-1,0.2-1,0.6s0.7,0.8,1.1,0.9c1.3,0.4,2.5,0.9,2.5,2.5S28.8,29.1,27.2,29.4z M41.5,24.9l-2.7-1.6
		c-0.2-0.1-0.4,0-0.5,0.1c0,0.1,0,0.1,0,0.2v0.2c0,0.2-0.2,0.3-0.3,0.3l0,0h-3.5c-0.2-1.4-0.7-2.7-1.6-3.8l2.5-2.5
		c0.1-0.1,0.3-0.1,0.5,0l0.1,0.1c0.1,0.1,0.3,0.1,0.5,0c0,0,0.1-0.1,0.1-0.2l0.8-3c0.1-0.2,0-0.4-0.1-0.5c-0.1-0.1-0.2-0.1-0.3,0
		l-3,0.8c-0.2,0-0.3,0.2-0.2,0.4c0,0.1,0,0.1,0.1,0.2l0.1,0.1c0.1,0.1,0.1,0.3,0,0.5l-2.5,2.5c-1.1-0.8-2.4-1.4-3.8-1.6v-3.5
		c0-0.2,0.2-0.3,0.3-0.3l0,0h0.2c0.2,0,0.3-0.2,0.3-0.3c0-0.1,0-0.1,0-0.2l-1.6-2.7c-0.1-0.2-0.3-0.2-0.5-0.1
		c-0.1,0-0.1,0.1-0.1,0.1l-1.6,2.7c-0.1,0.2,0,0.4,0.1,0.5c0.1,0,0.1,0,0.2,0h0.1c0.2,0,0.3,0.2,0.3,0.3v3.5
		c-1.4,0.2-2.7,0.7-3.8,1.6l-2.5-2.4c-0.1-0.1-0.1-0.3,0-0.5l0.1-0.1c0.1-0.1,0.1-0.3,0-0.5c0,0-0.1-0.1-0.2-0.1l-3-0.8
		c-0.2,0-0.4,0.1-0.4,0.3c0,0.1,0,0.1,0,0.2l0.8,3c0,0.2,0.2,0.3,0.4,0.2c0.1,0,0.1,0,0.2-0.1l0.1-0.1c0.1-0.1,0.3-0.1,0.5,0
		l2.4,2.5c-0.8,1.1-1.4,2.4-1.6,3.8H15c-0.2,0-0.3-0.2-0.3-0.3l0,0v-0.2c0-0.2-0.2-0.3-0.4-0.3c0,0-0.1,0-0.1,0l-2.7,1.6
		c-0.2,0.1-0.2,0.3-0.1,0.5c0,0.1,0.1,0.1,0.1,0.1l2.7,1.5c0.2,0.1,0.4,0,0.5-0.1c0-0.1,0-0.1,0-0.2v-0.2c0-0.2,0.2-0.3,0.3-0.3l0,0
		h3.5c0.2,1.4,0.7,2.7,1.5,3.8l-2.5,2.5c-0.1,0.1-0.3,0.1-0.5,0L17,32.4c-0.1-0.1-0.3-0.1-0.5,0c0,0-0.1,0.1-0.1,0.2l-0.8,3
		c0,0.2,0.1,0.4,0.3,0.4c0.1,0,0.1,0,0.2,0l3-0.8c0.2,0,0.3-0.2,0.2-0.4c0-0.1,0-0.1-0.1-0.2l0-0.1c-0.1-0.1-0.1-0.3,0-0.5l2.5-2.5
		c1.1,0.8,2.4,1.4,3.8,1.6v3.5c0,0.2-0.2,0.3-0.3,0.3l0,0H25c-0.2,0-0.3,0.2-0.3,0.3c0,0.1,0,0.1,0,0.2l1.5,2.7
		c0.1,0.2,0.3,0.2,0.5,0.1c0.1,0,0.1-0.1,0.1-0.1l1.6-2.7c0.1-0.2,0-0.4-0.1-0.5c-0.1,0-0.1,0-0.2,0h-0.2c-0.2,0-0.3-0.2-0.3-0.3
		l0,0v-3.5c1.4-0.2,2.7-0.7,3.8-1.6l2.5,2.5c0.1,0.1,0.1,0.3,0,0.5l-0.1,0.1c-0.1,0.1-0.1,0.3,0,0.5c0,0,0.1,0.1,0.2,0.1l3,0.8
		c0.2,0,0.4-0.1,0.4-0.3c0-0.1,0-0.1,0-0.2l-0.8-3c0-0.2-0.2-0.3-0.4-0.2c-0.1,0-0.1,0-0.2,0.1l-0.1,0.1c-0.1,0.1-0.3,0.1-0.5,0
		l-2.4-2.5c0.8-1.1,1.4-2.4,1.6-3.8h3.5c0.2,0,0.3,0.2,0.3,0.3l0,0v0.2c0,0.2,0.2,0.3,0.3,0.3c0.1,0,0.1,0,0.2,0l2.7-1.6
		c0.2-0.1,0.2-0.3,0.1-0.5C41.6,25,41.6,24.9,41.5,24.9L41.5,24.9z"/>
</g>
</svg>
