<?xml version="1.0" encoding="utf-8"?>
<!-- Generator: Adobe Illustrator 19.2.0, SVG Export Plug-In . SVG Version: 6.00 Build 0)  -->
<svg version="1.1" id="Capa_1" xmlns="http://www.w3.org/2000/svg" xmlns:xlink="http://www.w3.org/1999/xlink" x="0px" y="0px"
	 width="51.7px" height="50.4px" viewBox="0 0 51.7 50.4" style="enable-background:new 0 0 51.7 50.4;" xml:space="preserve">
<style type="text/css">
	.st0{fill:#4167AE;}
	.st1{opacity:0.22;fill:#231F20;enable-background:new    ;}
	.st2{fill:#FFFFFF;}
	@-webkit-keyframes bounce {
		0%, 20%, 50%, 80%, 100% {-webkit-transform: translateY(0);} 
		40% {-webkit-transform: translateY(-2px);}
		60% {-webkit-transform: translateY(-2px);}
		}

		@-moz-keyframes bounce {
		0%, 20%, 50%, 80%, 100% {-moz-transform: translateY(0);}
		40% {-moz-transform: translateY(-2px);}
		60% {-moz-transform: translateY(-2px);}
		}

		@-o-keyframes bounce {
		0%, 20%, 50%, 80%, 100% {-o-transform: translateY(0);}
		40% {-o-transform: translateY(-2px);}
		60% {-o-transform: translateY(-2px);}
		}
		@keyframes bounce {
		0%, 20%, 50%, 80%, 100% {transform: translateY(0);}
		40% {transform: translateY(-2px);}
		60% {transform: translateY(-2px);}
		}

		.bounce-1{
		animation: bounce 2s infinite;
		-webkit-animation: bounce 2s infinite;
		-moz-animation: bounce 2s infinite;
		-o-animation: bounce 2s infinite;
		animation-delay: 1.2s;
		}
</style>
<title>SHIFT_FINAL ICONS_technology</title>
<circle class="st0" cx="25.9" cy="25.2" r="25.2"/>
	<path class="st1" d="M32.7,14.2l-1.2,0.3L27,9.9l-2.5,3.5l1,1L19.8,17l0.4,6l3.8,3.8l-4.6,1.8l6,6L19,36.2l13.3,13.3
		c8.7-2.3,15.5-9.1,17.8-17.8L32.7,14.2z"/>
<g class="bounce-1">
	
	<path class="st2" d="M32.9,15.9v-1.1c0-0.4-0.4-0.8-0.8-0.8c0,0,0,0,0,0h-9.3c-2.7,0-4.9,2.2-4.9,4.9s2.2,4.9,4.9,4.9l0,0h2.8
		c0.4,0,0.7,0.3,0.7,0.7l0,0v0.9c0,0.4,0.3,0.7,0.7,0.7c0.1,0,0.2,0,0.3-0.1l5-2.9c0.3-0.2,0.4-0.6,0.2-0.9
		c-0.1-0.1-0.1-0.2-0.2-0.2l-5-2.9c-0.3-0.2-0.7-0.1-0.9,0.2c-0.1,0.1-0.1,0.2-0.1,0.3v0.9c0,0.4-0.3,0.7-0.7,0.7c0,0,0,0,0,0h-2.8
		c-1.2,0-2.2-1-2.2-2.2s1-2.2,2.2-2.2l0,0h9.3C32.6,16.7,32.9,16.3,32.9,15.9L32.9,15.9z"/>
	<path class="st2" d="M18.8,34.5v1.1c0,0.4,0.3,0.8,0.8,0.8c0,0,0,0,0,0h9.3c2.7,0.1,5-2,5.1-4.6s-2-5-4.6-5.1c-0.1,0-0.3,0-0.4,0
		h-2.8c-0.4,0-0.7-0.3-0.7-0.7l0,0v-0.9c0-0.4-0.3-0.7-0.7-0.7c-0.1,0-0.2,0-0.3,0.1l-5,2.9c-0.3,0.2-0.4,0.6-0.2,0.9
		c0.1,0.1,0.1,0.2,0.2,0.2l5,2.9c0.3,0.2,0.7,0.1,0.9-0.2c0.1-0.1,0.1-0.2,0.1-0.3V30c0-0.4,0.3-0.7,0.7-0.7h0h2.8
		c1.2,0,2.2,1,2.2,2.2s-1,2.2-2.2,2.2h-9.4C19.1,33.7,18.8,34.1,18.8,34.5L18.8,34.5L18.8,34.5z"/>
	<path class="st2" d="M24.5,13.5v-3c0-0.4,0.4-0.8,0.8-0.8h1.1c0.4,0,0.8,0.3,0.8,0.8c0,0,0,0,0,0v3H24.5z"/>
	<path class="st2" d="M27.2,36.9v3c0,0.4-0.4,0.8-0.8,0.8h-1.1c-0.4,0-0.8-0.4-0.8-0.8v-3H27.2z"/>
</g>
</svg>
