<svg xmlns="http://www.w3.org/2000/svg" viewBox="0 0 50.41 50.41">
	<defs>
		<style>.cls-1{isolation:isolate;}.cls-2{fill:#626bb2;}.cls-3{fill:#231f20;opacity:0.22;mix-blend-mode:multiply;}.cls-4{fill:#fff;}
			@-webkit-keyframes rotate {
		0% {-webkit-transform: rotate(0);} 
		40% {-webkit-transform: rotate(7deg);}
		80% {-webkit-transform: rotate(-7deg);}
		}

		@-moz-keyframes rotate {
		0% {-moz-transform: rotate(0);}
		40% {-moz-transform: rotate(7deg);}
		80% {-moz-transform: rotate(-7deg);}
		}

		@-o-keyframes rotate {
		0%  {-o-transform: rotate(0);}
		40% {-o-transform: rotate(7deg);}
		80% {-o-transform: rotate(-7deg);}
		}
		@keyframes rotate {
		0%  {transform: rotate(0);}
		40% {transform: rotate(7deg);}
		60% {transform: rotate(-7deg);}
		}

		.rotate{
		animation: rotate 2s infinite;
		-webkit-animation: rotate 2s infinite;
		-moz-animation: rotate 2s infinite;
		-o-animation: rotate 2s infinite;
		animation-delay: 0.6s;
		}
		</style>
	</defs>
	<title>SHIFT_FINAL ICONS_personal</title>
	<circle class="cls-2" cx="25.2" cy="25.2" r="25.2"/>
	<path class="cls-3" d="M37,59.33a25.22,25.22,0,0,0,19.93-21L40.06,21.49l-1.52-.69-3.47.33-1,3.51L30.8,21.43,28,20.67l-3.18,1.62.35,4.11L27.7,29,26.33,36,21.86,40.4l3.67,3.67L23.9,46.23Z" transform="translate(-6.8 -9.42)"/>
	<g class="cls-1 rotate" style="transform-origin: 50% 50%;">
		<g id="Layer_2" data-name="Layer 2" >
			
			<path class="cls-4" d="M32.36,29.68l.85-2c-.3,0-.6,0-.9,0s-.53,0-.8,0Z" transform="translate(-6.8 -9.42)"/>
			<polygon class="cls-4" points="24.11 23.52 21.58 17.49 22.82 16.98 25.38 23.09 24.11 23.52"/>
			<path class="cls-4" d="M37,27.46a3.78,3.78,0,1,1,3.78-3.78A3.79,3.79,0,0,1,37,27.46Zm0-6.23a2.45,2.45,0,1,0,2.45,2.45A2.45,2.45,0,0,0,37,21.23Z" transform="translate(-6.8 -9.42)"/>
			<polygon class="cls-4" points="26.96 23.67 25.67 23.27 28.3 16.98 29.54 17.49 26.96 23.67"/>
			<path class="cls-4" d="M27.75,27.46a3.78,3.78,0,1,1,3.78-3.78A3.79,3.79,0,0,1,27.75,27.46Zm0-6.23a2.45,2.45,0,1,0,2.45,2.45A2.45,2.45,0,0,0,27.75,21.23Z" transform="translate(-6.8 -9.42)"/>
			<circle class="cls-4" cx="25.56" cy="25.21" r="2.45"/>
			<path class="cls-4" d="M35.49,24.2l1,.82a.41.41,0,0,0,.57,0l1.65-1.86a.41.41,0,1,0-.62-.55l-1.39,1.56L36,23.56a.41.41,0,0,0-.52.64Z" transform="translate(-6.8 -9.42)"/>
			<path class="cls-4" d="M28.62,25.12a.48.48,0,0,1-.34-.14l-1.79-1.79a.48.48,0,0,1,.68-.68L29,24.3a.48.48,0,0,1-.34.82Z" transform="translate(-6.8 -9.42)"/>
			<path class="cls-4" d="M26.83,25.12a.48.48,0,0,1-.34-.82l1.79-1.79a.48.48,0,0,1,.68.68L27.17,25A.48.48,0,0,1,26.83,25.12Z" transform="translate(-6.8 -9.42)"/>
		</g>
			<path class="cls-4" d="M36.91,28.83l-1.5,3.58a3.75,3.75,0,0,1,.73,2.22,3.78,3.78,0,0,1-7.57,0,3.75,3.75,0,0,1,.73-2.22l-1.52-3.63a7.94,7.94,0,0,0-4.2,6.88c0,.13,0,.25,0,.37a1,1,0,0,0,0,.35c.43,2.05-2.46,3.06-1.75,4a.84.84,0,0,0,.44.29l1,.29a.53.53,0,0,1,.38.42,9.66,9.66,0,0,1,.1,1.82c0,1.12-.5,2.94.49,3.26s2.5-.31,3,.21a2.37,2.37,0,0,1,.57,1.64v.34a.7.7,0,0,0,.7.7H37a.7.7,0,0,0,.68-.85,14.34,14.34,0,0,1-.43-2.83c0-1.36.3-2.88,2.13-5.32h0A7.62,7.62,0,0,0,41,35.67,7.93,7.93,0,0,0,36.91,28.83Z" transform="translate(-6.8 -9.42)"/>
			
			
		</g>
</svg>