<?xml version="1.0" encoding="utf-8"?>
<!-- Generator: Adobe Illustrator 19.2.0, SVG Export Plug-In . SVG Version: 6.00 Build 0)  -->
<svg version="1.1" id="Capa_2" xmlns="http://www.w3.org/2000/svg" xmlns:xlink="http://www.w3.org/1999/xlink" x="0px" y="0px"
	 width="582px" height="161px" viewBox="0 0 582 161" style="enable-background:new 0 0 582 161;" xml:space="preserve">
<style type="text/css">
	.st0{fill:none;}
	.st1{fill:#38CCB5;}
	.st2{fill:#030140;}
</style>
<rect x="-24" y="68.7" class="st0" width="130.8" height="73.2"/>
<path class="st1" d="M117.8,81.6v7.9c0,1.4-1.5,2.4-2.8,1.7L48.6,58.4c-2.1-1-2.1-3.9,0-5l65.6-32.3c1.7-0.8,3.6,0.4,3.6,2.2v4.8
	c0,5,4.1,9.1,9.1,9.1H154c3.9,0,7-3.2,7-7V5.8c0-3.2-2.6-5.8-5.8-5.8H29.5C13.2,0,0,13.2,0,29.5v49.1c0,4.4,3.6,8,8,8h33.5V72.3
	c0-1.7,1.8-2.8,3.3-2l68.4,33.7c1.1,0.5,1.1,2,0,2.5l-68.4,33.7c-1.5,0.7-3.2-0.3-3.2-2v-6.2c0-4.5-3.7-8.2-8.2-8.2H7.8
	c-4.3,0-7.8,3.5-7.8,7.8v24.7c0,2.5,2,4.6,4.6,4.6h121.7c19.2,0,34.7-15.5,34.7-34.7v-45c0-3.7-3-6.7-6.7-6.7h-29.6
	C120.9,74.6,117.8,77.7,117.8,81.6z"/>
<g>
	<path class="st2" d="M210.1,96.6h18.5c-0.1,12.7,7.6,17.6,19.2,17.6c10,0,17.9-2.7,17.9-11.7c0-8.7-6-10.8-22.5-15.7
		c-17.1-4.8-30.8-10.7-30.8-28.3c0-19.2,16.1-28.1,33.7-28.1c18.5,0,35.9,8.5,36,30.5h-18.5c-0.7-11.7-8.7-15.1-17.9-15.1
		c-7.3,0-14.7,2.5-14.7,10.7c0,7.2,4,9.2,23.5,15.5c16.3,5.1,29.7,10.3,29.7,28c0,17.6-13.2,30.1-36.8,30.1
		C226.9,130.1,209.7,120.8,210.1,96.6z"/>
	<path class="st2" d="M299.8,32.5h19.1v38.1h39.2V32.5h19.2v95.4h-19.2V89.1h-39.2v38.7h-19.1V32.5z"/>
	<path class="st2" d="M432.5,32.5h63.3v18.4h-44.3v23.9h38.3v17.3h-38.3v35.7h-19.1V32.5z"/>
	<path class="st2" d="M535.5,48.7h-27.3V32.5H582v16.3h-27.3v79.1h-19.2V48.7z"/>
	<g>
		<polygon class="st1" points="413.4,60.4 413.4,32.5 394.4,32.5 394.4,50.6 		"/>
		<polygon class="st1" points="394.4,65.2 394.4,127.8 413.4,127.8 413.4,75 		"/>
	</g>
</g>
</svg>
