<?xml version="1.0" standalone="no"?>
<!DOCTYPE svg PUBLIC "-//W3C//DTD SVG 1.1//EN" "http://www.w3.org/Graphics/SVG/1.1/DTD/svg11.dtd" >
<svg xmlns="http://www.w3.org/2000/svg" xmlns:xlink="http://www.w3.org/1999/xlink" version="1.1">
<metadata>
Created by FontForge 20170731 at Tue Dec 13 12:40:50 2016
 By Aleksey,,,
Copyright (c) 2016 by Rick Banks. All rights reserved.
</metadata>
<defs>
<font id="F37Bolton-BoldItalic" horiz-adv-x="0" >
  <font-face 
    font-family="F37 Bolton Bold Italic"
    font-weight="700"
    font-style="italic"
    font-stretch="normal"
    units-per-em="1000"
    panose-1="0 0 8 0 0 0 0 0 0 0"
    ascent="800"
    descent="-200"
    x-height="517"
    cap-height="715"
    bbox="-715 -269 1281 958"
    underline-thickness="50"
    underline-position="-200"
    slope="-10"
    unicode-range="U+000D-FB02"
  />
<missing-glyph horiz-adv-x="542" 
 />
    <glyph glyph-name="fi" unicode="fi" horiz-adv-x="606" 
d="M107 0l71 400h-84l20 117h84l6 31q14 78 70 123.5t152 45.5h245l-20 -118h-230q-79 0 -90 -68l-3 -14h98l-21 -117h-97l-71 -400h-130zM415 0l91 517h130l-91 -517h-130z" />
    <glyph glyph-name="fl" unicode="fl" horiz-adv-x="639" 
d="M571 146q-4 -21 3.5 -29.5t26.5 -8.5h41l-19 -108h-85q-60 0 -87 25.5t-16 89.5l85 484h-104q-74 0 -85 -61l-3 -21h103l-21 -117h-102l-71 -400h-130l71 400h-84l20 117h84l6 37q13 75 67.5 119t147.5 44h252z" />
    <glyph glyph-name=".notdef" horiz-adv-x="542" 
 />
    <glyph glyph-name=".null" 
 />
    <glyph glyph-name="nonmarkingreturn" horiz-adv-x="333" 
 />
    <glyph glyph-name="CR" unicode="&#xd;" horiz-adv-x="225" 
 />
    <glyph glyph-name="space" unicode=" " horiz-adv-x="225" 
 />
    <glyph glyph-name="exclam" unicode="!" horiz-adv-x="273" 
d="M139 205l19 301l37 208h135l-37 -208l-87 -301h-67zM136 -9q-31 0 -51 21.5t-20 51.5q0 39 30.5 67.5t69.5 28.5q31 0 50.5 -20.5t19.5 -51.5q0 -37 -30.5 -67t-68.5 -30z" />
    <glyph glyph-name="quotedbl" unicode="&#x22;" horiz-adv-x="399" 
d="M151 402l17 312h137l-95 -312h-59zM330 402l17 312h136l-94 -312h-59z" />
    <glyph glyph-name="numbersign" unicode="#" horiz-adv-x="537" 
d="M88 0l62 201h-80l15 83h91l41 129h-80l14 83h92l61 202h90l-63 -202h96l61 202h88l-60 -202h72l-15 -83h-84l-39 -129h72l-15 -83h-84l-61 -201h-90l62 201h-94l-62 -201h-90zM266 284h95l39 129h-94z" />
    <glyph glyph-name="dollar" unicode="$" horiz-adv-x="556" 
d="M591 497h-123q11 87 -55 105l-30 -174l9 -3q29 -9 49.5 -18t44.5 -24t39 -33t25 -45.5t10 -60.5q0 -104 -69 -177t-186 -83l-15 -85h-57l15 85q-96 8 -145.5 71t-27.5 180h123q-20 -113 71 -130l36 202q-1 0 -3 1q-80 27 -122 65t-42 110q0 107 69.5 170.5t170.5 69.5
l15 85h56l-15 -86q85 -10 130 -67.5t27 -157.5zM264 514q0 -24 14.5 -38.5t50.5 -28.5l28 159q-40 -4 -66.5 -27.5t-26.5 -64.5zM432 208q0 28 -17 45.5t-57 34.5l-32 -185q106 13 106 105z" />
    <glyph glyph-name="percent" unicode="%" horiz-adv-x="889" 
d="M197 -24l525 746h88l-525 -746h-88zM296 343q-82 0 -128.5 46.5t-46.5 118.5q0 90 60 146t143 56q82 0 128.5 -46.5t46.5 -118.5q0 -90 -60 -146t-143 -56zM305 431q45 0 71.5 31.5t26.5 67.5q0 37 -22 65t-66 28q-46 0 -73 -32t-27 -71q0 -36 22 -62.5t68 -26.5z
M688 -13q-81 0 -127.5 46.5t-46.5 118.5q0 90 60 146t143 56q82 0 128 -46.5t46 -118.5q0 -90 -60 -146t-143 -56zM698 75q44 0 70.5 31.5t26.5 67.5t-22 64.5t-65 28.5q-46 0 -73 -32t-27 -71q0 -36 22 -62.5t68 -26.5z" />
    <glyph glyph-name="ampersand" unicode="&#x26;" horiz-adv-x="664" 
d="M632 106h37l-19 -106h-51q-83 0 -126 44q-82 -58 -190 -58q-102 0 -157.5 47.5t-55.5 130.5q0 144 162 238q-44 69 -44 132q0 80 62 133.5t153 53.5q74 0 115 -35t41 -96q0 -111 -160 -208l95 -143q2 6 8 33l14 83h115l-14 -82q-12 -70 -52 -134q33 -33 67 -33zM387 620
q-31 0 -51.5 -18.5t-20.5 -52.5q0 -33 32 -86q90 53 90 108q0 49 -50 49zM203 189q0 -39 26.5 -65.5t75.5 -26.5q64 0 109 30l-127 192q-46 -30 -65 -60.5t-19 -69.5z" />
    <glyph glyph-name="quotesingle" unicode="'" horiz-adv-x="220" 
d="M151 402l17 312h137l-95 -312h-59z" />
    <glyph glyph-name="parenleft" unicode="(" horiz-adv-x="301" 
d="M133 -182q-58 150 -58 336q0 147 59 301t160 276h109q-201 -295 -201 -612q0 -177 39 -301h-108z" />
    <glyph glyph-name="parenright" unicode=")" horiz-adv-x="301" 
d="M-5 -182q202 296 202 612q0 170 -40 301h108q58 -149 58 -336q0 -146 -59.5 -302.5t-159.5 -274.5h-109z" />
    <glyph glyph-name="asterisk" unicode="*" horiz-adv-x="424" 
d="M193 368l-48 45l104 106l-115 41l36 70l108 -44l20 128h72l-22 -128l128 43l11 -69l-130 -41l62 -104l-63 -46l-64 108z" />
    <glyph glyph-name="plus" unicode="+" horiz-adv-x="545" 
d="M228 20l35 203h-191l17 99h191l37 203h97l-37 -203h192l-17 -99h-191l-36 -203h-97z" />
    <glyph glyph-name="comma" unicode="," horiz-adv-x="260" 
d="M27 -160l7 66q30 4 57 31t34 58h-4q-31 0 -49.5 21t-15.5 53q3 44 31.5 69t65.5 25q73 0 73 -77q0 -90 -56 -158t-143 -88z" />
    <glyph glyph-name="hyphen" unicode="-" horiz-adv-x="395" 
d="M94 217l21 111h281l-20 -111h-282z" />
    <glyph glyph-name="period" unicode="." horiz-adv-x="254" 
d="M127 -5q-31 0 -51 21.5t-20 51.5q0 39 30.5 67.5t69.5 28.5q31 0 50.5 -20.5t19.5 -51.5q0 -38 -30.5 -67.5t-68.5 -29.5z" />
    <glyph glyph-name="slash" unicode="/" horiz-adv-x="425" 
d="M24 -17l399 748h105l-399 -748h-105z" />
    <glyph glyph-name="zero" unicode="0" horiz-adv-x="599" 
d="M320 -14q-106 0 -167 64.5t-59 199.5q3 222 91 341t220 119q105 0 165.5 -64.5t59.5 -199.5q-4 -222 -92 -341t-218 -119zM329 95q41 0 73 38t49 94.5t26 108t10 93.5q4 172 -93 172q-41 0 -73 -38t-49 -94.5t-25.5 -108t-9.5 -91.5q-4 -174 92 -174z" />
    <glyph glyph-name="one" unicode="1" horiz-adv-x="407" 
d="M194 0l81 463h-173l17 99q88 2 144 31.5t81 104.5h103l-122 -698h-131z" />
    <glyph glyph-name="two" unicode="2" horiz-adv-x="573" 
d="M51 0q10 74 44.5 132t81 96.5t127.5 88.5q37 23 52 32.5t45 32t43 39t24.5 41.5t11.5 51q0 40 -25 61.5t-70 21.5q-111 0 -134 -134h-127q17 119 92.5 183.5t195.5 64.5q89 0 145.5 -46.5t56.5 -128.5q0 -37 -8.5 -69.5t-28 -61t-36 -48t-49.5 -44t-50.5 -35.5t-55.5 -35
q-137 -87 -149 -128h318l-21 -114h-483z" />
    <glyph glyph-name="three" unicode="3" horiz-adv-x="573" 
d="M319 -15q-132 0 -195 67.5t-40 180.5h126q-10 -64 16.5 -102t96.5 -38q65 0 97.5 31.5t32.5 86.5q0 104 -134 104h-19l16 93h12q69 0 116 26t47 85q0 39 -27.5 61.5t-72.5 22.5q-118 0 -128 -129h-126q10 115 81 176.5t185 61.5q94 0 152 -46.5t58 -124.5
q0 -60 -31.5 -106t-88.5 -66q96 -32 96 -148q0 -109 -76.5 -172.5t-193.5 -63.5z" />
    <glyph glyph-name="four" unicode="4" horiz-adv-x="575" 
d="M327 0l26 151h-309l19 110l383 437h128l-77 -440h89l-19 -107h-89l-27 -151h-124zM184 258h188l46 262h-3z" />
    <glyph glyph-name="five" unicode="5" horiz-adv-x="560" 
d="M299 -13q-112 0 -170.5 56.5t-49.5 161.5h131q-5 -50 20 -80t77 -30q66 0 98.5 46.5t32.5 123.5q0 102 -105 102q-67 0 -101 -56h-116l96 387h395l-20 -113h-285l-37 -147q43 38 121 38q89 0 138 -47.5t49 -133.5q0 -136 -69 -222t-205 -86z" />
    <glyph glyph-name="six" unicode="6" horiz-adv-x="583" 
d="M390 465q95 0 145.5 -53t50.5 -143q0 -125 -72.5 -204t-183.5 -79q-123 0 -180 69t-57 182q0 89 16 169t50.5 151t97 113t146.5 42q112 0 162 -53t50 -138h-126q0 88 -95 88q-52 0 -92 -49.5t-56 -153.5q55 59 144 59zM330 94q55 0 86 45t31 115q0 50 -25.5 79t-74.5 29
q-58 0 -89 -41t-31 -110q0 -52 25 -84.5t78 -32.5z" />
    <glyph glyph-name="seven" unicode="7" horiz-adv-x="520" 
d="M127 0q79 352 328 577h-332l21 121h478l-19 -113q-137 -121 -221.5 -271.5t-115.5 -313.5h-139z" />
    <glyph glyph-name="eight" unicode="8" horiz-adv-x="579" 
d="M306 -14q-111 0 -170 50.5t-59 137.5q0 76 38.5 128t100.5 77q-64 40 -64 124q0 91 67 150t174 59q98 0 154 -48t56 -126q0 -55 -29.5 -98.5t-76.5 -64.5q35 -17 57 -55.5t22 -91.5q0 -109 -75.5 -175.5t-194.5 -66.5zM373 420q48 0 77.5 29t29.5 74q0 38 -25 62t-70 24
q-54 0 -83 -28.5t-29 -73.5q0 -39 27 -63t73 -24zM316 89q61 0 94.5 35t33.5 94q0 48 -29 77t-79 29q-55 0 -90 -36t-35 -94q0 -50 27.5 -77.5t77.5 -27.5z" />
    <glyph glyph-name="nine" unicode="9" horiz-adv-x="583" 
d="M377 712q123 0 180 -69t57 -182q0 -89 -16 -169t-50.5 -151t-97 -113t-146.5 -42q-112 0 -162 53t-50 138h126q0 -88 95 -88q52 0 92 49.5t56 153.5q-55 -59 -144 -59q-95 0 -145.5 53t-50.5 143q0 125 72.5 204t183.5 79zM360 336q58 0 89 41t31 110q0 52 -25 84.5
t-78 32.5q-55 0 -86 -45t-31 -115q0 -50 25.5 -79t74.5 -29z" />
    <glyph glyph-name="colon" unicode=":" horiz-adv-x="277" 
d="M200 341q-31 0 -51 21.5t-20 51.5q0 39 30.5 67.5t69.5 28.5q30 0 49.5 -20.5t19.5 -51.5q0 -37 -30 -67t-68 -30zM139 -5q-31 0 -51 21.5t-20 51.5q0 39 30 67.5t69 28.5q31 0 50.5 -20.5t19.5 -51.5q0 -38 -30 -67.5t-68 -29.5z" />
    <glyph glyph-name="semicolon" unicode=";" horiz-adv-x="279" 
d="M195 335q-31 0 -51 21t-20 51q0 39 30 68t69 29q31 0 50.5 -20.5t19.5 -51.5q0 -38 -30 -67.5t-68 -29.5zM45 -158l7 67q30 4 57 31t34 58h-4q-31 0 -49.5 20.5t-16.5 52.5q4 44 32.5 69.5t65.5 25.5q35 0 54.5 -20t19.5 -58q0 -89 -56.5 -157.5t-143.5 -88.5z" />
    <glyph glyph-name="less" unicode="&#x3c;" horiz-adv-x="563" 
d="M512 -4l-446 206l19 109l520 207l-19 -108l-382 -153l328 -155z" />
    <glyph glyph-name="equal" unicode="=" horiz-adv-x="599" 
d="M117 328l18 99h480l-18 -99h-480zM80 117l17 98h480l-17 -98h-480z" />
    <glyph glyph-name="greater" unicode="&#x3e;" horiz-adv-x="562" 
d="M48 -5l20 107l379 154l-326 155l19 106l447 -207l-19 -108z" />
    <glyph glyph-name="question" unicode="?" horiz-adv-x="544" 
d="M240 207q2 16 4 25q12 66 38.5 105t76.5 71l16 12q27 17 42.5 29.5t29.5 36t14 51.5q0 34 -21.5 52.5t-60.5 18.5q-103 0 -125 -97h-135q18 97 93 158.5t180 61.5q111 0 165 -47.5t54 -118.5q0 -23 -5.5 -45t-11 -37t-21.5 -34.5t-23 -28t-31.5 -28t-31 -24t-35.5 -25.5
l-19 -15q-53 -39 -64 -99q-3 -10 -3 -22h-126zM265 -11q-28 0 -46 19t-18 46q0 35 28 61t63 26q28 0 46 -18.5t18 -46.5q0 -35 -28 -61t-63 -26z" />
    <glyph glyph-name="at" unicode="@" horiz-adv-x="873" 
d="M421 -144q-159 0 -251.5 84.5t-92.5 243.5q0 111 43 203.5t113 150t155 89t173 31.5q156 0 243 -78t87 -208q0 -139 -73.5 -223.5t-161.5 -84.5h-126l9 47q-19 -28 -50.5 -42.5t-65.5 -14.5q-70 0 -109.5 41.5t-39.5 113.5q0 106 64 172.5t154 66.5q36 0 62.5 -13.5
t33.5 -36.5l7 39h118l-49 -276h6q35 0 67.5 51.5t32.5 138.5t-59.5 140t-169.5 53q-138 0 -238 -93t-100 -247q0 -113 62 -176t172 -63h272l-20 -109h-268zM464 156q44 0 72.5 32t28.5 83q0 35 -17.5 55.5t-48.5 20.5q-45 0 -73 -32.5t-28 -82.5q0 -35 17 -55.5t49 -20.5z
" />
    <glyph glyph-name="A" unicode="A" horiz-adv-x="670" 
d="M516 0l-27 176h-250l-90 -176h-145l384 715h148l129 -715h-149zM307 309h162l-36 242h-2z" />
    <glyph glyph-name="B" unicode="B" horiz-adv-x="666" 
d="M79 0l126 715h279q105 0 160 -40.5t55 -113.5q0 -60 -30.5 -105.5t-75.5 -66.5v-1q73 -40 73 -137q0 -119 -81 -185t-197 -66h-309zM298 431h133q59 0 92 26.5t33 73.5q0 68 -102 68h-126zM243 115h131q145 0 145 118q0 80 -115 80h-126z" />
    <glyph glyph-name="C" unicode="C" horiz-adv-x="696" 
d="M398 -15q-143 0 -226 88.5t-83 242.5q0 176 104.5 294.5t266.5 118.5q129 0 207 -72.5t86 -190.5h-142q-28 130 -169 130q-95 0 -154 -77t-59 -190q0 -95 44.5 -153t141.5 -58q124 0 170 110h140q-25 -104 -117 -173.5t-210 -69.5z" />
    <glyph glyph-name="D" unicode="D" horiz-adv-x="730" 
d="M79 0l126 715h251q138 0 221.5 -79t83.5 -214q0 -187 -117.5 -304.5t-314.5 -117.5h-250zM246 133h98q132 0 202 69.5t70 201.5q0 85 -46.5 131.5t-136.5 46.5h-108z" />
    <glyph glyph-name="E" unicode="E" horiz-adv-x="634" 
d="M79 0l126 715h502l-21 -122h-359l-30 -169h329l-21 -121h-330l-31 -181h366l-22 -122h-509z" />
    <glyph glyph-name="F" unicode="F" horiz-adv-x="587" 
d="M79 0l126 715h475l-25 -138h-331l-31 -179h287l-23 -130h-287l-48 -268h-143z" />
    <glyph glyph-name="G" unicode="G" horiz-adv-x="745" 
d="M398 -15q-145 0 -224.5 90.5t-79.5 238.5q0 113 44.5 206.5t132.5 151t205 57.5q121 0 195 -66t88 -182h-145q-31 115 -157 115q-103 0 -162.5 -75.5t-59.5 -186.5q0 -100 45.5 -158.5t130.5 -58.5q143 0 184 125h-169l23 129h310q-8 -175 -106 -280.5t-255 -105.5z" />
    <glyph glyph-name="H" unicode="H" horiz-adv-x="739" 
d="M79 0l126 715h143l-50 -286h294l50 286h144l-126 -715h-144l51 290h-293l-52 -290h-143z" />
    <glyph glyph-name="I" unicode="I" horiz-adv-x="301" 
d="M79 0l126 715h143l-126 -715h-143z" />
    <glyph glyph-name="J" unicode="J" horiz-adv-x="540" 
d="M246 -17q-95 0 -144 46t-49 130q0 36 7 74h131q-4 -21 -4 -43q0 -77 78 -77q48 0 67 25.5t29 79.5l88 497h144l-84 -476q-10 -57 -26 -99t-44.5 -79.5t-77 -57.5t-115.5 -20z" />
    <glyph glyph-name="K" unicode="K" horiz-adv-x="687" 
d="M79 0l126 715h143l-54 -309l329 309h179l-330 -296l227 -419h-168l-170 322l-97 -90l-42 -232h-143z" />
    <glyph glyph-name="L" unicode="L" horiz-adv-x="556" 
d="M79 0l126 715h143l-103 -585h317l-23 -130h-460z" />
    <glyph glyph-name="M" unicode="M" horiz-adv-x="864" 
d="M79 0l126 715h134l163 -320l271 320h138l-126 -715h-135l86 484l-204 -248h-111l-120 255l-88 -491h-134z" />
    <glyph glyph-name="N" unicode="N" horiz-adv-x="733" 
d="M79 0l126 715h129l227 -469l84 469h135l-126 -715h-130l-228 474l-83 -474h-134z" />
    <glyph glyph-name="O" unicode="O" horiz-adv-x="789" 
d="M434 -16q-149 0 -242.5 89.5t-93.5 239.5q0 179 107.5 297.5t275.5 118.5q149 0 242 -90.5t93 -240.5q0 -178 -107.5 -296t-274.5 -118zM443 118q104 0 165.5 74.5t61.5 187.5q0 93 -51.5 153.5t-147.5 60.5q-104 0 -165 -75t-61 -188q0 -93 51 -153t147 -60z" />
    <glyph glyph-name="P" unicode="P" horiz-adv-x="634" 
d="M79 0l126 714h284q112 0 164.5 -49t52.5 -127q0 -48 -16.5 -91.5t-50.5 -81.5t-95.5 -61t-143.5 -23h-129l-49 -281h-143zM293 399h126q143 0 143 116q0 78 -110 78h-125z" />
    <glyph glyph-name="Q" unicode="Q" horiz-adv-x="789" 
d="M816 398q0 -167 -95 -282t-247 -130q-1 -33 14 -46t52 -13h92l-19 -109h-121q-87 0 -125.5 42t-26.5 135q-111 26 -176.5 110t-65.5 208q0 179 107.5 297.5t275.5 118.5q149 0 242 -90.5t93 -240.5zM245 331q0 -93 51 -153t147 -60q104 0 165.5 74.5t61.5 187.5
q0 93 -51.5 153.5t-147.5 60.5q-104 0 -165 -75t-61 -188z" />
    <glyph glyph-name="R" unicode="R" horiz-adv-x="669" 
d="M703 542q0 -92 -53.5 -154t-132.5 -84l132 -304h-165l-123 294h-87l-52 -294h-143l126 714h277q110 0 165.5 -45.5t55.5 -126.5zM328 596l-33 -182h127q135 0 135 108q0 74 -104 74h-125z" />
    <glyph glyph-name="S" unicode="S" horiz-adv-x="630" 
d="M334 -17q-118 0 -191 47.5t-73 143.5q0 27 6 60h139q-3 -18 -3 -33q0 -100 128 -100q150 0 150 103q0 39 -30.5 58.5t-120.5 48.5q-94 28 -145.5 71.5t-51.5 120.5q0 109 84.5 168.5t204.5 59.5q104 0 170.5 -44.5t66.5 -137.5q0 -24 -4 -47h-139q1 8 1 21q0 92 -116 92
q-53 0 -89 -20.5t-36 -66.5q0 -34 30.5 -53.5t121.5 -50.5q46 -17 75.5 -31.5t60.5 -37.5t46 -55.5t15 -75.5q0 -106 -77.5 -173.5t-222.5 -67.5z" />
    <glyph glyph-name="T" unicode="T" horiz-adv-x="582" 
d="M219 0l105 593h-205l21 122h554l-21 -122h-205l-105 -593h-144z" />
    <glyph glyph-name="U" unicode="U" horiz-adv-x="718" 
d="M360 -17q-116 0 -180 57.5t-64 165.5q0 44 16 133l65 376h144l-75 -424q-5 -32 -5 -56q0 -121 117 -121q146 0 176 177l75 424h143l-79 -451q-24 -134 -109.5 -207.5t-223.5 -73.5z" />
    <glyph glyph-name="V" unicode="V" horiz-adv-x="639" 
d="M237 0l-96 714h148l40 -328q16 -137 20 -226q19 49 101 228l154 326h148l-353 -714h-162z" />
    <glyph glyph-name="W" unicode="W" horiz-adv-x="947" 
d="M199 0l-55 715h145l14 -373q5 -108 2 -171q22 67 64 170l152 374h161l18 -377q5 -85 3 -172q18 57 63 173l149 376h142l-310 -715h-146l-18 305q-10 123 -11 246q-41 -114 -98 -248l-126 -303h-149z" />
    <glyph glyph-name="X" unicode="X" horiz-adv-x="637" 
d="M747 714l-286 -347l178 -367h-169l-113 250l-197 -250h-163l306 372l-161 342h166l94 -235l186 235h159z" />
    <glyph glyph-name="Y" unicode="Y" horiz-adv-x="650" 
d="M252 0l50 279l-175 435h159l113 -300l212 300h164l-330 -438l-49 -276h-144z" />
    <glyph glyph-name="Z" unicode="Z" horiz-adv-x="638" 
d="M39 0l22 117l286 306q105 114 152 159h-352l23 132h538l-22 -117l-297 -317q-118 -126 -141 -148h381l-23 -132h-567z" />
    <glyph glyph-name="bracketleft" unicode="[" horiz-adv-x="352" 
d="M45 -182l161 913h245l-19 -103h-115l-124 -707h115l-18 -103h-245z" />
    <glyph glyph-name="backslash" unicode="\" horiz-adv-x="425" 
d="M291 -17l-135 748h105l134 -748h-104z" />
    <glyph glyph-name="bracketright" unicode="]" horiz-adv-x="352" 
d="M-2 -182l18 103h116l124 707h-115l18 103h245l-161 -913h-245z" />
    <glyph glyph-name="asciicircum" unicode="^" horiz-adv-x="521" 
d="M88 306l234 392h123l97 -392h-107l-69 291l-171 -291h-107z" />
    <glyph glyph-name="underscore" unicode="_" horiz-adv-x="475" 
d="M-22 -125l9 50h475l-9 -50h-475z" />
    <glyph glyph-name="grave" unicode="`" horiz-adv-x="231" 
d="M386 575h-76l-112 142h126z" />
    <glyph glyph-name="a" unicode="a" horiz-adv-x="548" 
d="M200 -14q-65 0 -106.5 36.5t-41.5 100.5q0 82 54.5 126t158.5 60l85 14q40 6 51.5 15.5t11.5 34.5q0 20 -18 32.5t-54 12.5q-92 0 -101 -56h-128q13 82 78 125.5t160 43.5q192 0 192 -144q0 -20 -5 -53l-34 -195q-1 -3 -1 -10q0 -22 24 -22h13l-19 -107h-101
q-47 0 -50 41q-1 10 -1 21l1 6q-56 -82 -169 -82zM247 89q56 0 93.5 37t45.5 90l4 24q-12 -8 -31 -11l-80 -13q-47 -9 -68.5 -25t-21.5 -48q0 -26 15 -40t43 -14z" />
    <glyph glyph-name="b" unicode="b" horiz-adv-x="583" 
d="M408 531q87 0 139 -58t52 -152q0 -159 -73 -247t-183 -88q-105 0 -147 80l-12 -66h-124l126 717h130l-42 -238q60 52 134 52zM335 106q62 0 96.5 54t34.5 132q0 55 -27.5 86.5t-75.5 31.5q-61 0 -96.5 -52.5t-35.5 -139.5q0 -52 27 -82t77 -30z" />
    <glyph glyph-name="c" unicode="c" horiz-adv-x="540" 
d="M294 -14q-101 0 -160.5 63t-59.5 168q0 134 76.5 224t202.5 90q98 0 158.5 -57.5t58.5 -145.5h-131q-16 82 -99 82q-66 0 -100 -52t-34 -126q0 -56 25 -90.5t78 -34.5q91 0 116 79h127q-23 -96 -92.5 -148t-165.5 -52z" />
    <glyph glyph-name="d" unicode="d" horiz-adv-x="582" 
d="M518 717h130l-126 -717h-124l8 43q-60 -57 -140 -57q-86 0 -138.5 60.5t-52.5 155.5q0 151 74 240t183 89q99 0 141 -70zM309 106q64 0 99 53t35 141q0 52 -26.5 81t-77.5 29q-59 0 -95 -54.5t-36 -127.5q0 -60 27 -91t74 -31z" />
    <glyph glyph-name="e" unicode="e" horiz-adv-x="548" 
d="M205 217q7 -116 110 -116q73 0 100 60h127q-21 -82 -85.5 -128.5t-149.5 -46.5q-107 0 -169.5 62t-62.5 177q0 135 77 220t196 85q101 0 161 -64t60 -164q0 -36 -7 -85h-357zM215 317h227q-11 97 -109 97q-87 0 -118 -97z" />
    <glyph glyph-name="f" unicode="f" horiz-adv-x="350" 
d="M107 0l71 400h-84l20 117h84l8 43q28 157 185 157h113l-20 -118h-83q-34 0 -48 -12.5t-20 -42.5l-5 -27h95l-20 -117h-95l-71 -400h-130z" />
    <glyph glyph-name="g" unicode="g" horiz-adv-x="583" 
d="M491 517h123l-93 -525q-19 -110 -78 -159.5t-163 -49.5h-211l18 111h177q60 0 88.5 21.5t38.5 76.5l7 42q-56 -48 -127 -48q-89 0 -142.5 60.5t-53.5 157.5q0 148 74 237.5t183 89.5q101 0 147 -81zM312 106q63 0 97.5 53t34.5 134q0 58 -28 87.5t-74 29.5
q-58 0 -96 -50.5t-38 -134.5q0 -56 26.5 -87.5t77.5 -31.5z" />
    <glyph glyph-name="h" unicode="h" horiz-adv-x="576" 
d="M60 0l126 717h129l-43 -251q52 65 148 65q74 0 118 -41t44 -115q0 -21 -5 -51l-57 -324h-130l52 289q3 17 3 31q0 39 -22 62t-61 23q-48 0 -80.5 -36t-42.5 -95l-49 -274h-130z" />
    <glyph glyph-name="i" unicode="i" horiz-adv-x="251" 
d="M234 576q-34 0 -54.5 19.5t-20.5 53.5q0 38 23.5 64t61.5 26q34 0 55 -20.5t21 -54.5q0 -38 -23.5 -63t-62.5 -25zM60 0l91 517h130l-91 -517h-130z" />
    <glyph glyph-name="j" unicode="j" horiz-adv-x="259" 
d="M241 576q-34 0 -54.5 19.5t-20.5 53.5q0 38 23.5 64t61.5 26q34 0 55 -20.5t21 -54.5q0 -38 -23.5 -63t-62.5 -25zM-104 -216l22 125h84q51 0 59 48l98 560h130l-102 -584q-15 -80 -56.5 -114.5t-134.5 -34.5h-100z" />
    <glyph glyph-name="k" unicode="k" horiz-adv-x="546" 
d="M625 517l-258 -218l190 -299h-160l-132 213l-43 -36l-32 -177h-130l126 717h130l-65 -372l207 172h167z" />
    <glyph glyph-name="l" unicode="l" horiz-adv-x="282" 
d="M181 0q-60 0 -87 25.5t-16 89.5l106 602h130l-101 -571q-7 -38 30 -38h42l-19 -108h-85z" />
    <glyph glyph-name="m" unicode="m" horiz-adv-x="862" 
d="M60 0l91 517h124l-9 -58q24 33 63.5 52.5t80.5 19.5q99 0 130 -76q66 76 174 76q83 0 124.5 -56t24.5 -153l-57 -322h-130l52 294q10 53 -8.5 82t-61.5 29t-71.5 -32t-37.5 -83l-51 -290h-130l53 294q9 53 -9.5 82t-60.5 29q-43 0 -71.5 -32t-37.5 -81l-52 -292h-130z
" />
    <glyph glyph-name="n" unicode="n" horiz-adv-x="576" 
d="M60 0l91 517h124l-10 -59q24 34 67.5 53.5t87.5 19.5q76 0 119 -41.5t43 -115.5q0 -22 -5 -54l-57 -320h-130l52 289q3 17 3 32q0 39 -21.5 61.5t-60.5 22.5q-49 0 -81.5 -35t-42.5 -93l-49 -277h-130z" />
    <glyph glyph-name="o" unicode="o" horiz-adv-x="569" 
d="M310 -13q-107 0 -171.5 63.5t-64.5 173.5q0 131 77 219t200 88q105 0 168.5 -63.5t64.5 -175.5q1 -135 -75.5 -220t-198.5 -85zM316 104q66 0 101.5 47.5t35.5 134.5q0 62 -30.5 95t-82.5 33q-65 0 -100 -52.5t-35 -129.5q-1 -61 29.5 -94.5t81.5 -33.5z" />
    <glyph glyph-name="p" unicode="p" horiz-adv-x="582" 
d="M407 531q87 0 139.5 -60.5t52.5 -151.5q0 -158 -73.5 -245.5t-183.5 -87.5q-98 0 -142 70l-47 -272h-130l128 733h124l-7 -44q60 58 139 58zM335 106q61 0 95.5 55t34.5 133q0 56 -27 86.5t-75 30.5q-61 0 -96.5 -53t-35.5 -140q0 -52 27 -82t77 -30z" />
    <glyph glyph-name="q" unicode="q" horiz-adv-x="582" 
d="M510 -74q0 -32 36 -32h46l-19 -110h-94q-107 0 -107 90q0 14 3 32l23 127q-56 -47 -129 -47q-88 0 -141 59.5t-53 152.5q0 155 72.5 244t181.5 89q106 0 149 -76l11 62h124l-102 -576q-1 -6 -1 -15zM309 106q64 0 99 52.5t35 140.5q0 52 -26.5 81.5t-78.5 29.5
q-60 0 -95 -54.5t-35 -132.5q0 -57 27.5 -87t73.5 -30z" />
    <glyph glyph-name="r" unicode="r" horiz-adv-x="378" 
d="M60 0l91 517h124l-10 -61q48 68 146 68h48l-23 -124h-55q-58 0 -95 -36t-48 -97l-48 -267h-130z" />
    <glyph glyph-name="s" unicode="s" horiz-adv-x="500" 
d="M257 -14q-198 0 -198 145q0 20 2 31h125q-1 -5 -1 -12q0 -57 90 -57q47 0 68 11.5t21 37.5q0 19 -14.5 29.5t-55.5 24.5l-60 20q-62 21 -95.5 53.5t-33.5 88.5q0 88 65.5 130.5t162.5 42.5q83 0 135.5 -32t52.5 -101q0 -15 -3 -33h-126l2 10q0 48 -78 48q-76 0 -76 -44
q0 -16 11.5 -26t45.5 -22l77 -28q63 -22 93.5 -53t30.5 -82q0 -94 -65.5 -138t-175.5 -44z" />
    <glyph glyph-name="t" unicode="t" horiz-adv-x="390" 
d="M270 0q-79 0 -115 28t-22 109l47 263h-92l20 117h92l26 146h130l-26 -146h120l-20 -117h-120l-42 -234q-5 -28 4.5 -39.5t40.5 -11.5h67l-21 -115h-89z" />
    <glyph glyph-name="u" unicode="u" horiz-adv-x="568" 
d="M243 -14q-91 0 -131 56.5t-22 157.5l56 317h130l-51 -292q-11 -61 7.5 -87.5t66.5 -26.5q98 0 122 132l48 274h130l-91 -517h-124l10 57q-21 -33 -62.5 -52t-88.5 -19z" />
    <glyph glyph-name="v" unicode="v" horiz-adv-x="511" 
d="M186 0l-87 517h135l32 -219l16 -174h2l72 174l99 219h137l-262 -517h-144z" />
    <glyph glyph-name="w" unicode="w" horiz-adv-x="757" 
d="M154 0l-53 517h136l16 -373l153 373h128l23 -372l146 372h133l-234 -517h-140l-13 164l-9 186h-2l-74 -187l-70 -163h-140z" />
    <glyph glyph-name="x" unicode="x" horiz-adv-x="510" 
d="M3 0l225 274l-118 243h147l66 -149l112 149h145l-204 -247l132 -270h-147l-76 174l-136 -174h-146z" />
    <glyph glyph-name="y" unicode="y" horiz-adv-x="515" 
d="M11 -216l19 110h101q33 0 53 15q21 17 21 49q0 25 -11 71l-95 488h142l28 -190l29 -202l169 392h135l-300 -613q-32 -65 -73.5 -92.5t-107.5 -27.5h-110z" />
    <glyph glyph-name="z" unicode="z" horiz-adv-x="503" 
d="M34 0l18 99l299 302h-245l21 116h414l-17 -99l-301 -302h274l-20 -116h-443z" />
    <glyph glyph-name="braceleft" unicode="{" horiz-adv-x="379" 
d="M197 -182q-41 0 -73 36t-22 97l34 192q7 42 -17 65t-56 27l13 80q32 1 66 26t42 72l32 186q11 61 56 96.5t86 35.5h119l-18 -103h-53q-54 0 -68 -76l-27 -153q-11 -60 -45.5 -88.5t-72.5 -34.5q41 -9 62.5 -40t13.5 -78l-28 -160q-14 -77 40 -77h54l-19 -103h-119z" />
    <glyph glyph-name="bar" unicode="|" horiz-adv-x="251" 
d="M38 -214l177 1000h99l-177 -1000h-99z" />
    <glyph glyph-name="braceright" unicode="}" horiz-adv-x="379" 
d="M279 731q41 0 73 -35.5t22 -97.5l-34 -191q-7 -43 17 -66t56 -26l-13 -81q-31 0 -65 -25t-43 -72l-32 -186q-11 -62 -56 -97.5t-86 -35.5h-119l18 103h53q56 0 68 77l27 153q5 32 19 56t32.5 37t34 20t32.5 10q-42 9 -63.5 39.5t-12.5 77.5l28 161q14 76 -40 76h-54
l19 103h119z" />
    <glyph glyph-name="asciitilde" unicode="~" horiz-adv-x="542" 
d="M118 177l-22 84q56 88 134 89q41 0 104.5 -34t85.5 -34q40 0 97 69l22 -84q-33 -41 -63 -63.5t-70 -22.5q-39 0 -92.5 34t-96.5 34q-55 0 -99 -72z" />
    <glyph glyph-name="uni00A0" unicode="&#xa0;" horiz-adv-x="225" 
 />
    <glyph glyph-name="exclamdown" unicode="&#xa1;" horiz-adv-x="260" 
d="M222 533q31 0 51 -21.5t20 -51.5q0 -39 -30.5 -67.5t-69.5 -28.5q-30 0 -49.5 20.5t-19.5 51.5q0 37 30 67t68 30zM220 319l-20 -301l-37 -208h-135l37 208l88 301h67z" />
    <glyph glyph-name="cent" unicode="&#xa2;" horiz-adv-x="566" 
d="M247 -113l18 99q-87 5 -136.5 65.5t-49.5 152.5q0 128 77 222t205 104l15 85h54l-15 -85q82 -1 134 -54.5t41 -141.5h-127q0 33 -18.5 54.5t-50.5 24.5l-54 -309q36 4 62.5 29t38.5 63h126q-24 -92 -90.5 -147t-157.5 -63l-17 -99h-55zM285 104l54 308q-64 -13 -95.5 -68
t-31.5 -121q0 -103 73 -119z" />
    <glyph glyph-name="sterling" unicode="&#xa3;" horiz-adv-x="657" 
d="M689 487h-125q19 119 -89 119q-54 0 -84.5 -33t-30.5 -87q0 -32 11 -93h142l-15 -83h-115q3 -23 3 -46q0 -55 -24 -115q68 -34 173 -34h91l-22 -115h-124q-109 0 -184 46q-58 -61 -136 -61q-49 0 -81.5 24.5t-32.5 73.5q0 62 44 99.5t110 37.5q31 0 55 -9q1 10 1 31
q0 26 -7 68h-99l14 83h70q-7 44 -7 74q0 107 76.5 178.5t191.5 71.5q112 0 162.5 -59.5t31.5 -170.5zM173 85q28 0 46 20q-24 17 -40 17q-28 0 -28 -21q0 -16 22 -16z" />
    <glyph glyph-name="currency" unicode="&#xa4;" horiz-adv-x="628" 
d="M377 101q-92 0 -149 51l-56 -58l-52 52l57 58q-50 58 -50 144q2 98 50 146l-57 58l53 53l57 -56q56 48 148 48q88 0 140 -47l58 57l57 -56l-57 -56q47 -50 47 -145q0 -92 -47 -148l55 -56l-51 -51l-57 58q-55 -52 -146 -52zM377 208q62 0 97.5 42t35.5 100t-35.5 99
t-96.5 41q-63 0 -100 -41.5t-37 -100.5q0 -58 36.5 -99t99.5 -41z" />
    <glyph glyph-name="yen" unicode="&#xa5;" horiz-adv-x="674" 
d="M264 0l35 198h-156l16 87h152l-40 110h-129l15 87h83l-86 232h164l98 -301l196 301h161l-167 -231h79l-15 -87h-127l-81 -111h152l-15 -87h-156l-35 -198h-144z" />
    <glyph glyph-name="brokenbar" unicode="&#xa6;" horiz-adv-x="245" 
d="M145 411l45 250h99l-45 -250h-99zM57 -89l44 250h99l-44 -250h-99z" />
    <glyph glyph-name="section" unicode="&#xa7;" horiz-adv-x="532" 
d="M564 523h-119q7 37 -13 59.5t-66 22.5q-85 0 -85 -56q0 -18 18.5 -35.5t78.5 -60.5q11 -7 16 -11q72 -51 105.5 -90.5t33.5 -88.5q0 -101 -99 -161q42 -44 42 -98q0 -84 -66.5 -138.5t-175.5 -54.5q-91 0 -140.5 49.5t-32.5 143.5h119q-7 -37 13.5 -59.5t66.5 -22.5
q84 0 84 57q0 19 -17 34.5t-80 60.5q-10 7 -15 11q-73 53 -106.5 91.5t-33.5 88.5q0 100 100 161q-43 41 -43 98q0 84 66.5 138t175.5 54q91 0 140.5 -49.5t32.5 -143.5zM354 296q-23 18 -88 69q-40 -28 -40 -68q0 -29 45 -66q7 -6 89 -69q40 28 40 68q0 28 -46 66z" />
    <glyph glyph-name="dieresis" unicode="&#xa8;" horiz-adv-x="347" 
d="M186 590q-26 0 -42.5 17t-16.5 43q0 34 20 53t49 19q26 0 42.5 -16.5t16.5 -42.5q0 -36 -19.5 -54.5t-49.5 -18.5zM379 590q-25 0 -41.5 17t-16.5 43q0 34 20 53t49 19q26 0 42.5 -16.5t16.5 -42.5q0 -36 -19.5 -54.5t-50.5 -18.5z" />
    <glyph glyph-name="copyright" unicode="&#xa9;" horiz-adv-x="846" 
d="M448 -17q-151 0 -251.5 92t-100.5 241q0 97 35.5 177t95.5 131.5t136.5 79t161.5 27.5q150 0 250.5 -91.5t100.5 -240.5q0 -129 -61.5 -225.5t-157.5 -143.5t-209 -47zM464 72q134 0 223.5 85t89.5 228q0 112 -76 185t-192 73q-135 0 -224.5 -85.5t-89.5 -229.5
q0 -113 75.5 -184.5t193.5 -71.5zM453 136q-82 0 -129 51.5t-47 132.5q0 109 72 185.5t181 76.5q74 0 118 -40.5t39 -114.5h-81q-2 35 -26.5 54.5t-63.5 19.5q-63 0 -103 -48.5t-40 -119.5q0 -50 25 -82.5t70 -32.5q88 0 115 75h84q-24 -73 -83 -115t-131 -42z" />
    <glyph glyph-name="ordfeminine" unicode="&#xaa;" horiz-adv-x="406" 
d="M218 378q-39 0 -66.5 23t-27.5 63q0 95 129 115l64 9q24 4 31.5 10t7.5 18q0 24 -50 24q-55 0 -61 -33h-83q9 52 53 79.5t104 27.5q58 0 90.5 -21t30.5 -76q0 -13 -3 -26l-18 -102q-4 -18 -4 -25q0 -12 19 -12h5l-11 -67h-65q-36 0 -36 27q0 6 1 9h-1q-43 -43 -109 -43z
M254 447q36 0 59.5 22t29.5 54l2 12q-8 -5 -22 -7l-52 -7q-53 -9 -53 -44q0 -30 36 -30z" />
    <glyph glyph-name="guillemotleft" unicode="&#xab;" horiz-adv-x="416" 
d="M208 84l-125 126l22 124l169 124l-20 -111l-98 -75l71 -76zM370 84l-124 126l22 124l169 124l-21 -111l-98 -75l72 -76z" />
    <glyph glyph-name="logicalnot" unicode="&#xac;" horiz-adv-x="595" 
d="M449 98l37 205h-381l18 98h479l-55 -303h-98z" />
    <glyph glyph-name="uni00AD" unicode="&#xad;" horiz-adv-x="395" 
d="M94 217l21 111h281l-20 -111h-282z" />
    <glyph glyph-name="registered" unicode="&#xae;" horiz-adv-x="846" 
d="M447 -17q-151 0 -251 92t-100 241q0 97 35.5 177t95.5 131.5t136.5 79t160.5 27.5q150 0 250.5 -91.5t100.5 -240.5q0 -129 -61.5 -225.5t-157.5 -143.5t-209 -47zM463 72q134 0 223.5 84.5t89.5 228.5q0 113 -75.5 185.5t-192.5 72.5q-134 0 -224 -85.5t-90 -229.5
q0 -113 75.5 -184.5t193.5 -71.5zM300 149l74 419h158q146 0 146 -97q0 -65 -40.5 -98t-93.5 -41l80 -183h-88l-71 180h-51l-32 -180h-82zM425 392h72q45 0 71 13.5t26 53.5q0 45 -77 45h-72z" />
    <glyph glyph-name="macron" unicode="&#xaf;" horiz-adv-x="369" 
d="M119 618l13 70h348l-12 -70h-349z" />
    <glyph glyph-name="degree" unicode="&#xb0;" horiz-adv-x="356" 
d="M267 417q-61 0 -97 36t-36 92q0 75 46 121t106 46q62 0 98 -36t36 -92q0 -77 -46 -122t-107 -45zM269 473q34 0 62 26t28 76q0 35 -20.5 58t-54.5 23q-32 0 -60.5 -27t-28.5 -74q0 -36 20.5 -59t53.5 -23z" />
    <glyph glyph-name="plusminus" unicode="&#xb1;" horiz-adv-x="587" 
d="M268 132l24 138h-191l17 98h192l24 138h97l-24 -138h191l-17 -98h-191l-25 -138h-97zM54 0l17 98h480l-17 -98h-480z" />
    <glyph glyph-name="uni00B2" unicode="&#xb2;" horiz-adv-x="443" 
d="M100 273q11 68 47 105.5t130 93.5q72 43 92.5 62t20.5 46q0 41 -57 41q-74 0 -85 -75h-99q11 77 60 122t129 45q70 0 112 -30t42 -83q0 -62 -34.5 -97t-130.5 -89q-82 -49 -86 -61h206l-14 -80h-333z" />
    <glyph glyph-name="uni00B3" unicode="&#xb3;" horiz-adv-x="425" 
d="M261 264q-80 0 -120.5 41t-26.5 119h93q-5 -35 12.5 -54t54.5 -19q85 0 85 68q0 46 -66 46h-30l12 68h32q72 0 72 54q0 39 -57 39q-67 0 -79 -64h-93q13 70 63.5 110.5t123.5 40.5q67 0 103 -28t36 -74q0 -37 -21 -66.5t-52 -39.5q25 -7 40 -29.5t15 -54.5
q0 -70 -56.5 -113.5t-140.5 -43.5z" />
    <glyph glyph-name="acute" unicode="&#xb4;" horiz-adv-x="231" 
d="M172 575l99 142h137l-154 -142h-82z" />
    <glyph glyph-name="uni00B5" unicode="&#xb5;" horiz-adv-x="604" 
d="M44 -182l123 699h130l-52 -296q-22 -113 72 -113q101 0 124 134l49 275h130l-91 -517h-124l10 57q-21 -32 -59 -51.5t-77 -19.5q-52 0 -72 23l-34 -191h-129z" />
    <glyph glyph-name="paragraph" unicode="&#xb6;" horiz-adv-x="651" 
d="M81 -178l16 93h45q53 0 74.5 20t29.5 68l60 338q-89 0 -137.5 40t-48.5 114q0 105 73 162t189 57h356l-14 -79h-75l-141 -796h-96l140 796h-98l-115 -653q-15 -88 -59 -124t-150 -36h-49z" />
    <glyph glyph-name="periodcentered" unicode="&#xb7;" horiz-adv-x="262" 
d="M169 213q-31 0 -51 21.5t-20 51.5q0 38 30.5 67t69.5 29q30 0 49.5 -20.5t19.5 -51.5q0 -37 -30.5 -67t-67.5 -30z" />
    <glyph glyph-name="cedilla" unicode="&#xb8;" horiz-adv-x="252" 
d="M100 -219q-80 0 -121 38l43 49q28 -25 68 -25q56 0 56 39q0 24 -34 24q-24 0 -43 -4l-18 25l71 73h57l-41 -43l1 -2q16 2 30 2q30 0 51 -15t21 -48q0 -58 -42 -85.5t-99 -27.5z" />
    <glyph glyph-name="uni00B9" unicode="&#xb9;" horiz-adv-x="299" 
d="M186 273l50 283q-57 -7 -112 -7l13 73q113 0 142 82h82l-76 -431h-99z" />
    <glyph glyph-name="ordmasculine" unicode="&#xba;" horiz-adv-x="399" 
d="M271 380q-64 0 -101.5 39t-37.5 102q0 79 54 137t134 58q64 0 101.5 -40t37.5 -105q0 -78 -54 -134.5t-134 -56.5zM283 459q37 0 62 29.5t25 73.5q0 35 -16 54.5t-44 19.5q-39 0 -64.5 -29t-25.5 -75q0 -35 16.5 -54t46.5 -19z" />
    <glyph glyph-name="guillemotright" unicode="&#xbb;" horiz-adv-x="419" 
d="M75 84l20 112l99 76l-73 75l21 111l124 -124l-22 -124zM241 84l20 112l99 76l-73 75l21 111l124 -124l-22 -124z" />
    <glyph glyph-name="onequarter" unicode="&#xbc;" horiz-adv-x="825" 
d="M132 -23l527 744h89l-526 -744h-90zM188 273l49 278q-72 -2 -111 -2l13 73q57 0 91.5 18.5t50.5 63.5h82l-76 -431h-99zM632 1l14 79h-213l15 84l257 266h100l-47 -268h63l-14 -82h-63l-15 -79h-97zM548 162h112l26 142h-2z" />
    <glyph glyph-name="onehalf" unicode="&#xbd;" horiz-adv-x="877" 
d="M154 -23l527 744h89l-526 -744h-90zM188 273l49 278q-72 -2 -111 -2l13 73q57 0 91.5 18.5t50.5 63.5h82l-76 -431h-99zM499 0q12 67 47 103t127 92q79 48 97 65.5t18 46.5q0 41 -54 41q-73 0 -87 -75h-99q14 77 68 122t141 45q60 0 97 -30.5t37 -82.5q0 -23 -2.5 -40
t-13.5 -33.5t-19.5 -27t-34 -28t-43 -27.5t-59.5 -35q-76 -43 -79 -56h206l-14 -80h-333z" />
    <glyph glyph-name="threequarters" unicode="&#xbe;" horiz-adv-x="893" 
d="M230 -23l527 744h89l-526 -744h-90zM263 264q-85 0 -127.5 41t-27.5 119h93q-5 -35 12 -54t55 -19q84 0 84 68q0 46 -65 46h-30l12 68h32q71 0 71 54q0 39 -56 39q-69 0 -79 -64h-93q13 70 63 110.5t124 40.5q67 0 103 -28t36 -74q0 -37 -21 -66.5t-52 -39.5
q25 -7 40 -29.5t15 -54.5q0 -70 -54.5 -113.5t-134.5 -43.5zM701 1l14 79h-212l14 84l257 266h100l-47 -268h62l-13 -82h-63l-14 -79h-98zM617 162h112l26 141h-2z" />
    <glyph glyph-name="questiondown" unicode="&#xbf;" horiz-adv-x="538" 
d="M370 543q28 0 46 -19t18 -46q0 -35 -28 -61t-63 -26q-28 0 -46 18.5t-18 46.5q0 35 28 61t63 26zM395 325q-2 -16 -4 -25q-12 -66 -38.5 -105t-76.5 -71l-16 -12q-27 -17 -42.5 -29.5t-29.5 -36t-14 -51.5q0 -34 21.5 -52.5t60.5 -18.5q103 0 125 97h135
q-18 -97 -93 -158.5t-180 -61.5q-111 0 -165 47.5t-54 118.5q0 23 5.5 45t11 37t21.5 34.5t23 28t31.5 28t31 24t35.5 25.5l19 15q53 39 64 99q3 10 3 22h126z" />
    <glyph glyph-name="Agrave" unicode="&#xc0;" horiz-adv-x="670" 
d="M522 772h-97l-119 140h145zM516 0l-27 176h-250l-90 -176h-145l384 715h148l129 -715h-149zM307 309h162l-36 242h-2z" />
    <glyph glyph-name="Aacute" unicode="&#xc1;" horiz-adv-x="670" 
d="M687 912l-168 -140h-98l121 140h145zM388 715h148l129 -715h-149l-27 176h-250l-90 -176h-145zM307 309h162l-36 242h-2z" />
    <glyph glyph-name="Acircumflex" unicode="&#xc2;" horiz-adv-x="670" 
d="M485 844l-78 -72h-96l129 140h119l81 -140h-99zM516 0l-27 176h-250l-90 -176h-145l384 715h148l129 -715h-149zM307 309h162l-36 242h-2z" />
    <glyph glyph-name="Atilde" unicode="&#xc3;" horiz-adv-x="670" 
d="M412 819q-34 0 -43 -38h-77q6 57 39 89.5t76 33.5q31 1 71 -16t55 -17q29 0 39 33h75q-6 -53 -34 -86t-72 -33q-29 0 -68.5 17t-60.5 17zM516 0l-27 176h-250l-90 -176h-145l384 715h148l129 -715h-149zM307 309h162l-36 242h-2z" />
    <glyph glyph-name="Adieresis" unicode="&#xc4;" horiz-adv-x="670" 
d="M371 774q-27 0 -46.5 19.5t-19.5 47.5q0 27 19.5 46.5t46.5 19.5q28 0 47.5 -19.5t19.5 -46.5q0 -28 -19.5 -47.5t-47.5 -19.5zM592 774q-28 0 -47 19.5t-19 47.5q0 27 19 46.5t47 19.5t47 -19.5t19 -46.5q0 -28 -19 -47.5t-47 -19.5zM516 0l-27 176h-250l-90 -176h-145
l384 715h148l129 -715h-149zM307 309h162l-36 242h-2z" />
    <glyph glyph-name="Aring" unicode="&#xc5;" horiz-adv-x="670" 
d="M466 729q-50 0 -80.5 32.5t-26.5 81.5q5 48 41 81.5t85 33.5t80 -33.5t27 -81.5q-4 -49 -40.5 -81.5t-85.5 -32.5zM417 843q-2 -27 12.5 -44.5t40.5 -17.5t44 17.5t20 44.5t-13 44.5t-41 17.5t-43.5 -17.5t-19.5 -44.5zM516 0l-27 176h-250l-90 -176h-145l384 715h148
l129 -715h-149zM307 309h162l-36 242h-2z" />
    <glyph glyph-name="AE" unicode="&#xc6;" horiz-adv-x="935" 
d="M984 593h-317l-30 -169h298l-20 -112h-298l-34 -191h325l-21 -121h-465l31 175h-202l-114 -175h-153l480 714h541zM472 282l55 311h-3l-203 -311h151z" />
    <glyph glyph-name="Ccedilla" unicode="&#xc7;" horiz-adv-x="704" 
d="M415 118q124 0 170 110h140q-23 -98 -107 -166t-193 -76l-28 -29l1 -2q16 2 30 2q30 0 51 -15t21 -48q0 -58 -42 -85.5t-99 -27.5q-80 0 -121 38l43 49q28 -25 68 -25q56 0 56 39q0 24 -34 24q-24 0 -43 -4l-18 25l57 59q-130 10 -204 97t-74 233q0 176 104.5 294.5
t266.5 118.5q129 0 207 -72.5t86 -190.5h-142q-28 130 -169 130q-95 0 -154 -77t-59 -190q0 -95 44.5 -153t141.5 -58z" />
    <glyph glyph-name="Egrave" unicode="&#xc8;" horiz-adv-x="634" 
d="M435 772l-119 140h145l71 -140h-97zM79 0l126 715h502l-21 -122h-359l-30 -169h329l-21 -121h-330l-31 -181h366l-22 -122h-509z" />
    <glyph glyph-name="Eacute" unicode="&#xc9;" horiz-adv-x="634" 
d="M395 772l121 140h145l-168 -140h-98zM79 0l126 715h502l-21 -122h-359l-30 -169h329l-21 -121h-330l-31 -181h366l-22 -122h-509z" />
    <glyph glyph-name="Ecircumflex" unicode="&#xca;" horiz-adv-x="634" 
d="M303 772l129 140h119l81 -140h-99l-56 72l-78 -72h-96zM79 0l126 715h502l-21 -122h-359l-30 -169h329l-21 -121h-330l-31 -181h366l-22 -122h-509z" />
    <glyph glyph-name="Edieresis" unicode="&#xcb;" horiz-adv-x="634" 
d="M369 774q-27 0 -46.5 19.5t-19.5 47.5q0 27 19.5 46.5t46.5 19.5q28 0 47.5 -19.5t19.5 -46.5q0 -28 -19.5 -47.5t-47.5 -19.5zM590 774q-28 0 -47 19.5t-19 47.5q0 27 19 46.5t47 19.5t47 -19.5t19 -46.5q0 -28 -19 -47.5t-47 -19.5zM79 0l126 715h502l-21 -122h-359
l-30 -169h329l-21 -121h-330l-31 -181h366l-22 -122h-509z" />
    <glyph glyph-name="Igrave" unicode="&#xcc;" horiz-adv-x="301" 
d="M255 772l-119 140h145l71 -140h-97zM79 0l126 715h143l-126 -715h-143z" />
    <glyph glyph-name="Iacute" unicode="&#xcd;" horiz-adv-x="301" 
d="M210 772l121 140h145l-168 -140h-98zM79 0l126 715h143l-126 -715h-143z" />
    <glyph glyph-name="Icircumflex" unicode="&#xce;" horiz-adv-x="301" 
d="M123 772l129 140h119l81 -140h-99l-56 72l-78 -72h-96zM79 0l126 715h143l-126 -715h-143z" />
    <glyph glyph-name="Idieresis" unicode="&#xcf;" horiz-adv-x="301" 
d="M181 774q-27 0 -46.5 19.5t-19.5 47.5q0 27 19.5 46.5t46.5 19.5q28 0 47.5 -19.5t19.5 -46.5q0 -28 -19.5 -47.5t-47.5 -19.5zM402 774q-28 0 -47 19.5t-19 47.5q0 27 19 46.5t47 19.5t47 -19.5t19 -46.5q0 -28 -19 -47.5t-47 -19.5zM79 0l126 715h143l-126 -715h-143z
" />
    <glyph glyph-name="Eth" unicode="&#xd0;" horiz-adv-x="730" 
d="M456 715q138 0 221.5 -79t83.5 -214q0 -187 -117.5 -304.5t-314.5 -117.5h-250l56 315h-97l14 74h96l57 326h251zM344 133q132 0 202 69.5t70 201.5q0 85 -46.5 131.5t-136.5 46.5h-108l-34 -193h112l-13 -74h-112l-32 -182h98z" />
    <glyph glyph-name="Ntilde" unicode="&#xd1;" horiz-adv-x="733" 
d="M333 781q6 57 39 89.5t76 33.5q31 1 71 -16t55 -17q29 0 39 33h75q-6 -53 -34 -86t-72 -33q-29 0 -68.5 17t-60.5 17q-34 0 -43 -38h-77zM79 0l126 715h129l227 -469l84 469h135l-126 -715h-130l-228 474l-83 -474h-134z" />
    <glyph glyph-name="Ograve" unicode="&#xd2;" horiz-adv-x="789" 
d="M456 772l-119 140h145l71 -140h-97zM434 -16q-149 0 -242.5 89.5t-93.5 239.5q0 179 107.5 297.5t275.5 118.5q149 0 242 -90.5t93 -240.5q0 -178 -107.5 -296t-274.5 -118zM443 118q104 0 165.5 74.5t61.5 187.5q0 93 -51.5 153.5t-147.5 60.5q-104 0 -165 -75t-61 -188
q0 -93 51 -153t147 -60z" />
    <glyph glyph-name="Oacute" unicode="&#xd3;" horiz-adv-x="789" 
d="M428 772l121 140h145l-168 -140h-98zM434 -16q-149 0 -242.5 89.5t-93.5 239.5q0 179 107.5 297.5t275.5 118.5q149 0 242 -90.5t93 -240.5q0 -178 -107.5 -296t-274.5 -118zM443 118q104 0 165.5 74.5t61.5 187.5q0 93 -51.5 153.5t-147.5 60.5q-104 0 -165 -75
t-61 -188q0 -93 51 -153t147 -60z" />
    <glyph glyph-name="Ocircumflex" unicode="&#xd4;" horiz-adv-x="789" 
d="M332 772l129 140h119l81 -140h-99l-56 72l-78 -72h-96zM434 -16q-149 0 -242.5 89.5t-93.5 239.5q0 179 107.5 297.5t275.5 118.5q149 0 242 -90.5t93 -240.5q0 -178 -107.5 -296t-274.5 -118zM443 118q104 0 165.5 74.5t61.5 187.5q0 93 -51.5 153.5t-147.5 60.5
q-104 0 -165 -75t-61 -188q0 -93 51 -153t147 -60z" />
    <glyph glyph-name="Otilde" unicode="&#xd5;" horiz-adv-x="789" 
d="M331 781q6 57 39 89.5t76 33.5q31 1 71 -16t55 -17q29 0 39 33h75q-6 -53 -34 -86t-72 -33q-29 0 -68.5 17t-60.5 17q-34 0 -43 -38h-77zM434 -16q-149 0 -242.5 89.5t-93.5 239.5q0 179 107.5 297.5t275.5 118.5q149 0 242 -90.5t93 -240.5q0 -178 -107.5 -296
t-274.5 -118zM443 118q104 0 165.5 74.5t61.5 187.5q0 93 -51.5 153.5t-147.5 60.5q-104 0 -165 -75t-61 -188q0 -93 51 -153t147 -60z" />
    <glyph glyph-name="Odieresis" unicode="&#xd6;" horiz-adv-x="789" 
d="M393 774q-27 0 -46.5 19.5t-19.5 47.5q0 27 19.5 46.5t46.5 19.5q28 0 47.5 -19.5t19.5 -46.5q0 -28 -19.5 -47.5t-47.5 -19.5zM614 774q-28 0 -47 19.5t-19 47.5q0 27 19 46.5t47 19.5t47 -19.5t19 -46.5q0 -28 -19 -47.5t-47 -19.5zM434 -16q-149 0 -242.5 89.5
t-93.5 239.5q0 179 107.5 297.5t275.5 118.5q149 0 242 -90.5t93 -240.5q0 -178 -107.5 -296t-274.5 -118zM443 118q104 0 165.5 74.5t61.5 187.5q0 93 -51.5 153.5t-147.5 60.5q-104 0 -165 -75t-61 -188q0 -93 51 -153t147 -60z" />
    <glyph glyph-name="multiply" unicode="&#xd7;" horiz-adv-x="529" 
d="M117 37l-58 70l183 163l-123 163l82 70l123 -163l182 163l58 -70l-184 -163l126 -163l-82 -70l-125 164z" />
    <glyph glyph-name="Oslash" unicode="&#xd8;" horiz-adv-x="789" 
d="M853 703l-101 -98q64 -84 64 -207q0 -178 -107.5 -296t-274.5 -118q-147 0 -238 85l-98 -94l-40 42l99 96q-59 82 -59 200q0 179 107.5 297.5t275.5 118.5q138 0 231 -80l100 97zM245 331q0 -60 23 -111l338 327q-53 47 -135 47q-104 0 -165 -75t-61 -188zM670 380
q0 68 -28 120l-340 -328q52 -54 141 -54q104 0 165.5 74.5t61.5 187.5z" />
    <glyph glyph-name="Ugrave" unicode="&#xd9;" horiz-adv-x="718" 
d="M454 772l-119 140h145l71 -140h-97zM360 -17q-116 0 -180 57.5t-64 165.5q0 44 16 133l65 376h144l-75 -424q-5 -32 -5 -56q0 -121 117 -121q146 0 176 177l75 424h143l-79 -451q-24 -134 -109.5 -207.5t-223.5 -73.5z" />
    <glyph glyph-name="Uacute" unicode="&#xda;" horiz-adv-x="718" 
d="M409 772l121 140h145l-168 -140h-98zM360 -17q-116 0 -180 57.5t-64 165.5q0 44 16 133l65 376h144l-75 -424q-5 -32 -5 -56q0 -121 117 -121q146 0 176 177l75 424h143l-79 -451q-24 -134 -109.5 -207.5t-223.5 -73.5z" />
    <glyph glyph-name="Ucircumflex" unicode="&#xdb;" horiz-adv-x="718" 
d="M317 772l129 140h119l81 -140h-99l-56 72l-78 -72h-96zM360 -17q-116 0 -180 57.5t-64 165.5q0 44 16 133l65 376h144l-75 -424q-5 -32 -5 -56q0 -121 117 -121q146 0 176 177l75 424h143l-79 -451q-24 -134 -109.5 -207.5t-223.5 -73.5z" />
    <glyph glyph-name="Udieresis" unicode="&#xdc;" horiz-adv-x="718" 
d="M390 774q-27 0 -46.5 19.5t-19.5 47.5q0 27 19.5 46.5t46.5 19.5q28 0 47.5 -19.5t19.5 -46.5q0 -28 -19.5 -47.5t-47.5 -19.5zM611 774q-28 0 -47 19.5t-19 47.5q0 27 19 46.5t47 19.5t47 -19.5t19 -46.5q0 -28 -19 -47.5t-47 -19.5zM360 -17q-116 0 -180 57.5
t-64 165.5q0 44 16 133l65 376h144l-75 -424q-5 -32 -5 -56q0 -121 117 -121q146 0 176 177l75 424h143l-79 -451q-24 -134 -109.5 -207.5t-223.5 -73.5z" />
    <glyph glyph-name="Yacute" unicode="&#xdd;" horiz-adv-x="650" 
d="M385 772l121 140h145l-168 -140h-98zM252 0l50 279l-175 435h159l113 -300l212 300h164l-330 -438l-49 -276h-144z" />
    <glyph glyph-name="Thorn" unicode="&#xde;" horiz-adv-x="642" 
d="M79 0l126 714h143l-22 -125h143q112 0 164 -51.5t52 -133.5q0 -50 -16 -95.5t-48.5 -84.5t-91 -62.5t-135.5 -23.5h-147l-25 -138h-143zM266 250h109q82 0 126 29.5t44 107.5q0 51 -34 70.5t-98 19.5h-107z" />
    <glyph glyph-name="germandbls" unicode="&#xdf;" horiz-adv-x="585" 
d="M60 0l85 482q19 106 88 176.5t195 70.5q86 0 140 -41.5t54 -119.5q0 -59 -35 -108t-76 -67q34 -12 57.5 -51t23.5 -93q0 -106 -77.5 -177.5t-202.5 -71.5h-63l18 102h48q67 0 106 37.5t39 97.5q0 43 -28.5 68.5t-78.5 25.5h-33l18 104h23q61 0 97 29.5t36 81.5
q0 74 -86 74q-53 0 -86 -31.5t-42 -84.5l-89 -504h-131z" />
    <glyph glyph-name="agrave" unicode="&#xe0;" horiz-adv-x="548" 
d="M406 575h-76l-112 142h126zM200 -14q-65 0 -106.5 36.5t-41.5 100.5q0 82 54.5 126t158.5 60l85 14q40 6 51.5 15.5t11.5 34.5q0 20 -18 32.5t-54 12.5q-92 0 -101 -56h-128q13 82 78 125.5t160 43.5q192 0 192 -144q0 -20 -5 -53l-34 -195q-1 -3 -1 -10q0 -22 24 -22h13
l-19 -107h-101q-47 0 -50 41q-1 10 -1 21l1 6q-56 -82 -169 -82zM247 89q56 0 93.5 37t45.5 90l4 24q-12 -8 -31 -11l-80 -13q-47 -9 -68.5 -25t-21.5 -48q0 -26 15 -40t43 -14z" />
    <glyph glyph-name="aacute" unicode="&#xe1;" horiz-adv-x="548" 
d="M291 575l99 142h137l-154 -142h-82zM200 -14q-65 0 -106.5 36.5t-41.5 100.5q0 82 54.5 126t158.5 60l85 14q40 6 51.5 15.5t11.5 34.5q0 20 -18 32.5t-54 12.5q-92 0 -101 -56h-128q13 82 78 125.5t160 43.5q192 0 192 -144q0 -20 -5 -53l-34 -195q-1 -3 -1 -10
q0 -22 24 -22h13l-19 -107h-101q-47 0 -50 41q-1 10 -1 21l1 6q-56 -82 -169 -82zM247 89q56 0 93.5 37t45.5 90l4 24q-12 -8 -31 -11l-80 -13q-47 -9 -68.5 -25t-21.5 -48q0 -26 15 -40t43 -14z" />
    <glyph glyph-name="acircumflex" unicode="&#xe2;" horiz-adv-x="548" 
d="M199 575l131 142h119l80 -142h-100l-56 73l-78 -73h-96zM200 -14q-65 0 -106.5 36.5t-41.5 100.5q0 82 54.5 126t158.5 60l85 14q40 6 51.5 15.5t11.5 34.5q0 20 -18 32.5t-54 12.5q-92 0 -101 -56h-128q13 82 78 125.5t160 43.5q192 0 192 -144q0 -20 -5 -53l-34 -195
q-1 -3 -1 -10q0 -22 24 -22h13l-19 -107h-101q-47 0 -50 41q-1 10 -1 21l1 6q-56 -82 -169 -82zM247 89q56 0 93.5 37t45.5 90l4 24q-12 -8 -31 -11l-80 -13q-47 -9 -68.5 -25t-21.5 -48q0 -26 15 -40t43 -14z" />
    <glyph glyph-name="atilde" unicode="&#xe3;" horiz-adv-x="548" 
d="M193 586q7 59 41 92.5t80 34.5q29 1 66.5 -15t51.5 -16q34 0 46 31h83q-8 -55 -39.5 -88.5t-80.5 -33.5q-30 0 -68 15.5t-54 15.5q-38 0 -50 -36h-76zM200 -14q-65 0 -106.5 36.5t-41.5 100.5q0 82 54.5 126t158.5 60l85 14q40 6 51.5 15.5t11.5 34.5q0 20 -18 32.5
t-54 12.5q-92 0 -101 -56h-128q13 82 78 125.5t160 43.5q192 0 192 -144q0 -20 -5 -53l-34 -195q-1 -3 -1 -10q0 -22 24 -22h13l-19 -107h-101q-47 0 -50 41q-1 10 -1 21l1 6q-56 -82 -169 -82zM247 89q56 0 93.5 37t45.5 90l4 24q-12 -8 -31 -11l-80 -13q-47 -9 -68.5 -25
t-21.5 -48q0 -26 15 -40t43 -14z" />
    <glyph glyph-name="adieresis" unicode="&#xe4;" horiz-adv-x="548" 
d="M276 590q-26 0 -42.5 17t-16.5 43q0 34 20 53t49 19q26 0 42.5 -16.5t16.5 -42.5q0 -36 -19.5 -54.5t-49.5 -18.5zM469 590q-25 0 -41.5 17t-16.5 43q0 34 20 53t49 19q26 0 42.5 -16.5t16.5 -42.5q0 -36 -19.5 -54.5t-50.5 -18.5zM200 -14q-65 0 -106.5 36.5
t-41.5 100.5q0 82 54.5 126t158.5 60l85 14q40 6 51.5 15.5t11.5 34.5q0 20 -18 32.5t-54 12.5q-92 0 -101 -56h-128q13 82 78 125.5t160 43.5q192 0 192 -144q0 -20 -5 -53l-34 -195q-1 -3 -1 -10q0 -22 24 -22h13l-19 -107h-101q-47 0 -50 41q-1 10 -1 21l1 6
q-56 -82 -169 -82zM247 89q56 0 93.5 37t45.5 90l4 24q-12 -8 -31 -11l-80 -13q-47 -9 -68.5 -25t-21.5 -48q0 -26 15 -40t43 -14z" />
    <glyph glyph-name="aring" unicode="&#xe5;" horiz-adv-x="548" 
d="M358 541q-43 0 -70.5 28t-27.5 70q0 54 42 94t97 40q43 0 70.5 -28.5t27.5 -71.5q0 -54 -42 -93t-97 -39zM367 595q30 0 50 21t20 51q0 23 -13 37t-35 14q-29 0 -49.5 -21t-20.5 -51q0 -23 13 -37t35 -14zM200 -14q-65 0 -106.5 36.5t-41.5 100.5q0 82 54.5 126t158.5 60
l85 14q40 6 51.5 15.5t11.5 34.5q0 20 -18 32.5t-54 12.5q-92 0 -101 -56h-128q13 82 78 125.5t160 43.5q192 0 192 -144q0 -20 -5 -53l-34 -195q-1 -3 -1 -10q0 -22 24 -22h13l-19 -107h-101q-47 0 -50 41q-1 10 -1 21l1 6q-56 -82 -169 -82zM247 89q56 0 93.5 37t45.5 90
l4 24q-12 -8 -31 -11l-80 -13q-47 -9 -68.5 -25t-21.5 -48q0 -26 15 -40t43 -14z" />
    <glyph glyph-name="ae" unicode="&#xe6;" horiz-adv-x="862" 
d="M522 217q2 -116 94 -116q77 0 109 60h125q-27 -81 -91 -128t-160 -47q-119 0 -170 91q-83 -91 -206 -91q-77 0 -124.5 36.5t-47.5 100.5q0 157 214 186l85 13q37 6 50 18t13 33q0 20 -18 32.5t-53 12.5q-91 0 -102 -56h-128q13 82 79 125.5t161 43.5q120 0 162 -58
q72 58 169 58t151.5 -56.5t54.5 -154.5q0 -46 -17 -103h-350zM537 317h224q-2 97 -97 97q-92 0 -127 -97zM386 216l4 21q-14 -6 -32 -8l-79 -13q-46 -7 -68 -24t-22 -49q0 -25 15.5 -39t43.5 -14q59 0 94.5 36t43.5 90z" />
    <glyph glyph-name="ccedilla" unicode="&#xe7;" horiz-adv-x="541" 
d="M340 410q-66 0 -100 -52t-34 -126q0 -56 25 -90.5t78 -34.5q91 0 116 79h127q-20 -86 -78.5 -137t-141.5 -61l-30 -31l1 -2q16 2 30 2q30 0 51 -15t21 -48q0 -58 -42 -85.5t-99 -27.5q-80 0 -121 38l43 49q28 -25 68 -25q56 0 56 39q0 24 -34 24q-24 0 -43 -4l-18 25
l58 60q-92 7 -145.5 69t-53.5 161q0 134 76.5 224t202.5 90q98 0 158.5 -57.5t58.5 -145.5h-131q-16 82 -99 82z" />
    <glyph glyph-name="egrave" unicode="&#xe8;" horiz-adv-x="548" 
d="M420 575h-76l-112 142h126zM205 217q7 -116 110 -116q73 0 100 60h127q-21 -82 -85.5 -128.5t-149.5 -46.5q-107 0 -169.5 62t-62.5 177q0 135 77 220t196 85q101 0 161 -64t60 -164q0 -36 -7 -85h-357zM215 317h227q-11 97 -109 97q-87 0 -118 -97z" />
    <glyph glyph-name="eacute" unicode="&#xe9;" horiz-adv-x="548" 
d="M534 717l-154 -142h-82l99 142h137zM205 217q7 -116 110 -116q73 0 100 60h127q-21 -82 -85.5 -128.5t-149.5 -46.5q-107 0 -169.5 62t-62.5 177q0 135 77 220t196 85q101 0 161 -64t60 -164q0 -36 -7 -85h-357zM215 317h227q-11 97 -109 97q-87 0 -118 -97z" />
    <glyph glyph-name="ecircumflex" unicode="&#xea;" horiz-adv-x="548" 
d="M380 648l-78 -73h-96l131 142h119l80 -142h-100zM205 217q7 -116 110 -116q73 0 100 60h127q-21 -82 -85.5 -128.5t-149.5 -46.5q-107 0 -169.5 62t-62.5 177q0 135 77 220t196 85q101 0 161 -64t60 -164q0 -36 -7 -85h-357zM215 317h227q-11 97 -109 97q-87 0 -118 -97z
" />
    <glyph glyph-name="edieresis" unicode="&#xeb;" horiz-adv-x="548" 
d="M283 590q-26 0 -42.5 17t-16.5 43q0 34 20 53t49 19q26 0 42.5 -16.5t16.5 -42.5q0 -36 -19.5 -54.5t-49.5 -18.5zM476 590q-25 0 -41.5 17t-16.5 43q0 34 20 53t49 19q26 0 42.5 -16.5t16.5 -42.5q0 -36 -19.5 -54.5t-50.5 -18.5zM205 217q7 -116 110 -116q73 0 100 60
h127q-21 -82 -85.5 -128.5t-149.5 -46.5q-107 0 -169.5 62t-62.5 177q0 135 77 220t196 85q101 0 161 -64t60 -164q0 -36 -7 -85h-357zM215 317h227q-11 97 -109 97q-87 0 -118 -97z" />
    <glyph glyph-name="igrave" unicode="&#xec;" horiz-adv-x="251" 
d="M278 575h-76l-112 142h126zM60 0l91 517h130l-91 -517h-130z" />
    <glyph glyph-name="iacute" unicode="&#xed;" horiz-adv-x="251" 
d="M172 575l99 142h137l-154 -142h-82zM60 0l91 517h130l-91 -517h-130z" />
    <glyph glyph-name="icircumflex" unicode="&#xee;" horiz-adv-x="251" 
d="M86 575l118 142h107l72 -142h-90l-50 73l-70 -73h-87zM60 0l91 517h130l-91 -517h-130z" />
    <glyph glyph-name="idieresis" unicode="&#xef;" horiz-adv-x="251" 
d="M133 590q-26 0 -42.5 17t-16.5 43q0 34 20 53t49 19q26 0 42.5 -16.5t16.5 -42.5q0 -36 -19.5 -54.5t-49.5 -18.5zM326 590q-25 0 -41.5 17t-16.5 43q0 34 20 53t49 19q26 0 42.5 -16.5t16.5 -42.5q0 -36 -19.5 -54.5t-50.5 -18.5zM60 0l91 517h130l-91 -517h-130z" />
    <glyph glyph-name="eth" unicode="&#xf0;" horiz-adv-x="573" 
d="M492 646q97 -128 97 -295q0 -47 -6 -88q-6 -124 -81 -200t-192 -76q-107 0 -171.5 62t-64.5 170q0 129 77 215t199 86q48 0 86 -13q-34 56 -62 83l-117 -57l-23 62l85 41q-24 22 -41 32l82 94q51 -32 85 -66l126 63l27 -61zM317 102q66 0 100.5 45t34.5 129
q0 62 -30.5 96t-82.5 34q-65 0 -99 -48.5t-34 -128.5q0 -61 30 -94t81 -33z" />
    <glyph glyph-name="ntilde" unicode="&#xf1;" horiz-adv-x="576" 
d="M207 586q7 59 41 92.5t80 34.5q29 1 66.5 -15t51.5 -16q34 0 46 31h83q-8 -55 -39.5 -88.5t-80.5 -33.5q-31 0 -69 15.5t-53 15.5q-38 0 -50 -36h-76zM60 0l91 517h124l-10 -59q24 34 67.5 53.5t87.5 19.5q76 0 119 -41.5t43 -115.5q0 -22 -5 -54l-57 -320h-130l52 289
q3 17 3 32q0 39 -21.5 61.5t-60.5 22.5q-49 0 -81.5 -35t-42.5 -93l-49 -277h-130z" />
    <glyph glyph-name="ograve" unicode="&#xf2;" horiz-adv-x="569" 
d="M400 575h-76l-112 142h126zM310 -13q-107 0 -171.5 63.5t-64.5 173.5q0 131 77 219t200 88q105 0 168.5 -63.5t64.5 -175.5q1 -135 -75.5 -220t-198.5 -85zM316 104q66 0 101.5 47.5t35.5 134.5q0 62 -30.5 95t-82.5 33q-65 0 -100 -52.5t-35 -129.5q-1 -61 29.5 -94.5
t81.5 -33.5z" />
    <glyph glyph-name="oacute" unicode="&#xf3;" horiz-adv-x="569" 
d="M297 575l99 142h137l-154 -142h-82zM310 -13q-107 0 -171.5 63.5t-64.5 173.5q0 131 77 219t200 88q105 0 168.5 -63.5t64.5 -175.5q1 -135 -75.5 -220t-198.5 -85zM316 104q66 0 101.5 47.5t35.5 134.5q0 62 -30.5 95t-82.5 33q-65 0 -100 -52.5t-35 -129.5
q-1 -61 29.5 -94.5t81.5 -33.5z" />
    <glyph glyph-name="ocircumflex" unicode="&#xf4;" horiz-adv-x="569" 
d="M194 575l131 142h119l80 -142h-100l-56 73l-78 -73h-96zM310 -13q-107 0 -171.5 63.5t-64.5 173.5q0 131 77 219t200 88q105 0 168.5 -63.5t64.5 -175.5q1 -135 -75.5 -220t-198.5 -85zM316 104q66 0 101.5 47.5t35.5 134.5q0 62 -30.5 95t-82.5 33q-65 0 -100 -52.5
t-35 -129.5q-1 -61 29.5 -94.5t81.5 -33.5z" />
    <glyph glyph-name="otilde" unicode="&#xf5;" horiz-adv-x="569" 
d="M178 586q7 59 41 92.5t80 34.5q29 1 66.5 -15t51.5 -16q34 0 46 31h83q-8 -55 -39.5 -88.5t-80.5 -33.5q-30 0 -68 15.5t-54 15.5q-38 0 -50 -36h-76zM310 -13q-107 0 -171.5 63.5t-64.5 173.5q0 131 77 219t200 88q105 0 168.5 -63.5t64.5 -175.5q1 -135 -75.5 -220
t-198.5 -85zM316 104q66 0 101.5 47.5t35.5 134.5q0 62 -30.5 95t-82.5 33q-65 0 -100 -52.5t-35 -129.5q-1 -61 29.5 -94.5t81.5 -33.5z" />
    <glyph glyph-name="odieresis" unicode="&#xf6;" horiz-adv-x="569" 
d="M284 590q-26 0 -42.5 17t-16.5 43q0 34 20 53t49 19q26 0 42.5 -16.5t16.5 -42.5q0 -36 -19.5 -54.5t-49.5 -18.5zM477 590q-25 0 -41.5 17t-16.5 43q0 34 20 53t49 19q26 0 42.5 -16.5t16.5 -42.5q0 -36 -19.5 -54.5t-50.5 -18.5zM310 -13q-107 0 -171.5 63.5
t-64.5 173.5q0 131 77 219t200 88q105 0 168.5 -63.5t64.5 -175.5q1 -135 -75.5 -220t-198.5 -85zM316 104q66 0 101.5 47.5t35.5 134.5q0 62 -30.5 95t-82.5 33q-65 0 -100 -52.5t-35 -129.5q-1 -61 29.5 -94.5t81.5 -33.5z" />
    <glyph glyph-name="divide" unicode="&#xf7;" horiz-adv-x="556" 
d="M349 398q-29 0 -48 20t-19 49q0 37 29 64.5t65 27.5q28 0 47 -20t19 -49q0 -35 -29 -63.5t-64 -28.5zM77 221l17 99h480l-17 -99h-480zM275 -18q-28 0 -47 20.5t-19 49.5q0 36 29 63t65 27q28 0 46.5 -19.5t18.5 -48.5q0 -34 -29 -63t-64 -29z" />
    <glyph glyph-name="oslash" unicode="&#xf8;" horiz-adv-x="569" 
d="M584 292q1 -135 -75.5 -220t-198.5 -85q-54 0 -96 16l-54 -99l-38 20l53 98q-101 61 -101 202q0 131 77 219t200 88q53 0 94 -16l53 97l38 -21l-52 -95q99 -62 100 -204zM205 232q-1 -64 32 -97l148 271q-21 8 -45 8q-65 0 -100 -52.5t-35 -129.5zM316 104
q66 0 101.5 47.5t35.5 134.5q0 61 -32 96l-148 -271q18 -7 43 -7z" />
    <glyph glyph-name="ugrave" unicode="&#xf9;" horiz-adv-x="568" 
d="M423 575h-76l-112 142h126zM243 -14q-91 0 -131 56.5t-22 157.5l56 317h130l-51 -292q-11 -61 7.5 -87.5t66.5 -26.5q98 0 122 132l48 274h130l-91 -517h-124l10 57q-21 -33 -62.5 -52t-88.5 -19z" />
    <glyph glyph-name="uacute" unicode="&#xfa;" horiz-adv-x="568" 
d="M310 575l99 142h137l-154 -142h-82zM243 -14q-91 0 -131 56.5t-22 157.5l56 317h130l-51 -292q-11 -61 7.5 -87.5t66.5 -26.5q98 0 122 132l48 274h130l-91 -517h-124l10 57q-21 -33 -62.5 -52t-88.5 -19z" />
    <glyph glyph-name="ucircumflex" unicode="&#xfb;" horiz-adv-x="568" 
d="M212 575l131 142h119l80 -142h-100l-56 73l-78 -73h-96zM243 -14q-91 0 -131 56.5t-22 157.5l56 317h130l-51 -292q-11 -61 7.5 -87.5t66.5 -26.5q98 0 122 132l48 274h130l-91 -517h-124l10 57q-21 -33 -62.5 -52t-88.5 -19z" />
    <glyph glyph-name="udieresis" unicode="&#xfc;" horiz-adv-x="568" 
d="M283 590q-26 0 -42.5 17t-16.5 43q0 34 20 53t49 19q26 0 42.5 -16.5t16.5 -42.5q0 -36 -19.5 -54.5t-49.5 -18.5zM476 590q-25 0 -41.5 17t-16.5 43q0 34 20 53t49 19q26 0 42.5 -16.5t16.5 -42.5q0 -36 -19.5 -54.5t-50.5 -18.5zM243 -14q-91 0 -131 56.5t-22 157.5
l56 317h130l-51 -292q-11 -61 7.5 -87.5t66.5 -26.5q98 0 122 132l48 274h130l-91 -517h-124l10 57q-21 -33 -62.5 -52t-88.5 -19z" />
    <glyph glyph-name="yacute" unicode="&#xfd;" horiz-adv-x="515" 
d="M285 575l99 142h137l-154 -142h-82zM11 -216l19 110h101q33 0 53 15q21 17 21 49q0 25 -11 71l-95 488h142l28 -190l29 -202l169 392h135l-300 -613q-32 -65 -73.5 -92.5t-107.5 -27.5h-110z" />
    <glyph glyph-name="thorn" unicode="&#xfe;" horiz-adv-x="582" 
d="M408 531q84 0 137.5 -60.5t53.5 -154.5q0 -151 -73 -240.5t-183 -89.5q-99 0 -143 70l-47 -272h-130l163 933h123l-42 -244q61 58 141 58zM333 106q63 0 97.5 55.5t34.5 131.5q0 57 -27 87.5t-76 30.5q-59 0 -95.5 -51t-36.5 -141q0 -52 26.5 -82.5t76.5 -30.5z" />
    <glyph glyph-name="ydieresis" unicode="&#xff;" horiz-adv-x="515" 
d="M265 590q-26 0 -42.5 17t-16.5 43q0 34 20 53t49 19q26 0 42.5 -16.5t16.5 -42.5q0 -36 -19.5 -54.5t-49.5 -18.5zM458 590q-25 0 -41.5 17t-16.5 43q0 34 20 53t49 19q26 0 42.5 -16.5t16.5 -42.5q0 -36 -19.5 -54.5t-50.5 -18.5zM11 -216l19 110h101q33 0 53 15
q21 17 21 49q0 25 -11 71l-95 488h142l28 -190l29 -202l169 392h135l-300 -613q-32 -65 -73.5 -92.5t-107.5 -27.5h-110z" />
    <glyph glyph-name="dotlessi" unicode="&#x131;" horiz-adv-x="251" 
d="M60 0l91 517h130l-91 -517h-130z" />
    <glyph glyph-name="Ldot" unicode="&#x13f;" horiz-adv-x="562" 
d="M79 0l126 715h143l-103 -585h317l-23 -130h-460zM489 314q-31 0 -51 21.5t-20 51.5q0 38 30.5 67t69.5 29q30 0 49.5 -20.5t19.5 -51.5q0 -37 -30.5 -67t-67.5 -30z" />
    <glyph glyph-name="ldot" unicode="&#x140;" horiz-adv-x="380" 
d="M181 0q-60 0 -87 25.5t-16 89.5l106 602h130l-101 -571q-7 -38 30 -38h42l-19 -108h-85zM369 291q-31 0 -51 21.5t-20 51.5q0 38 30.5 67t69.5 29q30 0 49.5 -20.5t19.5 -51.5q0 -37 -30.5 -67t-67.5 -30z" />
    <glyph glyph-name="Lslash" unicode="&#x141;" horiz-adv-x="556" 
d="M245 130h317l-23 -130h-460l46 261l-98 -63l19 103l97 63l62 351h143l-44 -248l113 73l-19 -103l-112 -72z" />
    <glyph glyph-name="lslash" unicode="&#x142;" horiz-adv-x="323" 
d="M276 384l-42 -238q-7 -38 30 -38h42l-19 -108h-85q-60 0 -87 25.5t-16 89.5l29 163l-72 -51l17 95l71 51l61 344h130l-42 -238l76 54l-18 -95z" />
    <glyph glyph-name="OE" unicode="&#x152;" horiz-adv-x="1093" 
d="M367 -17q-133 0 -203 84.5t-70 215.5q0 115 50.5 217.5t144.5 166.5t210 64q118 0 168 -65l8 49h491l-21 -122h-356l-30 -169h327l-21 -114h-326l-33 -188h362l-21 -122h-498l11 58q-78 -75 -193 -75zM397 106q65 0 113 28t70 69l55 307q-34 98 -147 98q-49 0 -91 -19
t-70.5 -50t-48.5 -72t-29 -83.5t-9 -85.5q0 -83 39 -137.5t118 -54.5z" />
    <glyph glyph-name="oe" unicode="&#x153;" horiz-adv-x="922" 
d="M579 217q7 -116 110 -116q73 0 100 60h127q-21 -82 -85.5 -128.5t-149.5 -46.5q-120 0 -182 76q-75 -75 -189 -75q-107 0 -171.5 63.5t-64.5 173.5q0 131 77 219t200 88q120 0 182 -79q75 78 189 78q101 0 161 -64t60 -164q0 -36 -7 -85h-357zM316 104q55 0 89 33.5
t44 95.5q0 17 4 49v4q0 62 -30.5 95t-82.5 33q-65 0 -100 -52.5t-35 -129.5q-1 -61 29.5 -94.5t81.5 -33.5zM589 317h227q-11 97 -109 97q-87 0 -118 -97z" />
    <glyph glyph-name="Scaron" unicode="&#x160;" horiz-adv-x="630" 
d="M369 772l-81 140h99l58 -72l79 72h96l-132 -140h-119zM334 -17q-118 0 -191 47.5t-73 143.5q0 27 6 60h139q-3 -18 -3 -33q0 -100 128 -100q150 0 150 103q0 39 -30.5 58.5t-120.5 48.5q-94 28 -145.5 71.5t-51.5 120.5q0 109 84.5 168.5t204.5 59.5q104 0 170.5 -44.5
t66.5 -137.5q0 -24 -4 -47h-139q1 8 1 21q0 92 -116 92q-53 0 -89 -20.5t-36 -66.5q0 -34 30.5 -53.5t121.5 -50.5q46 -17 75.5 -31.5t60.5 -37.5t46 -55.5t15 -75.5q0 -106 -77.5 -173.5t-222.5 -67.5z" />
    <glyph glyph-name="scaron" unicode="&#x161;" horiz-adv-x="500" 
d="M277 575l-80 141h98l56 -73l79 73h97l-131 -141h-119zM257 -14q-198 0 -198 145q0 20 2 31h125q-1 -5 -1 -12q0 -57 90 -57q47 0 68 11.5t21 37.5q0 19 -14.5 29.5t-55.5 24.5l-60 20q-62 21 -95.5 53.5t-33.5 88.5q0 88 65.5 130.5t162.5 42.5q83 0 135.5 -32t52.5 -101
q0 -15 -3 -33h-126l2 10q0 48 -78 48q-76 0 -76 -44q0 -16 11.5 -26t45.5 -22l77 -28q63 -22 93.5 -53t30.5 -82q0 -94 -65.5 -138t-175.5 -44z" />
    <glyph glyph-name="Ydieresis" unicode="&#x178;" horiz-adv-x="650" 
d="M354 774q-27 0 -46.5 19.5t-19.5 47.5q0 27 19.5 46.5t46.5 19.5q28 0 47.5 -19.5t19.5 -46.5q0 -28 -19.5 -47.5t-47.5 -19.5zM575 774q-28 0 -47 19.5t-19 47.5q0 27 19 46.5t47 19.5t47 -19.5t19 -46.5q0 -28 -19 -47.5t-47 -19.5zM252 0l50 279l-175 435h159
l113 -300l212 300h164l-330 -438l-49 -276h-144z" />
    <glyph glyph-name="Zcaron" unicode="&#x17d;" horiz-adv-x="638" 
d="M381 772l-81 140h99l58 -72l79 72h96l-132 -140h-119zM39 0l22 117l286 306q105 114 152 159h-352l23 132h538l-22 -117l-297 -317q-118 -126 -141 -148h381l-23 -132h-567z" />
    <glyph glyph-name="zcaron" unicode="&#x17e;" horiz-adv-x="503" 
d="M273 575l-80 141h98l56 -73l79 73h97l-131 -141h-119zM34 0l18 99l299 302h-245l21 116h414l-17 -99l-301 -302h274l-20 -116h-443z" />
    <glyph glyph-name="florin" unicode="&#x192;" horiz-adv-x="499" 
d="M-52 -167l20 114h70q35 0 52.5 17.5t31.5 56.5l113 321h-90l33 90h89l42 117q33 92 81 128.5t139 36.5h82l-21 -115h-66q-37 0 -56 -15t-31 -50l-37 -102h95l-32 -90h-95l-110 -320q-35 -102 -83.5 -145.5t-145.5 -43.5h-81z" />
    <glyph glyph-name="uni0237" unicode="&#x237;" horiz-adv-x="259" 
d="M-104 -216l22 125h84q51 0 59 48l98 560h130l-102 -584q-15 -80 -56.5 -114.5t-134.5 -34.5h-100z" />
    <glyph glyph-name="circumflex" unicode="&#x2c6;" horiz-adv-x="349" 
d="M116 575l131 142h119l80 -142h-100l-56 73l-78 -73h-96z" />
    <glyph glyph-name="caron" unicode="&#x2c7;" horiz-adv-x="349" 
d="M221 575l-80 141h98l56 -73l79 73h97l-131 -141h-119z" />
    <glyph glyph-name="uni02C9" unicode="&#x2c9;" horiz-adv-x="369" 
d="M119 621l13 70h348l-12 -70h-349z" />
    <glyph glyph-name="breve" unicode="&#x2d8;" horiz-adv-x="336" 
d="M266 570q-67 0 -103.5 36.5t-26.5 109.5h70q-4 -73 74 -73q76 0 104 73h68q-21 -74 -70 -110t-116 -36z" />
    <glyph glyph-name="dotaccent" unicode="&#x2d9;" horiz-adv-x="181" 
d="M233 576q-34 0 -54.5 19.5t-20.5 53.5q0 38 23.5 64t61.5 26q34 0 55 -20.5t21 -54.5q0 -38 -23.5 -63t-62.5 -25z" />
    <glyph glyph-name="ring" unicode="&#x2da;" horiz-adv-x="253" 
d="M219 541q-43 0 -70.5 28t-27.5 70q0 54 42 94t97 40q43 0 70.5 -28.5t27.5 -71.5q0 -54 -42 -93t-97 -39zM228 595q30 0 50 21t20 51q0 23 -13 37t-35 14q-29 0 -49.5 -21t-20.5 -51q0 -23 13 -37t35 -14z" />
    <glyph glyph-name="ogonek" unicode="&#x2db;" horiz-adv-x="239" 
d="M74 -216q-40 0 -65 18.5t-25 50.5q0 43 36.5 78t101.5 69h60q-59 -43 -81 -71t-22 -53q0 -32 34 -32q29 0 60 27l28 -29q-58 -58 -127 -58z" />
    <glyph glyph-name="tilde" unicode="&#x2dc;" horiz-adv-x="360" 
d="M110 586q7 59 41 92.5t80 34.5q29 1 66.5 -15t51.5 -16q34 0 46 31h83q-8 -55 -39.5 -88.5t-80.5 -33.5q-30 0 -68.5 15.5t-53.5 15.5q-38 0 -50 -36h-76z" />
    <glyph glyph-name="hungarumlaut" unicode="&#x2dd;" horiz-adv-x="389" 
d="M114 575l81 142h129l-127 -142h-83zM288 575l91 142h129l-137 -142h-83z" />
    <glyph glyph-name="gravecomb" unicode="&#x300;" 
d="M53 575h-76l-112 142h126z" />
    <glyph glyph-name="acutecomb" unicode="&#x301;" 
d="M-161 575l99 142h137l-154 -142h-82z" />
    <glyph glyph-name="uni0302" unicode="&#x302;" 
d="M-244 575l131 142h119l80 -142h-100l-56 73l-78 -73h-96z" />
    <glyph glyph-name="tildecomb" unicode="&#x303;" 
d="M-249 586q7 59 41 92.5t80 34.5q29 1 66.5 -15t51.5 -16q34 0 46 31h83q-8 -55 -39.5 -88.5t-80.5 -33.5q-31 0 -69 15.5t-53 15.5q-38 0 -50 -36h-76z" />
    <glyph glyph-name="uni0304" unicode="&#x304;" 
d="M-250 618l13 70h348l-12 -70h-349z" />
    <glyph glyph-name="uni0306" unicode="&#x306;" 
d="M-70 570q-67 0 -103.5 36.5t-26.5 109.5h70q-4 -73 74 -73q76 0 104 73h68q-21 -74 -70 -110t-116 -36z" />
    <glyph glyph-name="uni0307" unicode="&#x307;" 
d="M-12 576q-34 0 -54.5 19.5t-20.5 53.5q0 38 23.5 64t61.5 26q34 0 55 -20.5t21 -54.5q0 -38 -23.5 -63t-62.5 -25z" />
    <glyph glyph-name="uni0308" unicode="&#x308;" 
d="M-156 590q-26 0 -42.5 17t-16.5 43q0 34 20 53t49 19q26 0 42.5 -16.5t16.5 -42.5q0 -36 -19.5 -54.5t-49.5 -18.5zM37 590q-25 0 -41.5 17t-16.5 43q0 34 20 53t49 19q26 0 42.5 -16.5t16.5 -42.5q0 -36 -19.5 -54.5t-50.5 -18.5z" />
    <glyph glyph-name="uni030A" unicode="&#x30a;" 
d="M-29 541q-43 0 -70.5 28t-27.5 70q0 54 42 94t97 40q43 0 70.5 -28.5t27.5 -71.5q0 -54 -42 -93t-97 -39zM-20 595q30 0 50 21t20 51q0 23 -13 37t-35 14q-29 0 -49.5 -21t-20.5 -51q0 -23 13 -37t35 -14z" />
    <glyph glyph-name="uni030B" unicode="&#x30b;" 
d="M-281 575l81 142h129l-127 -142h-83zM-107 575l91 142h129l-137 -142h-83z" />
    <glyph glyph-name="uni030C" unicode="&#x30c;" 
d="M-139 575l-80 141h98l56 -73l79 73h97l-131 -141h-119z" />
    <glyph glyph-name="uni0326" unicode="&#x326;" 
d="M-242 -269l9 52q50 4 59 29h-1q-30 0 -48.5 16.5t-18.5 47.5q0 40 29 67t66 27q72 0 72 -72q0 -79 -47.5 -123t-119.5 -44z" />
    <glyph glyph-name="uni0327" unicode="&#x327;" 
d="M-172 -219q-80 0 -121 38l43 49q28 -25 68 -25q56 0 56 39q0 24 -34 24q-24 0 -43 -4l-18 25l71 73h57l-41 -43l1 -2q16 2 30 2q30 0 51 -15t21 -48q0 -58 -42 -85.5t-99 -27.5z" />
    <glyph glyph-name="uni0328" unicode="&#x328;" 
d="M-175 -216q-40 0 -65 18.5t-25 50.5q0 43 36.5 78t101.5 69h60q-59 -43 -81 -71t-22 -53q0 -32 34 -32q29 0 60 27l28 -29q-58 -58 -127 -58z" />
    <glyph glyph-name="uni0335" unicode="&#x335;" 
d="M-261 570l14 74h351l-13 -74h-352z" />
    <glyph glyph-name="uni0336" unicode="&#x336;" 
d="M-536 565h571l-13 -69h-570z" />
    <glyph glyph-name="uni0337" unicode="&#x337;" 
d="M-226 240l17 95l296 211l-18 -95z" />
    <glyph glyph-name="uni0338" unicode="&#x338;" 
d="M-432 -98l-38 20l376 688l38 -21z" />
    <glyph glyph-name="uni0394" unicode="&#x394;" horiz-adv-x="653" 
d="M8 0l374 712h131l139 -712h-644zM193 114h306l-77 458z" />
    <glyph glyph-name="uni03A9" unicode="&#x3a9;" horiz-adv-x="726" 
d="M49 0l19 108h170l5 27q-61 29 -94 89.5t-33 134.5q0 157 107 259.5t257 102.5q122 0 198.5 -71.5t76.5 -188.5q0 -105 -60.5 -198t-164.5 -128l-5 -27h170l-19 -108h-269l36 208q83 19 130 86.5t47 151.5q0 71 -41.5 115.5t-114.5 44.5q-96 0 -155.5 -68.5t-59.5 -171.5
q0 -60 27 -101.5t80 -56.5l-37 -208h-270z" />
    <glyph glyph-name="uni03BC" unicode="&#x3bc;" horiz-adv-x="573" 
d="M29 -181l122 698h130l-52 -296q-11 -58 6.5 -85.5t66.5 -27.5q100 0 123 134l49 275h130l-91 -517h-124l8 47q-52 -61 -128 -61q-53 0 -76 27l-35 -194h-129z" />
    <glyph glyph-name="pi" unicode="&#x3c0;" horiz-adv-x="619" 
d="M486 -8q-60 0 -77.5 35t-5.5 99l44 251h-160l-67 -377h-118l66 377h-74l19 109h550l-19 -109h-80l-39 -219q-7 -22 -2.5 -44t29.5 -22q20 0 42 12l-15 -88q-53 -24 -93 -24z" />
    <glyph glyph-name="endash" unicode="&#x2013;" horiz-adv-x="588" 
d="M94 217l21 111h475l-21 -111h-475z" />
    <glyph glyph-name="emdash" unicode="&#x2014;" horiz-adv-x="816" 
d="M94 217l21 111h703l-21 -111h-703z" />
    <glyph glyph-name="quoteleft" unicode="&#x2018;" horiz-adv-x="247" 
d="M199 421q-31 0 -50 20t-19 57q0 52 18.5 95.5t47 69t59 39.5t57.5 14l-11 -64q-27 0 -51 -22.5t-29 -50.5h4q32 0 50.5 -18.5t18.5 -48.5q0 -38 -28 -64.5t-67 -26.5z" />
    <glyph glyph-name="quoteright" unicode="&#x2019;" horiz-adv-x="247" 
d="M251 716q32 0 51 -20t19 -57q0 -52 -19 -95.5t-47.5 -69t-59 -39.5t-57.5 -14l11 64q27 0 51 22t29 50h-4q-32 0 -50 18.5t-18 48.5q0 39 27.5 65.5t66.5 26.5z" />
    <glyph glyph-name="quotesinglbase" unicode="&#x201a;" horiz-adv-x="256" 
d="M151 157q32 0 51 -20t19 -57q0 -100 -60.5 -158.5t-122.5 -60.5l11 64q27 0 51 22.5t29 50.5h-4q-32 0 -50 18.5t-18 48.5q0 39 27.5 65.5t66.5 26.5z" />
    <glyph glyph-name="quotedblleft" unicode="&#x201c;" horiz-adv-x="445" 
d="M199 420q-31 0 -50 20t-19 57q0 52 18.5 95.5t47 69t59 39.5t57.5 14l-11 -64q-27 0 -51 -22t-29 -50h4q32 0 50 -18.5t18 -48.5q0 -39 -27.5 -65.5t-66.5 -26.5zM398 420q-31 0 -50 20t-19 57q0 52 18.5 95.5t47 69t59 39.5t57.5 14l-12 -64q-27 0 -50.5 -22t-28.5 -50
h4q32 0 50 -18.5t18 -48.5q0 -39 -27.5 -65.5t-66.5 -26.5z" />
    <glyph glyph-name="quotedblright" unicode="&#x201d;" horiz-adv-x="445" 
d="M251 716q32 0 51 -20t19 -57q0 -52 -19 -95.5t-47.5 -69t-59 -39.5t-57.5 -14l11 64q27 0 51 22t29 50h-4q-32 0 -50 18.5t-18 48.5q0 39 27.5 65.5t66.5 26.5zM450 716q31 0 50.5 -20.5t19.5 -56.5q0 -52 -19 -95.5t-47.5 -69t-59 -39.5t-57.5 -14l11 64q27 0 50.5 22
t28.5 50h-4q-31 0 -49 18.5t-18 48.5q0 39 27.5 65.5t66.5 26.5z" />
    <glyph glyph-name="quotedblbase" unicode="&#x201e;" horiz-adv-x="458" 
d="M151 157q32 0 51 -20t19 -57q0 -100 -60.5 -158.5t-122.5 -60.5l11 64q27 0 51 22.5t29 50.5h-4q-32 0 -50 18.5t-18 48.5q0 39 27.5 65.5t66.5 26.5zM354 157q31 0 50 -20t19 -57q0 -53 -18.5 -96t-47 -68.5t-59 -39.5t-57.5 -15l11 64q27 0 50.5 22.5t28.5 50.5h-4
q-31 0 -49.5 18.5t-18.5 48.5q0 39 28 65.5t67 26.5z" />
    <glyph glyph-name="dagger" unicode="&#x2020;" horiz-adv-x="582" 
d="M200 -163l100 568h-177l18 107h177l36 202h124l-36 -202h179l-18 -107h-179l-101 -568h-123z" />
    <glyph glyph-name="daggerdbl" unicode="&#x2021;" horiz-adv-x="582" 
d="M200 -163l34 193h-178l19 107h177l49 272h-178l19 108h177l35 197h124l-35 -197h179l-18 -108h-180l-48 -272h179l-19 -107h-179l-34 -193h-123z" />
    <glyph glyph-name="bullet" unicode="&#x2022;" horiz-adv-x="436" 
d="M275 151q-59 0 -101 41.5t-42 100.5t42 100.5t101 41.5t100.5 -41.5t41.5 -100.5t-41.5 -100.5t-100.5 -41.5z" />
    <glyph glyph-name="ellipsis" unicode="&#x2026;" horiz-adv-x="817" 
d="M112 -5q-31 0 -51 21.5t-20 51.5q0 38 30.5 67t69.5 29q31 0 50.5 -20.5t19.5 -51.5q0 -38 -30.5 -67.5t-68.5 -29.5zM409 -5q-31 0 -51 21.5t-20 51.5q0 38 30.5 67t69.5 29q31 0 50.5 -20.5t19.5 -51.5q0 -38 -30.5 -67.5t-68.5 -29.5zM690 -5q-31 0 -51 21.5t-20 51.5
q0 39 30.5 67.5t69.5 28.5q31 0 50.5 -20.5t19.5 -51.5q0 -38 -30.5 -67.5t-68.5 -29.5z" />
    <glyph glyph-name="perthousand" unicode="&#x2030;" horiz-adv-x="1274" 
d="M180 -24l526 746h87l-524 -746h-89zM296 343q-82 0 -128.5 46.5t-46.5 118.5q0 90 60 146t144 56q82 0 128 -46.5t46 -118.5q0 -90 -60 -146t-143 -56zM306 431q44 0 70.5 31.5t26.5 67.5q0 37 -22 65t-66 28q-45 0 -72 -32t-27 -71q0 -36 22 -62.5t68 -26.5zM655 -13
q-82 0 -128.5 46.5t-46.5 118.5q0 90 60 146t143 56q82 0 128.5 -46.5t46.5 -118.5q0 -90 -60 -146t-143 -56zM1078 -13q-82 0 -128.5 46.5t-46.5 118.5q0 90 60 146t144 56q82 0 128 -46.5t46 -118.5q0 -90 -60 -146t-143 -56zM665 75q44 0 70.5 31.5t26.5 67.5
q0 37 -22 65t-66 28q-46 0 -72.5 -32t-26.5 -71q0 -36 22 -62.5t68 -26.5zM1088 75q44 0 70.5 31.5t26.5 67.5q0 37 -22 65t-66 28q-45 0 -72 -32t-27 -71q0 -36 22 -62.5t68 -26.5z" />
    <glyph glyph-name="guilsinglleft" unicode="&#x2039;" horiz-adv-x="253" 
d="M208 84l-125 126l22 124l169 124l-20 -111l-98 -75l71 -76z" />
    <glyph glyph-name="guilsinglright" unicode="&#x203a;" horiz-adv-x="253" 
d="M75 84l20 112l99 76l-73 75l21 111l124 -124l-22 -124z" />
    <glyph glyph-name="fraction" unicode="&#x2044;" horiz-adv-x="480" 
d="M-6 -23l527 744h89l-525 -744h-91z" />
    <glyph glyph-name="Euro" unicode="&#x20ac;" horiz-adv-x="634" 
d="M355 -3q-106 0 -164 70.5t-47 198.5h-67l12 70h61l6 28q2 15 4 19h-62l12 69h70q32 124 117.5 197t189.5 73q90 0 148 -52.5t48 -156.5h-124q-6 89 -95 89q-51 0 -90.5 -39t-57.5 -111h211l-13 -69h-219q-3 -9 -5 -23q-1 -4 -2.5 -12.5t-1.5 -11.5h219l-13 -70h-212
q-8 -73 17 -111t76 -38q91 0 130 95h123q-18 -75 -66 -125.5t-100 -70t-105 -19.5z" />
    <glyph glyph-name="trademark" unicode="&#x2122;" horiz-adv-x="949" 
d="M203 302l58 332h-117l14 79h336l-14 -79h-117l-59 -332h-101zM475 302l72 411h117l85 -168l143 168h112l-72 -411h-97l48 271l-124 -152h-69l-70 152l-49 -271h-96z" />
    <glyph glyph-name="minus" unicode="&#x2212;" horiz-adv-x="579" 
d="M99 223l17 99h460l-17 -99h-460z" />
    <glyph glyph-name="uniF004" unicode="&#xf004;" horiz-adv-x="266" 
d="M36 -269l9 52q50 4 59 29h-1q-30 0 -48.5 16.5t-18.5 47.5q0 40 29 67t66 27q72 0 72 -72q0 -79 -47.5 -123t-119.5 -44z" />
    <glyph glyph-name="uniF8FF" unicode="&#xf8ff;" horiz-adv-x="878" 
d="M239 717h372v-120h-246v-189q40 -14 95.5 -43.5t97.5 -53.5t96.5 -43t102.5 -19l47 4q-2 -4 -8 -9t-30.5 -14t-58.5 -9q-125 0 -342 113v-334h-126v386q-24 10 -52 10q-34 0 -56 -14.5t-22 -42.5q0 -19 10 -35t27 -22q-26 1 -41 18t-15 45q0 40 33.5 65t92.5 25
q14 0 23 -2v284z" />
    <glyph glyph-name="a.ss01" horiz-adv-x="584" 
d="M486 517h129l-91 -517h-129l7 38q-58 -52 -135 -52q-85 0 -137.5 59.5t-52.5 152.5q0 151 72.5 242t181.5 91q101 0 145 -72zM311 106q64 0 98.5 52.5t34.5 139.5q0 53 -26 82.5t-77 29.5q-60 0 -95.5 -55t-35.5 -132q0 -57 27 -87t74 -30z" />
    <glyph glyph-name="aacute.ss01" horiz-adv-x="584" 
d="M564 717l-154 -142h-82l99 142h137zM486 517h129l-91 -517h-129l7 38q-58 -52 -135 -52q-85 0 -137.5 59.5t-52.5 152.5q0 151 72.5 242t181.5 91q101 0 145 -72zM311 106q64 0 98.5 52.5t34.5 139.5q0 53 -26 82.5t-77 29.5q-60 0 -95.5 -55t-35.5 -132q0 -57 27 -87
t74 -30z" />
    <glyph glyph-name="acircumflex.ss01" horiz-adv-x="584" 
d="M410 648l-78 -73h-96l131 142h119l80 -142h-100zM486 517h129l-91 -517h-129l7 38q-58 -52 -135 -52q-85 0 -137.5 59.5t-52.5 152.5q0 151 72.5 242t181.5 91q101 0 145 -72zM311 106q64 0 98.5 52.5t34.5 139.5q0 53 -26 82.5t-77 29.5q-60 0 -95.5 -55t-35.5 -132
q0 -57 27 -87t74 -30z" />
    <glyph glyph-name="adieresis.ss01" horiz-adv-x="584" 
d="M314 590q-26 0 -42.5 17t-16.5 43q0 34 20 53t49 19q26 0 42.5 -16.5t16.5 -42.5q0 -36 -19.5 -54.5t-49.5 -18.5zM507 590q-25 0 -41.5 17t-16.5 43q0 34 20 53t49 19q26 0 42.5 -16.5t16.5 -42.5q0 -36 -19.5 -54.5t-50.5 -18.5zM486 517h129l-91 -517h-129l7 38
q-58 -52 -135 -52q-85 0 -137.5 59.5t-52.5 152.5q0 151 72.5 242t181.5 91q101 0 145 -72zM311 106q64 0 98.5 52.5t34.5 139.5q0 53 -26 82.5t-77 29.5q-60 0 -95.5 -55t-35.5 -132q0 -57 27 -87t74 -30z" />
    <glyph glyph-name="agrave.ss01" horiz-adv-x="584" 
d="M452 575h-76l-112 142h126zM486 517h129l-91 -517h-129l7 38q-58 -52 -135 -52q-85 0 -137.5 59.5t-52.5 152.5q0 151 72.5 242t181.5 91q101 0 145 -72zM311 106q64 0 98.5 52.5t34.5 139.5q0 53 -26 82.5t-77 29.5q-60 0 -95.5 -55t-35.5 -132q0 -57 27 -87t74 -30z
" />
    <glyph glyph-name="aring.ss01" horiz-adv-x="584" 
d="M395 541q-43 0 -70.5 28t-27.5 70q0 54 42 94t97 40q43 0 70.5 -28.5t27.5 -71.5q0 -54 -42 -93t-97 -39zM426 718q-29 0 -49.5 -21t-20.5 -51q0 -23 13 -37t35 -14q30 0 50 21t20 51q0 23 -13 37t-35 14zM486 517h129l-91 -517h-129l7 38q-58 -52 -135 -52
q-85 0 -137.5 59.5t-52.5 152.5q0 151 72.5 242t181.5 91q101 0 145 -72zM311 106q64 0 98.5 52.5t34.5 139.5q0 53 -26 82.5t-77 29.5q-60 0 -95.5 -55t-35.5 -132q0 -57 27 -87t74 -30z" />
    <glyph glyph-name="atilde.ss01" horiz-adv-x="584" 
d="M357 622q-38 0 -50 -36h-76q7 59 41 92.5t80 34.5q29 1 66.5 -15t51.5 -16q34 0 46 31h83q-8 -55 -39.5 -88.5t-80.5 -33.5q-30 0 -68 15.5t-54 15.5zM486 517h129l-91 -517h-129l7 38q-58 -52 -135 -52q-85 0 -137.5 59.5t-52.5 152.5q0 151 72.5 242t181.5 91
q101 0 145 -72zM311 106q64 0 98.5 52.5t34.5 139.5q0 53 -26 82.5t-77 29.5q-60 0 -95.5 -55t-35.5 -132q0 -57 27 -87t74 -30z" />
    <glyph glyph-name="g.ss01" horiz-adv-x="587" 
d="M573 517h84l-19 -107h-19q-23 0 -29 -32l-68 -386q-19 -108 -77.5 -158.5t-161.5 -50.5h-214l19 111h181q57 0 84.5 22t37.5 75l8 43q-56 -48 -128 -48q-88 0 -141.5 60.5t-53.5 156.5q0 151 74 239.5t183 88.5q99 0 145 -78q17 64 95 64zM312 106q63 0 97.5 53.5
t34.5 134.5q0 57 -27.5 86.5t-73.5 29.5q-59 0 -96.5 -50t-37.5 -132q0 -122 103 -122z" />
    <glyph glyph-name="k.ss01" horiz-adv-x="537" 
d="M621 517l-235 -247l156 -270h-162l-114 203h-39l-37 -203h-130l126 714h130l-69 -393h42l182 196h150z" />
    <glyph glyph-name="t.ss01" horiz-adv-x="366" 
d="M117 0l72 408h-99l19 109h99l27 154h130l-27 -154h105l-19 -109h-105l-72 -408h-130z" />
    <glyph glyph-name="y.ss01" horiz-adv-x="515" 
d="M29 -216l20 110h81q30 0 45 6t19 25l12 52l-108 540h139l60 -381l168 381h134l-273 -549l-18 -80q-11 -58 -39.5 -81t-86.5 -23h-153z" />
    <glyph glyph-name="yacute.ss01" horiz-adv-x="515" 
d="M281 575l99 142h137l-154 -142h-82zM29 -216l20 110h81q30 0 45 6t19 25l12 52l-108 540h139l60 -381l168 381h134l-273 -549l-18 -80q-11 -58 -39.5 -81t-86.5 -23h-153z" />
    <glyph glyph-name="ydieresis.ss01" horiz-adv-x="515" 
d="M253 590q-26 0 -42.5 17t-16.5 43q0 34 20 53t49 19q26 0 42.5 -16.5t16.5 -42.5q0 -36 -19.5 -54.5t-49.5 -18.5zM446 590q-25 0 -41.5 17t-16.5 43q0 34 20 53t49 19q26 0 42.5 -16.5t16.5 -42.5q0 -36 -19.5 -54.5t-50.5 -18.5zM29 -216l20 110h81q30 0 45 6t19 25
l12 52l-108 540h139l60 -381l168 381h134l-273 -549l-18 -80q-11 -58 -39.5 -81t-86.5 -23h-153z" />
    <glyph glyph-name="zero.osf" horiz-adv-x="603" 
d="M313 -11q-103 0 -168.5 56t-65.5 167q0 162 87.5 247.5t216.5 85.5q101 0 167.5 -58.5t66.5 -167.5q0 -163 -87 -246.5t-217 -83.5zM328 100q46 0 78.5 22t47 57t20 66t5.5 62q0 55 -27 91.5t-84 36.5q-52 0 -87.5 -34t-48.5 -78.5t-13 -94.5q0 -56 27 -92t82 -36z" />
    <glyph glyph-name="one.osf" horiz-adv-x="382" 
d="M182 0l57 328h-158l17 96q157 2 205 110h103l-94 -534h-130z" />
    <glyph glyph-name="two.osf" horiz-adv-x="528" 
d="M37 0q9 50 29.5 88.5t53.5 67t63.5 46.5t78.5 40q91 43 122.5 70t31.5 67q0 59 -80 59q-94 0 -108 -79h-123q14 87 78.5 136t170.5 49q89 0 141.5 -37.5t52.5 -108.5q0 -36 -12.5 -67t-29 -51t-45.5 -40t-49 -30.5t-52 -24.5q-119 -56 -134 -80h281l-19 -105h-451z" />
    <glyph glyph-name="three.osf" horiz-adv-x="573" 
d="M277 -183q-132 0 -195 67.5t-40 180.5h126q-10 -64 16.5 -102t96.5 -38q65 0 97.5 31.5t32.5 86.5q0 104 -134 104h-19l16 93h12q69 0 116 26t47 85q0 39 -27.5 61.5t-72.5 22.5q-118 0 -128 -129h-126q10 115 81 176.5t185 61.5q94 0 152 -46.5t58 -124.5
q0 -60 -31.5 -106t-88.5 -66q96 -32 96 -148q0 -109 -76.5 -172.5t-193.5 -63.5z" />
    <glyph glyph-name="four.osf" horiz-adv-x="571" 
d="M305 -165l29 165h-311l19 109l382 424h128l-75 -425h89l-19 -108h-89l-29 -165h-124zM170 108h182l44 246h-3z" />
    <glyph glyph-name="five.osf" horiz-adv-x="544" 
d="M258 -181q-112 0 -170.5 56.5t-49.5 161.5h131q-5 -50 20 -80t77 -30q66 0 98.5 46.5t32.5 123.5q0 102 -105 102q-67 0 -101 -56h-116l96 387h395l-20 -113h-285l-37 -147q43 38 121 38q89 0 138 -47.5t49 -133.5q0 -136 -69 -222t-205 -86z" />
    <glyph glyph-name="six.osf" horiz-adv-x="577" 
d="M386 465q95 0 145.5 -53t50.5 -143q0 -125 -72.5 -204t-183.5 -79q-123 0 -180 69t-57 182q0 89 16 169t50.5 151t97 113t146.5 42q112 0 162 -53t50 -138h-126q0 88 -95 88q-52 0 -92 -49.5t-56 -153.5q55 59 144 59zM326 94q55 0 86 45t31 115q0 50 -25.5 79t-74.5 29
q-58 0 -89 -41t-31 -110q0 -52 25 -84.5t78 -32.5z" />
    <glyph glyph-name="seven.osf" horiz-adv-x="508" 
d="M90 -167q80 359 334 583h-337l21 114h478l-20 -113q-273 -238 -340 -584h-136z" />
    <glyph glyph-name="eight.osf" horiz-adv-x="569" 
d="M301 -14q-111 0 -170 50.5t-59 137.5q0 76 38.5 128t100.5 77q-64 40 -64 124q0 91 67 150t174 59q98 0 154 -48t56 -126q0 -55 -29.5 -98.5t-76.5 -64.5q35 -17 57 -55.5t22 -91.5q0 -109 -75.5 -175.5t-194.5 -66.5zM368 420q48 0 77.5 29t29.5 74q0 38 -25 62t-70 24
q-54 0 -83 -28.5t-29 -73.5q0 -39 27 -63t73 -24zM311 89q61 0 94.5 35t33.5 94q0 48 -29 77t-79 29q-55 0 -90 -36t-35 -94q0 -50 28 -77.5t77 -27.5z" />
    <glyph glyph-name="nine.osf" horiz-adv-x="570" 
d="M335 543q123 0 180 -69t57 -182q0 -89 -16 -169t-50.5 -151t-97 -113t-146.5 -42q-112 0 -162 53t-50 138h126q0 -88 95 -88q52 0 92 49.5t56 153.5q-55 -59 -144 -59q-95 0 -145.5 53t-50.5 143q0 125 72.5 204t183.5 79zM318 167q58 0 89 41t31 110q0 52 -25 84.5
t-78 32.5q-55 0 -86 -45t-31 -115q0 -50 25.5 -79t74.5 -29z" />
    <glyph glyph-name="zero.tf" horiz-adv-x="598" 
d="M313 -13q-108 0 -170 65.5t-58 201.5q3 112 29 200t69 143.5t97.5 84t117.5 28.5q106 0 167.5 -66t58.5 -202q-7 -220 -95 -337.5t-216 -117.5zM321 95q41 0 73.5 38t49.5 94.5t25.5 108.5t9.5 93q4 172 -92 172q-41 0 -73 -38t-49 -94.5t-26 -107.5t-10 -92
q-4 -174 92 -174z" />
    <glyph glyph-name="one.tf" horiz-adv-x="598" 
d="M279 0l82 463h-174l18 99q88 2 143.5 31.5t81.5 104.5h103l-123 -698h-131z" />
    <glyph glyph-name="two.tf" horiz-adv-x="598" 
d="M64 0q15 108 73.5 175t179.5 142q45 27 66 41t52.5 40.5t45 54.5t13.5 60q0 40 -25 61.5t-71 21.5q-111 0 -134 -134h-126q17 119 92 183.5t195 64.5q89 0 146 -46.5t57 -128.5q0 -28 -4.5 -53.5t-17 -48.5t-21.5 -39.5t-32 -38t-33 -31t-40.5 -30.5t-38.5 -25.5
t-42 -26.5q-135 -86 -149 -128h318l-21 -114h-483z" />
    <glyph glyph-name="three.tf" horiz-adv-x="598" 
d="M317 -15q-132 0 -195 67.5t-40 180.5h126q-10 -64 16.5 -102t96.5 -38q65 0 97.5 31.5t32.5 86.5q0 104 -134 104h-19l16 93h12q69 0 116 26t47 85q0 39 -27.5 61.5t-72.5 22.5q-118 0 -128 -129h-126q10 115 81 176.5t185 61.5q94 0 152 -46.5t58 -124.5
q0 -60 -31.5 -106t-88.5 -66q96 -32 96 -148q0 -109 -76.5 -172.5t-193.5 -63.5z" />
    <glyph glyph-name="four.tf" horiz-adv-x="598" 
d="M349 0l26 151h-316l20 111l390 436h127l-77 -439h89l-19 -108h-89l-26 -151h-125zM200 259h195l45 260h-3z" />
    <glyph glyph-name="five.tf" horiz-adv-x="598" 
d="M314 -13q-112 0 -170.5 56.5t-49.5 161.5h131q-5 -50 20 -80t77 -30q66 0 98.5 46.5t32.5 123.5q0 102 -105 102q-67 0 -101 -56h-116l96 387h395l-20 -113h-285l-37 -147q43 38 121 38q89 0 138 -47.5t49 -133.5q0 -136 -69 -222t-205 -86z" />
    <glyph glyph-name="six.tf" horiz-adv-x="598" 
d="M407 465q95 0 145.5 -53t50.5 -143q0 -125 -72.5 -204t-183.5 -79q-123 0 -180 69t-57 182q0 89 16 169t50.5 151t97 113t146.5 42q112 0 162 -53t50 -138h-126q0 88 -95 88q-52 0 -92 -49.5t-56 -153.5q55 59 144 59zM347 94q55 0 86 45t31 115q0 50 -25.5 79t-74.5 29
q-58 0 -89 -41t-31 -110q0 -52 25 -84.5t78 -32.5z" />
    <glyph glyph-name="seven.tf" horiz-adv-x="598" 
d="M146 0q78 352 325 577h-335l21 121h484l-20 -113q-280 -255 -339 -585h-136z" />
    <glyph glyph-name="eight.tf" horiz-adv-x="598" 
d="M314 -14q-111 0 -170 50.5t-59 137.5q0 76 38.5 128t100.5 77q-64 40 -64 124q0 91 67 150t174 59q98 0 154 -48t56 -126q0 -55 -29.5 -98.5t-76.5 -64.5q35 -17 57 -55.5t22 -91.5q0 -109 -75.5 -175.5t-194.5 -66.5zM381 420q48 0 77.5 29t29.5 74q0 38 -25 62t-70 24
q-54 0 -83 -28.5t-29 -73.5q0 -39 27 -63t73 -24zM324 89q61 0 94.5 35t33.5 94q0 48 -29 77t-79 29q-55 0 -90 -36t-35 -94q0 -50 27.5 -77.5t77.5 -27.5z" />
    <glyph glyph-name="nine.tf" horiz-adv-x="598" 
d="M386 712q123 0 180 -69t57 -182q0 -89 -16 -169t-50.5 -151t-97 -113t-146.5 -42q-112 0 -162 53t-50 138h126q0 -88 95 -88q52 0 92 49.5t56 153.5q-55 -59 -144 -59q-95 0 -145.5 53t-50.5 143q0 125 72.5 204t183.5 79zM369 336q58 0 89 41t31 110q0 52 -25 84.5
t-78 32.5q-55 0 -86 -45t-31 -115q0 -50 25.5 -79t74.5 -29z" />
    <glyph glyph-name="dollar.osf" horiz-adv-x="508" 
d="M521 361h-120q9 55 -43 67l-17 -100q79 -24 120 -55t41 -89q0 -89 -56 -140.5t-165 -56.5l-12 -66h-54l12 66q-195 11 -159 195h119q-13 -75 59 -83l21 118l-4 1q-73 20 -111.5 50.5t-38.5 87.5q0 83 61.5 130t149.5 51l13 75h54l-14 -77q171 -15 144 -174zM235 387
q0 -14 12 -23.5t43 -19.5l15 87q-70 -5 -70 -44zM379 153q0 16 -13.5 27t-46.5 22l-19 -104q40 2 59.5 14t19.5 41z" />
    <glyph glyph-name="Euro.osf" horiz-adv-x="573" 
d="M321 -14q-95 0 -150.5 50.5t-47.5 156.5h-60l10 59h55q2 14 5 22h-56l11 60h64q28 101 102 155.5t170 54.5q24 0 48.5 -4t50.5 -15.5t45 -29t29.5 -47.5t6.5 -68h-122q-3 51 -83 51q-44 0 -73.5 -26.5t-38.5 -70.5h180l-11 -60h-190q-2 -7 -4 -22h190l-12 -59h-181
q-6 -45 15 -69.5t65 -24.5q78 0 98 50h122q-13 -46 -42 -80t-64.5 -51t-68 -24.5t-63.5 -7.5z" />
    <glyph glyph-name="florin.osf" horiz-adv-x="399" 
d="M397 540h76l-20 -115h-60q-61 0 -73 -40l-19 -60h81l-30 -81h-77l-68 -215q-29 -89 -74.5 -126t-140.5 -37h-74l21 116h62q31 0 45.5 11t22.5 36l71 215h-81l31 81h76l24 73q27 79 73 110.5t134 31.5z" />
    <glyph glyph-name="sterling.osf" horiz-adv-x="572" 
d="M588 343h-120q14 101 -73 101q-42 0 -63 -21t-21 -56q0 -20 10 -68h114l-12 -68h-90q1 -8 1 -26q0 -41 -12 -82q56 -14 150 -14h76l-19 -109h-116q-94 0 -155 25q-50 -42 -122 -42q-41 0 -69.5 21t-28.5 67t35 71.5t90 25.5q24 0 40 -3v13q0 15 -6 53h-92l12 68h67
q-5 30 -5 56q0 73 58 132t173 59q104 0 150 -51.5t28 -151.5zM145 73q13 0 25 5q-12 7 -23 7q-14 0 -14 -6t12 -6z" />
    <glyph glyph-name="yen.osf" horiz-adv-x="586" 
d="M220 0l19 112h-134l16 86h133l-36 83h-120l16 87h75l-78 172h158l86 -211l146 211h164l-138 -170h75l-16 -87h-119l-68 -85h134l-16 -86h-134l-20 -112h-143z" />
    <glyph glyph-name="caroncomb.alt" 
d="M-73 539l10 53q23 2 41 13.5t22 28.5h-2q-24 0 -39 14t-15 39q0 33 24 55t54 22q29 0 44 -17t15 -47q0 -67 -39.5 -111t-114.5 -50z" />
    <glyph glyph-name="uni0326.alt" 
d="M-22 573q-35 0 -53.5 19t-18.5 54q0 72 48.5 116.5t118.5 44.5l-10 -51q-50 -5 -59 -29h1q29 0 48.5 -17t19.5 -45q0 -40 -29 -66t-66 -26z" />
    <glyph glyph-name="uni0308.case" 
d="M-150 774q-27 0 -46.5 19.5t-19.5 47.5q0 27 19.5 46.5t46.5 19.5q28 0 47.5 -19.5t19.5 -46.5q0 -28 -19.5 -47.5t-47.5 -19.5zM71 774q-28 0 -47 19.5t-19 47.5q0 27 19 46.5t47 19.5t47 -19.5t19 -46.5q0 -28 -19 -47.5t-47 -19.5z" />
    <glyph glyph-name="uni0307.case" 
d="M14 763q-29 0 -48.5 20t-19.5 49q0 36 29.5 64t66.5 28q30 0 49 -20t19 -49q0 -37 -29 -64.5t-67 -27.5z" />
    <glyph glyph-name="gravecomb.case" 
d="M26 772l-119 140h145l71 -140h-97z" />
    <glyph glyph-name="acutecomb.case" 
d="M-118 772l121 140h145l-168 -140h-98z" />
    <glyph glyph-name="uni030B.case" 
d="M-250 772l90 140h129l-137 -140h-82zM-76 772l100 140h129l-147 -140h-82z" />
    <glyph glyph-name="uni0302.case" 
d="M-211 772l129 140h119l81 -140h-99l-56 72l-78 -72h-96z" />
    <glyph glyph-name="uni030C.case" 
d="M-104 772l-81 140h99l58 -72l79 72h96l-132 -140h-119z" />
    <glyph glyph-name="uni0306.case" 
d="M-33 772q-67 0 -102.5 34.5t-26.5 103.5h70q-4 -65 73 -65q74 0 99 65h68q-20 -69 -68 -103.5t-113 -34.5z" />
    <glyph glyph-name="uni030A.case" 
d="M16 729q-50 0 -80.5 32.5t-26.5 81.5q5 48 41 81.5t85 33.5t80 -33.5t27 -81.5q-4 -49 -40.5 -81.5t-85.5 -32.5zM20 781q26 0 44 17.5t20 44.5t-13 44.5t-41 17.5t-43.5 -17.5t-19.5 -44.5t12.5 -44.5t40.5 -17.5z" />
    <glyph glyph-name="tildecomb.case" 
d="M-213 781q6 57 39 89.5t76 33.5q31 1 71 -16t55 -17q29 0 39 33h75q-6 -53 -34 -86t-72 -33q-29 0 -68.5 17t-60.5 17q-34 0 -43 -38h-77z" />
    <glyph glyph-name="uni0304.case" 
d="M-216 810l12 69h349l-12 -69h-349z" />
    <glyph glyph-name="uni0337.case" 
d="M-342 197l19 103l371 239l-19 -103z" />
    <glyph glyph-name="uni0338.case" 
d="M-675 -28l-40 42l754 729l41 -43z" />
    <glyph glyph-name="caron.alt" horiz-adv-x="157" 
d="M153 539l10 53q23 2 41 13.5t22 28.5h-2q-24 0 -39 14t-15 39q0 33 24 55t54 22q29 0 44 -17t15 -47q0 -67 -39.5 -111t-114.5 -50z" />
    <glyph glyph-name="acute.case" horiz-adv-x="261" 
d="M148 772l121 140h145l-168 -140h-98z" />
    <glyph glyph-name="breve.case" horiz-adv-x="331" 
d="M303 772q-67 0 -102.5 34.5t-26.5 103.5h70q-4 -65 73 -65q74 0 99 65h68q-20 -69 -68 -103.5t-113 -34.5z" />
    <glyph glyph-name="caron.case" horiz-adv-x="352" 
d="M256 772l-81 140h99l58 -72l79 72h96l-132 -140h-119z" />
    <glyph glyph-name="circumflex.case" horiz-adv-x="354" 
d="M154 772l129 140h119l81 -140h-99l-56 72l-78 -72h-96z" />
    <glyph glyph-name="dieresis.case" horiz-adv-x="373" 
d="M223 774q-27 0 -46.5 19.5t-19.5 47.5q0 27 19.5 46.5t46.5 19.5q28 0 47.5 -19.5t19.5 -46.5q0 -28 -19.5 -47.5t-47.5 -19.5zM444 774q-28 0 -47 19.5t-19 47.5q0 27 19 46.5t47 19.5t47 -19.5t19 -46.5q0 -28 -19 -47.5t-47 -19.5z" />
    <glyph glyph-name="dotaccent.case" horiz-adv-x="181" 
d="M259 763q-29 0 -48.5 20t-19.5 49q0 36 29.5 64t66.5 28q30 0 49 -20t19 -49q0 -37 -29 -64.5t-67 -27.5z" />
    <glyph glyph-name="grave.case" horiz-adv-x="261" 
d="M292 772l-119 140h145l71 -140h-97z" />
    <glyph glyph-name="hungarumlaut.case" horiz-adv-x="399" 
d="M144 772l90 140h129l-137 -140h-82zM318 772l100 140h129l-147 -140h-82z" />
    <glyph glyph-name="macron.case" horiz-adv-x="369" 
d="M153 810l12 69h349l-12 -69h-349z" />
    <glyph glyph-name="ring.case" horiz-adv-x="253" 
d="M264 729q-50 0 -80.5 32.5t-26.5 81.5q5 48 41 81.5t85 33.5t80 -33.5t27 -81.5q-4 -49 -40.5 -81.5t-85.5 -32.5zM268 781q26 0 44 17.5t20 44.5t-13 44.5t-41 17.5t-43.5 -17.5t-19.5 -44.5t12.5 -44.5t40.5 -17.5z" />
    <glyph glyph-name="tilde.case" horiz-adv-x="360" 
d="M146 781q6 57 39 89.5t76 33.5q31 1 71 -16t55 -17q29 0 39 33h75q-6 -53 -34 -86t-72 -33q-29 0 -68.5 17t-60.5 17q-34 0 -43 -38h-77z" />
    </font>
</defs>
</svg>
