<?xml version="1.0" standalone="no"?>
<!DOCTYPE svg PUBLIC "-//W3C//DTD SVG 1.1//EN" "http://www.w3.org/Graphics/SVG/1.1/DTD/svg11.dtd" >
<svg xmlns="http://www.w3.org/2000/svg" xmlns:xlink="http://www.w3.org/1999/xlink" version="1.1">
<metadata>
Created by FontForge 20170731 at Tue Dec 13 12:41:49 2016
 By Aleksey,,,
Copyright (c) 2016 by Rick Banks. All rights reserved.
</metadata>
<defs>
<font id="F37Bolton-Thin" horiz-adv-x="0" >
  <font-face 
    font-family="F37 Bolton Thin"
    font-weight="250"
    font-stretch="normal"
    units-per-em="1000"
    panose-1="0 0 3 0 0 0 0 0 0 0"
    ascent="800"
    descent="-200"
    x-height="515"
    cap-height="715"
    bbox="-684 -218 1131 930"
    underline-thickness="50"
    underline-position="-200"
    unicode-range="U+000D-FB02"
  />
<missing-glyph horiz-adv-x="543" 
 />
    <glyph glyph-name="fi" unicode="fi" horiz-adv-x="482" 
d="M111 0v479h-90v36h90v69q0 72 35 102.5t102 30.5h149v-37h-152q-52 0 -74 -22.5t-22 -77.5v-65h113v-36h-113v-479h-38zM359 0v515h38v-515h-38z" />
    <glyph glyph-name="fl" unicode="fl" horiz-adv-x="489" 
d="M437 34h29v-34h-35q-72 0 -72 69v611h-119q-48 0 -69.5 -21.5t-21.5 -73.5v-70h113v-36h-113v-479h-38v479h-90v36h90v74q0 128 132 128h153v-643q0 -40 41 -40z" />
    <glyph glyph-name=".notdef" horiz-adv-x="543" 
 />
    <glyph glyph-name=".null" 
 />
    <glyph glyph-name="nonmarkingreturn" horiz-adv-x="333" 
 />
    <glyph glyph-name="CR" unicode="&#xd;" horiz-adv-x="263" 
 />
    <glyph glyph-name="space" unicode=" " horiz-adv-x="263" 
 />
    <glyph glyph-name="exclam" unicode="!" horiz-adv-x="230" 
d="M103 180l-7 209v325h39v-325l-7 -209h-25zM114 -4q-16 0 -26.5 10.5t-10.5 26.5t10.5 27t26.5 11t27 -11t11 -27t-11 -26.5t-27 -10.5z" />
    <glyph glyph-name="quotedbl" unicode="&#x22;" horiz-adv-x="308" 
d="M83 475l-14 239h46l-13 -239h-19zM206 475l-13 239h46l-13 -239h-20z" />
    <glyph glyph-name="numbersign" unicode="#" horiz-adv-x="548" 
d="M125 0l29 224h-112v31h118l22 169h-113v30h119l29 229h31l-29 -229h151l29 229h30l-28 -229h104v-30h-110l-22 -169h104v-31h-109l-29 -224h-31l29 224h-152l-28 -224h-32zM191 255h151l21 169h-149z" />
    <glyph glyph-name="dollar" unicode="$" horiz-adv-x="563" 
d="M513 180q0 -92 -60 -142.5t-154 -54.5v-86h-26v86q-106 4 -168 66.5t-61 176.5h38q0 -100 50.5 -150.5t140.5 -54.5v325q-45 12 -77.5 26t-64 35.5t-48 53t-16.5 72.5q0 86 59.5 133t146.5 48v82h26v-83q88 -6 143.5 -60.5t57.5 -156.5h-37q-4 86 -48 130t-116 50v-296
q41 -13 63.5 -20.5t55.5 -25t50.5 -36t31 -49.5t13.5 -69zM105 533q0 -57 44.5 -89t123.5 -56v289q-73 -2 -120.5 -38.5t-47.5 -105.5zM299 21q78 3 127 42.5t49 114.5q0 37 -14.5 64.5t-43.5 45.5t-53.5 28t-64.5 22v-317z" />
    <glyph glyph-name="percent" unicode="%" horiz-adv-x="861" 
d="M202 -33l419 749h33l-418 -749h-34zM203 351q-77 0 -123 51t-46 122q0 74 47.5 124.5t121.5 50.5q76 0 123 -50t47 -125q0 -71 -47.5 -122t-122.5 -51zM203 384q61 0 99 41.5t38 98.5q0 62 -36.5 102t-100.5 40q-63 0 -99.5 -41t-36.5 -101q0 -58 37 -99t99 -41zM657 -6
q-77 0 -123 51t-46 122q0 74 47.5 125t121.5 51q76 0 123 -50.5t47 -124.5q0 -71 -47.5 -122.5t-122.5 -51.5zM657 28q61 0 99 41t38 98q0 62 -37 102.5t-100 40.5t-99.5 -41.5t-36.5 -101.5q0 -58 37 -98.5t99 -40.5z" />
    <glyph glyph-name="ampersand" unicode="&#x26;" horiz-adv-x="634" 
d="M596 35h26v-35h-32q-58 0 -127 77q-65 -90 -199 -90q-88 0 -148 55.5t-60 142.5q0 137 135 216q-48 58 -66 94t-18 77q0 68 42.5 105.5t102.5 37.5q59 0 97 -37t38 -99q0 -58 -38 -101.5t-104 -82.5l212 -254q19 45 19 101v65h37v-63q-2 -77 -30 -134q30 -36 56 -55.5
t57 -19.5zM252 681q-47 0 -77.5 -28t-30.5 -77q0 -33 16 -66t64 -91q126 71 126 159q0 46 -28 74.5t-70 28.5zM265 25q118 0 174 81l-227 270q-118 -75 -118 -188q0 -75 49 -119t122 -44z" />
    <glyph glyph-name="quotesingle" unicode="'" horiz-adv-x="185" 
d="M83 475l-14 239h46l-13 -239h-19z" />
    <glyph glyph-name="parenleft" unicode="(" horiz-adv-x="248" 
d="M172 -178q-113 229 -113 458q0 242 112 451h35q-109 -212 -109 -450q0 -244 109 -459h-34z" />
    <glyph glyph-name="parenright" unicode=")" horiz-adv-x="248" 
d="M42 -178q109 212 109 450q0 245 -110 459h35q113 -229 113 -458q0 -244 -112 -451h-35z" />
    <glyph glyph-name="asterisk" unicode="*" horiz-adv-x="401" 
d="M118 424l-23 19l84 104l-121 43l9 28l118 -43l-1 129h29v-129l123 42l8 -27l-123 -43l80 -109l-22 -18l-80 110z" />
    <glyph glyph-name="plus" unicode="+" horiz-adv-x="570" 
d="M269 16v237h-224v33h224v236h32v-236h223v-33h-223v-237h-32z" />
    <glyph glyph-name="comma" unicode="," horiz-adv-x="224" 
d="M71 -124v27q46 17 46 93h-7q-16 0 -26.5 10t-10.5 27q0 16 10.5 26.5t25.5 10.5q42 0 42 -57q0 -112 -80 -137z" />
    <glyph glyph-name="hyphen" unicode="-" horiz-adv-x="335" 
d="M74 251v35h187v-35h-187z" />
    <glyph glyph-name="period" unicode="." horiz-adv-x="212" 
d="M106 -3q-16 0 -26.5 11t-10.5 28q0 16 10.5 26t26.5 10t27 -10t11 -26t-11 -27.5t-27 -11.5z" />
    <glyph glyph-name="slash" unicode="/" horiz-adv-x="410" 
d="M37 -17l303 748h34l-303 -748h-34z" />
    <glyph glyph-name="zero" unicode="0" horiz-adv-x="598" 
d="M298 -12q-82 0 -136.5 51t-76.5 127.5t-22 175.5q0 98 22 174.5t76.5 127.5t136.5 51q62 0 109 -28.5t74.5 -78.5t40.5 -112t13 -134q0 -73 -13 -134.5t-40.5 -112t-74.5 -79t-109 -28.5zM298 24q56 0 96.5 29t61 78t29.5 101t9 110t-9 109.5t-29.5 100.5t-61 78
t-96.5 29t-96 -29t-60.5 -78t-29.5 -101t-9 -109q0 -58 9 -110t29.5 -101t60.5 -78t96 -29z" />
    <glyph glyph-name="one" unicode="1" horiz-adv-x="347" 
d="M205 0v613q-82 -71 -179 -92v36q69 16 108 43t76 83h34v-683h-39z" />
    <glyph glyph-name="two" unicode="2" horiz-adv-x="550" 
d="M55 0q-1 42 14 79.5t47 72t64 60.5t84 62q89 62 135 114t46 119q0 72 -45.5 111t-121.5 39q-91 0 -133 -53.5t-42 -144.5h-40q1 112 56.5 174t159.5 62q92 0 148.5 -49t56.5 -138q0 -42 -16 -79.5t-50 -73t-65 -60.5t-80 -60q-80 -57 -124 -102.5t-50 -96.5h401v-36h-445
z" />
    <glyph glyph-name="three" unicode="3" horiz-adv-x="591" 
d="M293 -12q-113 0 -177.5 59t-58.5 164h39q-5 -89 48.5 -138.5t148.5 -49.5q83 0 139.5 43.5t56.5 124.5q0 76 -51 117t-138 41h-43v34h44q73 0 121 34.5t47 105.5q-1 67 -50.5 102t-120.5 35q-86 0 -137 -43.5t-51 -136.5h-39q-1 104 59.5 159.5t167.5 55.5q91 0 151 -44
t60 -127q0 -63 -32 -102t-88 -51l-9 -2l7 -1q65 -11 104 -56t39 -118q0 -98 -67.5 -152t-169.5 -54z" />
    <glyph glyph-name="four" unicode="4" horiz-adv-x="546" 
d="M363 0v173h-337v40l333 470h41v-476h112v-34h-112v-173h-37zM65 207h298v422h-2z" />
    <glyph glyph-name="five" unicode="5" horiz-adv-x="560" 
d="M278 -12q-104 0 -166 60.5t-59 163.5h39q-2 -86 49 -138t137 -52q87 0 138 54.5t51 147.5q0 89 -51.5 142t-136.5 53q-112 0 -168 -86h-39l51 350h352v-37h-322l-39 -267q26 33 69.5 54t97.5 21q101 0 162.5 -62t61.5 -168t-62.5 -171t-164.5 -65z" />
    <glyph glyph-name="six" unicode="6" horiz-adv-x="585" 
d="M298 -12q-103 0 -168.5 77t-65.5 230q0 400 245 400q86 0 138.5 -44.5t61.5 -122.5h-39q-11 63 -52.5 97t-109.5 34q-103 0 -152.5 -87t-52.5 -268v-7l2 6q15 64 68.5 107t128.5 43q98 0 161.5 -62t63.5 -168t-64 -170.5t-165 -64.5zM298 23q86 0 138.5 55t52.5 144
q0 90 -52 143t-139 53q-83 0 -133.5 -57t-50.5 -142q0 -86 52.5 -141t131.5 -55z" />
    <glyph glyph-name="seven" unicode="7" horiz-adv-x="487" 
d="M138 0q-1 173 76 338.5t211 307.5h-396v37h438v-41q-290 -302 -290 -642h-39z" />
    <glyph glyph-name="eight" unicode="8" horiz-adv-x="574" 
d="M287 -12q-101 0 -164.5 51.5t-63.5 150.5q0 71 38.5 119.5t108.5 65.5q-53 14 -84.5 54t-31.5 97q0 82 55 125.5t142 43.5t141.5 -43.5t54.5 -125.5q0 -58 -31.5 -97.5t-83.5 -53.5q71 -16 109 -64.5t38 -120.5q0 -97 -64.5 -149.5t-163.5 -52.5zM287 391q64 0 110.5 34
t46.5 98q0 70 -43.5 103t-113.5 33q-69 0 -113.5 -33t-44.5 -103q0 -64 47 -98t111 -34zM287 24q82 0 135 42t53 125q0 82 -53 123.5t-135 41.5t-135.5 -41.5t-53.5 -123.5q0 -83 53 -125t136 -42z" />
    <glyph glyph-name="nine" unicode="9" horiz-adv-x="584" 
d="M273 -12q-85 0 -139.5 48t-61.5 127h39q9 -73 56.5 -107t106.5 -34q62 0 103.5 25.5t63 76t30.5 108t10 139.5v6l-2 -6q-16 -61 -69 -102.5t-130 -41.5q-94 0 -157 65t-63 168t63 169t161 66q113 0 174 -76t61 -223q0 -212 -54 -310t-192 -98zM284 262q85 0 136 56.5
t51 142.5q0 89 -53 144t-134 55q-83 0 -134.5 -57t-51.5 -142q0 -87 51 -143t135 -56z" />
    <glyph glyph-name="colon" unicode=":" horiz-adv-x="224" 
d="M112 412q-16 0 -26.5 11t-10.5 28q0 16 10.5 26t26.5 10t27 -10t11 -26t-11 -27.5t-27 -11.5zM112 -3q-16 0 -26.5 11t-10.5 28q0 16 10.5 26t26.5 10t27 -10t11 -26t-11 -27.5t-27 -11.5z" />
    <glyph glyph-name="semicolon" unicode=";" horiz-adv-x="230" 
d="M115 392q-17 0 -28 11t-11 28t11 28.5t28 11.5t28 -11.5t11 -28.5t-11 -28t-28 -11zM75 -122v27q46 19 46 94q-3 -1 -7 -1q-16 0 -26.5 10t-10.5 27t10.5 27.5t25.5 10.5q42 0 42 -57q0 -113 -80 -138z" />
    <glyph glyph-name="less" unicode="&#x3c;" horiz-adv-x="568" 
d="M516 -8l-483 242v38l483 242v-35l-446 -226l446 -226v-35z" />
    <glyph glyph-name="equal" unicode="=" horiz-adv-x="636" 
d="M78 353v32h480v-32h-480zM78 156v33h480v-33h-480z" />
    <glyph glyph-name="greater" unicode="&#x3e;" horiz-adv-x="568" 
d="M52 -8v35l446 226l-446 226v35l483 -242v-38z" />
    <glyph glyph-name="question" unicode="?" horiz-adv-x="501" 
d="M228 182q0 24 1 35q4 53 24.5 92.5t70.5 83.5l25 24q71 60 71 137q0 65 -43.5 102.5t-118.5 37.5q-89 0 -136 -52t-45 -145h-39q-2 106 57 170t163 64q91 0 146.5 -45.5t55.5 -125.5q0 -55 -21 -92t-60 -74l-27 -25q-43 -40 -61.5 -72t-22.5 -81q-1 -11 -1 -34h-39z
M248 4q-14 0 -24 10t-10 24t10 24t24 10t24 -10t10 -24t-10 -24t-24 -10z" />
    <glyph glyph-name="at" unicode="@" horiz-adv-x="811" 
d="M435 -124q-162 0 -269.5 97t-107.5 275q0 172 103.5 274.5t250.5 102.5t242 -94t95 -238q0 -100 -51.5 -160.5t-116.5 -60.5h-40v86q-16 -44 -52.5 -70t-88.5 -26q-77 0 -122 53.5t-45 135.5q0 83 46.5 137t120.5 54q105 0 140 -96v86h34v-329h8q50 0 90 48.5t40 141.5
q0 128 -84 213t-216 85q-138 0 -227.5 -94.5t-89.5 -248.5q0 -156 97.5 -246.5t247.5 -90.5h233v-35h-238zM402 94q66 0 102.5 45t36.5 113q0 66 -36.5 112t-101.5 46q-60 0 -97.5 -45.5t-37.5 -113.5q0 -67 36 -112t98 -45z" />
    <glyph glyph-name="A" unicode="A" horiz-adv-x="641" 
d="M569 0l-90 246h-317l-93 -246h-42l272 715h46l267 -715h-43zM176 285h288l-141 384h-2z" />
    <glyph glyph-name="B" unicode="B" horiz-adv-x="655" 
d="M107 0v715h261q89 0 144 -47t55 -134q0 -57 -27.5 -97.5t-67.5 -59.5v-1q34 -13 56.5 -28.5t41 -54t18.5 -94.5q0 -96 -63 -147.5t-165 -51.5h-253zM147 389h248q53 0 92.5 38t39.5 106q0 71 -45 107.5t-117 36.5h-218v-288zM147 38h217q82 0 132.5 40.5t50.5 118.5
q0 155 -159 155h-241v-314z" />
    <glyph glyph-name="C" unicode="C" horiz-adv-x="712" 
d="M378 -17q-151 0 -235 101.5t-84 270.5q0 166 84.5 271t234.5 105q126 0 200.5 -72t84.5 -181h-40q-9 90 -76 152t-170 62q-135 0 -206.5 -96.5t-71.5 -240.5q0 -145 72.5 -239t206.5 -94q104 0 169.5 61.5t75.5 147.5h39q-11 -105 -86.5 -176.5t-197.5 -71.5z" />
    <glyph glyph-name="D" unicode="D" horiz-adv-x="716" 
d="M107 0v715h196q158 0 256.5 -90.5t98.5 -266.5q0 -173 -97.5 -265.5t-258.5 -92.5h-195zM147 38h155q144 0 229.5 83.5t85.5 236.5q0 161 -85 240t-234 79h-151v-639z" />
    <glyph glyph-name="E" unicode="E" horiz-adv-x="616" 
d="M107 0v715h456v-38h-416v-288h375v-38h-375v-314h421v-37h-461z" />
    <glyph glyph-name="F" unicode="F" horiz-adv-x="564" 
d="M107 0v715h428v-38h-388v-290h348v-38h-348v-349h-40z" />
    <glyph glyph-name="G" unicode="G" horiz-adv-x="753" 
d="M384 -17q-79 0 -142 29.5t-103 80.5t-61 118.5t-21 144.5q0 160 88.5 267.5t240.5 107.5q124 0 203 -62t100 -178h-41q-19 100 -88 150.5t-174 50.5q-132 0 -209 -93.5t-79 -242.5q2 -148 78.5 -241t208.5 -93q129 0 201.5 74t77.5 205h-222v37h261q1 -4 1 -13
q0 -155 -83 -248.5t-237 -93.5z" />
    <glyph glyph-name="H" unicode="H" horiz-adv-x="737" 
d="M107 0v715h40v-325h442v325h41v-715h-41v352h-442v-352h-40z" />
    <glyph glyph-name="I" unicode="I" horiz-adv-x="254" 
d="M107 0v715h40v-715h-40z" />
    <glyph glyph-name="J" unicode="J" horiz-adv-x="516" 
d="M224 -17q-190 0 -190 238h40q1 -99 36.5 -149.5t113.5 -50.5t115.5 45.5t37.5 150.5v498h40v-509q0 -223 -193 -223z" />
    <glyph glyph-name="K" unicode="K" horiz-adv-x="659" 
d="M107 0v715h40v-414l438 414h53l-317 -301l338 -414h-52l-315 387l-145 -137v-250h-40z" />
    <glyph glyph-name="L" unicode="L" horiz-adv-x="553" 
d="M107 0v715h40v-676h386v-39h-426z" />
    <glyph glyph-name="M" unicode="M" horiz-adv-x="861" 
d="M107 0v715h39l286 -384l284 384h38v-715h-38v651l-268 -359h-35l-267 358v-650h-39z" />
    <glyph glyph-name="N" unicode="N" horiz-adv-x="742" 
d="M107 0v715h38l450 -648v648h40v-715h-40l-450 647v-647h-38z" />
    <glyph glyph-name="O" unicode="O" horiz-adv-x="786" 
d="M393 -17q-156 0 -246 107t-90 266q0 160 90 267.5t246 107.5t246 -107.5t90 -267.5q0 -159 -90 -266t-246 -107zM393 22q136 0 216 94t79 240q-1 148 -80 242t-215 94t-214.5 -94t-80.5 -242q2 -147 80.5 -240.5t214.5 -93.5z" />
    <glyph glyph-name="P" unicode="P" horiz-adv-x="622" 
d="M107 0v714h274q99 0 152 -48t53 -138q0 -86 -56.5 -136.5t-148.5 -50.5h-234v-341h-40zM147 380h235q72 0 117 39t45 109q0 71 -42 109t-123 38h-232v-295z" />
    <glyph glyph-name="Q" unicode="Q" horiz-adv-x="786" 
d="M729 356q0 -156 -87.5 -262.5t-239.5 -110.5q1 -57 23.5 -81t72.5 -24h77v-37h-80q-70 0 -100 34.5t-32 108.5q-142 11 -224 116.5t-82 255.5q0 160 90 267.5t246 107.5t246 -107.5t90 -267.5zM393 22q136 0 216 94t79 240q-1 148 -80 242t-215 94t-214.5 -94t-80.5 -242
q2 -147 80.5 -240.5t214.5 -93.5z" />
    <glyph glyph-name="R" unicode="R" horiz-adv-x="633" 
d="M592 0h-47l-215 346h-183v-346h-40v714h225q119 0 176 -44t60 -133q2 -85 -53 -135t-141 -55zM147 676v-292h197q82 0 132.5 37.5t50.5 116.5q0 66 -47.5 102t-137.5 36h-195z" />
    <glyph glyph-name="S" unicode="S" horiz-adv-x="619" 
d="M315 -17q-123 0 -194 60t-69 181h39q0 -105 59.5 -154.5t164.5 -49.5q92 0 150 39t58 118q0 24 -8 44.5t-16.5 34.5t-30 28t-33 21t-42 17.5t-40 13.5t-43.5 12q-53 15 -89.5 29t-72.5 37t-54.5 56.5t-18.5 77.5q0 90 66.5 136.5t162.5 46.5q104 0 173.5 -53t73.5 -166
h-39q-4 95 -62 138.5t-146 43.5q-81 0 -135.5 -35.5t-54.5 -107.5q0 -28 12 -51.5t28.5 -39t47 -30.5t56 -23.5t66.5 -21.5q49 -14 73.5 -22.5t62 -26t56 -36.5t33 -50.5t14.5 -70.5q0 -96 -70 -146t-178 -50z" />
    <glyph glyph-name="T" unicode="T" horiz-adv-x="555" 
d="M258 0v677h-238v38h515v-38h-237v-677h-40z" />
    <glyph glyph-name="U" unicode="U" horiz-adv-x="705" 
d="M352 -17q-124 0 -189.5 73t-65.5 218v441h40v-441q0 -252 215 -252t215 252v441h41v-441q0 -145 -65.5 -218t-190.5 -73z" />
    <glyph glyph-name="V" unicode="V" horiz-adv-x="619" 
d="M289 0l-259 714h41l194 -533q28 -73 48 -136q16 56 47 138l186 531h40l-252 -714h-45z" />
    <glyph glyph-name="W" unicode="W" horiz-adv-x="949" 
d="M232 0l-197 715h44l125 -463q40 -147 54 -205q31 116 59 210l133 458h50l134 -459q40 -136 60 -210q18 73 54 209l123 460h41l-194 -715h-49l-129 431q-58 204 -66 233l-66 -234l-125 -430h-51z" />
    <glyph glyph-name="X" unicode="X" horiz-adv-x="594" 
d="M578 0h-49l-233 335l-233 -335h-48l257 367l-243 347h50l219 -316l220 316h47l-242 -346z" />
    <glyph glyph-name="Y" unicode="Y" horiz-adv-x="638" 
d="M299 0v297l-272 417h48l245 -378l245 378h46l-272 -417v-297h-40z" />
    <glyph glyph-name="Z" unicode="Z" horiz-adv-x="578" 
d="M28 0v43l366 505q62 84 97 128h-440v38h484v-43l-374 -515q-56 -77 -89 -118h473v-38h-517z" />
    <glyph glyph-name="bracketleft" unicode="[" horiz-adv-x="263" 
d="M95 -178v909h131v-34h-93v-841h93v-34h-131z" />
    <glyph glyph-name="backslash" unicode="\" horiz-adv-x="410" 
d="M339 -17l-303 748h34l303 -748h-34z" />
    <glyph glyph-name="bracketright" unicode="]" horiz-adv-x="263" 
d="M37 -178v34h93v841h-93v34h131v-909h-131z" />
    <glyph glyph-name="asciicircum" unicode="^" horiz-adv-x="545" 
d="M44 240l210 443h37l210 -443h-34l-195 410l-194 -410h-34z" />
    <glyph glyph-name="underscore" unicode="_" horiz-adv-x="475" 
d="M0 -102v27h475v-27h-475z" />
    <glyph glyph-name="grave" unicode="`" horiz-adv-x="169" 
d="M151 573h-28l-106 144h48z" />
    <glyph glyph-name="a" unicode="a" horiz-adv-x="521" 
d="M202 -12q-68 0 -111 35.5t-43 105.5q0 67 45.5 104t128.5 54l117 24q33 7 44 18t11 36q0 126 -140 126q-142 0 -150 -127h-38q2 74 48.5 118.5t138.5 44.5q88 0 134 -40t46 -129v-287q0 -37 33 -37h22v-34h-40q-52 0 -52 55v41q-26 -50 -76.5 -79t-117.5 -29zM208 24
q75 0 131 45.5t56 112.5v116q-15 -14 -59 -23l-101 -21q-72 -15 -109 -43t-37 -80q0 -50 31 -78.5t88 -28.5z" />
    <glyph glyph-name="b" unicode="b" horiz-adv-x="581" 
d="M310 527q102 0 160 -73t58 -195q0 -123 -59 -197t-159 -74q-135 0 -188 122v-110h-37v717h38v-314q26 59 75 91.5t112 32.5zM308 24q83 0 132 64t49 170q0 105 -48 168.5t-132 63.5t-135.5 -65t-51.5 -167q0 -110 51 -172t135 -62z" />
    <glyph glyph-name="c" unicode="c" horiz-adv-x="528" 
d="M277 -12q-105 0 -164.5 73.5t-59.5 190.5q0 123 60.5 199t171.5 76q79 0 131 -45t62 -125h-39q-9 62 -50 97.5t-105 35.5q-66 0 -111 -35t-63 -86.5t-18 -116.5q0 -99 48.5 -163t136.5 -64q68 0 112.5 34t52.5 96h39q-10 -78 -65 -122.5t-139 -44.5z" />
    <glyph glyph-name="d" unicode="d" horiz-adv-x="581" 
d="M457 717h38v-717h-37v106q-56 -118 -183 -118q-106 0 -164 75t-58 193q0 124 59.5 197.5t162.5 73.5q60 0 108 -32t75 -89zM275 24q85 0 134 64t49 142v43q0 90 -52 153.5t-131 63.5q-85 0 -134 -63t-49 -171q0 -100 48 -166t135 -66z" />
    <glyph glyph-name="e" unicode="e" horiz-adv-x="543" 
d="M458 250l-366 1v-4q1 -104 50.5 -163t136.5 -59q67 0 110.5 33.5t55.5 91.5h39q-15 -74 -69 -118t-137 -44q-104 0 -164.5 71.5t-60.5 195.5q0 119 62.5 195.5t162.5 76.5q104 0 161 -70.5t57 -191.5v-15h-38zM278 490q-78 0 -129.5 -56.5t-56.5 -147.5h365
q-4 94 -50.5 149t-128.5 55z" />
    <glyph glyph-name="f" unicode="f" horiz-adv-x="279" 
d="M111 0v479h-90v36h90v74q0 128 132 128h70v-37h-73q-48 0 -69.5 -21.5t-21.5 -73.5v-70h113v-36h-113v-479h-38z" />
    <glyph glyph-name="g" unicode="g" horiz-adv-x="581" 
d="M459 515h37v-519q0 -205 -181 -205h-196v37h182q85 0 121 44t36 128v109q-27 -58 -75 -89.5t-109 -31.5q-105 0 -163 72.5t-58 193.5q0 124 59 198.5t163 74.5q61 0 109.5 -30.5t74.5 -90.5v109zM276 24q80 0 131.5 64.5t51.5 167.5q0 106 -48.5 170t-133.5 64
q-87 0 -136 -64.5t-49 -171.5q0 -103 48.5 -166.5t135.5 -63.5z" />
    <glyph glyph-name="h" unicode="h" horiz-adv-x="552" 
d="M85 0v717h38v-283q19 42 63 67.5t97 25.5q93 0 141.5 -53.5t48.5 -149.5v-324h-38v315q0 81 -40.5 128.5t-116.5 47.5q-47 0 -86.5 -25t-56.5 -69q-12 -29 -12 -71v-326h-38z" />
    <glyph glyph-name="i" unicode="i" horiz-adv-x="209" 
d="M104 631q-15 0 -26 11t-11 26q0 14 11 25t26 11t25.5 -11t10.5 -25q0 -15 -10.5 -26t-25.5 -11zM85 0v515h38v-515h-38z" />
    <glyph glyph-name="j" unicode="j" horiz-adv-x="217" 
d="M113 632q-14 0 -25 10.5t-11 25.5t11 25.5t25 10.5q15 0 25.5 -10.5t10.5 -25.5t-10.5 -25.5t-25.5 -10.5zM-29 -209v37h52q39 0 54.5 14.5t15.5 59.5v613h38v-621q0 -59 -26 -81t-77 -22h-57z" />
    <glyph glyph-name="k" unicode="k" horiz-adv-x="487" 
d="M482 0h-45l-206 295l-108 -105v-190h-38v717h38v-480l286 278h49l-199 -193z" />
    <glyph glyph-name="l" unicode="l" horiz-adv-x="221" 
d="M155 0q-72 0 -72 69v648h38v-643q0 -40 41 -40h28v-34h-35z" />
    <glyph glyph-name="m" unicode="m" horiz-adv-x="827" 
d="M85 0v515h38l-1 -78q18 41 56.5 65.5t86.5 24.5q122 0 156 -114q20 57 62.5 85.5t92.5 28.5q83 0 127.5 -53.5t44.5 -146.5v-327h-38v319q0 80 -35.5 126t-102.5 46q-61 0 -98.5 -47.5t-37.5 -121.5v-322h-38v319q0 79 -36 125.5t-103 46.5q-61 0 -98.5 -43.5
t-37.5 -109.5v-338h-38z" />
    <glyph glyph-name="n" unicode="n" horiz-adv-x="552" 
d="M85 0v515h38v-106q20 55 63.5 86.5t98.5 31.5q92 0 140 -55t48 -154v-318h-38v311q0 85 -39.5 132.5t-112.5 47.5q-68 0 -114 -55t-46 -131v-305h-38z" />
    <glyph glyph-name="o" unicode="o" horiz-adv-x="566" 
d="M282 -12q-103 0 -166.5 76.5t-63.5 192.5q0 115 64 192.5t166 77.5q104 0 167.5 -77t63.5 -193t-63.5 -192.5t-167.5 -76.5zM282 24q87 0 140 65.5t53 167.5q0 101 -53 167t-140 66q-86 0 -139 -66t-53 -167q0 -102 53 -167.5t139 -65.5z" />
    <glyph glyph-name="p" unicode="p" horiz-adv-x="581" 
d="M311 527q98 0 157 -73.5t59 -194.5t-58.5 -196t-159.5 -75q-133 0 -186 120v-316h-38v723h38v-114q26 61 75 93.5t113 32.5zM308 24q84 0 132.5 65t48.5 169t-48.5 168t-131.5 64t-135 -64.5t-52 -167.5q0 -112 51.5 -173t134.5 -61z" />
    <glyph glyph-name="q" unicode="q" horiz-adv-x="581" 
d="M544 -172h39v-37h-46q-80 0 -80 79l1 242q-26 -58 -73.5 -91t-110.5 -33q-105 0 -163 73.5t-58 194.5q0 127 61 199t162 72q125 0 182 -119v107h37v-632q0 -33 12.5 -44t36.5 -11zM274 24q84 0 134.5 66t50.5 164v14q0 94 -50 158t-133 64q-82 0 -133 -61.5t-51 -172.5
q0 -103 48.5 -167.5t133.5 -64.5z" />
    <glyph glyph-name="r" unicode="r" horiz-adv-x="326" 
d="M85 0v515h37v-91q16 41 53.5 68t96.5 27h42v-37h-44q-64 0 -105.5 -43t-41.5 -139v-300h-38z" />
    <glyph glyph-name="s" unicode="s" horiz-adv-x="478" 
d="M239 -12q-90 0 -142 41t-52 122h39q1 -61 42.5 -94.5t112.5 -33.5q66 0 107.5 25.5t41.5 78.5q0 39 -22.5 62t-77.5 41l-92 29q-33 11 -49 18t-38.5 22.5t-32.5 38.5t-10 55q0 60 45.5 97t126.5 37q85 0 133.5 -39.5t48.5 -123.5h-38q-1 65 -39.5 96.5t-104.5 31.5
q-71 0 -102.5 -29t-31.5 -68q0 -41 23.5 -61t79.5 -38l96 -32q67 -22 95 -52t28 -81q0 -72 -53 -107.5t-134 -35.5z" />
    <glyph glyph-name="t" unicode="t" horiz-adv-x="311" 
d="M209 0q-43 0 -66.5 20.5t-23.5 71.5v387h-99v36h99v157h38v-157h134v-36h-134v-379q0 -43 17 -54t58 -11h63v-35h-86z" />
    <glyph glyph-name="u" unicode="u" horiz-adv-x="550" 
d="M256 -12q-81 0 -128.5 49.5t-47.5 139.5v338h38l-1 -331q0 -81 40.5 -120t104.5 -39q79 0 121.5 45t42.5 125v320h38v-515h-37v78q-19 -41 -63.5 -65.5t-107.5 -24.5z" />
    <glyph glyph-name="v" unicode="v" horiz-adv-x="494" 
d="M229 0l-206 515h43l169 -431l15 -45h2l14 45l157 431h40l-190 -515h-44z" />
    <glyph glyph-name="w" unicode="w" horiz-adv-x="737" 
d="M180 0l-148 515h39l133 -476l142 476h47l138 -476l136 476h39l-152 -515h-45l-78 263l-60 206h-2l-63 -207l-79 -262h-47z" />
    <glyph glyph-name="x" unicode="x" horiz-adv-x="469" 
d="M19 0l193 266l-176 249h46l154 -222l154 222h43l-176 -250l193 -265h-46l-170 237l-171 -237h-44z" />
    <glyph glyph-name="y" unicode="y" horiz-adv-x="487" 
d="M60 -209v37h75q26 0 43 11.5t32 44.5q20 43 20 63q0 8 -16 56l-183 512h43l98 -287l81 -230l76 235l89 282h41l-209 -631q-17 -50 -44 -71.5t-70 -21.5h-76z" />
    <glyph glyph-name="z" unicode="z" horiz-adv-x="474" 
d="M34 0v35l346 446h-333v34h378v-35l-348 -446h365v-34h-408z" />
    <glyph glyph-name="braceleft" unicode="{" horiz-adv-x="290" 
d="M196 -178q-80 0 -80 115v167q0 60 -17 98t-58 62v30q31 5 53 51t22 105v168q0 113 80 113h61v-34h-48q-31 0 -43 -22t-12 -79v-163q0 -51 -19.5 -96.5t-56.5 -59.5q32 -14 54 -57t22 -99v-162q0 -59 12 -81t43 -22h48v-34h-61z" />
    <glyph glyph-name="bar" unicode="|" horiz-adv-x="222" 
d="M94 -214v1000h33v-1000h-33z" />
    <glyph glyph-name="braceright" unicode="}" horiz-adv-x="290" 
d="M94 731q80 0 80 -115v-167q0 -60 17 -98t58 -62v-30q-31 -5 -53 -51t-22 -105v-168q0 -113 -80 -113h-61v34h48q31 0 43 22t12 79v163q0 51 19.5 96.5t56.5 59.5q-32 14 -54 57t-22 99v162q0 59 -12 81t-43 22h-48v34h61z" />
    <glyph glyph-name="asciitilde" unicode="~" horiz-adv-x="594" 
d="M97 208l-22 19q45 86 116 87q40 0 108.5 -34t106.5 -34q29 0 49.5 19t40.5 54l23 -19q-47 -87 -113 -87q-45 0 -110 34t-108 34q-53 0 -91 -73z" />
    <glyph glyph-name="uni00A0" unicode="&#xa0;" horiz-adv-x="263" 
 />
    <glyph glyph-name="exclamdown" unicode="&#xa1;" horiz-adv-x="214" 
d="M108 528q16 0 26.5 -10.5t10.5 -26.5t-10.5 -27t-26.5 -11t-27 11t-11 27t11 26.5t27 10.5zM119 344l7 -209v-325h-39v325l7 209h25z" />
    <glyph glyph-name="cent" unicode="&#xa2;" horiz-adv-x="545" 
d="M270 -118v106q-103 4 -159 81t-56 188q0 108 56.5 186t158.5 83v87h25v-87q82 -3 136 -48t63 -127h-39q-9 65 -52 100t-108 38v-464q68 1 112 41.5t53 108.5h38q-10 -87 -64.5 -136t-138.5 -51v-106h-25zM270 25v464q-86 -5 -131.5 -72.5t-45.5 -159.5q0 -94 45.5 -161
t131.5 -71z" />
    <glyph glyph-name="sterling" unicode="&#xa3;" horiz-adv-x="629" 
d="M509 36h76v-36h-79q-43 0 -88 16.5t-69 31t-69 45.5q-31 -101 -131 -101q-47 0 -76.5 27.5t-29.5 71.5t29 70.5t75 26.5q45 0 106 -35q1 12 1 37q0 56 -41 145h-144v34h130q-38 89 -38 156q0 54 18.5 92.5t49.5 57.5t62.5 27.5t66.5 8.5q93 0 143.5 -49t49.5 -143h-38
q-5 156 -155 156q-66 0 -111 -36.5t-45 -113.5q0 -61 40 -156h167v-34h-153q37 -87 37 -143q0 -38 -5 -62q4 -3 19.5 -13t20.5 -13.5t19.5 -12.5t21.5 -13t21 -11t22.5 -10.5t22 -8t24.5 -7t24 -4t26 -1.5zM148 26q78 0 99 88q-59 39 -100 39q-32 0 -51 -18t-19 -45
q0 -30 19 -47t52 -17z" />
    <glyph glyph-name="currency" unicode="&#xa4;" horiz-adv-x="652" 
d="M104 100l-20 20l57 57q-64 70 -64 164q2 98 64 165l-57 57l20 20l57 -57q70 64 165 64t163 -63l58 57l21 -21l-57 -57q62 -68 62 -164q0 -95 -62 -165l56 -57l-20 -20l-57 57q-69 -63 -164 -63q-96 0 -165 63zM326 129q87 0 148.5 63t61.5 150t-61.5 149.5t-148.5 62.5
q-88 0 -149.5 -62.5t-61.5 -150.5q0 -87 61.5 -149.5t149.5 -62.5z" />
    <glyph glyph-name="yen" unicode="&#xa5;" horiz-adv-x="607" 
d="M282 0v273h-179v30h176l-75 126h-133v30h115l-153 255h49l222 -378l226 378h46l-155 -255h110v-30h-128l-77 -126h176v-30h-179v-273h-41z" />
    <glyph glyph-name="brokenbar" unicode="&#xa6;" horiz-adv-x="216" 
d="M91 411v250h33v-250h-33zM91 -89v250h33v-250h-33z" />
    <glyph glyph-name="section" unicode="&#xa7;" horiz-adv-x="500" 
d="M338 89q43 -27 65 -56t22 -76q0 -71 -48.5 -107t-120.5 -36q-81 0 -129.5 42t-48.5 138h41q0 -142 139 -142q56 0 91 26.5t35 76.5q0 44 -30 71.5t-129 86.5q-94 56 -131.5 94t-37.5 96q0 50 30.5 86t72.5 56q-40 27 -60.5 56.5t-20.5 73.5q0 70 50 106.5t122 36.5
q76 0 125.5 -43t49.5 -137h-41q0 73 -37 107.5t-99 34.5q-57 0 -93 -26t-36 -77q0 -44 29.5 -70.5t129.5 -87.5q90 -55 126.5 -93t36.5 -95q0 -51 -30 -86.5t-73 -55.5zM191 183q14 -10 114 -73q39 16 67.5 45.5t28.5 70.5q0 65 -85 120q-66 43 -124 78h-1
q-40 -16 -67.5 -46t-27.5 -71q0 -61 95 -124z" />
    <glyph glyph-name="dieresis" unicode="&#xa8;" horiz-adv-x="242" 
d="M42 631q-13 0 -22.5 10t-9.5 23t9.5 22.5t22.5 9.5q14 0 23.5 -9t9.5 -23t-9.5 -23.5t-23.5 -9.5zM199 631q-13 0 -22.5 10t-9.5 23t9.5 22.5t22.5 9.5q14 0 23.5 -9.5t9.5 -22.5q0 -14 -10 -23.5t-23 -9.5z" />
    <glyph glyph-name="copyright" unicode="&#xa9;" horiz-adv-x="863" 
d="M432 -17q-156 0 -266 108.5t-110 265.5t110 265.5t266 108.5t266 -108.5t110 -265.5t-110 -265.5t-266 -108.5zM432 14q142 0 241.5 100t99.5 243t-100 243t-241 100q-142 0 -241.5 -100t-99.5 -243q0 -144 99 -243.5t242 -99.5zM440 127q-98 0 -158.5 65.5t-60.5 164.5
q0 100 58.5 163.5t157.5 63.5q73 0 124.5 -40t60.5 -112h-31q-9 58 -52 89.5t-102 31.5q-85 0 -133.5 -54.5t-48.5 -140.5q0 -85 50.5 -142.5t134.5 -57.5q54 0 95.5 33.5t55.5 92.5h31q-15 -71 -64.5 -114t-117.5 -43z" />
    <glyph glyph-name="ordfeminine" unicode="&#xaa;" horiz-adv-x="411" 
d="M162 378q-47 0 -75 22t-28 65q0 77 115 99l75 14q20 4 27.5 10.5t7.5 21.5q0 74 -86 74q-89 0 -92 -74h-33q2 47 33.5 74.5t91.5 27.5q59 0 89 -25t30 -84v-168q0 -22 20 -22h14v-27h-31q-34 0 -34 32v25q-37 -65 -124 -65zM167 405q46 0 82 28.5t36 70.5v61
q-9 -8 -37 -14l-65 -11q-91 -16 -91 -72q0 -30 19.5 -46.5t55.5 -16.5z" />
    <glyph glyph-name="guillemotleft" unicode="&#xab;" horiz-adv-x="347" 
d="M160 125l-104 127v34l104 126v-45l-76 -98l76 -99v-45zM267 125l-104 127v34l104 126v-45l-76 -98l76 -99v-45z" />
    <glyph glyph-name="logicalnot" unicode="&#xac;" horiz-adv-x="637" 
d="M525 94v240h-446v33h479v-273h-33z" />
    <glyph glyph-name="uni00AD" unicode="&#xad;" horiz-adv-x="335" 
d="M74 251v35h187v-35h-187z" />
    <glyph glyph-name="registered" unicode="&#xae;" horiz-adv-x="863" 
d="M432 -17q-156 0 -266 108.5t-110 265.5t110 265.5t266 108.5t266 -108.5t110 -265.5t-110 -265.5t-266 -108.5zM432 14q142 0 241.5 100t99.5 243t-100 243t-241 100q-142 0 -241.5 -100t-99.5 -243q0 -144 99 -243.5t242 -99.5zM294 151v428h144q146 0 146 -117
q0 -52 -31.5 -80t-80.5 -32l129 -199h-37l-124 196h-115v-196h-31zM325 374h98q25 0 44.5 3t40.5 11.5t32.5 27.5t11.5 47q0 88 -118 88h-109v-177z" />
    <glyph glyph-name="macron" unicode="&#xaf;" horiz-adv-x="263" 
d="M10 637v28h243v-28h-243z" />
    <glyph glyph-name="degree" unicode="&#xb0;" horiz-adv-x="384" 
d="M192 406q-57 0 -97 42t-40 104q0 58 40 100.5t97 42.5t97 -42.5t40 -100.5q0 -61 -39.5 -103.5t-97.5 -42.5zM192 432q47 0 78.5 34.5t31.5 85.5q0 48 -31.5 82.5t-78.5 34.5q-45 0 -77.5 -35t-32.5 -82q0 -51 32 -85.5t78 -34.5z" />
    <glyph glyph-name="plusminus" unicode="&#xb1;" horiz-adv-x="627" 
d="M297 97v188h-223v33h223v188h32v-188h224v-33h-224v-188h-32zM74 0v33h479v-33h-479z" />
    <glyph glyph-name="uni00B2" unicode="&#xb2;" horiz-adv-x="445" 
d="M68 276q0 28 9 50t30.5 42.5t38 32t50.5 33.5q7 5 11 7q40 26 62 43.5t40.5 44.5t18.5 56q0 38 -28.5 58t-77.5 20q-116 0 -114 -114h-33q2 73 37 110t112 37q62 0 100.5 -28t38.5 -82q0 -45 -27 -80t-106 -86q-37 -24 -58 -39t-40 -35.5t-21 -37.5h262v-32h-305z" />
    <glyph glyph-name="uni00B3" unicode="&#xb3;" horiz-adv-x="436" 
d="M222 269q-78 0 -122 39t-41 109h33q-4 -57 31 -86.5t98 -29.5q51 0 85.5 24t34.5 68q0 89 -119 89h-24v29h24q46 0 77 19t31 60q0 74 -110 74q-59 0 -87 -24.5t-28 -79.5h-33q-2 65 39 100.5t111 35.5q59 0 100.5 -25.5t41.5 -78.5q0 -40 -25.5 -66t-64.5 -27
q46 -5 73.5 -33.5t27.5 -73.5q0 -56 -44 -89.5t-109 -33.5z" />
    <glyph glyph-name="acute" unicode="&#xb4;" horiz-adv-x="169" 
d="M17 573l86 144h48l-106 -144h-28z" />
    <glyph glyph-name="uni00B5" unicode="&#xb5;" horiz-adv-x="585" 
d="M94 -178v693h37v-331q0 -81 42 -120t109 -39q82 0 127 58t45 141v291h38v-515h-38v108q-17 -54 -64 -87t-111 -33q-104 0 -148 79v-245h-37z" />
    <glyph glyph-name="paragraph" unicode="&#xb6;" horiz-adv-x="565" 
d="M124 -160v35h37q54 1 72.5 22t18.5 83v352q-101 0 -159.5 53t-58.5 136q0 91 56 142t157 51h263v-34h-51v-821h-35v821h-137v-706q0 -77 -29.5 -105.5t-96.5 -28.5h-37z" />
    <glyph glyph-name="periodcentered" unicode="&#xb7;" horiz-adv-x="225" 
d="M113 293q-17 0 -28 11t-11 28t11 28.5t28 11.5q16 0 27 -11.5t11 -28.5q0 -16 -11 -27.5t-27 -11.5z" />
    <glyph glyph-name="cedilla" unicode="&#xb8;" horiz-adv-x="205" 
d="M95 -188q-54 2 -87 28l12 24q31 -24 73 -24q67 0 67 48q0 42 -48 42q-34 0 -55 -12l-16 15l57 67h27l-42 -50l2 -1q13 6 35 6q35 0 55 -16t20 -47q0 -39 -28 -59.5t-72 -20.5z" />
    <glyph glyph-name="uni00B9" unicode="&#xb9;" horiz-adv-x="270" 
d="M155 276v365q-40 -40 -117 -59v29q42 10 69 27.5t50 50.5h33v-413h-35z" />
    <glyph glyph-name="ordmasculine" unicode="&#xba;" horiz-adv-x="415" 
d="M207 383q-69 0 -111 46.5t-42 119.5q0 72 42 120t112 48q69 0 111 -47.5t42 -120.5q0 -72 -42 -119t-112 -47zM208 413q56 0 88.5 37.5t32.5 98.5q0 60 -33 98.5t-88 38.5q-56 0 -89 -38.5t-33 -98.5q0 -61 33 -98.5t89 -37.5z" />
    <glyph glyph-name="guillemotright" unicode="&#xbb;" horiz-adv-x="350" 
d="M79 125v45l77 99l-77 98v45l105 -126v-34zM190 125v45l77 99l-77 98v45l105 -126v-34z" />
    <glyph glyph-name="onequarter" unicode="&#xbc;" horiz-adv-x="724" 
d="M91 -32l443 747h35l-443 -747h-35zM153 276v365q-40 -40 -117 -59v29q42 10 69 27.5t50 50.5h33v-413h-35zM586 0v97h-221v35l217 281h38v-286h75v-30h-75v-97h-34zM402 127h184v239h-1z" />
    <glyph glyph-name="onehalf" unicode="&#xbd;" horiz-adv-x="805" 
d="M103 -32l442 747h36l-440 -747h-38zM151 276v363q-41 -38 -117 -58v30q78 17 119 78h35v-413h-37zM456 0q0 29 9 51.5t34.5 45.5t40 33t55.5 36q40 25 62.5 42.5t40.5 44t18 55.5q0 38 -28.5 58t-76.5 20q-112 0 -112 -113h-38q1 69 39.5 108.5t111.5 39.5
q63 0 102 -28.5t39 -82.5q0 -46 -27.5 -80.5t-107.5 -86.5q-29 -18 -43.5 -27.5t-34 -25t-29 -29.5t-10.5 -29h261v-32h-306z" />
    <glyph glyph-name="threequarters" unicode="&#xbe;" horiz-adv-x="824" 
d="M203 -32l443 747h35l-443 -747h-35zM208 269q-78 0 -122 39t-41 109h33q-4 -57 31 -86.5t98 -29.5q51 0 85.5 24t34.5 68q0 89 -119 89h-24v29h24q46 0 77 19t31 60q0 74 -110 74q-59 0 -87 -24.5t-28 -79.5h-33q-2 65 39 100.5t111 35.5q59 0 100.5 -25.5t41.5 -78.5
q0 -40 -25.5 -66t-64.5 -27q46 -5 73.5 -33.5t27.5 -73.5q0 -56 -44 -89.5t-109 -33.5zM685 0v97h-221v35l216 281h39v-286h75v-30h-75v-97h-34zM500 127h185v239h-2z" />
    <glyph glyph-name="questiondown" unicode="&#xbf;" horiz-adv-x="492" 
d="M248 533q14 0 24 -10t10 -24t-10 -24t-24 -10t-24 10.5t-10 23.5q0 14 10 24t24 10zM268 355q0 -24 -1 -35q-4 -53 -24.5 -92.5t-70.5 -83.5l-25 -24q-71 -60 -71 -137q0 -65 43.5 -102.5t118.5 -37.5q89 0 136 52t45 145h39q2 -106 -57 -170t-163 -64q-91 0 -146.5 45.5
t-55.5 125.5q0 55 21 92t60 74l27 25q43 40 61.5 72t22.5 81q1 11 1 34h39z" />
    <glyph glyph-name="Agrave" unicode="&#xc0;" horiz-adv-x="641" 
d="M366 776h-30l-118 129h49zM569 0l-90 246h-317l-93 -246h-42l272 715h46l267 -715h-43zM176 285h288l-141 384h-2z" />
    <glyph glyph-name="Aacute" unicode="&#xc1;" horiz-adv-x="641" 
d="M421 905l-118 -129h-30l98 129h50zM569 0l-90 246h-317l-93 -246h-42l272 715h46l267 -715h-43zM176 285h288l-141 384h-2z" />
    <glyph glyph-name="Acircumflex" unicode="&#xc2;" horiz-adv-x="641" 
d="M318 875l-93 -99h-32l110 129h32l110 -129h-34zM569 0l-90 246h-317l-93 -246h-42l272 715h46l267 -715h-43zM176 285h288l-141 384h-2z" />
    <glyph glyph-name="Atilde" unicode="&#xc3;" horiz-adv-x="641" 
d="M260 851q-20 0 -30.5 -15t-11.5 -36h-31q2 36 20.5 59.5t49.5 23.5q26 0 65.5 -25t58.5 -25q37 0 44 48h31q-9 -80 -71 -80q-26 0 -65 25t-60 25zM569 0l-90 246h-317l-93 -246h-42l272 715h46l267 -715h-43zM176 285h288l-141 384h-2z" />
    <glyph glyph-name="Adieresis" unicode="&#xc4;" horiz-adv-x="641" 
d="M229 805q-13 0 -22.5 10t-9.5 23t9.5 22.5t22.5 9.5q14 0 23.5 -9t9.5 -23t-9.5 -23.5t-23.5 -9.5zM410 805q-13 0 -22.5 10t-9.5 23t9.5 22.5t22.5 9.5q14 0 23.5 -9.5t9.5 -22.5q0 -14 -9.5 -23.5t-23.5 -9.5zM569 0l-90 246h-317l-93 -246h-42l272 715h46l267 -715
h-43zM176 285h288l-141 384h-2z" />
    <glyph glyph-name="Aring" unicode="&#xc5;" horiz-adv-x="641" 
d="M319 752q-39 0 -64.5 25t-25.5 63t25.5 64t64.5 26t65 -26t26 -64t-26 -63t-65 -25zM319 904q-26 0 -44 -18t-18 -46q0 -27 18 -45t44 -18t44 18t18 45q0 28 -18 46t-44 18zM569 0l-90 246h-317l-93 -246h-42l272 715h46l267 -715h-43zM176 285h288l-141 384h-2z" />
    <glyph glyph-name="AE" unicode="&#xc6;" horiz-adv-x="869" 
d="M451 36h365v-36h-405v262h-231l-143 -262h-43l391 714h428v-36h-362v-289h334v-35h-334v-318zM199 297h212v382h-4z" />
    <glyph glyph-name="Ccedilla" unicode="&#xc7;" horiz-adv-x="712" 
d="M378 22q104 0 169.5 61.5t75.5 147.5h39q-11 -104 -84 -174.5t-192 -73.5l-28 -33l2 -1q14 6 35 6q35 0 55 -16t20 -47q0 -39 -28 -59.5t-72 -20.5q-54 2 -87 28l12 24q31 -24 73 -24q67 0 67 48q0 42 -48 42q-34 0 -55 -12l-16 15l43 50q-142 7 -221 108t-79 264
q0 166 84.5 271t234.5 105q126 0 200.5 -72t84.5 -181h-40q-9 90 -76 152t-170 62q-135 0 -206.5 -96.5t-71.5 -240.5q0 -145 72.5 -239t206.5 -94z" />
    <glyph glyph-name="Egrave" unicode="&#xc8;" horiz-adv-x="616" 
d="M339 776l-118 129h49l99 -129h-30zM107 0v715h456v-38h-416v-288h375v-38h-375v-314h421v-37h-461z" />
    <glyph glyph-name="Eacute" unicode="&#xc9;" horiz-adv-x="616" 
d="M276 776l98 129h50l-118 -129h-30zM107 0v715h456v-38h-416v-288h375v-38h-375v-314h421v-37h-461z" />
    <glyph glyph-name="Ecircumflex" unicode="&#xca;" horiz-adv-x="616" 
d="M196 776l110 129h32l110 -129h-34l-93 99l-93 -99h-32zM107 0v715h456v-38h-416v-288h375v-38h-375v-314h421v-37h-461z" />
    <glyph glyph-name="Edieresis" unicode="&#xcb;" horiz-adv-x="616" 
d="M231 805q-13 0 -22.5 10t-9.5 23t9.5 22.5t22.5 9.5q14 0 23.5 -9t9.5 -23t-9.5 -23.5t-23.5 -9.5zM412 805q-13 0 -22.5 10t-9.5 23t9.5 22.5t22.5 9.5q14 0 23.5 -9.5t9.5 -22.5q0 -14 -9.5 -23.5t-23.5 -9.5zM107 0v715h456v-38h-416v-288h375v-38h-375v-314h421v-37
h-461z" />
    <glyph glyph-name="Igrave" unicode="&#xcc;" horiz-adv-x="254" 
d="M143 776l-118 129h49l99 -129h-30zM107 0v715h40v-715h-40z" />
    <glyph glyph-name="Iacute" unicode="&#xcd;" horiz-adv-x="254" 
d="M80 776l98 129h50l-118 -129h-30zM107 0v715h40v-715h-40z" />
    <glyph glyph-name="Icircumflex" unicode="&#xce;" horiz-adv-x="254" 
d="M0 776l110 129h32l110 -129h-34l-93 99l-93 -99h-32zM107 0v715h40v-715h-40z" />
    <glyph glyph-name="Idieresis" unicode="&#xcf;" horiz-adv-x="254" 
d="M36 805q-13 0 -22.5 10t-9.5 23t9.5 22.5t22.5 9.5q14 0 23.5 -9t9.5 -23t-9.5 -23.5t-23.5 -9.5zM217 805q-13 0 -22.5 10t-9.5 23t9.5 22.5t22.5 9.5q14 0 23.5 -9.5t9.5 -22.5q0 -14 -10 -23.5t-23 -9.5zM107 0v715h40v-715h-40z" />
    <glyph glyph-name="Eth" unicode="&#xd0;" horiz-adv-x="718" 
d="M305 715q158 0 256.5 -90.5t98.5 -266.5q0 -173 -97.5 -265.5t-258.5 -92.5h-195v343h-80v31h80v341h196zM304 38q144 0 229.5 83.5t85.5 236.5q0 161 -85 240t-234 79h-151v-303h154v-31h-154v-305h155z" />
    <glyph glyph-name="Ntilde" unicode="&#xd1;" horiz-adv-x="742" 
d="M239 800q2 36 20.5 59.5t49.5 23.5q26 0 65.5 -25t58.5 -25q37 0 44 48h31q-9 -80 -71 -80q-26 0 -65 25t-60 25q-20 0 -30.5 -15t-11.5 -36h-31zM107 0v715h38l450 -648v648h40v-715h-40l-450 647v-647h-38z" />
    <glyph glyph-name="Ograve" unicode="&#xd2;" horiz-adv-x="786" 
d="M404 776l-118 129h49l99 -129h-30zM393 -17q-156 0 -246 107t-90 266q0 160 90 267.5t246 107.5t246 -107.5t90 -267.5q0 -159 -90 -266t-246 -107zM393 22q136 0 216 94t79 240q-1 148 -80 242t-215 94t-214.5 -94t-80.5 -242q2 -147 80.5 -240.5t214.5 -93.5z" />
    <glyph glyph-name="Oacute" unicode="&#xd3;" horiz-adv-x="786" 
d="M352 776l98 129h50l-118 -129h-30zM393 -17q-156 0 -246 107t-90 266q0 160 90 267.5t246 107.5t246 -107.5t90 -267.5q0 -159 -90 -266t-246 -107zM393 22q136 0 216 94t79 240q-1 148 -80 242t-215 94t-214.5 -94t-80.5 -242q2 -147 80.5 -240.5t214.5 -93.5z" />
    <glyph glyph-name="Ocircumflex" unicode="&#xd4;" horiz-adv-x="786" 
d="M267 776l110 129h32l110 -129h-34l-93 99l-93 -99h-32zM393 -17q-156 0 -246 107t-90 266q0 160 90 267.5t246 107.5t246 -107.5t90 -267.5q0 -159 -90 -266t-246 -107zM393 22q136 0 216 94t79 240q-1 148 -80 242t-215 94t-214.5 -94t-80.5 -242q2 -147 80.5 -240.5
t214.5 -93.5z" />
    <glyph glyph-name="Otilde" unicode="&#xd5;" horiz-adv-x="786" 
d="M261 800q2 36 20.5 59.5t49.5 23.5q26 0 65.5 -25t58.5 -25q37 0 44 48h31q-9 -80 -71 -80q-26 0 -65 25t-60 25q-20 0 -30.5 -15t-11.5 -36h-31zM393 -17q-156 0 -246 107t-90 266q0 160 90 267.5t246 107.5t246 -107.5t90 -267.5q0 -159 -90 -266t-246 -107zM393 22
q136 0 216 94t79 240q-1 148 -80 242t-215 94t-214.5 -94t-80.5 -242q2 -147 80.5 -240.5t214.5 -93.5z" />
    <glyph glyph-name="Odieresis" unicode="&#xd6;" horiz-adv-x="786" 
d="M302 805q-13 0 -22.5 10t-9.5 23t9.5 22.5t22.5 9.5q14 0 23.5 -9t9.5 -23t-9.5 -23.5t-23.5 -9.5zM483 805q-13 0 -22.5 10t-9.5 23t9.5 22.5t22.5 9.5q14 0 23.5 -9.5t9.5 -22.5q0 -14 -10 -23.5t-23 -9.5zM393 -17q-156 0 -246 107t-90 266q0 160 90 267.5t246 107.5
t246 -107.5t90 -267.5q0 -159 -90 -266t-246 -107zM393 22q136 0 216 94t79 240q-1 148 -80 242t-215 94t-214.5 -94t-80.5 -242q2 -147 80.5 -240.5t214.5 -93.5z" />
    <glyph glyph-name="multiply" unicode="&#xd7;" horiz-adv-x="521" 
d="M85 61l-23 23l175 185l-175 186l23 22l175 -186l176 186l23 -22l-176 -186l176 -185l-23 -23l-176 186z" />
    <glyph glyph-name="Oslash" unicode="&#xd8;" horiz-adv-x="791" 
d="M648 617q84 -104 84 -261q0 -159 -90 -266t-246 -107q-143 0 -234 94l-65 -72l-23 20l68 75q-82 102 -82 256q0 160 90 267.5t246 107.5q142 0 232 -92l67 74l22 -20zM101 356q2 -135 68 -225l432 478q-80 83 -205 83q-136 0 -214.5 -94t-80.5 -242zM396 22q136 0 216 94
t79 240q0 138 -70 230l-432 -479q80 -85 207 -85z" />
    <glyph glyph-name="Ugrave" unicode="&#xd9;" horiz-adv-x="705" 
d="M369 776l-118 129h49l99 -129h-30zM352 -17q-124 0 -189.5 73t-65.5 218v441h40v-441q0 -252 215 -252t215 252v441h41v-441q0 -145 -65.5 -218t-190.5 -73z" />
    <glyph glyph-name="Uacute" unicode="&#xda;" horiz-adv-x="705" 
d="M306 776l98 129h50l-118 -129h-30zM352 -17q-124 0 -189.5 73t-65.5 218v441h40v-441q0 -252 215 -252t215 252v441h41v-441q0 -145 -65.5 -218t-190.5 -73z" />
    <glyph glyph-name="Ucircumflex" unicode="&#xdb;" horiz-adv-x="705" 
d="M226 776l110 129h32l110 -129h-34l-93 99l-93 -99h-32zM352 -17q-124 0 -189.5 73t-65.5 218v441h40v-441q0 -252 215 -252t215 252v441h41v-441q0 -145 -65.5 -218t-190.5 -73z" />
    <glyph glyph-name="Udieresis" unicode="&#xdc;" horiz-adv-x="705" 
d="M262 805q-13 0 -22.5 10t-9.5 23t9.5 22.5t22.5 9.5q14 0 23.5 -9t9.5 -23t-9.5 -23.5t-23.5 -9.5zM443 805q-13 0 -22.5 10t-9.5 23t9.5 22.5t22.5 9.5q14 0 23.5 -9.5t9.5 -22.5q0 -14 -10 -23.5t-23 -9.5zM352 -17q-124 0 -189.5 73t-65.5 218v441h40v-441
q0 -252 215 -252t215 252v441h41v-441q0 -145 -65.5 -218t-190.5 -73z" />
    <glyph glyph-name="Yacute" unicode="&#xdd;" horiz-adv-x="638" 
d="M273 776l98 129h50l-118 -129h-30zM299 0v297l-272 417h48l245 -378l245 378h46l-272 -417v-297h-40z" />
    <glyph glyph-name="Thorn" unicode="&#xde;" horiz-adv-x="636" 
d="M107 0v714h40v-154h240q102 0 156 -52t54 -148q0 -92 -59.5 -145.5t-159.5 -53.5h-231v-161h-40zM147 196h232q79 0 129 43t50 121q0 165 -179 165h-232v-329z" />
    <glyph glyph-name="germandbls" unicode="&#xdf;" horiz-adv-x="548" 
d="M85 0v515q0 106 56 158t137 52q82 0 133.5 -46t51.5 -125q0 -61 -33 -104.5t-90 -56.5q72 -11 114.5 -60t42.5 -124q0 -98 -57 -153.5t-173 -55.5h-50v36h50q88 0 139.5 41t51.5 132q0 161 -199 163h-12v36h12q73 0 119.5 36.5t46.5 108.5q0 64 -40 100t-107 36
q-27 0 -51.5 -8t-49 -26t-39 -54t-14.5 -86v-515h-39z" />
    <glyph glyph-name="agrave" unicode="&#xe0;" horiz-adv-x="524" 
d="M283 573h-28l-106 144h48zM202 -12q-68 0 -111 35.5t-43 105.5q0 67 45.5 104t128.5 54l117 24q33 7 44 18t11 36q0 126 -140 126q-142 0 -150 -127h-38q2 74 48.5 118.5t138.5 44.5q88 0 134 -40t46 -129v-287q0 -37 33 -37h22v-34h-40q-52 0 -52 55v41
q-26 -50 -76.5 -79t-117.5 -29zM208 24q75 0 131 45.5t56 112.5v116q-15 -14 -59 -23l-101 -21q-72 -15 -109 -43t-37 -80q0 -50 31 -78.5t88 -28.5z" />
    <glyph glyph-name="aacute" unicode="&#xe1;" horiz-adv-x="524" 
d="M211 573l86 144h48l-106 -144h-28zM202 -12q-68 0 -111 35.5t-43 105.5q0 67 45.5 104t128.5 54l117 24q33 7 44 18t11 36q0 126 -140 126q-142 0 -150 -127h-38q2 74 48.5 118.5t138.5 44.5q88 0 134 -40t46 -129v-287q0 -37 33 -37h22v-34h-40q-52 0 -52 55v41
q-26 -50 -76.5 -79t-117.5 -29zM208 24q75 0 131 45.5t56 112.5v116q-15 -14 -59 -23l-101 -21q-72 -15 -109 -43t-37 -80q0 -50 31 -78.5t88 -28.5z" />
    <glyph glyph-name="acircumflex" unicode="&#xe2;" horiz-adv-x="524" 
d="M133 573l108 144h32l107 -144h-34l-91 114l-90 -114h-32zM202 -12q-68 0 -111 35.5t-43 105.5q0 67 45.5 104t128.5 54l117 24q33 7 44 18t11 36q0 126 -140 126q-142 0 -150 -127h-38q2 74 48.5 118.5t138.5 44.5q88 0 134 -40t46 -129v-287q0 -37 33 -37h22v-34h-40
q-52 0 -52 55v41q-26 -50 -76.5 -79t-117.5 -29zM208 24q75 0 131 45.5t56 112.5v116q-15 -14 -59 -23l-101 -21q-72 -15 -109 -43t-37 -80q0 -50 31 -78.5t88 -28.5z" />
    <glyph glyph-name="atilde" unicode="&#xe3;" horiz-adv-x="524" 
d="M123 613q2 36 20.5 59.5t49.5 23.5q26 0 65.5 -24.5t58.5 -24.5q37 0 44 47h30q-8 -80 -70 -80q-26 0 -65 25t-60 25q-20 0 -30.5 -15t-11.5 -36h-31zM202 -12q-68 0 -111 35.5t-43 105.5q0 67 45.5 104t128.5 54l117 24q33 7 44 18t11 36q0 126 -140 126
q-142 0 -150 -127h-38q2 74 48.5 118.5t138.5 44.5q88 0 134 -40t46 -129v-287q0 -37 33 -37h22v-34h-40q-52 0 -52 55v41q-26 -50 -76.5 -79t-117.5 -29zM208 24q75 0 131 45.5t56 112.5v116q-15 -14 -59 -23l-101 -21q-72 -15 -109 -43t-37 -80q0 -50 31 -78.5t88 -28.5z
" />
    <glyph glyph-name="adieresis" unicode="&#xe4;" horiz-adv-x="524" 
d="M178 631q-13 0 -22.5 10t-9.5 23t9.5 22.5t22.5 9.5q14 0 23.5 -9t9.5 -23t-9.5 -23.5t-23.5 -9.5zM335 631q-13 0 -22.5 10t-9.5 23t9.5 22.5t22.5 9.5q14 0 23.5 -9.5t9.5 -22.5q0 -14 -10 -23.5t-23 -9.5zM202 -12q-68 0 -111 35.5t-43 105.5q0 67 45.5 104t128.5 54
l117 24q33 7 44 18t11 36q0 126 -140 126q-142 0 -150 -127h-38q2 74 48.5 118.5t138.5 44.5q88 0 134 -40t46 -129v-287q0 -37 33 -37h22v-34h-40q-52 0 -52 55v41q-26 -50 -76.5 -79t-117.5 -29zM208 24q75 0 131 45.5t56 112.5v116q-15 -14 -59 -23l-101 -21
q-72 -15 -109 -43t-37 -80q0 -50 31 -78.5t88 -28.5z" />
    <glyph glyph-name="aring" unicode="&#xe5;" horiz-adv-x="524" 
d="M256 556q-39 0 -64.5 26t-25.5 66t25.5 66.5t64.5 26.5t65 -26.5t26 -66.5t-26 -66t-65 -26zM256 583q26 0 43.5 18.5t17.5 46.5t-17.5 47t-43.5 19t-43.5 -19t-17.5 -47t17.5 -46.5t43.5 -18.5zM202 -12q-68 0 -111 35.5t-43 105.5q0 67 45.5 104t128.5 54l117 24
q33 7 44 18t11 36q0 126 -140 126q-142 0 -150 -127h-38q2 74 48.5 118.5t138.5 44.5q88 0 134 -40t46 -129v-287q0 -37 33 -37h22v-34h-40q-52 0 -52 55v41q-26 -50 -76.5 -79t-117.5 -29zM208 24q75 0 131 45.5t56 112.5v116q-15 -14 -59 -23l-101 -21q-72 -15 -109 -43
t-37 -80q0 -50 31 -78.5t88 -28.5z" />
    <glyph glyph-name="ae" unicode="&#xe6;" horiz-adv-x="887" 
d="M840 250h-38l-366 1v-4q2 -104 51 -163t136 -59q67 0 111 33.5t56 91.5h38q-15 -74 -69 -118t-137 -44q-73 0 -125.5 36.5t-77.5 104.5q-25 -69 -83 -105t-134 -36q-67 0 -109.5 35.5t-42.5 105.5q0 69 45.5 104.5t131.5 53.5l114 24q33 7 44 18t11 36q0 126 -140 126
q-142 0 -149 -127h-39q2 74 48.5 118.5t139.5 44.5q153 0 175 -122q29 57 79 89.5t113 32.5q104 0 161 -70.5t57 -191.5q0 -11 -1 -15zM623 490q-79 0 -129.5 -56t-55.5 -147l364 -1q-4 94 -50.5 149t-128.5 55zM397 182v116q-11 -10 -59 -23l-99 -21q-74 -16 -111 -43
t-37 -80q0 -50 31 -78.5t86 -28.5q76 0 132.5 45.5t56.5 112.5z" />
    <glyph glyph-name="ccedilla" unicode="&#xe7;" horiz-adv-x="528" 
d="M481 155q-10 -72 -57.5 -116t-122.5 -50l-33 -39l2 -1q14 6 35 6q35 0 55 -16t20 -47q0 -39 -28 -59.5t-72 -20.5q-54 2 -87 28l12 24q31 -24 73 -24q67 0 67 48q0 42 -48 42q-34 0 -55 -12l-16 15l47 55q-103 1 -161.5 74.5t-58.5 189.5q0 123 60.5 199t171.5 76
q79 0 131 -45t62 -125h-39q-9 62 -50 97.5t-105 35.5q-66 0 -111 -35t-63 -86.5t-18 -116.5q0 -99 48.5 -163t136.5 -64q68 0 112.5 34t52.5 96h39z" />
    <glyph glyph-name="egrave" unicode="&#xe8;" horiz-adv-x="543" 
d="M302 573h-28l-106 144h48zM458 250l-366 1v-4q1 -104 50.5 -163t136.5 -59q67 0 110.5 33.5t55.5 91.5h39q-15 -74 -69 -118t-137 -44q-104 0 -164.5 71.5t-60.5 195.5q0 119 62.5 195.5t162.5 76.5q104 0 161 -70.5t57 -191.5v-15h-38zM278 490q-78 0 -129.5 -56.5
t-56.5 -147.5h365q-4 94 -50.5 149t-128.5 55z" />
    <glyph glyph-name="eacute" unicode="&#xe9;" horiz-adv-x="543" 
d="M364 717l-106 -144h-28l86 144h48zM458 250l-366 1v-4q1 -104 50.5 -163t136.5 -59q67 0 110.5 33.5t55.5 91.5h39q-15 -74 -69 -118t-137 -44q-104 0 -164.5 71.5t-60.5 195.5q0 119 62.5 195.5t162.5 76.5q104 0 161 -70.5t57 -191.5v-15h-38zM278 490
q-78 0 -129.5 -56.5t-56.5 -147.5h365q-4 94 -50.5 149t-128.5 55z" />
    <glyph glyph-name="ecircumflex" unicode="&#xea;" horiz-adv-x="543" 
d="M273 687l-90 -114h-32l108 144h32l107 -144h-34zM458 250l-366 1v-4q1 -104 50.5 -163t136.5 -59q67 0 110.5 33.5t55.5 91.5h39q-15 -74 -69 -118t-137 -44q-104 0 -164.5 71.5t-60.5 195.5q0 119 62.5 195.5t162.5 76.5q104 0 161 -70.5t57 -191.5v-15h-38zM278 490
q-78 0 -129.5 -56.5t-56.5 -147.5h365q-4 94 -50.5 149t-128.5 55z" />
    <glyph glyph-name="edieresis" unicode="&#xeb;" horiz-adv-x="543" 
d="M196 631q-13 0 -22.5 10t-9.5 23t9.5 22.5t22.5 9.5q14 0 23.5 -9t9.5 -23t-9.5 -23.5t-23.5 -9.5zM353 631q-13 0 -22.5 10t-9.5 23t9.5 22.5t22.5 9.5q14 0 23.5 -9.5t9.5 -22.5q0 -14 -10 -23.5t-23 -9.5zM458 250l-366 1v-4q1 -104 50.5 -163t136.5 -59
q67 0 110.5 33.5t55.5 91.5h39q-15 -74 -69 -118t-137 -44q-104 0 -164.5 71.5t-60.5 195.5q0 119 62.5 195.5t162.5 76.5q104 0 161 -70.5t57 -191.5v-15h-38zM278 490q-78 0 -129.5 -56.5t-56.5 -147.5h365q-4 94 -50.5 149t-128.5 55z" />
    <glyph glyph-name="igrave" unicode="&#xec;" horiz-adv-x="209" 
d="M131 573h-28l-106 144h48zM85 0v515h38v-515h-38z" />
    <glyph glyph-name="iacute" unicode="&#xed;" horiz-adv-x="209" 
d="M59 573l86 144h48l-106 -144h-28zM85 0v515h38v-515h-38z" />
    <glyph glyph-name="icircumflex" unicode="&#xee;" horiz-adv-x="209" 
d="M-20 573l108 144h32l107 -144h-34l-91 114l-90 -114h-32zM85 0v515h38v-515h-38z" />
    <glyph glyph-name="idieresis" unicode="&#xef;" horiz-adv-x="209" 
d="M26 631q-13 0 -22.5 10t-9.5 23t9.5 22.5t22.5 9.5q14 0 23.5 -9t9.5 -23t-9.5 -23.5t-23.5 -9.5zM183 631q-13 0 -22.5 10t-9.5 23t9.5 22.5t22.5 9.5q14 0 23.5 -9.5t9.5 -22.5q0 -14 -10 -23.5t-23 -9.5zM85 0v515h38v-515h-38z" />
    <glyph glyph-name="eth" unicode="&#xf0;" horiz-adv-x="567" 
d="M513 243v-2q-1 -109 -63.5 -181t-167.5 -72q-104 0 -167 72.5t-63 183.5q0 110 63 182.5t167 72.5q88 0 150 -54q-59 110 -141 182l-114 -66l-14 25l106 61q-41 33 -79 54l19 28q52 -29 94 -64l115 66l15 -25l-107 -62q94 -94 139 -187.5t48 -202.5v-10v-1zM282 23
q88 0 140.5 62t52.5 159q0 95 -52.5 157.5t-140.5 62.5q-87 0 -139.5 -62.5t-52.5 -157.5q0 -97 52.5 -159t139.5 -62z" />
    <glyph glyph-name="ntilde" unicode="&#xf1;" horiz-adv-x="552" 
d="M143 613q2 36 20.5 59.5t49.5 23.5q26 0 65.5 -24.5t58.5 -24.5q37 0 44 47h30q-8 -80 -70 -80q-26 0 -65 25t-60 25q-20 0 -30.5 -15t-11.5 -36h-31zM85 0v515h38v-106q20 55 63.5 86.5t98.5 31.5q92 0 140 -55t48 -154v-318h-38v311q0 85 -39.5 132.5t-112.5 47.5
q-68 0 -114 -55t-46 -131v-305h-38z" />
    <glyph glyph-name="ograve" unicode="&#xf2;" horiz-adv-x="566" 
d="M309 573h-28l-106 144h48zM282 -12q-103 0 -166.5 76.5t-63.5 192.5q0 115 64 192.5t166 77.5q104 0 167.5 -77t63.5 -193t-63.5 -192.5t-167.5 -76.5zM282 24q87 0 140 65.5t53 167.5q0 101 -53 167t-140 66q-86 0 -139 -66t-53 -167q0 -102 53 -167.5t139 -65.5z" />
    <glyph glyph-name="oacute" unicode="&#xf3;" horiz-adv-x="566" 
d="M237 573l86 144h48l-106 -144h-28zM282 -12q-103 0 -166.5 76.5t-63.5 192.5q0 115 64 192.5t166 77.5q104 0 167.5 -77t63.5 -193t-63.5 -192.5t-167.5 -76.5zM282 24q87 0 140 65.5t53 167.5q0 101 -53 167t-140 66q-86 0 -139 -66t-53 -167q0 -102 53 -167.5
t139 -65.5z" />
    <glyph glyph-name="ocircumflex" unicode="&#xf4;" horiz-adv-x="566" 
d="M159 573l108 144h32l107 -144h-34l-91 114l-90 -114h-32zM282 -12q-103 0 -166.5 76.5t-63.5 192.5q0 115 64 192.5t166 77.5q104 0 167.5 -77t63.5 -193t-63.5 -192.5t-167.5 -76.5zM282 24q87 0 140 65.5t53 167.5q0 101 -53 167t-140 66q-86 0 -139 -66t-53 -167
q0 -102 53 -167.5t139 -65.5z" />
    <glyph glyph-name="otilde" unicode="&#xf5;" horiz-adv-x="566" 
d="M148 613q2 36 20.5 59.5t49.5 23.5q26 0 65.5 -24.5t58.5 -24.5q37 0 44 47h30q-8 -80 -70 -80q-26 0 -65 25t-60 25q-20 0 -30.5 -15t-11.5 -36h-31zM282 -12q-103 0 -166.5 76.5t-63.5 192.5q0 115 64 192.5t166 77.5q104 0 167.5 -77t63.5 -193t-63.5 -192.5
t-167.5 -76.5zM282 24q87 0 140 65.5t53 167.5q0 101 -53 167t-140 66q-86 0 -139 -66t-53 -167q0 -102 53 -167.5t139 -65.5z" />
    <glyph glyph-name="odieresis" unicode="&#xf6;" horiz-adv-x="566" 
d="M204 631q-13 0 -22.5 10t-9.5 23t9.5 22.5t22.5 9.5q14 0 23.5 -9t9.5 -23t-9.5 -23.5t-23.5 -9.5zM361 631q-13 0 -22.5 10t-9.5 23t9.5 22.5t22.5 9.5q14 0 23.5 -9.5t9.5 -22.5q0 -14 -10 -23.5t-23 -9.5zM282 -12q-103 0 -166.5 76.5t-63.5 192.5q0 115 64 192.5
t166 77.5q104 0 167.5 -77t63.5 -193t-63.5 -192.5t-167.5 -76.5zM282 24q87 0 140 65.5t53 167.5q0 101 -53 167t-140 66q-86 0 -139 -66t-53 -167q0 -102 53 -167.5t139 -65.5z" />
    <glyph glyph-name="divide" unicode="&#xf7;" horiz-adv-x="627" 
d="M313 433q-21 0 -33 13.5t-12 34.5q0 20 13 33.5t32 13.5t32.5 -14t13.5 -33q0 -21 -11.5 -34.5t-34.5 -13.5zM74 253v33h479v-33h-479zM313 10q-21 0 -33 14t-12 34t13 33.5t32 13.5t32.5 -14t13.5 -33q0 -21 -11.5 -34.5t-34.5 -13.5z" />
    <glyph glyph-name="oslash" unicode="&#xf8;" horiz-adv-x="571" 
d="M524 491l-57 -60q49 -72 49 -174q0 -116 -63.5 -192.5t-167.5 -76.5q-100 0 -164 74l-54 -57l-19 18l56 60q-49 73 -49 174q0 115 64 192.5t166 77.5q101 0 167 -76l54 58zM93 257q0 -84 38 -146l294 312q-53 67 -140 67q-86 0 -139 -66t-53 -167zM478 257q0 86 -38 145
l-294 -313q54 -65 139 -65q87 0 140 65.5t53 167.5z" />
    <glyph glyph-name="ugrave" unicode="&#xf9;" horiz-adv-x="550" 
d="M301 573h-28l-106 144h48zM256 -12q-81 0 -128.5 49.5t-47.5 139.5v338h38l-1 -331q0 -81 40.5 -120t104.5 -39q79 0 121.5 45t42.5 125v320h38v-515h-37v78q-19 -41 -63.5 -65.5t-107.5 -24.5z" />
    <glyph glyph-name="uacute" unicode="&#xfa;" horiz-adv-x="550" 
d="M229 573l86 144h48l-106 -144h-28zM256 -12q-81 0 -128.5 49.5t-47.5 139.5v338h38l-1 -331q0 -81 40.5 -120t104.5 -39q79 0 121.5 45t42.5 125v320h38v-515h-37v78q-19 -41 -63.5 -65.5t-107.5 -24.5z" />
    <glyph glyph-name="ucircumflex" unicode="&#xfb;" horiz-adv-x="550" 
d="M150 573l108 144h32l107 -144h-34l-91 114l-90 -114h-32zM256 -12q-81 0 -128.5 49.5t-47.5 139.5v338h38l-1 -331q0 -81 40.5 -120t104.5 -39q79 0 121.5 45t42.5 125v320h38v-515h-37v78q-19 -41 -63.5 -65.5t-107.5 -24.5z" />
    <glyph glyph-name="udieresis" unicode="&#xfc;" horiz-adv-x="550" 
d="M195 631q-13 0 -22.5 10t-9.5 23t9.5 22.5t22.5 9.5q14 0 23.5 -9t9.5 -23t-9.5 -23.5t-23.5 -9.5zM352 631q-13 0 -22.5 10t-9.5 23t9.5 22.5t22.5 9.5q14 0 23.5 -9.5t9.5 -22.5q0 -14 -9.5 -23.5t-23.5 -9.5zM256 -12q-81 0 -128.5 49.5t-47.5 139.5v338h38l-1 -331
q0 -81 40.5 -120t104.5 -39q79 0 121.5 45t42.5 125v320h38v-515h-37v78q-19 -41 -63.5 -65.5t-107.5 -24.5z" />
    <glyph glyph-name="yacute" unicode="&#xfd;" horiz-adv-x="487" 
d="M200 573l86 144h48l-106 -144h-28zM60 -209v37h75q26 0 43 11.5t32 44.5q20 43 20 63q0 8 -16 56l-183 512h43l98 -287l81 -230l76 235l89 282h41l-209 -631q-17 -50 -44 -71.5t-70 -21.5h-76z" />
    <glyph glyph-name="thorn" unicode="&#xfe;" horiz-adv-x="581" 
d="M311 527q100 0 158.5 -75t58.5 -193q0 -119 -60.5 -195t-158.5 -76q-135 0 -186 119v-315h-38v925h37v-320q26 62 75.5 96t113.5 34zM308 24q81 0 131 65.5t50 168.5q0 102 -49 167t-131 65q-83 0 -135 -64.5t-52 -167.5q0 -112 50.5 -173t135.5 -61z" />
    <glyph glyph-name="ydieresis" unicode="&#xff;" horiz-adv-x="487" 
d="M167 631q-13 0 -22.5 10t-9.5 23t9.5 22.5t22.5 9.5q14 0 23.5 -9t9.5 -23t-9.5 -23.5t-23.5 -9.5zM324 631q-13 0 -22.5 10t-9.5 23t9.5 22.5t22.5 9.5q14 0 23.5 -9.5t9.5 -22.5q0 -14 -9.5 -23.5t-23.5 -9.5zM60 -209v37h75q26 0 43 11.5t32 44.5q20 43 20 63
q0 8 -16 56l-183 512h43l98 -287l81 -230l76 235l89 282h41l-209 -631q-17 -50 -44 -71.5t-70 -21.5h-76z" />
    <glyph glyph-name="dotlessi" unicode="&#x131;" horiz-adv-x="209" 
d="M85 0v515h38v-515h-38z" />
    <glyph glyph-name="Ldot" unicode="&#x13f;" horiz-adv-x="553" 
d="M107 0v715h40v-676h386v-39h-426zM407 342q-17 0 -28 11t-11 28t11 28.5t28 11.5q16 0 27 -11.5t11 -28.5q0 -16 -11 -27.5t-27 -11.5z" />
    <glyph glyph-name="ldot" unicode="&#x140;" horiz-adv-x="237" 
d="M155 0q-72 0 -72 69v648h38v-643q0 -40 41 -40h28v-34h-35zM219 337q-17 0 -28 11t-11 28t11 28.5t28 11.5q16 0 27 -11.5t11 -28.5q0 -16 -11 -27.5t-27 -11.5z" />
    <glyph glyph-name="Lslash" unicode="&#x141;" horiz-adv-x="564" 
d="M158 39h386v-39h-426v317l-96 -71v37l96 71v361h40v-331l117 87v-37l-117 -87v-308z" />
    <glyph glyph-name="lslash" unicode="&#x142;" horiz-adv-x="258" 
d="M218 429l-72 -63v-292q0 -40 41 -40h28v-34h-35q-72 0 -72 69v263l-65 -57v37l65 57v348h38v-314l72 63v-37z" />
    <glyph glyph-name="OE" unicode="&#x152;" horiz-adv-x="1075" 
d="M386 -17q-153 0 -241 106.5t-88 264.5q0 103 36.5 187.5t112.5 137t180 52.5q124 0 197 -79v63h441v-38h-401v-288h358v-38h-358v-314h402v-37h-442v62q-80 -79 -197 -79zM386 22q123 0 197 101v469q-42 52 -87.5 76t-109.5 24q-131 0 -208.5 -93t-79.5 -245
q2 -146 79 -239t209 -93z" />
    <glyph glyph-name="oe" unicode="&#x153;" horiz-adv-x="934" 
d="M272 -12q-107 0 -163 77.5t-56 191.5q0 113 55.5 191.5t163.5 78.5q76 0 129 -43t71 -115q43 155 200 158q105 1 160 -72.5t55 -185.5q0 -15 -1 -22h-395q1 -108 46.5 -165t134.5 -57q74 0 115.5 39.5t53.5 104.5h37q-15 -84 -68 -132.5t-138 -48.5q-80 0 -132 40
t-70 112q-44 -152 -198 -152zM272 24q93 0 137 65t44 168q0 101 -44.5 167t-136.5 66q-90 0 -135.5 -66.5t-45.5 -166.5q0 -98 45.5 -165.5t135.5 -67.5zM492 282h356q-3 92 -46.5 150t-129.5 58q-88 0 -131.5 -56t-48.5 -152z" />
    <glyph glyph-name="Scaron" unicode="&#x160;" horiz-adv-x="619" 
d="M296 776l-109 129h35l92 -100l92 100h31l-108 -129h-33zM315 -17q-123 0 -194 60t-69 181h39q0 -105 59.5 -154.5t164.5 -49.5q92 0 150 39t58 118q0 24 -8 44.5t-16.5 34.5t-30 28t-33 21t-42 17.5t-40 13.5t-43.5 12q-53 15 -89.5 29t-72.5 37t-54.5 56.5t-18.5 77.5
q0 90 66.5 136.5t162.5 46.5q104 0 173.5 -53t73.5 -166h-39q-4 95 -62 138.5t-146 43.5q-81 0 -135.5 -35.5t-54.5 -107.5q0 -28 12 -51.5t28.5 -39t47 -30.5t56 -23.5t66.5 -21.5q49 -14 73.5 -22.5t62 -26t56 -36.5t33 -50.5t14.5 -70.5q0 -96 -70 -146t-178 -50z" />
    <glyph glyph-name="scaron" unicode="&#x161;" horiz-adv-x="478" 
d="M223 573l-108 143h34l91 -116l91 116h31l-106 -143h-33zM239 -12q-90 0 -142 41t-52 122h39q1 -61 42.5 -94.5t112.5 -33.5q66 0 107.5 25.5t41.5 78.5q0 39 -22.5 62t-77.5 41l-92 29q-33 11 -49 18t-38.5 22.5t-32.5 38.5t-10 55q0 60 45.5 97t126.5 37
q85 0 133.5 -39.5t48.5 -123.5h-38q-1 65 -39.5 96.5t-104.5 31.5q-71 0 -102.5 -29t-31.5 -68q0 -41 23.5 -61t79.5 -38l96 -32q67 -22 95 -52t28 -81q0 -72 -53 -107.5t-134 -35.5z" />
    <glyph glyph-name="Ydieresis" unicode="&#x178;" horiz-adv-x="638" 
d="M229 805q-13 0 -22.5 10t-9.5 23t9.5 22.5t22.5 9.5q14 0 23.5 -9t9.5 -23t-9.5 -23.5t-23.5 -9.5zM410 805q-13 0 -22.5 10t-9.5 23t9.5 22.5t22.5 9.5q14 0 23.5 -9.5t9.5 -22.5q0 -14 -9.5 -23.5t-23.5 -9.5zM299 0v297l-272 417h48l245 -378l245 378h46l-272 -417
v-297h-40z" />
    <glyph glyph-name="Zcaron" unicode="&#x17d;" horiz-adv-x="578" 
d="M274 776l-109 129h35l92 -100l92 100h31l-108 -129h-33zM28 0v43l366 505q62 84 97 128h-440v38h484v-43l-374 -515q-56 -77 -89 -118h473v-38h-517z" />
    <glyph glyph-name="zcaron" unicode="&#x17e;" horiz-adv-x="474" 
d="M216 573l-108 143h34l91 -116l91 116h31l-106 -143h-33zM34 0v35l346 446h-333v34h378v-35l-348 -446h365v-34h-408z" />
    <glyph glyph-name="florin" unicode="&#x192;" horiz-adv-x="453" 
d="M-46 -158v35h66q78 0 96 101l77 419h-109l7 34h109l32 168q11 61 44 88t93 27h62v-35h-62q-44 0 -66.5 -20.5t-32.5 -70.5l-30 -157h117l-6 -34h-117l-78 -422q-23 -133 -132 -133h-70z" />
    <glyph glyph-name="circumflex" unicode="&#x2c6;" horiz-adv-x="267" 
d="M10 573l108 144h32l107 -144h-34l-91 114l-90 -114h-32z" />
    <glyph glyph-name="caron" unicode="&#x2c7;" horiz-adv-x="267" 
d="M118 573l-108 143h34l91 -116l91 116h31l-106 -143h-33z" />
    <glyph glyph-name="uni02C9" unicode="&#x2c9;" horiz-adv-x="176" 
d="M-33 637v28h242v-28h-242z" />
    <glyph glyph-name="breve" unicode="&#x2d8;" horiz-adv-x="267" 
d="M130 599q-50 0 -82.5 30.5t-37.5 84.5h28q5 -43 29.5 -65t62.5 -22q42 0 69 22t31 65h27q-5 -54 -39.5 -84.5t-87.5 -30.5z" />
    <glyph glyph-name="dotaccent" unicode="&#x2d9;" horiz-adv-x="93" 
d="M46 631q-15 0 -25.5 11t-10.5 26q0 14 10.5 25t25.5 11t25.5 -11t10.5 -25q0 -15 -10.5 -26t-25.5 -11z" />
    <glyph glyph-name="ring" unicode="&#x2da;" horiz-adv-x="200" 
d="M103 556q-39 0 -64.5 26t-25.5 66t25.5 66.5t64.5 26.5t65 -26.5t26 -66.5t-26 -66t-65 -26zM103 583q26 0 43.5 18.5t17.5 46.5t-17.5 47t-43.5 19t-43.5 -19t-17.5 -47t17.5 -46.5t43.5 -18.5z" />
    <glyph glyph-name="ogonek" unicode="&#x2db;" horiz-adv-x="194" 
d="M89 -194q-36 0 -57.5 18t-21.5 48q0 68 105 128h27q-52 -39 -73.5 -66.5t-21.5 -54.5q0 -20 13 -32.5t36 -12.5q44 0 68 30l20 -13q-39 -45 -95 -45z" />
    <glyph glyph-name="tilde" unicode="&#x2dc;" horiz-adv-x="287" 
d="M9 613q2 36 20.5 59.5t49.5 23.5q26 0 65.5 -24.5t58.5 -24.5q37 0 44 47h30q-8 -80 -70 -80q-26 0 -65 25t-60 25q-20 0 -30.5 -15t-11.5 -36h-31z" />
    <glyph glyph-name="hungarumlaut" unicode="&#x2dd;" horiz-adv-x="311" 
d="M17 573l84 144h47l-102 -144h-29zM160 573l85 144h48l-105 -144h-28z" />
    <glyph glyph-name="gravecomb" unicode="&#x300;" 
d="M0 573h-28l-106 144h48z" />
    <glyph glyph-name="acutecomb" unicode="&#x301;" 
d="M-170 573l86 144h48l-106 -144h-28z" />
    <glyph glyph-name="uni0302" unicode="&#x302;" 
d="M-257 573l108 144h32l107 -144h-34l-91 114l-90 -114h-32z" />
    <glyph glyph-name="tildecomb" unicode="&#x303;" 
d="M-277 613q2 36 20.5 59.5t49.5 23.5q26 0 65.5 -24.5t58.5 -24.5q37 0 44 47h30q-8 -80 -70 -80q-26 0 -65 25t-60 25q-20 0 -30.5 -15t-11.5 -36h-31z" />
    <glyph glyph-name="uni0304" unicode="&#x304;" 
d="M-253 637v28h243v-28h-243z" />
    <glyph glyph-name="uni0306" unicode="&#x306;" 
d="M-137 599q-50 0 -82.5 30.5t-37.5 84.5h28q5 -43 29.5 -65t62.5 -22q42 0 69 22t31 65h27q-5 -54 -39.5 -84.5t-87.5 -30.5z" />
    <glyph glyph-name="uni0307" unicode="&#x307;" 
d="M-110 631q-15 0 -25.5 11t-10.5 26q0 14 10.5 25t25.5 11t25.5 -11t10.5 -25q0 -15 -10.5 -26t-25.5 -11z" />
    <glyph glyph-name="uni0308" unicode="&#x308;" 
d="M-200 631q-13 0 -22.5 10t-9.5 23t9.5 22.5t22.5 9.5q14 0 23.5 -9t9.5 -23t-9.5 -23.5t-23.5 -9.5zM-43 631q-13 0 -22.5 10t-9.5 23t9.5 22.5t22.5 9.5q14 0 23.5 -9.5t9.5 -22.5q0 -14 -10 -23.5t-23 -9.5z" />
    <glyph glyph-name="uni030A" unicode="&#x30a;" 
d="M-100 556q-39 0 -64.5 26t-25.5 66t25.5 66.5t64.5 26.5t65 -26.5t26 -66.5t-26 -66t-65 -26zM-100 583q26 0 43.5 18.5t17.5 46.5t-17.5 47t-43.5 19t-43.5 -19t-17.5 -47t17.5 -46.5t43.5 -18.5z" />
    <glyph glyph-name="uni030B" unicode="&#x30b;" 
d="M-294 573l84 144h47l-102 -144h-29zM-151 573l85 144h48l-105 -144h-28z" />
    <glyph glyph-name="uni030C" unicode="&#x30c;" 
d="M-149 573l-108 143h34l91 -116l91 116h31l-106 -143h-33z" />
    <glyph glyph-name="uni0326" unicode="&#x326;" 
d="M-176 -218v25q43 9 43 54h-3q-17 0 -28.5 10.5t-11.5 27.5q0 18 11 28.5t27 10.5q41 0 41 -51q0 -45 -22 -73.5t-57 -31.5z" />
    <glyph glyph-name="uni0327" unicode="&#x327;" 
d="M-117 -188q-54 2 -87 28l12 24q31 -24 73 -24q67 0 67 48q0 42 -48 42q-34 0 -55 -12l-16 15l57 67h27l-42 -50l2 -1q13 6 35 6q35 0 55 -16t20 -47q0 -39 -28 -59.5t-72 -20.5z" />
    <glyph glyph-name="uni0328" unicode="&#x328;" 
d="M-105 -194q-36 0 -57.5 18t-21.5 48q0 68 105 128h27q-52 -39 -73.5 -66.5t-21.5 -54.5q0 -20 13 -32.5t36 -12.5q44 0 68 30l20 -13q-39 -45 -95 -45z" />
    <glyph glyph-name="uni0335" unicode="&#x335;" 
d="M-284 605v31h274v-31h-274z" />
    <glyph glyph-name="uni0336" unicode="&#x336;" 
d="M-577 522h524v-28h-524v28z" />
    <glyph glyph-name="uni0337" unicode="&#x337;" 
d="M-185 300v37l175 154v-37z" />
    <glyph glyph-name="uni0338" unicode="&#x338;" 
d="M-496 0l-19 18l458 486l18 -18z" />
    <glyph glyph-name="uni0394" unicode="&#x394;" horiz-adv-x="628" 
d="M28 0l270 712h28l276 -712h-574zM77 34h474l-239 622z" />
    <glyph glyph-name="uni03A9" unicode="&#x3a9;" horiz-adv-x="700" 
d="M60 0v34h185v99q-89 28 -137 105t-48 178q0 128 84 216.5t206 88.5q123 0 206.5 -88t83.5 -217q0 -102 -46.5 -177t-137.5 -106v-99h184v-34h-214v160q85 20 131 89.5t46 166.5q0 111 -73 190.5t-180 79.5q-106 0 -179 -79.5t-73 -190.5q0 -97 47 -169t132 -87v-160h-217
z" />
    <glyph glyph-name="uni03BC" unicode="&#x3bc;" horiz-adv-x="555" 
d="M85 -177v692h38v-331q0 -81 40.5 -120t103.5 -39q82 0 123.5 46t41.5 124v320h38v-515h-37v78q-19 -39 -62.5 -64.5t-104.5 -25.5q-105 0 -142 80v-245h-39z" />
    <glyph glyph-name="pi" unicode="&#x3c0;" horiz-adv-x="556" 
d="M454 -5q-28 0 -42.5 16t-17.5 34.5t-3 47.5v332h-243v-425h-34v425h-81v33h474v-33h-82v-329q0 -20 1 -31.5t10 -24.5t27 -13q22 0 40 15v-32q-23 -15 -49 -15z" />
    <glyph glyph-name="endash" unicode="&#x2013;" horiz-adv-x="623" 
d="M74 251v35h475v-35h-475z" />
    <glyph glyph-name="emdash" unicode="&#x2014;" horiz-adv-x="851" 
d="M74 251v35h703v-35h-703z" />
    <glyph glyph-name="quoteleft" unicode="&#x2018;" horiz-adv-x="209" 
d="M105 530q-42 0 -42 56q0 43 20 76.5t60 44.5v-27q-23 -7 -35.5 -28.5t-10.5 -48.5q2 1 7 1q16 0 26.5 -10.5t10.5 -27.5q0 -16 -10.5 -26t-25.5 -10z" />
    <glyph glyph-name="quoteright" unicode="&#x2019;" horiz-adv-x="208" 
d="M108 707q42 0 42 -56q0 -43 -20 -76.5t-60 -44.5v27q23 7 35.5 28.5t10.5 48.5q-2 -1 -7 -1q-16 0 -26.5 10.5t-10.5 27.5q0 16 10.5 26t25.5 10z" />
    <glyph glyph-name="quotesinglbase" unicode="&#x201a;" horiz-adv-x="224" 
d="M108 70q42 0 42 -56q0 -43 -20 -76.5t-60 -44.5v27q23 7 35.5 28.5t10.5 48.5q-2 -1 -7 -1q-16 0 -26.5 10.5t-10.5 27.5q0 16 10.5 26t25.5 10z" />
    <glyph glyph-name="quotedblleft" unicode="&#x201c;" horiz-adv-x="328" 
d="M105 530q-42 0 -42 56q0 43 20 76.5t60 44.5v-27q-23 -7 -35.5 -28.5t-10.5 -48.5q2 1 7 1q16 0 26.5 -10.5t10.5 -27.5q0 -16 -10.5 -26t-25.5 -10zM224 530q-42 0 -42 56q0 43 20 76.5t60 44.5v-27q-23 -7 -35.5 -28.5t-10.5 -48.5q2 1 7 1q16 0 26.5 -10.5t10.5 -27.5
q0 -16 -10.5 -26t-25.5 -10z" />
    <glyph glyph-name="quotedblright" unicode="&#x201d;" horiz-adv-x="328" 
d="M108 707q42 0 42 -56q0 -43 -20 -76.5t-60 -44.5v27q23 7 35.5 28.5t10.5 48.5q-2 -1 -7 -1q-16 0 -26.5 10.5t-10.5 27.5q0 16 10.5 26t25.5 10zM227 707q42 0 42 -56q0 -43 -20 -76.5t-60 -44.5v27q23 7 35.5 28.5t10.5 48.5q-2 -1 -7 -1q-16 0 -26.5 10.5t-10.5 27.5
q0 16 10.5 26t25.5 10z" />
    <glyph glyph-name="quotedblbase" unicode="&#x201e;" horiz-adv-x="347" 
d="M108 70q42 0 42 -56q0 -43 -20 -76.5t-60 -44.5v27q23 7 35.5 28.5t10.5 48.5q-2 -1 -7 -1q-16 0 -26.5 10.5t-10.5 27.5q0 16 10.5 26t25.5 10zM232 70q42 0 42 -56q0 -43 -20 -76.5t-60 -44.5v27q23 7 35.5 28.5t10.5 48.5q-2 -1 -7 -1q-16 0 -26.5 10.5t-10.5 27.5
q0 16 10.5 26t25.5 10z" />
    <glyph glyph-name="dagger" unicode="&#x2020;" horiz-adv-x="558" 
d="M260 -144v588h-194v34h194v236h37v-236h195v-34h-195v-588h-37z" />
    <glyph glyph-name="daggerdbl" unicode="&#x2021;" horiz-adv-x="558" 
d="M260 -144v197h-194v34h194v396h-194v34h194v197h37v-197h195v-34h-195v-396h195v-34h-195v-197h-37z" />
    <glyph glyph-name="bullet" unicode="&#x2022;" horiz-adv-x="446" 
d="M223 156q-58 0 -99 43t-41 105t40.5 105t99.5 43t100 -43t41 -105q0 -61 -41 -104.5t-100 -43.5z" />
    <glyph glyph-name="ellipsis" unicode="&#x2026;" horiz-adv-x="648" 
d="M106 -3q-16 0 -26.5 11t-10.5 28q0 16 10.5 26t26.5 10t27 -10t11 -26t-11 -27.5t-27 -11.5zM327 -3q-16 0 -26.5 11t-10.5 28q0 16 10.5 26t26.5 10t27 -10t11 -26t-11 -27.5t-27 -11.5zM541 -3q-16 0 -26.5 11t-10.5 28q0 16 10.5 26t26.5 10t27 -10t11 -26t-11 -27.5
t-27 -11.5z" />
    <glyph glyph-name="perthousand" unicode="&#x2030;" horiz-adv-x="1165" 
d="M157 -33l419 749h33l-418 -749h-34zM205 351q-77 0 -123 51t-46 122q0 74 47.5 124.5t121.5 50.5q76 0 123 -50t47 -125q0 -71 -47.5 -122t-122.5 -51zM205 384q61 0 99 41.5t38 98.5q0 62 -36.5 102t-100.5 40q-63 0 -99.5 -41t-36.5 -101q0 -58 37 -99t99 -41zM573 -6
q-76 0 -122 51.5t-46 121.5q0 74 47 125t121 51q76 0 123.5 -50.5t47.5 -124.5q0 -71 -48 -122.5t-123 -51.5zM961 -6q-77 0 -123 51t-46 122q0 74 47.5 125t121.5 51q76 0 123 -50.5t47 -124.5q0 -71 -47.5 -122.5t-122.5 -51.5zM573 28q62 0 100 41t38 98q0 62 -37 102.5
t-101 40.5q-62 0 -98.5 -41.5t-36.5 -101.5q0 -58 36.5 -98.5t98.5 -40.5zM961 28q61 0 99 41t38 98q0 62 -37 102.5t-100 40.5t-99.5 -41.5t-36.5 -101.5q0 -58 37 -98.5t99 -40.5z" />
    <glyph glyph-name="guilsinglleft" unicode="&#x2039;" horiz-adv-x="240" 
d="M160 125l-104 127v34l104 126v-45l-76 -98l76 -99v-45z" />
    <glyph glyph-name="guilsinglright" unicode="&#x203a;" horiz-adv-x="240" 
d="M79 125v45l77 99l-77 98v45l105 -126v-34z" />
    <glyph glyph-name="fraction" unicode="&#x2044;" horiz-adv-x="480" 
d="M1 -32l443 747h35l-443 -747h-35z" />
    <glyph glyph-name="Euro" unicode="&#x20ac;" horiz-adv-x="610" 
d="M338 -16q-94 0 -156.5 80t-72.5 216h-63v28h61q-1 17 -1 48q0 29 1 43h-61v28h63q13 134 73 214.5t159 80.5q89 0 143.5 -53.5t65.5 -163.5h-37q-24 181 -173 181q-82 0 -130 -70.5t-59 -188.5h293v-28h-294q-1 -14 -1 -43q0 -32 2 -48h293v-28h-292q9 -118 60 -188.5
t126 -70.5q156 0 176 198h38q-11 -118 -67.5 -176.5t-146.5 -58.5z" />
    <glyph glyph-name="trademark" unicode="&#x2122;" horiz-adv-x="902" 
d="M171 302v381h-138v30h309v-30h-137v-381h-34zM425 302v411h40l155 -230l155 230h38v-411h-32v361l-148 -217h-28l-146 217v-361h-34z" />
    <glyph glyph-name="minus" unicode="&#x2212;" horiz-adv-x="631" 
d="M78 253v33h475v-33h-475z" />
    <glyph glyph-name="uniF004" unicode="&#xf004;" horiz-adv-x="265" 
d="M90 -218v25q41 9 43 53h-4q-18 0 -29 10.5t-11 28.5t11 28.5t28 10.5q41 0 41 -49t-21.5 -76.5t-57.5 -30.5z" />
    <glyph glyph-name="uniF6BE" unicode="&#xf6be;" horiz-adv-x="217" 
d="M-29 -209v37h52q39 0 54.5 14.5t15.5 59.5v613h38v-621q0 -59 -26 -81t-77 -22h-57z" />
    <glyph glyph-name="uniF8FF" unicode="&#xf8ff;" horiz-adv-x="894" 
d="M239 717h372v-120h-246v-189q40 -14 95.5 -43.5t97.5 -53.5t96.5 -43t102.5 -19l47 4q-2 -4 -8 -9t-30.5 -14t-58.5 -9q-125 0 -342 113v-334h-126v386q-24 10 -52 10q-34 0 -56 -14.5t-22 -42.5q0 -19 10 -35t27 -22q-26 1 -41 18t-15 45q0 40 33.5 65t92.5 25
q14 0 23 -2v284z" />
    <glyph glyph-name="a.ss01" horiz-adv-x="583" 
d="M459 515h38v-515h-38v110q-55 -122 -189 -122q-101 0 -159 75.5t-58 192.5q0 119 60 195t162 76q131 0 184 -120v108zM271 24q86 0 137.5 63.5t51.5 170.5q0 102 -48.5 167t-135.5 65q-84 0 -133.5 -65.5t-49.5 -168.5q0 -99 48 -165.5t130 -66.5z" />
    <glyph glyph-name="aacute.ss01" horiz-adv-x="583" 
d="M375 717l-106 -144h-28l86 144h48zM459 515h38v-515h-38v110q-55 -122 -189 -122q-101 0 -159 75.5t-58 192.5q0 119 60 195t162 76q131 0 184 -120v108zM271 24q86 0 137.5 63.5t51.5 170.5q0 102 -48.5 167t-135.5 65q-84 0 -133.5 -65.5t-49.5 -168.5q0 -99 48 -165.5
t130 -66.5z" />
    <glyph glyph-name="acircumflex.ss01" horiz-adv-x="583" 
d="M284 687l-90 -114h-32l108 144h32l107 -144h-34zM459 515h38v-515h-38v110q-55 -122 -189 -122q-101 0 -159 75.5t-58 192.5q0 119 60 195t162 76q131 0 184 -120v108zM271 24q86 0 137.5 63.5t51.5 170.5q0 102 -48.5 167t-135.5 65q-84 0 -133.5 -65.5t-49.5 -168.5
q0 -99 48 -165.5t130 -66.5z" />
    <glyph glyph-name="adieresis.ss01" horiz-adv-x="583" 
d="M208 631q-13 0 -22.5 10t-9.5 23t9.5 22.5t22.5 9.5q14 0 23.5 -9t9.5 -23t-9.5 -23.5t-23.5 -9.5zM365 631q-13 0 -22.5 10t-9.5 23t9.5 22.5t22.5 9.5q14 0 23.5 -9.5t9.5 -22.5q0 -14 -10 -23.5t-23 -9.5zM459 515h38v-515h-38v110q-55 -122 -189 -122
q-101 0 -159 75.5t-58 192.5q0 119 60 195t162 76q131 0 184 -120v108zM271 24q86 0 137.5 63.5t51.5 170.5q0 102 -48.5 167t-135.5 65q-84 0 -133.5 -65.5t-49.5 -168.5q0 -99 48 -165.5t130 -66.5z" />
    <glyph glyph-name="agrave.ss01" horiz-adv-x="583" 
d="M313 573h-28l-106 144h48zM459 515h38v-515h-38v110q-55 -122 -189 -122q-101 0 -159 75.5t-58 192.5q0 119 60 195t162 76q131 0 184 -120v108zM271 24q86 0 137.5 63.5t51.5 170.5q0 102 -48.5 167t-135.5 65q-84 0 -133.5 -65.5t-49.5 -168.5q0 -99 48 -165.5
t130 -66.5z" />
    <glyph glyph-name="aring.ss01" horiz-adv-x="583" 
d="M286 556q-39 0 -64.5 26t-25.5 66t25.5 66.5t64.5 26.5t65 -26.5t26 -66.5t-26 -66t-65 -26zM286 714q-26 0 -43.5 -19t-17.5 -47t17.5 -46.5t43.5 -18.5t43.5 18.5t17.5 46.5t-17.5 47t-43.5 19zM459 515h38v-515h-38v110q-55 -122 -189 -122q-101 0 -159 75.5
t-58 192.5q0 119 60 195t162 76q131 0 184 -120v108zM271 24q86 0 137.5 63.5t51.5 170.5q0 102 -48.5 167t-135.5 65q-84 0 -133.5 -65.5t-49.5 -168.5q0 -99 48 -165.5t130 -66.5z" />
    <glyph glyph-name="atilde.ss01" horiz-adv-x="583" 
d="M225 664q-20 0 -30.5 -15t-11.5 -36h-31q2 36 20.5 59.5t49.5 23.5q26 0 65.5 -24.5t58.5 -24.5q37 0 44 47h30q-8 -80 -70 -80q-26 0 -65 25t-60 25zM459 515h38v-515h-38v110q-55 -122 -189 -122q-101 0 -159 75.5t-58 192.5q0 119 60 195t162 76q131 0 184 -120v108z
M271 24q86 0 137.5 63.5t51.5 170.5q0 102 -48.5 167t-135.5 65q-84 0 -133.5 -65.5t-49.5 -168.5q0 -99 48 -165.5t130 -66.5z" />
    <glyph glyph-name="g.ss01" horiz-adv-x="588" 
d="M514 515h40v-35h-27q-32 0 -32 -31v-441q0 -111 -43 -164t-142 -53h-191v37h182q82 0 119 42t37 134v104q-56 -120 -185 -120q-107 0 -163 75.5t-56 193.5q0 117 57.5 193.5t162.5 76.5q133 0 185 -121v55q0 54 56 54zM276 24q85 0 133.5 66t48.5 167t-46.5 167
t-133.5 66q-90 0 -138.5 -66t-48.5 -167q0 -102 47.5 -167.5t137.5 -65.5z" />
    <glyph glyph-name="k.ss01" horiz-adv-x="482" 
d="M479 0h-50l-212 257l-94 -1v-256h-38v714h38v-421h92l189 222h48l-203 -236z" />
    <glyph glyph-name="t.ss01" horiz-adv-x="299" 
d="M129 0v479h-112v36h112v158h38v-158h121v-36h-121v-479h-38z" />
    <glyph glyph-name="y.ss01" horiz-adv-x="495" 
d="M109 -209v37h68q36 0 49.5 14t13.5 53v86l-212 534h41l192 -491l168 491h40l-190 -537v-103q0 -45 -22 -64.5t-68 -19.5h-80z" />
    <glyph glyph-name="yacute.ss01" horiz-adv-x="495" 
d="M212 573l86 144h48l-106 -144h-28zM109 -209v37h68q36 0 49.5 14t13.5 53v86l-212 534h41l192 -491l168 491h40l-190 -537v-103q0 -45 -22 -64.5t-68 -19.5h-80z" />
    <glyph glyph-name="ydieresis.ss01" horiz-adv-x="495" 
d="M178 631q-13 0 -22.5 10t-9.5 23t9.5 22.5t22.5 9.5q14 0 23.5 -9t9.5 -23t-9.5 -23.5t-23.5 -9.5zM335 631q-13 0 -22.5 10t-9.5 23t9.5 22.5t22.5 9.5q14 0 23.5 -9.5t9.5 -22.5q0 -14 -10 -23.5t-23 -9.5zM109 -209v37h68q36 0 49.5 14t13.5 53v86l-212 534h41
l192 -491l168 491h40l-190 -537v-103q0 -45 -22 -64.5t-68 -19.5h-80z" />
    <glyph glyph-name="zero.osf" horiz-adv-x="614" 
d="M306 -9q-122 0 -186 78t-64 196q0 115 64.5 194.5t185.5 79.5q122 0 187.5 -79.5t65.5 -194.5q0 -118 -65.5 -196t-187.5 -78zM306 25q75 0 124.5 37.5t68.5 89.5t19 113q0 44 -11.5 84.5t-35 76t-66 57t-99.5 21.5q-56 0 -98.5 -21.5t-65.5 -57t-34.5 -76t-11.5 -84.5
q0 -61 19 -113t68 -89.5t123 -37.5z" />
    <glyph glyph-name="one.osf" horiz-adv-x="319" 
d="M189 0v458q-70 -47 -161 -63v33q62 10 98 31.5t68 65.5h33v-525h-38z" />
    <glyph glyph-name="two.osf" horiz-adv-x="524" 
d="M51 0q-1 65 49 115.5t142 97.5q48 25 70.5 37.5t50 34.5t38 46t10.5 56q0 56 -40.5 86t-111.5 30q-82 0 -122 -39t-40 -104h-39q1 85 54 132t148 47q87 0 139.5 -39.5t52.5 -112.5q0 -23 -6 -43.5t-13.5 -35.5t-24.5 -31.5t-28.5 -26.5t-38 -25.5t-40 -22.5t-45.5 -24
q-152 -76 -157 -142h384v-36h-432z" />
    <glyph glyph-name="three.osf" horiz-adv-x="574" 
d="M283 -170q-112 0 -176 58.5t-59 165.5h39q-4 -90 49 -139.5t147 -49.5q84 0 140 43.5t56 124.5q0 75 -51 115t-139 40h-43v33h45q74 0 123.5 36t48.5 110q-1 67 -51.5 102t-122.5 35q-86 0 -137 -44t-50 -136h-39q-1 104 59.5 159.5t166.5 55.5q93 0 153.5 -44t60.5 -127
q0 -65 -34 -106t-91 -52l-8 -2l7 -1q65 -10 104 -55t39 -116q0 -98 -67.5 -152t-169.5 -54z" />
    <glyph glyph-name="four.osf" horiz-adv-x="563" 
d="M389 -173v173h-365v40l362 484h41v-489h112v-35h-112v-173h-38zM63 35h326v435h-2z" />
    <glyph glyph-name="five.osf" horiz-adv-x="542" 
d="M270 -169q-104 0 -166 60.5t-59 163.5h39q-2 -86 49 -137.5t137 -51.5q87 0 138 54.5t51 146.5q0 89 -51.5 142t-136.5 53q-111 0 -168 -85h-39l51 349h352v-36h-322l-39 -268q26 33 70 54t98 21q100 0 161.5 -62.5t61.5 -167.5q0 -106 -62.5 -171t-164.5 -65z" />
    <glyph glyph-name="six.osf" horiz-adv-x="578" 
d="M295 -12q-104 0 -169 77t-65 230q0 400 245 400q86 0 139 -44.5t62 -122.5h-39q-11 63 -52.5 97.5t-109.5 34.5q-104 0 -154 -87t-53 -269v-7l2 6q16 64 69.5 107t128.5 43q98 0 161.5 -62t63.5 -168t-64 -170.5t-165 -64.5zM295 23q86 0 138.5 55t52.5 144q0 90 -52 143
t-139 53q-82 0 -133.5 -57.5t-51.5 -141.5t53 -140t132 -56z" />
    <glyph glyph-name="seven.osf" horiz-adv-x="469" 
d="M126 -157q0 173 77 338.5t210 308.5h-395v36h437v-41q-135 -140 -212 -302.5t-78 -339.5h-39z" />
    <glyph glyph-name="eight.osf" horiz-adv-x="567" 
d="M284 -12q-102 0 -165.5 52t-63.5 150q0 71 38.5 119t107.5 66q-51 14 -82.5 54t-31.5 96q0 83 55 126.5t142 43.5t141 -43.5t54 -126.5q0 -57 -31 -96.5t-82 -53.5q70 -16 108 -64.5t38 -120.5q0 -97 -64.5 -149.5t-163.5 -52.5zM284 392q64 0 110.5 33.5t46.5 98.5
q0 69 -44.5 102t-112.5 33t-113 -33t-45 -102q0 -65 46.5 -98.5t111.5 -33.5zM284 24q82 0 135 42t53 125q0 82 -53 123t-135 41t-135.5 -41t-53.5 -123q0 -83 53 -125t136 -42z" />
    <glyph glyph-name="nine.osf" horiz-adv-x="566" 
d="M263 -170q-85 0 -139.5 48.5t-61.5 126.5h38q9 -73 57 -106.5t107 -33.5q62 0 103.5 25.5t63 75.5t30.5 107.5t10 139.5v7l-2 -7q-16 -61 -69 -102t-130 -41q-94 0 -157 64.5t-63 167.5t63 169t161 66q113 0 174 -75.5t61 -223.5q0 -212 -54 -310t-192 -98zM274 104
q85 0 136 56.5t51 142.5q0 90 -53 145t-134 55q-83 0 -134.5 -57t-51.5 -143q0 -87 51 -143t135 -56z" />
    <glyph glyph-name="zero.tf" horiz-adv-x="592" 
d="M295 -12q-82 0 -136.5 51t-76.5 127.5t-22 175.5q0 98 22 174.5t76.5 127.5t136.5 51q62 0 109 -28.5t74.5 -78.5t40.5 -112t13 -134q0 -73 -13 -134.5t-40.5 -112t-74.5 -79t-109 -28.5zM295 24q56 0 97 29t61.5 78t29.5 101t9 110q0 45 -5 86.5t-19 84.5t-35.5 74.5
t-56.5 51.5t-81 20q-56 0 -96 -29t-60.5 -78t-29.5 -101t-9 -109q0 -58 9 -110t29.5 -101t60.5 -78t96 -29z" />
    <glyph glyph-name="one.tf" horiz-adv-x="592" 
d="M319 0v613q-80 -70 -178 -92v36q69 16 108 43t75 83h34v-683h-39z" />
    <glyph glyph-name="two.tf" horiz-adv-x="592" 
d="M79 0q-1 80 51 140.5t159 133.5q88 62 134 114t46 119q0 72 -45.5 111t-121.5 39q-91 0 -133.5 -53.5t-42.5 -144.5h-38q0 112 55.5 174t159.5 62q92 0 148.5 -48.5t56.5 -138.5q0 -79 -54 -140.5t-157 -132.5q-82 -59 -125 -103.5t-49 -95.5h401v-36h-445z" />
    <glyph glyph-name="three.tf" horiz-adv-x="592" 
d="M294 -12q-114 0 -177 59t-57 164h38q-4 -88 48.5 -137t147.5 -49q84 0 141 43t57 123q0 76 -51 117t-139 41h-43v34h45q73 0 121.5 34.5t47.5 105.5q-1 66 -50 100.5t-122 34.5q-87 0 -138 -44t-50 -134h-38q-2 104 59 159.5t167 55.5q90 0 150 -44t60 -126
q0 -63 -32.5 -102.5t-87.5 -51.5l-9 -2l8 -1q64 -11 102.5 -56t38.5 -118q0 -98 -67.5 -152t-169.5 -54z" />
    <glyph glyph-name="four.tf" horiz-adv-x="592" 
d="M414 0v173h-364v38l360 472h42v-477h111v-33h-111v-173h-38zM90 206h324v423h-3z" />
    <glyph glyph-name="five.tf" horiz-adv-x="592" 
d="M301 -12q-104 0 -165 60.5t-58 163.5h38q-2 -86 48 -138t137 -52q88 0 139.5 54.5t51.5 147.5q0 89 -51.5 142t-136.5 53q-111 0 -169 -86h-38l51 350h352v-37h-322l-39 -267q26 33 69.5 54t97.5 21q101 0 162.5 -62t61.5 -168t-63 -171t-166 -65z" />
    <glyph glyph-name="six.tf" horiz-adv-x="592" 
d="M303 -12q-104 0 -169 76t-65 231q0 400 246 400q85 0 138 -44.5t63 -122.5h-39q-11 63 -53 97.5t-110 34.5q-104 0 -153.5 -87.5t-52.5 -268.5v-7l2 6q16 64 69.5 107t128.5 43q98 0 161.5 -61.5t63.5 -168.5q0 -106 -64 -170.5t-166 -64.5zM304 23q87 0 139 55t52 144
q0 90 -52 143t-139 53q-82 0 -133.5 -57.5t-51.5 -141.5q0 -86 53 -141t132 -55z" />
    <glyph glyph-name="seven.tf" horiz-adv-x="592" 
d="M209 0q0 174 76.5 339t210.5 307h-420v37h462v-41q-289 -300 -290 -642h-39z" />
    <glyph glyph-name="eight.tf" horiz-adv-x="592" 
d="M304 -12q-101 0 -164.5 51.5t-63.5 150.5q0 71 38.5 119.5t108.5 65.5q-53 14 -84.5 54t-31.5 97q0 82 55 125.5t142 43.5t141 -43.5t54 -125.5q0 -58 -31 -97.5t-83 -53.5q71 -16 109 -64.5t38 -120.5q0 -97 -64.5 -149.5t-163.5 -52.5zM304 391q64 0 110.5 34t46.5 98
q0 70 -43.5 103t-113.5 33q-69 0 -113.5 -33t-44.5 -103q0 -64 47 -98t111 -34zM304 24q82 0 135 42t53 125q0 82 -53 123.5t-135 41.5t-135.5 -41.5t-53.5 -123.5q0 -83 53 -125t136 -42z" />
    <glyph glyph-name="nine.tf" horiz-adv-x="592" 
d="M283 -12q-85 0 -139.5 48t-61.5 127h38q9 -73 57 -107t107 -34q62 0 103.5 25.5t63 76t30.5 108t10 139.5v6l-2 -6q-16 -61 -69 -102.5t-130 -41.5q-94 0 -157.5 65t-63.5 168t63.5 169t161.5 66q113 0 174.5 -76t61.5 -223q0 -212 -54.5 -310t-192.5 -98zM294 262
q85 0 136 56.5t51 142.5q0 89 -53 144t-134 55q-83 0 -134.5 -57t-51.5 -142q0 -87 51 -143t135 -56z" />
    <glyph glyph-name="dollar.osf" horiz-adv-x="519" 
d="M468 138q0 -71 -53.5 -109.5t-138.5 -41.5v-65h-25v65q-94 2 -149.5 48.5t-54.5 136.5h38q0 -141 166 -148v231q-90 14 -137.5 46t-47.5 98t53 102t132 37v65h25v-66q78 -5 128 -45.5t52 -117.5h-38q-2 60 -41 91.5t-101 35.5v-212q96 -16 144 -48.5t48 -102.5zM104 401
q0 -46 38.5 -70t108.5 -37v208q-65 -1 -106 -26.5t-41 -74.5zM276 24q68 2 110.5 29.5t42.5 82.5q0 51 -39 76t-114 39v-227z" />
    <glyph glyph-name="Euro.osf" horiz-adv-x="567" 
d="M313 -12q-88 0 -147 61t-69 163h-56v24h54q0 6 -0.5 17t-0.5 18q0 5 0.5 15t0.5 15h-54v24h57q13 100 69 160t147 60q82 0 134.5 -40t63.5 -125h-38q-23 131 -160 131q-77 0 -122 -51t-55 -135h271v-24h-275q-1 -11 -1 -31q0 -23 2 -34h274v-24h-271q9 -86 57 -138.5
t120 -52.5q143 0 161 141h38q-9 -88 -63 -131t-137 -43z" />
    <glyph glyph-name="florin.osf" horiz-adv-x="356" 
d="M281 540h57v-35h-56q-79 0 -88 -66l-18 -115h101l-7 -31h-98l-47 -307q-14 -107 -122 -107h-63v35h60q74 0 85 73l46 306h-102l7 31h100l19 124q14 92 126 92z" />
    <glyph glyph-name="sterling.osf" horiz-adv-x="562" 
d="M460 35h53v-35h-58q-48 0 -90 11t-64.5 22.5t-53.5 31.5q-35 -72 -113 -72q-42 0 -67.5 19.5t-25.5 56.5q0 34 26 54.5t66 20.5q45 0 92 -26q2 18 2 28q0 39 -32 103h-131v29h117q-36 72 -36 119q0 74 51.5 108t126.5 34q84 0 129 -38.5t45 -112.5h-38q-3 116 -136 116
q-59 0 -99 -26t-40 -80q0 -38 40 -120h146v-29h-132q28 -62 28 -102q0 -26 -6 -50q33 -20 53 -30t60.5 -21t86.5 -11zM133 25q60 0 83 60q-46 28 -83 28q-27 0 -42.5 -12.5t-15.5 -31.5q0 -20 15.5 -32t42.5 -12z" />
    <glyph glyph-name="yen.osf" horiz-adv-x="545" 
d="M252 0v198h-161v29h158l-67 93h-120v29h103l-136 191h49l195 -279l199 279h47l-138 -191h99v-29h-116l-69 -93h157v-29h-160v-198h-40z" />
    <glyph glyph-name="caroncomb.alt" 
d="M-107 570v22q44 1 42 63q-2 -1 -6 -1q-14 0 -24 9.5t-10 24.5t10 25t25 10q37 0 37 -44q0 -50 -19 -79.5t-55 -29.5z" />
    <glyph glyph-name="uni0326.alt" 
d="M-135 596q-41 0 -41 49t21.5 76.5t57.5 30.5v-25q-18 -3 -30 -17.5t-13 -35.5h4q17 0 28.5 -10.5t11.5 -27.5q0 -18 -11 -29t-28 -11z" />
    <glyph glyph-name="uni0308.case" 
d="M-224 805q-13 0 -22.5 10t-9.5 23t9.5 22.5t22.5 9.5q14 0 23.5 -9t9.5 -23t-9.5 -23.5t-23.5 -9.5zM-43 805q-13 0 -22.5 10t-9.5 23t9.5 22.5t22.5 9.5q14 0 23.5 -9.5t9.5 -22.5q0 -14 -10 -23.5t-23 -9.5z" />
    <glyph glyph-name="uni0307.case" 
d="M-110 805q-15 0 -25.5 10.5t-10.5 25.5t10.5 25.5t25.5 10.5t25.5 -10.5t10.5 -25.5t-10.5 -25.5t-25.5 -10.5z" />
    <glyph glyph-name="gravecomb.case" 
d="M-43 776l-118 129h49l99 -129h-30z" />
    <glyph glyph-name="acutecomb.case" 
d="M-161 776l98 129h50l-118 -129h-30z" />
    <glyph glyph-name="uni030B.case" 
d="M-288 776l73 129h44l-89 -129h-28zM-146 776l75 129h44l-90 -129h-29z" />
    <glyph glyph-name="uni0302.case" 
d="M-262 776l110 129h32l110 -129h-34l-93 99l-93 -99h-32z" />
    <glyph glyph-name="uni030C.case" 
d="M-150 776l-109 129h35l92 -100l92 100h31l-108 -129h-33z" />
    <glyph glyph-name="uni0306.case" 
d="M-136 783q-52 0 -84 30t-37 86h28q5 -42 30 -64.5t63 -22.5q41 0 68 22.5t31 64.5h27q-5 -55 -39 -85.5t-87 -30.5z" />
    <glyph glyph-name="uni030A.case" 
d="M-100 752q-39 0 -64.5 25t-25.5 63t25.5 64t64.5 26t65 -26t26 -64t-26 -63t-65 -25zM-100 777q26 0 44 18t18 45q0 28 -18 46t-44 18t-44 -18t-18 -46q0 -27 18 -45t44 -18z" />
    <glyph glyph-name="tildecomb.case" 
d="M-278 800q2 36 20.5 59.5t49.5 23.5q26 0 65.5 -25t58.5 -25q37 0 44 48h31q-9 -80 -71 -80q-26 0 -65 25t-60 25q-20 0 -30.5 -15t-11.5 -36h-31z" />
    <glyph glyph-name="uni0304.case" 
d="M-253 818v29h243v-29h-243z" />
    <glyph glyph-name="uni0337.case" 
d="M-297 239v37l253 188v-37z" />
    <glyph glyph-name="uni0338.case" 
d="M-661 -1l-23 20l621 688l22 -20z" />
    <glyph glyph-name="caron.alt" horiz-adv-x="108" 
d="M17 570v22q44 1 42 63q-2 -1 -6 -1q-14 0 -24 9.5t-10 24.5t10 25t25 10q37 0 37 -44q0 -50 -19 -79.5t-55 -29.5z" />
    <glyph glyph-name="acute.case" horiz-adv-x="169" 
d="M10 776l98 129h50l-118 -129h-30z" />
    <glyph glyph-name="breve.case" horiz-adv-x="267" 
d="M131 783q-52 0 -84 30t-37 86h28q5 -42 30 -64.5t63 -22.5q41 0 68 22.5t31 64.5h27q-5 -55 -39 -85.5t-87 -30.5z" />
    <glyph glyph-name="caron.case" horiz-adv-x="270" 
d="M119 776l-109 129h35l92 -100l92 100h31l-108 -129h-33z" />
    <glyph glyph-name="circumflex.case" horiz-adv-x="272" 
d="M10 776l110 129h32l110 -129h-34l-93 99l-93 -99h-32z" />
    <glyph glyph-name="dieresis.case" horiz-adv-x="266" 
d="M42 805q-13 0 -22.5 10t-9.5 23t9.5 22.5t22.5 9.5q14 0 23.5 -9t9.5 -23t-9.5 -23.5t-23.5 -9.5zM223 805q-13 0 -22.5 10t-9.5 23t9.5 22.5t22.5 9.5q14 0 23.5 -9.5t9.5 -22.5q0 -14 -10 -23.5t-23 -9.5z" />
    <glyph glyph-name="dotaccent.case" horiz-adv-x="93" 
d="M46 805q-15 0 -25.5 10.5t-10.5 25.5t10.5 25.5t25.5 10.5t25.5 -10.5t10.5 -25.5t-10.5 -25.5t-25.5 -10.5z" />
    <glyph glyph-name="grave.case" horiz-adv-x="169" 
d="M128 776l-118 129h49l99 -129h-30z" />
    <glyph glyph-name="hungarumlaut.case" horiz-adv-x="281" 
d="M10 776l73 129h44l-89 -129h-28zM152 776l75 129h44l-90 -129h-29z" />
    <glyph glyph-name="macron.case" horiz-adv-x="263" 
d="M10 818v29h243v-29h-243z" />
    <glyph glyph-name="ring.case" horiz-adv-x="200" 
d="M99 752q-39 0 -64.5 25t-25.5 63t25.5 64t64.5 26t65 -26t26 -64t-26 -63t-65 -25zM99 777q26 0 44 18t18 45q0 28 -18 46t-44 18t-44 -18t-18 -46q0 -27 18 -45t44 -18z" />
    <glyph glyph-name="tilde.case" horiz-adv-x="287" 
d="M11 800q2 36 20.5 59.5t49.5 23.5q26 0 65.5 -25t58.5 -25q37 0 44 48h31q-9 -80 -71 -80q-26 0 -65 25t-60 25q-20 0 -30.5 -15t-11.5 -36h-31z" />
    </font>
</defs>
</svg>
