<?xml version="1.0" standalone="no"?>
<!DOCTYPE svg PUBLIC "-//W3C//DTD SVG 1.1//EN" "http://www.w3.org/Graphics/SVG/1.1/DTD/svg11.dtd" >
<svg xmlns="http://www.w3.org/2000/svg" xmlns:xlink="http://www.w3.org/1999/xlink" version="1.1">
<metadata>
Created by FontForge 20170731 at Tue Dec 13 12:41:49 2016
 By Aleksey,,,
Copyright (c) 2016 by Rick Banks. All rights reserved.
</metadata>
<defs>
<font id="F37Bolton-Light" horiz-adv-x="0" >
  <font-face 
    font-family="F37 Bolton Light"
    font-weight="300"
    font-stretch="normal"
    units-per-em="1000"
    panose-1="0 0 4 0 0 0 0 0 0 0"
    ascent="800"
    descent="-200"
    x-height="515"
    cap-height="716"
    bbox="-687 -229 1151 935"
    underline-thickness="50"
    underline-position="-200"
    unicode-range="U+000D-FB02"
  />
<missing-glyph horiz-adv-x="543" 
 />
    <glyph glyph-name="fi" unicode="fi" horiz-adv-x="507" 
d="M112 0v461h-91v54h91v53q0 81 36.5 115t115.5 34h163v-55h-164q-51 0 -72 -21t-21 -74v-52h110v-54h-110v-461h-58zM369 0v515h58v-515h-58z" />
    <glyph glyph-name="fl" unicode="fl" horiz-adv-x="520" 
d="M465 50h32v-50h-44q-85 0 -85 80v582h-116q-43 0 -62.5 -19.5t-19.5 -64.5v-63h110v-54h-110v-461h-58v461h-91v54h91v64q0 72 35.5 105t106.5 33h172v-629q0 -38 39 -38z" />
    <glyph glyph-name=".notdef" horiz-adv-x="543" 
 />
    <glyph glyph-name=".null" 
 />
    <glyph glyph-name="nonmarkingreturn" horiz-adv-x="333" 
 />
    <glyph glyph-name="CR" unicode="&#xd;" horiz-adv-x="255" 
 />
    <glyph glyph-name="space" unicode=" " horiz-adv-x="255" 
 />
    <glyph glyph-name="exclam" unicode="!" horiz-adv-x="240" 
d="M102 178l-12 236v300h60v-300l-13 -236h-35zM119 -5q-20 0 -33 13.5t-13 33.5t13.5 33t32.5 13q20 0 33.5 -13.5t13.5 -32.5q0 -20 -13.5 -33.5t-33.5 -13.5z" />
    <glyph glyph-name="quotedbl" unicode="&#x22;" horiz-adv-x="334" 
d="M84 459l-22 255h68l-22 -255h-24zM225 459l-20 255h67l-21 -255h-26z" />
    <glyph glyph-name="numbersign" unicode="#" horiz-adv-x="544" 
d="M117 0l28 219h-105v42h112l21 161h-105v41h112l29 223h44l-29 -223h138l29 223h43l-28 -223h97v-41h-104l-21 -161h98v-42h-104l-28 -219h-44l28 219h-139l-28 -219h-44zM196 261h139l20 161h-137z" />
    <glyph glyph-name="dollar" unicode="$" horiz-adv-x="564" 
d="M517 189q0 -94 -60 -147t-156 -58v-85h-34v85q-103 5 -165 69t-62 174h60q0 -85 44 -132.5t123 -52.5v297q-44 13 -75.5 26.5t-63 36t-48 56.5t-16.5 78q0 83 58.5 133t144.5 54v77h34v-78q91 -6 146 -63t56 -155h-59q-2 73 -40.5 114.5t-102.5 46.5v-271q27 -8 43 -13.5
t42 -16t41.5 -20.5t34.5 -26t29.5 -33.5t18 -42.5t7.5 -53zM124 537q0 -52 36 -80.5t107 -52.5v262q-63 -4 -103 -37.5t-40 -91.5zM301 41q69 4 112.5 40.5t43.5 101.5q0 61 -40 91.5t-116 54.5v-288z" />
    <glyph glyph-name="percent" unicode="%" horiz-adv-x="869" 
d="M201 -31l416 748h46l-416 -748h-46zM206 348q-76 0 -124.5 51.5t-48.5 124.5q0 74 49.5 126t123.5 52q76 0 125.5 -51.5t49.5 -125.5q0 -73 -50 -125t-125 -52zM206 396q55 0 90.5 38t35.5 90q0 56 -34.5 93.5t-91.5 37.5q-56 0 -90.5 -38t-34.5 -93q0 -53 35 -90.5
t90 -37.5zM662 -8q-76 0 -124.5 51.5t-48.5 124.5q0 75 49 126.5t124 51.5t124.5 -51.5t49.5 -126.5q0 -73 -49.5 -124.5t-124.5 -51.5zM662 40q54 0 90 38t36 90q0 56 -35 93t-91 37t-91 -37.5t-35 -92.5q0 -53 35 -90.5t91 -37.5z" />
    <glyph glyph-name="ampersand" unicode="&#x26;" horiz-adv-x="642" 
d="M600 53h28v-53h-41q-58 0 -121 68q-71 -81 -194 -81q-96 0 -158 57.5t-62 146.5q0 133 130 210q-44 54 -61.5 90t-17.5 76q0 70 44 110t110 40q62 0 102 -38.5t40 -102.5q0 -57 -35 -100t-100 -82l194 -230q14 42 14 87v68h59l-1 -65q0 -76 -32 -138q53 -63 102 -63z
M255 667q-42 0 -69.5 -25.5t-27.5 -68.5q0 -30 16 -62t59 -82q112 65 112 145q0 43 -25 68t-65 25zM272 46q106 0 157 65l-215 253q-53 -36 -78 -74.5t-25 -92.5q0 -68 45 -109.5t116 -41.5z" />
    <glyph glyph-name="quotesingle" unicode="'" horiz-adv-x="192" 
d="M84 459l-22 255h68l-22 -255h-24z" />
    <glyph glyph-name="parenleft" unicode="(" horiz-adv-x="260" 
d="M170 -179q-115 230 -115 457q0 248 115 453h51q-108 -210 -108 -450q0 -247 108 -460h-51z" />
    <glyph glyph-name="parenright" unicode=")" horiz-adv-x="260" 
d="M39 -179q108 210 108 450q0 247 -108 460h50q116 -227 116 -456q0 -249 -116 -454h-50z" />
    <glyph glyph-name="asterisk" unicode="*" horiz-adv-x="407" 
d="M120 408l-31 25l85 105l-121 44l13 36l117 -42l-2 128h40v-129l123 42l11 -37l-125 -41l83 -111l-29 -23l-82 110z" />
    <glyph glyph-name="plus" unicode="+" horiz-adv-x="564" 
d="M258 18v229h-216v47h216v229h47v-229h217v-47h-217v-229h-47z" />
    <glyph glyph-name="comma" unicode="," horiz-adv-x="229" 
d="M65 -130v34q24 6 38.5 29.5t13.5 57.5h-5q-19 0 -32 12.5t-13 33.5t13.5 34t32.5 13q49 0 49 -66q0 -61 -26.5 -100.5t-70.5 -47.5z" />
    <glyph glyph-name="hyphen" unicode="-" horiz-adv-x="350" 
d="M70 244v51h209v-51h-209z" />
    <glyph glyph-name="period" unicode="." horiz-adv-x="220" 
d="M110 -4q-20 0 -33.5 13.5t-13.5 33.5t13.5 33t33.5 13q19 0 32.5 -13.5t13.5 -32.5q0 -20 -13.5 -33.5t-32.5 -13.5z" />
    <glyph glyph-name="slash" unicode="/" horiz-adv-x="412" 
d="M35 -17l294 748h50l-295 -748h-49z" />
    <glyph glyph-name="zero" unicode="0" horiz-adv-x="595" 
d="M296 -13q-118 0 -177.5 98t-59.5 259q0 160 60 257.5t177 97.5q119 0 179.5 -97.5t60.5 -257.5q0 -161 -60.5 -259t-179.5 -98zM296 41q52 0 89 28.5t55 76t25.5 96t7.5 102.5q0 53 -7.5 101t-25.5 95.5t-55 76t-89 28.5q-51 0 -87 -28.5t-54 -76t-25.5 -95.5t-7.5 -101
q0 -54 7.5 -102.5t25.5 -96t54 -76t87 -28.5z" />
    <glyph glyph-name="one" unicode="1" horiz-adv-x="362" 
d="M199 0v567q-93 -45 -174 -56v48q80 13 118.5 38.5t67.5 89.5h48v-687h-60z" />
    <glyph glyph-name="two" unicode="2" horiz-adv-x="559" 
d="M54 0q-1 86 52 152t167 141q81 54 122 102.5t41 108.5q0 66 -40.5 101.5t-112.5 35.5q-161 0 -161 -187h-60q0 116 58.5 180.5t164.5 64.5q97 0 154.5 -51t57.5 -142q0 -77 -55 -139t-158 -131q-148 -100 -159 -181h385v-55h-456z" />
    <glyph glyph-name="three" unicode="3" horiz-adv-x="592" 
d="M293 -13q-114 0 -178 59.5t-62 166.5h61q-1 -82 46 -128t133 -46q77 0 127.5 41t50.5 115q0 69 -45.5 108t-137.5 39h-36v48h40q72 0 115.5 32.5t42.5 98.5q-1 60 -45 93t-108 33q-168 0 -172 -167h-60q-1 105 60.5 162t171.5 57q96 0 155.5 -46t59.5 -130
q0 -117 -108 -148l-8 -3l7 -2q58 -12 95 -55t37 -115q0 -101 -68 -157t-174 -56z" />
    <glyph glyph-name="four" unicode="4" horiz-adv-x="561" 
d="M363 0v168h-338v57l335 461h59v-466h106v-52h-106v-168h-56zM86 220h277v384h-3z" />
    <glyph glyph-name="five" unicode="5" horiz-adv-x="560" 
d="M280 -13q-107 0 -170 60t-61 158h59q-1 -73 45.5 -120t126.5 -47t125.5 50.5t45.5 135.5q0 82 -46 131t-125 49q-102 0 -155 -75h-57l53 357h357v-55h-313l-35 -240q55 65 154 65q102 0 163.5 -62t61.5 -170q0 -105 -63 -171t-166 -66z" />
    <glyph glyph-name="six" unicode="6" horiz-adv-x="581" 
d="M296 -13q-110 0 -173 81t-63 233q0 398 249 398q88 0 141 -47t58 -125h-60q-7 55 -43.5 86.5t-97.5 31.5q-93 0 -137.5 -78t-49.5 -238l-1 -9l4 7q17 53 66.5 88.5t116.5 35.5q98 0 159.5 -61.5t61.5 -166.5q0 -106 -64 -171t-167 -65zM297 39q77 0 124.5 50.5
t47.5 131.5q0 83 -46 130.5t-126 47.5q-75 0 -120 -51.5t-45 -128.5q0 -79 46 -129.5t119 -50.5z" />
    <glyph glyph-name="seven" unicode="7" horiz-adv-x="491" 
d="M132 0q2 168 75.5 330t198.5 301h-378v55h441v-56q-125 -133 -200.5 -296.5t-76.5 -333.5h-60z" />
    <glyph glyph-name="eight" unicode="8" horiz-adv-x="573" 
d="M288 -13q-105 0 -169 54t-64 153q0 67 35.5 114t103.5 69q-51 16 -79.5 56t-28.5 94q0 80 56.5 126t145.5 46q88 0 143.5 -46t55.5 -126q0 -110 -107 -150q69 -19 104 -67t35 -116q0 -96 -65.5 -151.5t-165.5 -55.5zM288 401q58 0 98.5 32t40.5 89q0 61 -38 92t-102 31
q-63 0 -101.5 -31t-38.5 -92q0 -57 41 -89t100 -32zM288 41q74 0 121.5 40t47.5 114t-47.5 114.5t-122.5 40.5t-122.5 -40.5t-47.5 -114.5t47.5 -114t123.5 -40z" />
    <glyph glyph-name="nine" unicode="9" horiz-adv-x="581" 
d="M271 -13q-88 0 -143.5 49.5t-59.5 128.5h61q5 -63 46 -95t96 -32q104 0 144.5 79.5t46.5 233.5l1 9l-4 -8q-18 -52 -65 -85.5t-120 -33.5q-95 0 -156.5 63.5t-61.5 166.5q0 104 63 170t164 66q118 0 177.5 -79.5t59.5 -229.5q0 -203 -56 -303t-193 -100zM282 285
q78 0 123 50t45 130q0 83 -46.5 132.5t-121.5 49.5t-121.5 -51.5t-46.5 -130.5q0 -81 45.5 -130.5t122.5 -49.5z" />
    <glyph glyph-name="colon" unicode=":" horiz-adv-x="234" 
d="M117 402q-20 0 -33.5 13.5t-13.5 33.5t13.5 33t33.5 13q19 0 32.5 -13.5t13.5 -32.5q0 -20 -13.5 -33.5t-32.5 -13.5zM117 -4q-20 0 -33.5 13.5t-13.5 33.5t13.5 33t33.5 13q19 0 32.5 -13.5t13.5 -32.5q0 -20 -13.5 -33.5t-32.5 -13.5z" />
    <glyph glyph-name="semicolon" unicode=";" horiz-adv-x="240" 
d="M120 386q-21 0 -34.5 14t-13.5 34t13.5 34t34.5 14q20 0 34 -14t14 -34t-14 -34t-34 -14zM71 -125v35q24 5 38.5 29t13.5 58q-1 -1 -4 -1q-20 0 -33 12.5t-13 34.5q0 20 13.5 33t32.5 13q50 0 50 -65q0 -61 -26.5 -101t-71.5 -48z" />
    <glyph glyph-name="less" unicode="&#x3c;" horiz-adv-x="568" 
d="M516 -8l-483 234v54l483 234v-50l-427 -211l427 -211v-50z" />
    <glyph glyph-name="equal" unicode="=" horiz-adv-x="628" 
d="M74 348v47h480v-47h-480zM74 148v47h480v-47h-480z" />
    <glyph glyph-name="greater" unicode="&#x3e;" horiz-adv-x="568" 
d="M52 -8v50l425 211l-425 211v50l483 -234v-54z" />
    <glyph glyph-name="question" unicode="?" horiz-adv-x="506" 
d="M218 183q0 23 1 33q3 53 22.5 91t69.5 85l31 30q62 56 62 123q0 61 -38.5 96t-106.5 35q-161 0 -163 -175h-61q0 106 59.5 167.5t164.5 61.5q93 0 151 -45.5t58 -127.5q0 -55 -20.5 -92t-63.5 -80l-36 -35q-35 -32 -50 -61.5t-19 -73.5q-1 -10 -1 -32h-60zM249 -2
q-18 0 -31 12.5t-13 31.5q0 18 13 31t31 13q19 0 32 -13t13 -31q0 -19 -13 -31.5t-32 -12.5z" />
    <glyph glyph-name="at" unicode="@" horiz-adv-x="831" 
d="M440 -130q-168 0 -277 99.5t-109 283.5q0 173 108.5 276.5t259.5 103.5q154 0 252.5 -96.5t98.5 -242.5q0 -102 -53 -164t-120 -62h-63v77q-16 -39 -50.5 -63t-82.5 -24q-78 0 -123 53t-45 140q0 85 47.5 138t120.5 53q50 0 83.5 -23.5t47.5 -60.5v75h51v-319h14
q45 0 81 46.5t36 133.5q0 126 -82 207t-213 81q-134 0 -223 -91t-89 -238q0 -154 93.5 -242.5t241.5 -88.5h252v-52h-257zM407 105q60 0 94 41.5t34 104.5q0 61 -34 103.5t-92 42.5q-55 0 -88.5 -41.5t-33.5 -104.5t32 -104.5t88 -41.5z" />
    <glyph glyph-name="A" unicode="A" horiz-adv-x="649" 
d="M560 0l-87 237h-300l-88 -237h-63l269 716h69l264 -716h-64zM195 297h256l-126 344h-2z" />
    <glyph glyph-name="B" unicode="B" horiz-adv-x="660" 
d="M101 0v716h269q95 0 152 -48t57 -136q0 -55 -26 -94t-65 -60v-1q111 -41 111 -173q0 -98 -65.5 -151t-168.5 -53h-264zM163 397h226q54 0 91 34.5t37 97.5q0 64 -41.5 96.5t-111.5 32.5h-201v-261zM163 58h202q77 0 124 36t47 108q0 70 -40.5 104.5t-113.5 34.5h-219
v-283z" />
    <glyph glyph-name="C" unicode="C" horiz-adv-x="716" 
d="M379 -17q-150 0 -237.5 101.5t-87.5 269.5q0 163 88 270t238 107q130 0 205.5 -73t85.5 -182h-60q-12 84 -74.5 139.5t-157.5 55.5q-127 0 -194.5 -91.5t-67.5 -225.5q0 -135 69 -223t194 -88q98 0 156.5 54.5t73.5 130.5h61q-15 -102 -92.5 -173.5t-199.5 -71.5z" />
    <glyph glyph-name="D" unicode="D" horiz-adv-x="721" 
d="M101 0v716h210q155 0 255.5 -92.5t100.5 -265.5q0 -166 -99 -262t-261 -96h-206zM163 57h144q133 0 215.5 79t82.5 222q0 149 -82 224.5t-222 75.5h-138v-601z" />
    <glyph glyph-name="E" unicode="E" horiz-adv-x="618" 
d="M101 0v716h463v-58h-401v-261h364v-57h-364v-283h406v-57h-468z" />
    <glyph glyph-name="F" unicode="F" horiz-adv-x="570" 
d="M101 0v716h438v-59h-376v-265h336v-58h-336v-334h-62z" />
    <glyph glyph-name="G" unicode="G" horiz-adv-x="749" 
d="M383 -17q-156 0 -243 105.5t-87 267.5q0 160 90 267.5t243 107.5q126 0 205 -62.5t98 -179.5h-62q-36 182 -242 182q-124 0 -195 -87.5t-73 -227.5q2 -138 73 -225.5t195 -87.5q122 0 186.5 65.5t70.5 181.5h-219v57h279v-16q0 -158 -80 -253t-239 -95z" />
    <glyph glyph-name="H" unicode="H" horiz-adv-x="736" 
d="M101 0v716h62v-318h408v318h64v-716h-64v340h-408v-340h-62z" />
    <glyph glyph-name="I" unicode="I" horiz-adv-x="265" 
d="M101 0v716h62v-716h-62z" />
    <glyph glyph-name="J" unicode="J" horiz-adv-x="524" 
d="M229 -17q-102 0 -150.5 62.5t-48.5 175.5h61q2 -88 34 -133.5t104 -45.5q71 0 105 42.5t34 133.5v498h63v-505q0 -106 -50 -167t-152 -61z" />
    <glyph glyph-name="K" unicode="K" horiz-adv-x="665" 
d="M101 0v716h62v-392l404 392h80l-305 -297l326 -419h-78l-293 376l-134 -130v-246h-62z" />
    <glyph glyph-name="L" unicode="L" horiz-adv-x="558" 
d="M101 0v716h62v-656h375v-60h-437z" />
    <glyph glyph-name="M" unicode="M" horiz-adv-x="859" 
d="M101 0v716h60l272 -376l265 376h60v-716h-60v619l-242 -342h-52l-243 341v-618h-60z" />
    <glyph glyph-name="N" unicode="N" horiz-adv-x="746" 
d="M101 0v716h59l424 -613v613h61v-716h-61l-424 612v-612h-59z" />
    <glyph glyph-name="O" unicode="O" horiz-adv-x="785" 
d="M393 -17q-157 0 -248.5 107t-91.5 266q0 160 91.5 267.5t248.5 107.5t248 -107t91 -268q0 -159 -91 -266t-248 -107zM393 43q128 0 202.5 88.5t73.5 224.5q-1 138 -75 226.5t-201 88.5q-128 0 -201.5 -88.5t-75.5 -226.5q2 -137 75.5 -225t201.5 -88z" />
    <glyph glyph-name="P" unicode="P" horiz-adv-x="622" 
d="M101 0v714h273q105 0 160 -50.5t55 -141.5q0 -88 -55 -142t-149 -54h-222v-326h-62zM163 386h214q65 0 105.5 35t40.5 101q0 64 -39.5 98t-112.5 34h-208v-268z" />
    <glyph glyph-name="Q" unicode="Q" horiz-adv-x="785" 
d="M732 356q0 -152 -84.5 -257.5t-230.5 -114.5q1 -47 21 -68t62 -21h85v-55h-90q-71 0 -103.5 35.5t-34.5 109.5q-141 12 -222.5 117t-81.5 254q0 160 91.5 267.5t248.5 107.5t248 -107t91 -268zM393 43q128 0 202.5 88.5t73.5 224.5q-1 138 -75 226.5t-201 88.5
q-128 0 -201.5 -88.5t-75.5 -226.5q2 -137 75.5 -225t201.5 -88z" />
    <glyph glyph-name="R" unicode="R" horiz-adv-x="642" 
d="M606 0h-73l-205 330h-165v-330h-62v714h245q224 0 229 -185q2 -82 -48.5 -135.5t-129.5 -62.5zM163 656v-268h191q71 0 114.5 35.5t43.5 106.5q0 58 -41.5 92t-114.5 34h-193z" />
    <glyph glyph-name="S" unicode="S" horiz-adv-x="621" 
d="M314 -17q-124 0 -195 60t-70 180h61q-1 -94 53.5 -138.5t152.5 -44.5q88 0 139 34.5t51 104.5q0 19 -4 35.5t-14 30t-18.5 23t-27.5 19.5t-28.5 15.5t-35 14l-34.5 11.5t-38 11q-55 15 -90.5 29.5t-72 37.5t-54.5 57t-18 79q0 92 68.5 140.5t166.5 48.5
q106 0 176.5 -53.5t74.5 -167.5h-61q-3 85 -56.5 124.5t-133.5 39.5q-75 0 -124 -30.5t-49 -96.5q0 -59 45.5 -90t151.5 -63q49 -15 74 -23.5t62 -27t55 -37.5t32 -50t14 -70q0 -96 -71 -149.5t-182 -53.5z" />
    <glyph glyph-name="T" unicode="T" horiz-adv-x="561" 
d="M250 0v658h-231v58h524v-58h-231v-658h-62z" />
    <glyph glyph-name="U" unicode="U" horiz-adv-x="708" 
d="M354 -17q-128 0 -195 75.5t-67 224.5v433h62v-433q0 -240 200 -240q199 0 199 240v433h63v-433q0 -149 -67.5 -224.5t-194.5 -75.5z" />
    <glyph glyph-name="V" unicode="V" horiz-adv-x="623" 
d="M277 0l-251 714h66l178 -505q24 -65 45 -142q10 40 45 144l172 503h63l-247 -714h-71z" />
    <glyph glyph-name="W" unicode="W" horiz-adv-x="953" 
d="M225 0l-194 716h69l114 -439q33 -124 50 -205q19 77 55 209l122 435h74l121 -435q49 -184 56 -211q18 84 51 211l113 435h65l-192 -716h-75l-105 365q-67 248 -73 272q-32 -129 -72 -273l-103 -364h-76z" />
    <glyph glyph-name="X" unicode="X" horiz-adv-x="605" 
d="M594 0h-77l-216 317l-217 -317h-73l254 368l-240 346h77l203 -300l201 300h73l-237 -346z" />
    <glyph glyph-name="Y" unicode="Y" horiz-adv-x="642" 
d="M289 0v292l-268 422h73l228 -362l229 362h71l-270 -421v-293h-63z" />
    <glyph glyph-name="Z" unicode="Z" horiz-adv-x="598" 
d="M32 0v60l336 452q38 51 113 144h-432v58h503v-60l-348 -467q-81 -106 -101 -129h462v-58h-533z" />
    <glyph glyph-name="bracketleft" unicode="[" horiz-adv-x="282" 
d="M91 -179v910h156v-49h-98v-812h98v-49h-156z" />
    <glyph glyph-name="backslash" unicode="\" horiz-adv-x="412" 
d="M328 -17l-294 748h49l295 -748h-50z" />
    <glyph glyph-name="bracketright" unicode="]" horiz-adv-x="282" 
d="M35 -179v49h99v812h-99v49h157v-910h-157z" />
    <glyph glyph-name="asciicircum" unicode="^" horiz-adv-x="537" 
d="M40 254l200 432h56l201 -432h-51l-178 384l-178 -384h-50z" />
    <glyph glyph-name="underscore" unicode="_" horiz-adv-x="475" 
d="M0 -111v36h475v-36h-475z" />
    <glyph glyph-name="grave" unicode="`" horiz-adv-x="174" 
d="M159 573h-41l-104 144h69z" />
    <glyph glyph-name="a" unicode="a" horiz-adv-x="529" 
d="M201 -13q-68 0 -113 38t-45 106q0 127 172 161l114 23q34 6 44.5 17.5t10.5 35.5q0 104 -127 104q-131 0 -134 -109h-60q2 75 51.5 120t141.5 45q188 0 188 -175v-267q0 -36 34 -36h18v-50h-53q-55 0 -55 55v29q-58 -97 -187 -97zM213 42q72 0 122.5 42.5t50.5 105.5v94
q-15 -11 -52 -20l-97 -20q-66 -14 -98 -38t-32 -70q0 -44 27.5 -69t78.5 -25z" />
    <glyph glyph-name="b" unicode="b" horiz-adv-x="580" 
d="M311 528q101 0 160 -74t59 -195q0 -122 -60 -197t-160 -75q-119 0 -174 99v-86h-56v717h58v-286q57 97 173 97zM308 42q75 0 119.5 59.5t44.5 157.5q0 95 -44.5 154.5t-119.5 59.5q-77 0 -124.5 -59.5t-46.5 -155.5q0 -101 47 -158.5t124 -57.5z" />
    <glyph glyph-name="c" unicode="c" horiz-adv-x="531" 
d="M277 -13q-106 0 -167 74.5t-61 191.5q0 122 61.5 198.5t173.5 76.5q83 0 137.5 -47t62.5 -134h-59q-7 59 -44 92t-97 33q-89 0 -132.5 -62.5t-43.5 -156.5q0 -92 44 -151t126 -59q63 0 102 30.5t47 88.5h59q-10 -83 -65.5 -129t-143.5 -46z" />
    <glyph glyph-name="d" unicode="d" horiz-adv-x="579" 
d="M441 717h58v-717h-56v83q-56 -96 -170 -96q-107 0 -165.5 74.5t-58.5 195.5q0 122 61 196.5t164 74.5q110 0 168 -96zM442 241v27q0 89 -47 147t-120 58q-78 0 -123 -59t-45 -157q0 -93 45 -154t123 -61q76 0 121.5 58.5t45.5 140.5z" />
    <glyph glyph-name="e" unicode="e" horiz-adv-x="545" 
d="M443 241l-335 1v-3q2 -91 49 -143.5t124 -52.5q60 0 99.5 29t50.5 80h58q-15 -75 -70.5 -120t-139.5 -45q-104 0 -167 71.5t-63 197.5q0 120 64.5 196t166.5 76q105 0 163.5 -71t58.5 -190q0 -18 -1 -26h-58zM279 472q-70 0 -116.5 -48.5t-52.5 -128.5l332 -1
q-4 80 -46.5 129t-116.5 49z" />
    <glyph glyph-name="f" unicode="f" horiz-adv-x="298" 
d="M112 0v461h-91v54h91v64q0 72 35.5 105t106.5 33h75v-55h-77q-43 0 -62.5 -19.5t-19.5 -64.5v-63h110v-54h-110v-461h-58z" />
    <glyph glyph-name="g" unicode="g" horiz-adv-x="580" 
d="M444 515h56v-518q0 -207 -189 -207h-195v55h177q80 0 114.5 38.5t34.5 118.5v79q-60 -94 -170 -94q-105 0 -164 73t-59 195t60 197.5t162 75.5q116 0 173 -96v83zM275 43q75 0 121.5 59.5t46.5 154.5q0 97 -44 156.5t-123 59.5t-123.5 -59.5t-44.5 -157.5
q0 -96 44 -154.5t123 -58.5z" />
    <glyph glyph-name="h" unicode="h" horiz-adv-x="558" 
d="M80 0v717h58v-271q21 38 63 60t91 22q92 0 141.5 -54t49.5 -149v-325h-58l1 311q0 75 -37.5 118.5t-106.5 43.5q-42 0 -78.5 -23.5t-52.5 -61.5q-13 -31 -13 -80v-308h-58z" />
    <glyph glyph-name="i" unicode="i" horiz-adv-x="218" 
d="M109 620q-18 0 -32 13.5t-14 31.5t14 31.5t32 13.5q19 0 32.5 -13t13.5 -32t-13.5 -32t-32.5 -13zM80 0v515h58v-515h-58z" />
    <glyph glyph-name="j" unicode="j" horiz-adv-x="226" 
d="M118 620q-19 0 -32.5 13.5t-13.5 32.5q0 18 13.5 32t32.5 14q18 0 31.5 -14t13.5 -32q0 -19 -13 -32.5t-32 -13.5zM-32 -210v56h57q35 0 49 13t14 52v604h58v-613q0 -62 -27.5 -87t-83.5 -25h-67z" />
    <glyph glyph-name="k" unicode="k" horiz-adv-x="496" 
d="M493 0h-70l-192 282l-93 -90v-192h-58v717h58v-455l261 253h72l-198 -192z" />
    <glyph glyph-name="l" unicode="l" horiz-adv-x="234" 
d="M163 0q-85 0 -85 80v637h57v-629q0 -38 39 -38h32v-50h-43z" />
    <glyph glyph-name="m" unicode="m" horiz-adv-x="835" 
d="M80 0v516h57l-1 -68q19 37 56.5 58.5t84.5 21.5q115 0 151 -101q23 51 64.5 76t91.5 25q84 0 130 -54t46 -148v-326h-58l1 314q0 74 -33 116.5t-94 42.5q-57 0 -91.5 -44.5t-34.5 -114.5v-314h-58v314q0 74 -33 116.5t-95 42.5q-56 0 -91 -41.5t-35 -104.5v-327h-58z" />
    <glyph glyph-name="n" unicode="n" horiz-adv-x="558" 
d="M80 0v515h57v-85q21 45 63 71.5t94 26.5q91 0 140 -55.5t49 -154.5v-318h-58l1 308q0 78 -36 121.5t-101 43.5t-108 -50t-43 -123v-300h-58z" />
    <glyph glyph-name="o" unicode="o" horiz-adv-x="566" 
d="M282 -13q-105 0 -169.5 77t-64.5 194q0 114 65 192t170 78t170 -77t65 -193t-65 -193.5t-171 -77.5zM283 42q80 0 128.5 60.5t48.5 155.5q0 93 -49 154t-128 61q-80 0 -128.5 -60.5t-48.5 -154.5q0 -96 48.5 -156t128.5 -60z" />
    <glyph glyph-name="p" unicode="p" horiz-adv-x="579" 
d="M312 528q98 0 158 -74.5t60 -194.5q0 -121 -60 -196.5t-160 -75.5q-117 0 -173 96l1 -293h-58v725h57v-85q57 98 175 98zM307 42q76 0 120 60.5t44 156.5q0 95 -44 154.5t-119 59.5q-76 0 -124 -59.5t-48 -155.5q0 -102 47.5 -159t123.5 -57z" />
    <glyph glyph-name="q" unicode="q" horiz-adv-x="579" 
d="M547 -155h39v-55h-55q-90 0 -90 89l1 205q-58 -97 -168 -97q-106 0 -165.5 73.5t-59.5 196.5q0 124 62 197.5t164 73.5q111 0 168 -95v82h56v-617q0 -31 12.5 -42t35.5 -11zM274 42q76 0 122.5 60t46.5 154v9q0 91 -46 149.5t-122 58.5q-75 0 -121 -58.5t-46 -157.5
q0 -95 44.5 -155t121.5 -60z" />
    <glyph glyph-name="r" unicode="r" horiz-adv-x="337" 
d="M80 0v515h56v-80q19 39 57 63t92 24h40v-57h-45q-60 0 -101 -42.5t-41 -130.5v-292h-58z" />
    <glyph glyph-name="s" unicode="s" horiz-adv-x="482" 
d="M241 -13q-90 0 -144 42t-54 126h59q2 -56 38.5 -85t101.5 -29q62 0 98.5 22.5t36.5 67.5q0 34 -21 53t-74 37l-82 27q-34 11 -53 19.5t-42 24.5t-33.5 39.5t-10.5 55.5q0 64 49 102.5t130 38.5q86 0 136.5 -40t51.5 -125h-60q-3 111 -129 111q-62 0 -90.5 -24t-28.5 -59
t21 -52t74 -35l96 -32q64 -22 93.5 -52t29.5 -83q0 -77 -55 -113.5t-138 -36.5z" />
    <glyph glyph-name="t" unicode="t" horiz-adv-x="331" 
d="M223 0q-51 0 -78 22t-27 79v360h-99v54h99v153h58v-153h131v-54h-131v-347q0 -40 15.5 -50.5t54.5 -10.5h64v-53h-87z" />
    <glyph glyph-name="u" unicode="u" horiz-adv-x="555" 
d="M254 -13q-83 0 -131 51t-48 144v333h58l-1 -322q0 -77 37 -113.5t97 -36.5q73 0 112 45.5t39 118.5v308h58v-515h-57v68q-18 -36 -62 -58.5t-102 -22.5z" />
    <glyph glyph-name="v" unicode="v" horiz-adv-x="498" 
d="M219 0l-198 515h64l138 -366l30 -89h1l28 89l130 366h60l-187 -515h-66z" />
    <glyph glyph-name="w" unicode="w" horiz-adv-x="738" 
d="M173 0l-143 515h60l118 -452l130 452h65l127 -452l121 452h59l-147 -515h-66l-72 251l-54 189h-2l-55 -191l-75 -249h-66z" />
    <glyph glyph-name="x" unicode="x" horiz-adv-x="479" 
d="M15 0l189 267l-173 248h70l141 -207l139 207h66l-174 -251l191 -264h-71l-155 222l-157 -222h-66z" />
    <glyph glyph-name="y" unicode="y" horiz-adv-x="498" 
d="M64 -210v55h74q47 0 68 40q20 33 20 56q0 19 -16 62l-183 512h66l94 -279l74 -216l68 219l82 276h63l-202 -620q-18 -58 -47.5 -81.5t-78.5 -23.5h-82z" />
    <glyph glyph-name="z" unicode="z" horiz-adv-x="478" 
d="M34 0v49l324 415h-311v51h382v-48l-325 -416h342v-51h-412z" />
    <glyph glyph-name="braceleft" unicode="{" horiz-adv-x="312" 
d="M205 -179q-41 0 -65 30t-24 89v173q0 104 -78 145v41q31 4 54.5 45.5t23.5 97.5v172q0 59 24 88t65 29h74v-49h-50q-31 0 -43 -22t-12 -74v-160q0 -51 -20.5 -94t-59.5 -56q32 -12 56 -51.5t24 -95.5v-161q0 -54 12 -76t43 -22h50v-49h-74z" />
    <glyph glyph-name="bar" unicode="|" horiz-adv-x="228" 
d="M90 -214v1000h48v-1000h-48z" />
    <glyph glyph-name="braceright" unicode="}" horiz-adv-x="312" 
d="M107 731q41 0 65 -30t24 -89v-173q0 -104 78 -145v-41q-31 -4 -54.5 -45.5t-23.5 -97.5v-172q0 -59 -24 -88t-65 -29h-74v49h50q31 0 43 22t12 74v160q0 51 20.5 94t59.5 56q-32 12 -56 51.5t-24 95.5v161q0 54 -12 76t-43 22h-50v49h74z" />
    <glyph glyph-name="asciitilde" unicode="~" horiz-adv-x="582" 
d="M96 205l-25 33q43 86 116 87q38 1 108.5 -33.5t102.5 -34.5q28 0 47.5 18.5t40.5 53.5l25 -33q-48 -87 -112 -87q-42 0 -106 34t-108 34q-51 0 -89 -72z" />
    <glyph glyph-name="uni00A0" unicode="&#xa0;" horiz-adv-x="255" 
 />
    <glyph glyph-name="exclamdown" unicode="&#xa1;" horiz-adv-x="225" 
d="M114 529q20 0 33 -13.5t13 -33.5t-13 -33t-33 -13t-33.5 13.5t-13.5 32.5q0 20 13.5 33.5t33.5 13.5zM131 346l12 -236v-300h-60v300l13 236h35z" />
    <glyph glyph-name="cent" unicode="&#xa2;" horiz-adv-x="543" 
d="M268 -114v101q-102 5 -159 81t-57 188q0 111 57 188t159 83v86h31v-86q83 -4 136.5 -50t61.5 -133h-60q-7 57 -44 90t-94 37v-427q60 2 96.5 36t46.5 94h58q-9 -85 -62.5 -133.5t-138.5 -52.5v-102h-31zM268 44v427q-78 -6 -117.5 -67.5t-39.5 -147.5t40 -146.5
t117 -65.5z" />
    <glyph glyph-name="sterling" unicode="&#xa3;" horiz-adv-x="631" 
d="M509 54h76v-54h-83q-94 0 -217 82q-37 -90 -134 -90q-49 0 -80.5 29t-31.5 76q0 48 31 75.5t79 27.5q43 0 96 -30q1 10 1 28q0 48 -32 129h-143v50h123q-31 78 -31 140q0 46 14 82t35 56.5t49 34t53 18t50 4.5q92 0 144 -50.5t51 -142.5h-57q-6 136 -138 136
q-63 0 -100.5 -35t-37.5 -103q0 -53 34 -140h167v-50h-148q28 -78 28 -127q0 -32 -6 -64q45 -28 66.5 -40.5t62.5 -27t79 -14.5zM149 44q66 0 87 70q-54 33 -87 33q-27 0 -42.5 -15t-15.5 -37q0 -23 15 -37t43 -14z" />
    <glyph glyph-name="currency" unicode="&#xa4;" horiz-adv-x="646" 
d="M105 98l-27 28l57 57q-62 68 -60 160q2 97 60 160l-57 58l28 27l57 -57q66 60 161 60q93 0 158 -59l57 57l29 -29l-57 -56q60 -63 60 -161q0 -93 -60 -161l57 -56l-27 -27l-57 57q-67 -61 -161 -61t-161 61zM323 148q81 0 135.5 57.5t54.5 137.5q0 81 -54.5 138.5
t-134.5 57.5q-81 0 -136.5 -57.5t-55.5 -138.5q0 -80 55 -137.5t136 -57.5z" />
    <glyph glyph-name="yen" unicode="&#xa5;" horiz-adv-x="636" 
d="M286 0v262h-178v43h172l-73 119h-127v42h102l-151 248h75l214 -363l216 363h71l-151 -248h95v-42h-121l-75 -119h172v-43h-178v-262h-63z" />
    <glyph glyph-name="brokenbar" unicode="&#xa6;" horiz-adv-x="222" 
d="M87 411v250h48v-250h-48zM87 -89v250h48v-250h-48z" />
    <glyph glyph-name="section" unicode="&#xa7;" horiz-adv-x="508" 
d="M361 95q76 -54 76 -128q0 -73 -50 -113.5t-130 -40.5q-82 0 -134 45.5t-52 139.5h64q0 -127 127 -127q52 0 82 24t30 67q0 40 -27.5 64.5t-125.5 83.5q-48 29 -72 46t-49.5 40.5t-35 47.5t-9.5 55q0 87 90 139q-73 55 -73 126q0 73 51 113t131 40t132.5 -46t52.5 -138
h-65q0 126 -125 126q-53 0 -83.5 -23t-30.5 -67q0 -27 16 -48.5t37.5 -36.5t83.5 -53q10 -7 16 -10q90 -56 126 -93.5t36 -94.5q0 -87 -89 -138zM199 201q44 -30 114 -74q74 33 74 96q0 57 -74 105q-36 24 -120 78q-75 -34 -75 -97q0 -56 81 -108z" />
    <glyph glyph-name="dieresis" unicode="&#xa8;" horiz-adv-x="266" 
d="M51 619q-17 0 -29 12.5t-12 28.5t12 28t29 12t28.5 -12t11.5 -28q0 -17 -12 -29t-28 -12zM215 619q-17 0 -29 12.5t-12 28.5t12 28t29 12t29 -11.5t12 -28.5t-12 -29t-29 -12z" />
    <glyph glyph-name="copyright" unicode="&#xa9;" horiz-adv-x="861" 
d="M430 -17q-156 0 -267 107.5t-111 266.5t111 266.5t267 107.5t267 -107.5t111 -266.5t-111 -266.5t-267 -107.5zM430 26q136 0 231.5 95.5t95.5 235.5q0 139 -95.5 235.5t-231.5 96.5q-137 0 -232 -96.5t-95 -235.5q0 -140 95 -235.5t232 -95.5zM438 129
q-97 0 -157.5 64.5t-60.5 162.5q0 100 58.5 163.5t157.5 63.5q72 0 123 -40.5t60 -112.5h-42q-9 52 -48 81t-93 29q-78 0 -122.5 -51t-44.5 -132q0 -78 46.5 -131.5t122.5 -53.5q52 0 89.5 29.5t49.5 83.5h43q-14 -71 -64 -113.5t-118 -42.5z" />
    <glyph glyph-name="ordfeminine" unicode="&#xaa;" horiz-adv-x="412" 
d="M160 379q-47 0 -76 22.5t-29 65.5q0 79 112 100l73 13q20 4 27.5 9.5t7.5 19.5q0 64 -78 64q-79 0 -81 -63h-48q2 48 36 75.5t95 27.5q60 0 92 -26t32 -89v-151q0 -22 19 -22h13v-39h-43q-35 0 -35 31v20q-35 -58 -117 -58zM169 417q44 0 75.5 27.5t31.5 68.5v43
q-8 -7 -33 -13l-62 -10q-78 -13 -78 -62q0 -25 17 -39.5t49 -14.5z" />
    <glyph glyph-name="guillemotleft" unicode="&#xab;" horiz-adv-x="362" 
d="M168 114l-114 129v53l114 128v-60l-79 -95l79 -95v-60zM287 114l-114 129v53l114 128v-60l-79 -95l79 -95v-60z" />
    <glyph glyph-name="logicalnot" unicode="&#xac;" horiz-adv-x="629" 
d="M505 95v232h-432v47h479v-279h-47z" />
    <glyph glyph-name="uni00AD" unicode="&#xad;" horiz-adv-x="350" 
d="M70 244v51h209v-51h-209z" />
    <glyph glyph-name="registered" unicode="&#xae;" horiz-adv-x="861" 
d="M430 -17q-156 0 -267 107.5t-111 267.5q0 158 111 265.5t267 107.5t267 -107t111 -266q0 -160 -110.5 -267.5t-267.5 -107.5zM430 26q136 0 231.5 96t95.5 236q0 138 -96 234.5t-231 96.5q-137 0 -232 -96t-95 -235q0 -140 95 -236t232 -96zM290 150v426h149
q149 0 149 -118q0 -52 -31.5 -80.5t-79.5 -32.5l125 -195h-51l-118 192h-99v-192h-44zM334 378h91q118 0 118 81q0 80 -110 80h-99v-161z" />
    <glyph glyph-name="macron" unicode="&#xaf;" horiz-adv-x="285" 
d="M10 633v38h265v-38h-265z" />
    <glyph glyph-name="degree" unicode="&#xb0;" horiz-adv-x="378" 
d="M189 408q-58 0 -98 42t-40 104q0 60 40.5 102.5t97.5 42.5t97.5 -42.5t40.5 -102.5q0 -61 -40 -103.5t-98 -42.5zM189 441q43 0 72.5 32.5t29.5 80.5q0 47 -29 80t-73 33q-42 0 -72.5 -33.5t-30.5 -79.5q0 -48 30 -80.5t73 -32.5z" />
    <glyph glyph-name="plusminus" unicode="&#xb1;" horiz-adv-x="618" 
d="M286 105v177h-217v47h217v177h46v-177h217v-47h-217v-177h-46zM69 0v47h480v-47h-480z" />
    <glyph glyph-name="uni00B2" unicode="&#xb2;" horiz-adv-x="445" 
d="M64 276q0 24 8 46t16.5 35.5t32.5 33t35.5 27.5t46.5 31q59 37 86.5 65t27.5 67q0 34 -25 53t-69 19q-106 0 -106 -105h-47q3 153 157 153q63 0 102.5 -30t39.5 -87q0 -46 -27 -80t-107 -87q-98 -63 -105 -97h248v-44h-314z" />
    <glyph glyph-name="uni00B3" unicode="&#xb3;" horiz-adv-x="433" 
d="M218 268q-78 0 -122 39.5t-41 110.5h48q-4 -51 27 -78.5t88 -27.5q48 0 78.5 22t30.5 63q0 81 -107 81h-26v38h23q98 0 98 73q0 66 -97 66q-54 0 -79 -22t-25 -72h-47q-1 66 39.5 102.5t113.5 36.5q61 0 102 -27t41 -80q0 -39 -22 -64.5t-55 -28.5q40 -5 65.5 -33.5
t25.5 -72.5q0 -58 -45.5 -92t-113.5 -34z" />
    <glyph glyph-name="acute" unicode="&#xb4;" horiz-adv-x="174" 
d="M14 573l77 144h68l-104 -144h-41z" />
    <glyph glyph-name="uni00B5" unicode="&#xb5;" horiz-adv-x="588" 
d="M90 -179v694h57v-322q0 -77 38 -113.5t99 -36.5q76 0 116 53.5t40 129.5v289h58v-515h-56v86q-18 -45 -62 -72t-101 -27q-90 0 -132 64v-230h-57z" />
    <glyph glyph-name="paragraph" unicode="&#xb6;" horiz-adv-x="587" 
d="M138 -164v53h25q60 1 78.5 23.5t18.5 89.5v334q-111 0 -169 51t-58 136q0 88 57.5 139.5t157.5 51.5h285v-49h-52v-807h-52v807h-118v-666q0 -92 -33 -127t-115 -36h-25z" />
    <glyph glyph-name="periodcentered" unicode="&#xb7;" horiz-adv-x="233" 
d="M117 275q-20 0 -34 14t-14 35q0 20 14 34t34 14t33.5 -14t13.5 -34t-14 -34.5t-33 -14.5z" />
    <glyph glyph-name="cedilla" unicode="&#xb8;" horiz-adv-x="217" 
d="M103 -190q-59 2 -96 32l16 28q33 -24 74 -24q61 0 61 43q0 19 -12.5 28.5t-30.5 9.5q-30 0 -52 -10l-18 20l57 63h36l-41 -45l2 -1q11 4 30 4q37 0 58 -17t21 -48q0 -40 -29.5 -61.5t-75.5 -21.5z" />
    <glyph glyph-name="uni00B9" unicode="&#xb9;" horiz-adv-x="278" 
d="M151 276v342q-46 -30 -115 -44v40q46 8 74 26t47 53h46v-417h-52z" />
    <glyph glyph-name="ordmasculine" unicode="&#xba;" horiz-adv-x="412" 
d="M206 381q-71 0 -113.5 47.5t-42.5 120.5q0 72 43 119.5t113 47.5t113 -47t43 -120q0 -72 -43 -120t-113 -48zM206 425q49 0 78.5 34t29.5 90q0 55 -29.5 89t-78.5 34t-78.5 -34t-29.5 -89q0 -56 29.5 -90t78.5 -34z" />
    <glyph glyph-name="guillemotright" unicode="&#xbb;" horiz-adv-x="370" 
d="M75 114v60l79 95l-79 95v60l114 -128v-53zM202 114v60l79 95l-79 95v60l114 -128v-53z" />
    <glyph glyph-name="onequarter" unicode="&#xbc;" horiz-adv-x="750" 
d="M103 -30l432 747h49l-432 -747h-49zM150 276v342q-46 -30 -115 -44v40q46 8 74 26t47 53h46v-417h-52zM599 1v92h-218v47l215 277h54v-281h72v-43h-72v-92h-51zM433 136h166v213h-2z" />
    <glyph glyph-name="onehalf" unicode="&#xbd;" horiz-adv-x="826" 
d="M119 -30l431 747h51l-430 -747h-52zM149 276v341q-45 -30 -116 -44v41q46 8 74.5 25.5t47.5 53.5h47v-417h-53zM469 1q0 40 20.5 72.5t43.5 50t74 50.5q31 20 46.5 31t34.5 28t26.5 34.5t7.5 37.5q0 34 -25 53t-69 19q-102 0 -102 -105h-53q1 72 41.5 113t117.5 41
q64 0 103.5 -30.5t39.5 -87.5q0 -46 -27.5 -79.5t-108.5 -86.5q-34 -22 -49.5 -33t-33.5 -29.5t-20 -34.5h247v-44h-314z" />
    <glyph glyph-name="threequarters" unicode="&#xbe;" horiz-adv-x="841" 
d="M211 -30l432 747h49l-432 -747h-49zM206 268q-78 0 -122 39.5t-41 110.5h48q-4 -51 27 -78.5t88 -27.5q48 0 78.5 22t30.5 63q0 81 -107 81h-26v38h23q98 0 98 73q0 66 -97 66q-54 0 -79 -22t-25 -72h-47q-1 66 39.5 102.5t113.5 36.5q61 0 102 -27t41 -80
q0 -39 -22 -64.5t-55 -28.5q40 -5 65.5 -33.5t25.5 -72.5q0 -58 -45.5 -92t-113.5 -34zM689 1v92h-218v47l214 277h55v-281h72v-43h-72v-92h-51zM523 136h166v213h-2z" />
    <glyph glyph-name="questiondown" unicode="&#xbf;" horiz-adv-x="498" 
d="M253 533q18 0 31 -12.5t13 -31.5q0 -18 -13 -31t-31 -13q-19 0 -32 13t-13 31q0 19 13 31.5t32 12.5zM284 348q0 -23 -1 -33q-3 -53 -22.5 -91t-69.5 -85l-31 -30q-62 -56 -62 -123q0 -61 38.5 -96t106.5 -35q161 0 163 175h61q0 -106 -59.5 -167.5t-164.5 -61.5
q-93 0 -151 45.5t-58 127.5q0 55 20.5 92t63.5 80l36 35q35 32 50 61.5t19 73.5q1 10 1 32h60z" />
    <glyph glyph-name="Agrave" unicode="&#xc0;" horiz-adv-x="649" 
d="M381 775h-45l-120 131h73zM560 0l-87 237h-300l-88 -237h-63l269 716h69l264 -716h-64zM195 297h256l-126 344h-2z" />
    <glyph glyph-name="Aacute" unicode="&#xc1;" horiz-adv-x="649" 
d="M430 906l-119 -131h-46l92 131h73zM560 0l-87 237h-300l-88 -237h-63l269 716h69l264 -716h-64zM195 297h256l-126 344h-2z" />
    <glyph glyph-name="Acircumflex" unicode="&#xc2;" horiz-adv-x="649" 
d="M321 862l-88 -87h-48l113 131h50l113 -131h-50zM560 0l-87 237h-300l-88 -237h-63l269 716h69l264 -716h-64zM195 297h256l-126 344h-2z" />
    <glyph glyph-name="Atilde" unicode="&#xc3;" horiz-adv-x="649" 
d="M270 837q-17 0 -26.5 -11.5t-10.5 -29.5h-43q2 39 22 63t51 24q25 0 64.5 -20t57.5 -20q33 0 38 39h42q-2 -41 -21.5 -63t-51.5 -22q-26 0 -64.5 20t-57.5 20zM560 0l-87 237h-300l-88 -237h-63l269 716h69l264 -716h-64zM195 297h256l-126 344h-2z" />
    <glyph glyph-name="Adieresis" unicode="&#xc4;" horiz-adv-x="649" 
d="M232 798q-17 0 -29 12t-12 29q0 16 12 28t29 12q16 0 28 -11.5t12 -28.5t-11.5 -29t-28.5 -12zM416 798q-17 0 -29 12t-12 29t12 28.5t29 11.5q16 0 28 -11.5t12 -28.5t-11.5 -29t-28.5 -12zM560 0l-87 237h-300l-88 -237h-63l269 716h69l264 -716h-64zM195 297h256
l-126 344h-2z" />
    <glyph glyph-name="Aring" unicode="&#xc5;" horiz-adv-x="649" 
d="M323 746q-41 0 -68 27t-27 67t27 67.5t68 27.5t68.5 -27.5t27.5 -67.5t-27.5 -67t-68.5 -27zM323 902q-25 0 -42 -18t-17 -44t17 -43.5t42 -17.5q26 0 43 17.5t17 43.5t-17.5 44t-42.5 18zM560 0l-87 237h-300l-88 -237h-63l269 716h69l264 -716h-64zM195 297h256
l-126 344h-2z" />
    <glyph glyph-name="AE" unicode="&#xc6;" horiz-adv-x="884" 
d="M475 55h356v-55h-418v249h-223l-132 -249h-67l383 714h453v-55h-352v-262h326v-52h-326v-290zM216 299h197v362h-5z" />
    <glyph glyph-name="Ccedilla" unicode="&#xc7;" horiz-adv-x="716" 
d="M380 43q98 0 156.5 54.5t73.5 130.5h61q-15 -100 -89.5 -170.5t-191.5 -74.5l-26 -28l2 -1q11 4 30 4q37 0 58 -17t21 -48q0 -40 -29.5 -61.5t-75.5 -21.5q-59 2 -96 32l16 28q33 -24 74 -24q61 0 61 43q0 19 -12.5 28.5t-30.5 9.5q-30 0 -52 -10l-18 20l42 47
q-139 9 -219.5 109t-80.5 261q0 163 88 270t238 107q130 0 205.5 -73t85.5 -182h-60q-12 84 -74.5 139.5t-157.5 55.5q-127 0 -194.5 -91.5t-67.5 -225.5q0 -135 69 -223t194 -88z" />
    <glyph glyph-name="Egrave" unicode="&#xc8;" horiz-adv-x="618" 
d="M340 775l-120 131h73l92 -131h-45zM101 0v716h463v-58h-401v-261h364v-57h-364v-283h406v-57h-468z" />
    <glyph glyph-name="Eacute" unicode="&#xc9;" horiz-adv-x="618" 
d="M269 775l92 131h73l-119 -131h-46zM101 0v716h463v-58h-401v-261h364v-57h-364v-283h406v-57h-468z" />
    <glyph glyph-name="Ecircumflex" unicode="&#xca;" horiz-adv-x="618" 
d="M190 775l113 131h50l113 -131h-50l-90 87l-88 -87h-48zM101 0v716h463v-58h-401v-261h364v-57h-364v-283h406v-57h-468z" />
    <glyph glyph-name="Edieresis" unicode="&#xcb;" horiz-adv-x="618" 
d="M236 798q-17 0 -29 12t-12 29q0 16 12 28t29 12q16 0 28 -11.5t12 -28.5t-11.5 -29t-28.5 -12zM420 798q-17 0 -29 12t-12 29t12 28.5t29 11.5q16 0 28 -11.5t12 -28.5t-11.5 -29t-28.5 -12zM101 0v716h463v-58h-401v-261h364v-57h-364v-283h406v-57h-468z" />
    <glyph glyph-name="Igrave" unicode="&#xcc;" horiz-adv-x="265" 
d="M145 775l-120 131h73l92 -131h-45zM101 0v716h62v-716h-62z" />
    <glyph glyph-name="Iacute" unicode="&#xcd;" horiz-adv-x="265" 
d="M74 775l92 131h73l-119 -131h-46zM101 0v716h62v-716h-62z" />
    <glyph glyph-name="Icircumflex" unicode="&#xce;" horiz-adv-x="265" 
d="M-6 775l113 131h50l113 -131h-50l-90 87l-88 -87h-48zM101 0v716h62v-716h-62z" />
    <glyph glyph-name="Idieresis" unicode="&#xcf;" horiz-adv-x="265" 
d="M40 798q-17 0 -29 12t-12 29q0 16 12 28t29 12q16 0 28 -11.5t12 -28.5t-11.5 -29t-28.5 -12zM224 798q-17 0 -29 12t-12 29t12 28.5t29 11.5q16 0 28 -11.5t12 -28.5t-11.5 -29t-28.5 -12zM101 0v716h62v-716h-62z" />
    <glyph glyph-name="Eth" unicode="&#xd0;" horiz-adv-x="724" 
d="M314 716q155 0 255.5 -92.5t100.5 -265.5q0 -166 -99 -262t-261 -96h-206v335h-81v45h81v336h210zM310 57q133 0 215.5 79t82.5 222q0 149 -82 224.5t-222 75.5h-138v-278h148v-45h-148v-278h144z" />
    <glyph glyph-name="Ntilde" unicode="&#xd1;" horiz-adv-x="746" 
d="M240 796q2 39 22 63t51 24q25 0 64.5 -20t57.5 -20q33 0 38 39h42q-2 -41 -21.5 -63t-51.5 -22q-26 0 -64.5 20t-57.5 20q-17 0 -26.5 -11.5t-10.5 -29.5h-43zM101 0v716h59l424 -613v613h61v-716h-61l-424 612v-612h-59z" />
    <glyph glyph-name="Ograve" unicode="&#xd2;" horiz-adv-x="785" 
d="M392 775l-120 131h73l92 -131h-45zM393 -17q-157 0 -248.5 107t-91.5 266q0 160 91.5 267.5t248.5 107.5t248 -107t91 -268q0 -159 -91 -266t-248 -107zM393 43q128 0 202.5 88.5t73.5 224.5q-1 138 -75 226.5t-201 88.5q-128 0 -201.5 -88.5t-75.5 -226.5
q2 -137 75.5 -225t201.5 -88z" />
    <glyph glyph-name="Oacute" unicode="&#xd3;" horiz-adv-x="785" 
d="M345 775l92 131h73l-119 -131h-46zM393 -17q-157 0 -248.5 107t-91.5 266q0 160 91.5 267.5t248.5 107.5t248 -107t91 -268q0 -159 -91 -266t-248 -107zM393 43q128 0 202.5 88.5t73.5 224.5q-1 138 -75 226.5t-201 88.5q-128 0 -201.5 -88.5t-75.5 -226.5
q2 -137 75.5 -225t201.5 -88z" />
    <glyph glyph-name="Ocircumflex" unicode="&#xd4;" horiz-adv-x="785" 
d="M255 775l113 131h50l113 -131h-50l-90 87l-88 -87h-48zM393 -17q-157 0 -248.5 107t-91.5 266q0 160 91.5 267.5t248.5 107.5t248 -107t91 -268q0 -159 -91 -266t-248 -107zM393 43q128 0 202.5 88.5t73.5 224.5q-1 138 -75 226.5t-201 88.5q-128 0 -201.5 -88.5
t-75.5 -226.5q2 -137 75.5 -225t201.5 -88z" />
    <glyph glyph-name="Otilde" unicode="&#xd5;" horiz-adv-x="785" 
d="M259 796q2 39 22 63t51 24q25 0 64.5 -20t57.5 -20q33 0 38 39h42q-2 -41 -21.5 -63t-51.5 -22q-26 0 -64.5 20t-57.5 20q-17 0 -26.5 -11.5t-10.5 -29.5h-43zM393 -17q-157 0 -248.5 107t-91.5 266q0 160 91.5 267.5t248.5 107.5t248 -107t91 -268q0 -159 -91 -266
t-248 -107zM393 43q128 0 202.5 88.5t73.5 224.5q-1 138 -75 226.5t-201 88.5q-128 0 -201.5 -88.5t-75.5 -226.5q2 -137 75.5 -225t201.5 -88z" />
    <glyph glyph-name="Odieresis" unicode="&#xd6;" horiz-adv-x="785" 
d="M301 798q-17 0 -29 12t-12 29q0 16 12 28t29 12t28.5 -11.5t11.5 -28.5t-11.5 -29t-28.5 -12zM485 798q-17 0 -29 12t-12 29t12 28.5t29 11.5t28.5 -11.5t11.5 -28.5t-11.5 -29t-28.5 -12zM393 -17q-157 0 -248.5 107t-91.5 266q0 160 91.5 267.5t248.5 107.5t248 -107
t91 -268q0 -159 -91 -266t-248 -107zM393 43q128 0 202.5 88.5t73.5 224.5q-1 138 -75 226.5t-201 88.5q-128 0 -201.5 -88.5t-75.5 -226.5q2 -137 75.5 -225t201.5 -88z" />
    <glyph glyph-name="multiply" unicode="&#xd7;" horiz-adv-x="522" 
d="M90 57l-33 33l171 181l-171 180l33 33l170 -181l171 181l34 -33l-172 -180l172 -181l-34 -33l-171 181z" />
    <glyph glyph-name="Oslash" unicode="&#xd8;" horiz-adv-x="790" 
d="M652 613q82 -103 82 -257q0 -159 -91 -266t-248 -107q-140 0 -231 89l-68 -76l-30 27l71 79q-82 102 -82 254q0 160 91.5 267.5t248.5 107.5q139 0 229 -88l69 77l31 -28zM118 356q2 -123 61 -207l404 448q-74 74 -188 74q-128 0 -201.5 -88.5t-75.5 -226.5zM395 43
q128 0 202.5 88.5t73.5 224.5q0 123 -61 209l-404 -447q73 -75 189 -75z" />
    <glyph glyph-name="Ugrave" unicode="&#xd9;" horiz-adv-x="708" 
d="M367 775l-120 131h73l92 -131h-45zM354 -17q-128 0 -195 75.5t-67 224.5v433h62v-433q0 -240 200 -240q199 0 199 240v433h63v-433q0 -149 -67.5 -224.5t-194.5 -75.5z" />
    <glyph glyph-name="Uacute" unicode="&#xda;" horiz-adv-x="708" 
d="M296 775l92 131h73l-119 -131h-46zM354 -17q-128 0 -195 75.5t-67 224.5v433h62v-433q0 -240 200 -240q199 0 199 240v433h63v-433q0 -149 -67.5 -224.5t-194.5 -75.5z" />
    <glyph glyph-name="Ucircumflex" unicode="&#xdb;" horiz-adv-x="708" 
d="M216 775l113 131h50l113 -131h-50l-90 87l-88 -87h-48zM354 -17q-128 0 -195 75.5t-67 224.5v433h62v-433q0 -240 200 -240q199 0 199 240v433h63v-433q0 -149 -67.5 -224.5t-194.5 -75.5z" />
    <glyph glyph-name="Udieresis" unicode="&#xdc;" horiz-adv-x="708" 
d="M262 798q-17 0 -29 12t-12 29q0 16 12 28t29 12q16 0 28 -11.5t12 -28.5t-11.5 -29t-28.5 -12zM446 798q-17 0 -29 12t-12 29t12 28.5t29 11.5q16 0 28 -11.5t12 -28.5t-11.5 -29t-28.5 -12zM354 -17q-128 0 -195 75.5t-67 224.5v433h62v-433q0 -240 200 -240
q199 0 199 240v433h63v-433q0 -149 -67.5 -224.5t-194.5 -75.5z" />
    <glyph glyph-name="Yacute" unicode="&#xdd;" horiz-adv-x="642" 
d="M263 775l92 131h73l-119 -131h-46zM289 0v292l-268 422h73l228 -362l229 362h71l-270 -421v-293h-63z" />
    <glyph glyph-name="Thorn" unicode="&#xde;" horiz-adv-x="638" 
d="M101 0v714h62v-148h223q105 0 160.5 -54.5t55.5 -150.5q0 -93 -59.5 -149t-163.5 -56h-216v-156h-62zM163 207h209q74 0 121 39.5t47 114.5q0 153 -168 153h-209v-307z" />
    <glyph glyph-name="germandbls" unicode="&#xdf;" horiz-adv-x="556" 
d="M80 0v509q0 104 57.5 160t144.5 56q88 0 142 -47.5t54 -132.5q0 -57 -30.5 -100.5t-78.5 -57.5q60 -12 99 -60t39 -119q0 -99 -58 -153.5t-174 -54.5h-56v53h57q79 0 125.5 38t46.5 118q0 76 -47.5 111t-125.5 35h-17v55h17q63 -1 103.5 34.5t40.5 99.5q0 59 -38 92.5
t-99 33.5q-60 0 -101 -39.5t-41 -117.5v-513h-60z" />
    <glyph glyph-name="agrave" unicode="&#xe0;" horiz-adv-x="530" 
d="M290 573h-41l-104 144h69zM201 -13q-68 0 -113 38t-45 106q0 127 172 161l114 23q34 6 44.5 17.5t10.5 35.5q0 104 -127 104q-131 0 -134 -109h-60q2 75 51.5 120t141.5 45q188 0 188 -175v-267q0 -36 34 -36h18v-50h-53q-55 0 -55 55v29q-58 -97 -187 -97zM213 42
q72 0 122.5 42.5t50.5 105.5v94q-15 -11 -52 -20l-97 -20q-66 -14 -98 -38t-32 -70q0 -44 27.5 -69t78.5 -25z" />
    <glyph glyph-name="aacute" unicode="&#xe1;" horiz-adv-x="530" 
d="M213 573l77 144h68l-104 -144h-41zM201 -13q-68 0 -113 38t-45 106q0 127 172 161l114 23q34 6 44.5 17.5t10.5 35.5q0 104 -127 104q-131 0 -134 -109h-60q2 75 51.5 120t141.5 45q188 0 188 -175v-267q0 -36 34 -36h18v-50h-53q-55 0 -55 55v29q-58 -97 -187 -97z
M213 42q72 0 122.5 42.5t50.5 105.5v94q-15 -11 -52 -20l-97 -20q-66 -14 -98 -38t-32 -70q0 -44 27.5 -69t78.5 -25z" />
    <glyph glyph-name="acircumflex" unicode="&#xe2;" horiz-adv-x="530" 
d="M126 574l108 143h50l107 -143h-50l-85 100l-83 -100h-47zM201 -13q-68 0 -113 38t-45 106q0 127 172 161l114 23q34 6 44.5 17.5t10.5 35.5q0 104 -127 104q-131 0 -134 -109h-60q2 75 51.5 120t141.5 45q188 0 188 -175v-267q0 -36 34 -36h18v-50h-53q-55 0 -55 55v29
q-58 -97 -187 -97zM213 42q72 0 122.5 42.5t50.5 105.5v94q-15 -11 -52 -20l-97 -20q-66 -14 -98 -38t-32 -70q0 -44 27.5 -69t78.5 -25z" />
    <glyph glyph-name="atilde" unicode="&#xe3;" horiz-adv-x="530" 
d="M122 612q1 39 20.5 62.5t51.5 23.5q25 0 64 -20t57 -20q33 0 38 40h42q-2 -42 -21.5 -64t-51.5 -22q-26 0 -63.5 20.5t-57.5 20.5q-17 0 -26.5 -12t-10.5 -29h-42zM201 -13q-68 0 -113 38t-45 106q0 127 172 161l114 23q34 6 44.5 17.5t10.5 35.5q0 104 -127 104
q-131 0 -134 -109h-60q2 75 51.5 120t141.5 45q188 0 188 -175v-267q0 -36 34 -36h18v-50h-53q-55 0 -55 55v29q-58 -97 -187 -97zM213 42q72 0 122.5 42.5t50.5 105.5v94q-15 -11 -52 -20l-97 -20q-66 -14 -98 -38t-32 -70q0 -44 27.5 -69t78.5 -25z" />
    <glyph glyph-name="adieresis" unicode="&#xe4;" horiz-adv-x="530" 
d="M177 619q-17 0 -29 12.5t-12 28.5t12 28t29 12t28.5 -12t11.5 -28q0 -17 -12 -29t-28 -12zM341 619q-17 0 -29 12.5t-12 28.5t12 28t29 12t29 -11.5t12 -28.5t-12 -29t-29 -12zM201 -13q-68 0 -113 38t-45 106q0 127 172 161l114 23q34 6 44.5 17.5t10.5 35.5
q0 104 -127 104q-131 0 -134 -109h-60q2 75 51.5 120t141.5 45q188 0 188 -175v-267q0 -36 34 -36h18v-50h-53q-55 0 -55 55v29q-58 -97 -187 -97zM213 42q72 0 122.5 42.5t50.5 105.5v94q-15 -11 -52 -20l-97 -20q-66 -14 -98 -38t-32 -70q0 -44 27.5 -69t78.5 -25z" />
    <glyph glyph-name="aring" unicode="&#xe5;" horiz-adv-x="530" 
d="M258 553q-41 0 -68 28t-27 70t27 70t68 28t68.5 -28t27.5 -70t-27.5 -70t-68.5 -28zM258 588q25 0 41.5 18t16.5 45t-16.5 44.5t-41.5 17.5t-41.5 -17.5t-16.5 -44.5t16.5 -45t41.5 -18zM201 -13q-68 0 -113 38t-45 106q0 127 172 161l114 23q34 6 44.5 17.5t10.5 35.5
q0 104 -127 104q-131 0 -134 -109h-60q2 75 51.5 120t141.5 45q188 0 188 -175v-267q0 -36 34 -36h18v-50h-53q-55 0 -55 55v29q-58 -97 -187 -97zM213 42q72 0 122.5 42.5t50.5 105.5v94q-15 -11 -52 -20l-97 -20q-66 -14 -98 -38t-32 -70q0 -44 27.5 -69t78.5 -25z" />
    <glyph glyph-name="ae" unicode="&#xe6;" horiz-adv-x="883" 
d="M782 241l-335 1v-3q1 -91 48 -143.5t124 -52.5q60 0 100 29t51 80h58q-14 -75 -70.5 -120t-139.5 -45q-70 0 -122 33t-80 94q-59 -127 -215 -127q-67 0 -112 38t-45 106q0 70 45 107t129 54l112 23q34 6 44.5 17.5t10.5 35.5q0 104 -127 104q-131 0 -134 -109h-60
q2 75 51.5 120t141.5 45q144 0 177 -100q66 100 184 100q105 0 163.5 -71t58.5 -190v-26h-58zM618 472q-70 0 -116.5 -48.5t-52.5 -128.5h332q-5 80 -47.5 128.5t-115.5 48.5zM388 190v94q-15 -11 -54 -20l-94 -20q-68 -15 -99.5 -38t-31.5 -70q0 -43 27 -68t77 -25
q72 0 123.5 42.5t51.5 104.5z" />
    <glyph glyph-name="ccedilla" unicode="&#xe7;" horiz-adv-x="531" 
d="M486 162q-9 -76 -57.5 -121.5t-125.5 -52.5l-30 -33l2 -1q11 4 30 4q37 0 58 -17t21 -48q0 -40 -29.5 -61.5t-75.5 -21.5q-59 2 -96 32l16 28q33 -24 74 -24q61 0 61 43q0 19 -12.5 28.5t-30.5 9.5q-30 0 -52 -10l-18 20l45 50q-101 4 -159 78t-58 188q0 122 61.5 198.5
t173.5 76.5q83 0 137.5 -47t62.5 -134h-59q-7 59 -44 92t-97 33q-89 0 -132.5 -62.5t-43.5 -156.5q0 -92 44 -151t126 -59q63 0 102 30.5t47 88.5h59z" />
    <glyph glyph-name="egrave" unicode="&#xe8;" horiz-adv-x="545" 
d="M309 573h-41l-104 144h69zM443 241l-335 1v-3q2 -91 49 -143.5t124 -52.5q60 0 99.5 29t50.5 80h58q-15 -75 -70.5 -120t-139.5 -45q-104 0 -167 71.5t-63 197.5q0 120 64.5 196t166.5 76q105 0 163.5 -71t58.5 -190q0 -18 -1 -26h-58zM279 472q-70 0 -116.5 -48.5
t-52.5 -128.5l332 -1q-4 80 -46.5 129t-116.5 49z" />
    <glyph glyph-name="eacute" unicode="&#xe9;" horiz-adv-x="545" 
d="M376 717l-104 -144h-41l77 144h68zM443 241l-335 1v-3q2 -91 49 -143.5t124 -52.5q60 0 99.5 29t50.5 80h58q-15 -75 -70.5 -120t-139.5 -45q-104 0 -167 71.5t-63 197.5q0 120 64.5 196t166.5 76q105 0 163.5 -71t58.5 -190q0 -18 -1 -26h-58zM279 472
q-70 0 -116.5 -48.5t-52.5 -128.5l332 -1q-4 80 -46.5 129t-116.5 49z" />
    <glyph glyph-name="ecircumflex" unicode="&#xea;" horiz-adv-x="545" 
d="M275 674l-83 -100h-47l108 143h50l107 -143h-50zM443 241l-335 1v-3q2 -91 49 -143.5t124 -52.5q60 0 99.5 29t50.5 80h58q-15 -75 -70.5 -120t-139.5 -45q-104 0 -167 71.5t-63 197.5q0 120 64.5 196t166.5 76q105 0 163.5 -71t58.5 -190q0 -18 -1 -26h-58zM279 472
q-70 0 -116.5 -48.5t-52.5 -128.5l332 -1q-4 80 -46.5 129t-116.5 49z" />
    <glyph glyph-name="edieresis" unicode="&#xeb;" horiz-adv-x="545" 
d="M196 619q-16 0 -28.5 12.5t-12.5 28.5t12 28t29 12q16 0 28 -12t12 -28q0 -17 -12 -29t-28 -12zM360 619q-16 0 -28.5 12.5t-12.5 28.5t12 28t29 12t29 -11.5t12 -28.5t-12 -29t-29 -12zM443 241l-335 1v-3q2 -91 49 -143.5t124 -52.5q60 0 99.5 29t50.5 80h58
q-15 -75 -70.5 -120t-139.5 -45q-104 0 -167 71.5t-63 197.5q0 120 64.5 196t166.5 76q105 0 163.5 -71t58.5 -190q0 -18 -1 -26h-58zM279 472q-70 0 -116.5 -48.5t-52.5 -128.5l332 -1q-4 80 -46.5 129t-116.5 49z" />
    <glyph glyph-name="igrave" unicode="&#xec;" horiz-adv-x="218" 
d="M141 573h-41l-104 144h69zM80 0v515h58v-515h-58z" />
    <glyph glyph-name="iacute" unicode="&#xed;" horiz-adv-x="218" 
d="M63 573l77 144h68l-104 -144h-41zM80 0v515h58v-515h-58z" />
    <glyph glyph-name="icircumflex" unicode="&#xee;" horiz-adv-x="218" 
d="M-24 574l108 143h50l107 -143h-50l-85 100l-83 -100h-47zM80 0v515h58v-515h-58z" />
    <glyph glyph-name="idieresis" unicode="&#xef;" horiz-adv-x="218" 
d="M27 619q-17 0 -29 12.5t-12 28.5t12 28t29 12t28.5 -12t11.5 -28q0 -17 -12 -29t-28 -12zM191 619q-17 0 -29 12.5t-12 28.5t12 28t29 12t29 -11.5t12 -28.5t-12 -29t-29 -12zM80 0v515h58v-515h-58z" />
    <glyph glyph-name="eth" unicode="&#xf0;" horiz-adv-x="569" 
d="M518 249v-3q0 -111 -64.5 -185t-171.5 -74q-105 0 -169.5 73.5t-64.5 185.5q0 110 64.5 183.5t170.5 73.5q71 0 125 -34q-58 98 -121 150l-111 -64l-19 33l101 57q-37 30 -74 51l27 40q63 -34 97 -64l114 65l20 -32l-104 -60q92 -92 136 -187.5t44 -208.5zM283 41
q80 0 128.5 57t48.5 148q0 89 -48.5 146.5t-128.5 57.5t-128.5 -57.5t-48.5 -146.5q0 -91 48 -148t129 -57z" />
    <glyph glyph-name="ntilde" unicode="&#xf1;" horiz-adv-x="558" 
d="M144 612q1 39 20.5 62.5t51.5 23.5q25 0 64 -20t57 -20q33 0 38 40h42q-2 -42 -21.5 -64t-51.5 -22q-26 0 -64 20.5t-57 20.5q-17 0 -26.5 -12t-10.5 -29h-42zM80 0v515h57v-85q21 45 63 71.5t94 26.5q91 0 140 -55.5t49 -154.5v-318h-58l1 308q0 78 -36 121.5t-101 43.5
t-108 -50t-43 -123v-300h-58z" />
    <glyph glyph-name="ograve" unicode="&#xf2;" horiz-adv-x="566" 
d="M313 573h-41l-104 144h69zM282 -13q-105 0 -169.5 77t-64.5 194q0 114 65 192t170 78t170 -77t65 -193t-65 -193.5t-171 -77.5zM283 42q80 0 128.5 60.5t48.5 155.5q0 93 -49 154t-128 61q-80 0 -128.5 -60.5t-48.5 -154.5q0 -96 48.5 -156t128.5 -60z" />
    <glyph glyph-name="oacute" unicode="&#xf3;" horiz-adv-x="566" 
d="M236 573l77 144h68l-104 -144h-41zM282 -13q-105 0 -169.5 77t-64.5 194q0 114 65 192t170 78t170 -77t65 -193t-65 -193.5t-171 -77.5zM283 42q80 0 128.5 60.5t48.5 155.5q0 93 -49 154t-128 61q-80 0 -128.5 -60.5t-48.5 -154.5q0 -96 48.5 -156t128.5 -60z" />
    <glyph glyph-name="ocircumflex" unicode="&#xf4;" horiz-adv-x="566" 
d="M149 574l108 143h50l107 -143h-50l-85 100l-83 -100h-47zM282 -13q-105 0 -169.5 77t-64.5 194q0 114 65 192t170 78t170 -77t65 -193t-65 -193.5t-171 -77.5zM283 42q80 0 128.5 60.5t48.5 155.5q0 93 -49 154t-128 61q-80 0 -128.5 -60.5t-48.5 -154.5q0 -96 48.5 -156
t128.5 -60z" />
    <glyph glyph-name="otilde" unicode="&#xf5;" horiz-adv-x="566" 
d="M145 612q1 39 20.5 62.5t51.5 23.5q25 0 64 -20t57 -20q33 0 38 40h42q-2 -42 -21.5 -64t-51.5 -22q-25 0 -63.5 20.5t-57.5 20.5q-17 0 -26.5 -12t-10.5 -29h-42zM282 -13q-105 0 -169.5 77t-64.5 194q0 114 65 192t170 78t170 -77t65 -193t-65 -193.5t-171 -77.5z
M283 42q80 0 128.5 60.5t48.5 155.5q0 93 -49 154t-128 61q-80 0 -128.5 -60.5t-48.5 -154.5q0 -96 48.5 -156t128.5 -60z" />
    <glyph glyph-name="odieresis" unicode="&#xf6;" horiz-adv-x="566" 
d="M200 619q-16 0 -28.5 12.5t-12.5 28.5t12 28t29 12q16 0 28 -12t12 -28q0 -17 -12 -29t-28 -12zM364 619q-16 0 -28.5 12.5t-12.5 28.5t12 28t29 12t29 -11.5t12 -28.5t-12 -29t-29 -12zM282 -13q-105 0 -169.5 77t-64.5 194q0 114 65 192t170 78t170 -77t65 -193
t-65 -193.5t-171 -77.5zM283 42q80 0 128.5 60.5t48.5 155.5q0 93 -49 154t-128 61q-80 0 -128.5 -60.5t-48.5 -154.5q0 -96 48.5 -156t128.5 -60z" />
    <glyph glyph-name="divide" unicode="&#xf7;" horiz-adv-x="612" 
d="M306 427q-24 0 -38.5 15.5t-14.5 38.5q0 24 15.5 39.5t37.5 15.5q21 0 37 -16t16 -39t-14 -38.5t-39 -15.5zM66 247v47h480v-47h-480zM306 5q-24 0 -38.5 16t-14.5 39t15.5 38.5t37.5 15.5q21 0 37 -16t16 -38q0 -23 -14.5 -39t-38.5 -16z" />
    <glyph glyph-name="oslash" unicode="&#xf8;" horiz-adv-x="572" 
d="M530 496l-59 -64q50 -73 50 -174q0 -116 -65 -193.5t-171 -77.5q-99 0 -163 70l-55 -59l-23 21l58 63q-51 71 -51 176q0 114 65 192t170 78q99 0 164 -70l56 60zM109 258q0 -76 33 -133l269 291q-47 57 -125 57q-80 0 -128.5 -60.5t-48.5 -154.5zM463 258q0 74 -33 131
l-270 -290q49 -57 126 -57q80 0 128.5 60.5t48.5 155.5z" />
    <glyph glyph-name="ugrave" unicode="&#xf9;" horiz-adv-x="555" 
d="M308 573h-41l-104 144h69zM254 -13q-83 0 -131 51t-48 144v333h58l-1 -322q0 -77 37 -113.5t97 -36.5q73 0 112 45.5t39 118.5v308h58v-515h-57v68q-18 -36 -62 -58.5t-102 -22.5z" />
    <glyph glyph-name="uacute" unicode="&#xfa;" horiz-adv-x="555" 
d="M230 573l77 144h68l-104 -144h-41zM254 -13q-83 0 -131 51t-48 144v333h58l-1 -322q0 -77 37 -113.5t97 -36.5q73 0 112 45.5t39 118.5v308h58v-515h-57v68q-18 -36 -62 -58.5t-102 -22.5z" />
    <glyph glyph-name="ucircumflex" unicode="&#xfb;" horiz-adv-x="555" 
d="M144 574l108 143h50l107 -143h-50l-85 100l-83 -100h-47zM254 -13q-83 0 -131 51t-48 144v333h58l-1 -322q0 -77 37 -113.5t97 -36.5q73 0 112 45.5t39 118.5v308h58v-515h-57v68q-18 -36 -62 -58.5t-102 -22.5z" />
    <glyph glyph-name="udieresis" unicode="&#xfc;" horiz-adv-x="555" 
d="M195 619q-17 0 -29 12.5t-12 28.5t12 28t29 12t28.5 -12t11.5 -28q0 -17 -12 -29t-28 -12zM359 619q-17 0 -29 12.5t-12 28.5t12 28t29 12t29 -11.5t12 -28.5t-12 -29t-29 -12zM254 -13q-83 0 -131 51t-48 144v333h58l-1 -322q0 -77 37 -113.5t97 -36.5q73 0 112 45.5
t39 118.5v308h58v-515h-57v68q-18 -36 -62 -58.5t-102 -22.5z" />
    <glyph glyph-name="yacute" unicode="&#xfd;" horiz-adv-x="498" 
d="M206 573l77 144h68l-104 -144h-41zM64 -210v55h74q47 0 68 40q20 33 20 56q0 19 -16 62l-183 512h66l94 -279l74 -216l68 219l82 276h63l-202 -620q-18 -58 -47.5 -81.5t-78.5 -23.5h-82z" />
    <glyph glyph-name="thorn" unicode="&#xfe;" horiz-adv-x="580" 
d="M312 528q100 0 159.5 -75t59.5 -194q0 -120 -61 -196t-160 -76q-119 0 -173 95l1 -292h-58v927h54v-297q58 108 178 108zM307 42q75 0 120.5 60.5t45.5 156.5q0 93 -45 153.5t-120 60.5t-123 -59.5t-48 -155.5q0 -102 47 -159t123 -57z" />
    <glyph glyph-name="ydieresis" unicode="&#xff;" horiz-adv-x="498" 
d="M170 619q-16 0 -28.5 12.5t-12.5 28.5t12 28t29 12q16 0 28 -12t12 -28q0 -17 -12 -29t-28 -12zM334 619q-16 0 -28.5 12.5t-12.5 28.5t12 28t29 12t29 -11.5t12 -28.5t-12 -29t-29 -12zM64 -210v55h74q47 0 68 40q20 33 20 56q0 19 -16 62l-183 512h66l94 -279l74 -216
l68 219l82 276h63l-202 -620q-18 -58 -47.5 -81.5t-78.5 -23.5h-82z" />
    <glyph glyph-name="dotlessi" unicode="&#x131;" horiz-adv-x="218" 
d="M80 0v515h58v-515h-58z" />
    <glyph glyph-name="Ldot" unicode="&#x13f;" horiz-adv-x="558" 
d="M101 0v716h62v-656h375v-60h-437zM415 335q-20 0 -34 14t-14 35q0 20 14 34t34 14t33.5 -14t13.5 -34t-14 -34.5t-33 -14.5z" />
    <glyph glyph-name="ldot" unicode="&#x140;" horiz-adv-x="254" 
d="M163 0q-85 0 -85 80v637h57v-629q0 -38 39 -38h32v-50h-43zM232 330q-20 0 -34 14t-14 35q0 20 14 34t34 14t33.5 -14t13.5 -34t-14 -34.5t-33 -14.5z" />
    <glyph glyph-name="Lslash" unicode="&#x141;" horiz-adv-x="573" 
d="M178 60h375v-60h-437v303l-94 -70v52l94 69v362h62v-316l120 89v-51l-120 -89v-289z" />
    <glyph glyph-name="lslash" unicode="&#x142;" horiz-adv-x="274" 
d="M235 433l-75 -65v-280q0 -38 39 -38h32v-50h-43q-85 0 -85 80v239l-61 -52v48l61 53v349h57v-300l75 65v-49z" />
    <glyph glyph-name="OE" unicode="&#x152;" horiz-adv-x="1080" 
d="M381 -17q-101 0 -177 51t-113.5 134.5t-37.5 185.5q0 104 37 188.5t113 136.5t178 52q121 0 197 -75v60h448v-58h-385v-261h348v-57h-348v-283h389v-57h-452v58q-83 -75 -197 -75zM381 43q128 0 197 113v402q-73 113 -197 113q-121 0 -191.5 -87.5t-72.5 -229.5
q2 -136 72 -223.5t192 -87.5z" />
    <glyph glyph-name="oe" unicode="&#x153;" horiz-adv-x="936" 
d="M276 -13q-107 0 -167 78t-60 193q0 113 59.5 191.5t167.5 78.5q72 0 123.5 -37t75.5 -101q51 135 198 138q105 1 162.5 -71.5t57.5 -186.5q0 -21 -1 -31h-387q2 -93 46 -144.5t123 -51.5q64 0 102.5 33t49.5 88h57q-15 -81 -70 -129t-140 -48q-73 0 -125 35t-75 99
q-54 -134 -197 -134zM276 42q84 0 127 60t43 156q0 94 -43.5 154.5t-126.5 60.5q-81 0 -125 -61t-44 -154t44 -154.5t125 -61.5zM506 292h327q-3 79 -43.5 129.5t-116.5 50.5q-77 0 -119.5 -48.5t-47.5 -131.5z" />
    <glyph glyph-name="Scaron" unicode="&#x160;" horiz-adv-x="621" 
d="M287 775l-109 131h50l87 -92l88 92h46l-110 -131h-52zM314 -17q-124 0 -195 60t-70 180h61q-1 -94 53.5 -138.5t152.5 -44.5q88 0 139 34.5t51 104.5q0 19 -4 35.5t-14 30t-18.5 23t-27.5 19.5t-28.5 15.5t-35 14l-34.5 11.5t-38 11q-55 15 -90.5 29.5t-72 37.5t-54.5 57
t-18 79q0 92 68.5 140.5t166.5 48.5q106 0 176.5 -53.5t74.5 -167.5h-61q-3 85 -56.5 124.5t-133.5 39.5q-75 0 -124 -30.5t-49 -96.5q0 -59 45.5 -90t151.5 -63q49 -15 74 -23.5t62 -27t55 -37.5t32 -50t14 -70q0 -96 -71 -149.5t-182 -53.5z" />
    <glyph glyph-name="scaron" unicode="&#x161;" horiz-adv-x="482" 
d="M214 574l-107 141h50l85 -103l83 103h47l-106 -141h-52zM241 -13q-90 0 -144 42t-54 126h59q2 -56 38.5 -85t101.5 -29q62 0 98.5 22.5t36.5 67.5q0 34 -21 53t-74 37l-82 27q-34 11 -53 19.5t-42 24.5t-33.5 39.5t-10.5 55.5q0 64 49 102.5t130 38.5q86 0 136.5 -40
t51.5 -125h-60q-3 111 -129 111q-62 0 -90.5 -24t-28.5 -59t21 -52t74 -35l96 -32q64 -22 93.5 -52t29.5 -83q0 -77 -55 -113.5t-138 -36.5z" />
    <glyph glyph-name="Ydieresis" unicode="&#x178;" horiz-adv-x="642" 
d="M230 798q-17 0 -29 12t-12 29q0 16 12 28t29 12q16 0 28 -11.5t12 -28.5t-11.5 -29t-28.5 -12zM414 798q-17 0 -29 12t-12 29t12 28.5t29 11.5q16 0 28 -11.5t12 -28.5t-11.5 -29t-28.5 -12zM289 0v292l-268 422h73l228 -362l229 362h71l-270 -421v-293h-63z" />
    <glyph glyph-name="Zcaron" unicode="&#x17d;" horiz-adv-x="598" 
d="M274 775l-109 131h50l87 -92l88 92h46l-110 -131h-52zM32 0v60l336 452q38 51 113 144h-432v58h503v-60l-348 -467q-81 -106 -101 -129h462v-58h-533z" />
    <glyph glyph-name="zcaron" unicode="&#x17e;" horiz-adv-x="478" 
d="M207 574l-107 141h50l85 -103l83 103h47l-106 -141h-52zM34 0v49l324 415h-311v51h382v-48l-325 -416h342v-51h-412z" />
    <glyph glyph-name="florin" unicode="&#x192;" horiz-adv-x="463" 
d="M-41 -158v51h67q41 0 61.5 24t29.5 71l71 394h-105l10 50h105l29 156q13 68 48 97t101 29h66v-53h-63q-42 0 -63 -19t-30 -66l-28 -144h113l-10 -50h-112l-71 -395q-13 -71 -46 -108t-100 -37h-73z" />
    <glyph glyph-name="circumflex" unicode="&#x2c6;" horiz-adv-x="285" 
d="M10 574l108 143h50l107 -143h-50l-85 100l-83 -100h-47z" />
    <glyph glyph-name="caron" unicode="&#x2c7;" horiz-adv-x="285" 
d="M117 574l-107 141h50l85 -103l83 103h47l-106 -141h-52z" />
    <glyph glyph-name="uni02C9" unicode="&#x2c9;" horiz-adv-x="232" 
d="M-17 633v38h266v-38h-266z" />
    <glyph glyph-name="breve" unicode="&#x2d8;" horiz-adv-x="282" 
d="M138 589q-55 0 -89.5 32.5t-38.5 92.5h39q9 -85 89 -85q40 0 66 21t31 64h37q-6 -60 -41.5 -92.5t-92.5 -32.5z" />
    <glyph glyph-name="dotaccent" unicode="&#x2d9;" horiz-adv-x="111" 
d="M55 620q-18 0 -31.5 13t-13.5 32t13.5 32t31.5 13q19 0 32.5 -13t13.5 -32t-13.5 -32t-32.5 -13z" />
    <glyph glyph-name="ring" unicode="&#x2da;" horiz-adv-x="211" 
d="M114 553q-41 0 -68 28t-27 70t27 70t68 28t68.5 -28t27.5 -70t-27.5 -70t-68.5 -28zM114 588q25 0 41.5 18t16.5 45t-16.5 44.5t-41.5 17.5t-41.5 -17.5t-16.5 -44.5t16.5 -45t41.5 -18z" />
    <glyph glyph-name="ogonek" unicode="&#x2db;" horiz-adv-x="203" 
d="M94 -200q-37 0 -60.5 18.5t-23.5 51.5q0 69 106 130h34q-89 -65 -89 -119q0 -20 12.5 -32.5t34.5 -12.5q40 0 61 29l24 -16q-38 -49 -99 -49z" />
    <glyph glyph-name="tilde" unicode="&#x2dc;" horiz-adv-x="290" 
d="M9 612q1 39 20.5 62.5t51.5 23.5q25 0 64 -20t57 -20q33 0 38 40h42q-2 -42 -21.5 -64t-51.5 -22q-25 0 -63.5 20.5t-57.5 20.5q-17 0 -26.5 -12t-10.5 -29h-42z" />
    <glyph glyph-name="hungarumlaut" unicode="&#x2dd;" horiz-adv-x="325" 
d="M15 573l74 144h69l-103 -144h-40zM161 573l80 144h69l-108 -144h-41z" />
    <glyph glyph-name="gravecomb" unicode="&#x300;" 
d="M-22 573h-41l-104 144h69z" />
    <glyph glyph-name="acutecomb" unicode="&#x301;" 
d="M-189 573l77 144h68l-104 -144h-41z" />
    <glyph glyph-name="uni0302" unicode="&#x302;" 
d="M-275 574l108 143h50l107 -143h-50l-85 100l-83 -100h-47z" />
    <glyph glyph-name="tildecomb" unicode="&#x303;" 
d="M-280 612q1 39 20.5 62.5t51.5 23.5q25 0 64 -20t57 -20q33 0 38 40h42q-2 -42 -21.5 -64t-51.5 -22q-26 0 -64 20.5t-57 20.5q-17 0 -26.5 -12t-10.5 -29h-42z" />
    <glyph glyph-name="uni0304" unicode="&#x304;" 
d="M-275 633v38h265v-38h-265z" />
    <glyph glyph-name="uni0306" unicode="&#x306;" 
d="M-144 589q-55 0 -89.5 32.5t-38.5 92.5h39q9 -85 89 -85q40 0 66 21t31 64h37q-6 -60 -41.5 -92.5t-92.5 -32.5z" />
    <glyph glyph-name="uni0307" unicode="&#x307;" 
d="M-111 620q-18 0 -31.5 13t-13.5 32t13.5 32t31.5 13q19 0 32.5 -13t13.5 -32t-13.5 -32t-32.5 -13z" />
    <glyph glyph-name="uni0308" unicode="&#x308;" 
d="M-215 619q-17 0 -29 12.5t-12 28.5t12 28t29 12t28.5 -12t11.5 -28q0 -17 -12 -29t-28 -12zM-51 619q-17 0 -29 12.5t-12 28.5t12 28t29 12t29 -11.5t12 -28.5t-12 -29t-29 -12z" />
    <glyph glyph-name="uni030A" unicode="&#x30a;" 
d="M-106 553q-41 0 -68 28t-27 70t27 70t68 28t68.5 -28t27.5 -70t-27.5 -70t-68.5 -28zM-106 588q25 0 41.5 18t16.5 45t-16.5 44.5t-41.5 17.5t-41.5 -17.5t-16.5 -44.5t16.5 -45t41.5 -18z" />
    <glyph glyph-name="uni030B" unicode="&#x30b;" 
d="M-310 573l74 144h69l-103 -144h-40zM-164 573l80 144h69l-108 -144h-41z" />
    <glyph glyph-name="uni030C" unicode="&#x30c;" 
d="M-168 574l-107 141h50l85 -103l83 103h47l-106 -141h-52z" />
    <glyph glyph-name="uni0326" unicode="&#x326;" 
d="M-177 -229v33q21 2 35.5 15t15.5 31h-2q-21 0 -35 13t-14 35q0 21 14 34t34 13q50 0 50 -62q0 -50 -27.5 -80t-70.5 -32z" />
    <glyph glyph-name="uni0327" unicode="&#x327;" 
d="M-132 -190q-59 2 -96 32l16 28q33 -24 74 -24q61 0 61 43q0 19 -12.5 28.5t-30.5 9.5q-30 0 -52 -10l-18 20l57 63h36l-41 -45l2 -1q11 4 30 4q37 0 58 -17t21 -48q0 -40 -29.5 -61.5t-75.5 -21.5z" />
    <glyph glyph-name="uni0328" unicode="&#x328;" 
d="M-109 -200q-37 0 -60.5 18.5t-23.5 51.5q0 69 106 130h34q-89 -65 -89 -119q0 -20 12.5 -32.5t34.5 -12.5q40 0 61 29l24 -16q-38 -49 -99 -49z" />
    <glyph glyph-name="uni0335" unicode="&#x335;" 
d="M-301 595v45h291v-45h-291z" />
    <glyph glyph-name="uni0336" unicode="&#x336;" 
d="M-589 532h533v-37h-533v37z" />
    <glyph glyph-name="uni0337" unicode="&#x337;" 
d="M-203 288v48l193 167v-49z" />
    <glyph glyph-name="uni0338" unicode="&#x338;" 
d="M-507 -8l-23 21l462 499l24 -22z" />
    <glyph glyph-name="uni0394" unicode="&#x394;" horiz-adv-x="633" 
d="M23 0l266 712h50l274 -712h-590zM98 51h437l-221 586z" />
    <glyph glyph-name="uni03A9" unicode="&#x3a9;" horiz-adv-x="706" 
d="M58 0v50h182v79q-88 32 -135 109.5t-47 175.5q0 130 85.5 218.5t209.5 88.5q125 0 210.5 -88t85.5 -218q0 -100 -46.5 -176t-135.5 -110v-79h181v-50h-226v168q81 20 124.5 86.5t43.5 159.5q0 105 -67.5 178.5t-168.5 73.5t-169.5 -74t-68.5 -178q0 -94 44.5 -161
t126.5 -85v-168h-229z" />
    <glyph glyph-name="uni03BC" unicode="&#x3bc;" horiz-adv-x="560" 
d="M80 -178v693h58v-322q0 -77 37 -113.5t96 -36.5q75 0 113 46t38 118v308h58v-515h-56v68q-18 -35 -61 -58t-98 -23q-89 0 -127 65v-230h-58z" />
    <glyph glyph-name="pi" unicode="&#x3c0;" horiz-adv-x="568" 
d="M460 -5q-44 0 -58 27.5t-14 78.5v314h-222v-415h-53v415h-82v49h490v-49h-81v-305q0 -21 1 -32.5t10 -24t27 -12.5q22 0 40 15v-44q-29 -17 -58 -17z" />
    <glyph glyph-name="endash" unicode="&#x2013;" horiz-adv-x="616" 
d="M70 244v51h475v-51h-475z" />
    <glyph glyph-name="emdash" unicode="&#x2014;" horiz-adv-x="844" 
d="M70 244v51h703v-51h-703z" />
    <glyph glyph-name="quoteleft" unicode="&#x2018;" horiz-adv-x="218" 
d="M109 509q-51 0 -51 65q0 52 26.5 89.5t70.5 45.5v-34q-23 -5 -38 -26t-14 -48h5q19 0 32.5 -12.5t13.5 -33.5q0 -20 -13 -33t-32 -13z" />
    <glyph glyph-name="quoteright" unicode="&#x2019;" horiz-adv-x="218" 
d="M114 709q51 0 51 -65q0 -52 -26.5 -89.5t-70.5 -45.5v34q23 5 38 26t14 48h-5q-19 0 -32.5 12.5t-13.5 33.5q0 20 13 33t32 13z" />
    <glyph glyph-name="quotesinglbase" unicode="&#x201a;" horiz-adv-x="230" 
d="M112 84q51 0 51 -65q0 -52 -26.5 -89.5t-70.5 -45.5v34q23 5 38 26t14 48h-5q-19 0 -32.5 12.5t-13.5 33.5q0 20 13 33t32 13z" />
    <glyph glyph-name="quotedblleft" unicode="&#x201c;" horiz-adv-x="356" 
d="M109 509q-51 0 -51 65q0 52 26.5 89.5t70.5 45.5v-34q-23 -5 -38 -26t-14 -48h5q19 0 32.5 -12.5t13.5 -33.5q0 -20 -13 -33t-32 -13zM247 509q-51 0 -51 65q0 52 26.5 89.5t70.5 45.5v-34q-23 -5 -38 -26t-14 -48h5q19 0 32.5 -12.5t13.5 -33.5q0 -20 -13 -33t-32 -13z
" />
    <glyph glyph-name="quotedblright" unicode="&#x201d;" horiz-adv-x="356" 
d="M114 709q51 0 51 -65q0 -52 -26.5 -89.5t-70.5 -45.5v34q23 5 38 26t14 48h-5q-19 0 -32.5 12.5t-13.5 33.5q0 20 13 33t32 13zM252 709q51 0 51 -65q0 -52 -26.5 -89.5t-70.5 -45.5v34q23 5 38 26t14 48h-5q-19 0 -32.5 12.5t-13.5 33.5q0 20 13 33t32 13z" />
    <glyph glyph-name="quotedblbase" unicode="&#x201e;" horiz-adv-x="370" 
d="M112 84q51 0 51 -65q0 -52 -26.5 -89.5t-70.5 -45.5v34q23 5 38 26t14 48h-5q-19 0 -32.5 12.5t-13.5 33.5q0 20 13 33t32 13zM252 84q51 0 51 -65q0 -52 -26.5 -89.5t-70.5 -45.5v34q23 5 38 26t14 48h-5q-19 0 -32.5 12.5t-13.5 33.5q0 20 13 33t32 13z" />
    <glyph glyph-name="dagger" unicode="&#x2020;" horiz-adv-x="563" 
d="M253 -148v583h-191v50h191v229h56v-229h191v-50h-191v-583h-56z" />
    <glyph glyph-name="daggerdbl" unicode="&#x2021;" horiz-adv-x="563" 
d="M253 -148v196h-191v50h191v369h-191v50h191v197h56v-197h191v-50h-191v-369h191v-50h-191v-196h-56z" />
    <glyph glyph-name="bullet" unicode="&#x2022;" horiz-adv-x="443" 
d="M222 164q-60 0 -102 44.5t-42 107.5t42 107t102 44q59 0 101 -44t42 -107t-42 -107.5t-101 -44.5z" />
    <glyph glyph-name="ellipsis" unicode="&#x2026;" horiz-adv-x="674" 
d="M110 -4q-20 0 -33.5 13.5t-13.5 33.5t13.5 33t33.5 13q19 0 32.5 -13.5t13.5 -32.5q0 -20 -13.5 -33.5t-32.5 -13.5zM339 -4q-20 0 -33.5 13.5t-13.5 33.5t13.5 33t33.5 13q19 0 32.5 -13.5t13.5 -32.5q0 -20 -13.5 -33.5t-32.5 -13.5zM565 -4q-20 0 -33.5 13.5
t-13.5 33.5t13.5 33t33.5 13q19 0 32.5 -13.5t13.5 -32.5q0 -20 -13.5 -33.5t-32.5 -13.5z" />
    <glyph glyph-name="perthousand" unicode="&#x2030;" horiz-adv-x="1184" 
d="M159 -31l415 748h46l-415 -748h-46zM208 348q-76 0 -124.5 51.5t-48.5 124.5q0 74 49.5 126t123.5 52q76 0 125.5 -51.5t49.5 -125.5q0 -73 -50 -125t-125 -52zM208 396q55 0 90.5 38t35.5 90q0 56 -34.5 93.5t-91.5 37.5q-56 0 -90.5 -38t-34.5 -93q0 -53 35 -90.5
t90 -37.5zM581 -8q-77 0 -125.5 51.5t-48.5 124.5q0 74 49.5 126t124.5 52t124.5 -51.5t49.5 -126.5q0 -73 -49.5 -124.5t-124.5 -51.5zM977 -8q-76 0 -124.5 51.5t-48.5 124.5q0 75 49 126.5t124 51.5t124.5 -51.5t49.5 -126.5q0 -73 -49.5 -124.5t-124.5 -51.5zM581 40
q54 0 90 38t36 90q0 56 -35 93t-91 37t-91 -37.5t-35 -92.5q0 -53 35 -90.5t91 -37.5zM977 40q54 0 90 38t36 90q0 56 -35 93t-91 37t-91 -37.5t-35 -92.5q0 -53 35 -90.5t91 -37.5z" />
    <glyph glyph-name="guilsinglleft" unicode="&#x2039;" horiz-adv-x="243" 
d="M168 114l-114 129v53l114 128v-60l-79 -95l79 -95v-60z" />
    <glyph glyph-name="guilsinglright" unicode="&#x203a;" horiz-adv-x="243" 
d="M75 114v60l79 95l-79 95v60l114 -128v-53z" />
    <glyph glyph-name="fraction" unicode="&#x2044;" horiz-adv-x="482" 
d="M1 -30l432 747h49l-432 -747h-49z" />
    <glyph glyph-name="Euro" unicode="&#x20ac;" horiz-adv-x="617" 
d="M341 -17q-98 0 -161 77t-73 211h-64v41h62q-1 15 -1 42q0 28 1 39h-62v40h65q14 135 75.5 211.5t162.5 76.5q95 0 151.5 -55t66.5 -163h-59q-11 81 -53 122t-107 41q-75 0 -118 -62t-53 -171h264v-40h-266v-39q0 -30 1 -42h265v-41h-264q8 -108 53 -169.5t114 -61.5
q146 0 165 183h58q-10 -116 -68 -178t-155 -62z" />
    <glyph glyph-name="trademark" unicode="&#x2122;" horiz-adv-x="913" 
d="M166 302v369h-133v41h315v-41h-132v-369h-50zM425 302v410h58l146 -215l145 215h55v-410h-48v339l-135 -201h-38l-134 201l-1 -339h-48z" />
    <glyph glyph-name="minus" unicode="&#x2212;" horiz-adv-x="617" 
d="M74 247v47h469v-47h-469z" />
    <glyph glyph-name="uniF004" unicode="&#xf004;" horiz-adv-x="250" 
d="M75 -229v33q21 2 35.5 15t14.5 31h-2q-21 0 -34.5 13t-13.5 34q0 22 14 35t34 13q50 0 50 -61q0 -52 -27 -81.5t-71 -31.5z" />
    <glyph glyph-name="uniF6BE" unicode="&#xf6be;" horiz-adv-x="226" 
d="M-32 -210v56h57q35 0 49 13t14 52v604h58v-613q0 -62 -27.5 -87t-83.5 -25h-67z" />
    <glyph glyph-name="uniF8FF" unicode="&#xf8ff;" horiz-adv-x="894" 
d="M239 717h372v-120h-246v-189q40 -14 95.5 -43.5t97.5 -53.5t96.5 -43t102.5 -19l47 4q-2 -4 -8 -9t-30.5 -14t-58.5 -9q-125 0 -342 113v-334h-126v386q-24 10 -52 10q-34 0 -56 -14.5t-22 -42.5q0 -19 10 -35t27 -22q-26 1 -41 18t-15 45q0 40 33.5 65t92.5 25
q14 0 23 -2v284z" />
    <glyph glyph-name="a.ss01" horiz-adv-x="583" 
d="M445 515h58v-515h-58v84q-57 -97 -173 -97q-104 0 -163.5 75t-59.5 195q0 119 61.5 195t165.5 76q114 0 169 -91v78zM275 42q78 0 124.5 59t46.5 158q0 95 -45 154.5t-123 59.5q-77 0 -122.5 -61t-45.5 -155q0 -93 45 -154t120 -61z" />
    <glyph glyph-name="aacute.ss01" horiz-adv-x="583" 
d="M389 717l-104 -144h-41l77 144h68zM445 515h58v-515h-58v84q-57 -97 -173 -97q-104 0 -163.5 75t-59.5 195q0 119 61.5 195t165.5 76q114 0 169 -91v78zM275 42q78 0 124.5 59t46.5 158q0 95 -45 154.5t-123 59.5q-77 0 -122.5 -61t-45.5 -155q0 -93 45 -154t120 -61z
" />
    <glyph glyph-name="acircumflex.ss01" horiz-adv-x="583" 
d="M287 674l-83 -100h-47l108 143h50l107 -143h-50zM445 515h58v-515h-58v84q-57 -97 -173 -97q-104 0 -163.5 75t-59.5 195q0 119 61.5 195t165.5 76q114 0 169 -91v78zM275 42q78 0 124.5 59t46.5 158q0 95 -45 154.5t-123 59.5q-77 0 -122.5 -61t-45.5 -155
q0 -93 45 -154t120 -61z" />
    <glyph glyph-name="adieresis.ss01" horiz-adv-x="583" 
d="M208 619q-16 0 -28.5 12.5t-12.5 28.5t12 28t29 12q16 0 28 -12t12 -28q0 -17 -12 -29t-28 -12zM372 619q-16 0 -28.5 12.5t-12.5 28.5t12 28t29 12t29 -11.5t12 -28.5t-12 -29t-29 -12zM445 515h58v-515h-58v84q-57 -97 -173 -97q-104 0 -163.5 75t-59.5 195
q0 119 61.5 195t165.5 76q114 0 169 -91v78zM275 42q78 0 124.5 59t46.5 158q0 95 -45 154.5t-123 59.5q-77 0 -122.5 -61t-45.5 -155q0 -93 45 -154t120 -61z" />
    <glyph glyph-name="agrave.ss01" horiz-adv-x="583" 
d="M321 573h-41l-104 144h69zM445 515h58v-515h-58v84q-57 -97 -173 -97q-104 0 -163.5 75t-59.5 195q0 119 61.5 195t165.5 76q114 0 169 -91v78zM275 42q78 0 124.5 59t46.5 158q0 95 -45 154.5t-123 59.5q-77 0 -122.5 -61t-45.5 -155q0 -93 45 -154t120 -61z" />
    <glyph glyph-name="aring.ss01" horiz-adv-x="583" 
d="M290 553q-41 0 -68 28t-27 70t27 70t68 28t68.5 -28t27.5 -70t-27.5 -70t-68.5 -28zM290 713q-25 0 -41.5 -17.5t-16.5 -44.5t16.5 -45t41.5 -18t41.5 18t16.5 45t-16.5 44.5t-41.5 17.5zM445 515h58v-515h-58v84q-57 -97 -173 -97q-104 0 -163.5 75t-59.5 195
q0 119 61.5 195t165.5 76q114 0 169 -91v78zM275 42q78 0 124.5 59t46.5 158q0 95 -45 154.5t-123 59.5q-77 0 -122.5 -61t-45.5 -155q0 -93 45 -154t120 -61z" />
    <glyph glyph-name="atilde.ss01" horiz-adv-x="583" 
d="M233 653q-17 0 -26.5 -12t-10.5 -29h-42q1 39 20.5 62.5t51.5 23.5q25 0 64 -20t57 -20q33 0 38 40h42q-2 -42 -21.5 -64t-51.5 -22q-26 0 -64 20.5t-57 20.5zM445 515h58v-515h-58v84q-57 -97 -173 -97q-104 0 -163.5 75t-59.5 195q0 119 61.5 195t165.5 76
q114 0 169 -91v78zM275 42q78 0 124.5 59t46.5 158q0 95 -45 154.5t-123 59.5q-77 0 -122.5 -61t-45.5 -155q0 -93 45 -154t120 -61z" />
    <glyph glyph-name="g.ss01" horiz-adv-x="589" 
d="M506 515h49v-50h-24q-32 0 -32 -31v-422q0 -115 -44 -168.5t-146 -53.5h-193v55h179q79 0 112.5 38t33.5 125v75q-57 -96 -171 -96q-107 0 -164 76t-57 196q0 117 59.5 193t163.5 76q115 0 171 -95v24q0 58 63 58zM277 42q77 0 121.5 61t44.5 157q0 93 -43.5 153
t-121.5 60q-82 0 -126.5 -60t-44.5 -153q0 -97 43.5 -157.5t126.5 -60.5z" />
    <glyph glyph-name="k.ss01" horiz-adv-x="494" 
d="M493 0h-74l-200 246l-81 -1v-245h-58v714h58v-415h81l180 216h71l-201 -237z" />
    <glyph glyph-name="t.ss01" horiz-adv-x="333" 
d="M137 0v461h-118v54h118v154h58v-154h125v-54h-125v-461h-58z" />
    <glyph glyph-name="y.ss01" horiz-adv-x="500" 
d="M101 -210v55h70q35 0 48.5 12.5t13.5 46.5v76l-209 535h63l177 -469l154 469h60l-187 -539v-98q0 -47 -22 -67.5t-71 -20.5h-97z" />
    <glyph glyph-name="yacute.ss01" horiz-adv-x="500" 
d="M212 573l77 144h68l-104 -144h-41zM101 -210v55h70q35 0 48.5 12.5t13.5 46.5v76l-209 535h63l177 -469l154 469h60l-187 -539v-98q0 -47 -22 -67.5t-71 -20.5h-97z" />
    <glyph glyph-name="ydieresis.ss01" horiz-adv-x="500" 
d="M177 619q-17 0 -29 12.5t-12 28.5t12 28t29 12t28.5 -12t11.5 -28q0 -17 -12 -29t-28 -12zM341 619q-17 0 -29 12.5t-12 28.5t12 28t29 12t29 -11.5t12 -28.5t-12 -29t-29 -12zM101 -210v55h70q35 0 48.5 12.5t13.5 46.5v76l-209 535h63l177 -469l154 469h60l-187 -539
v-98q0 -47 -22 -67.5t-71 -20.5h-97z" />
    <glyph glyph-name="zero.osf" horiz-adv-x="608" 
d="M303 -10q-119 0 -185 76.5t-66 199.5q0 118 67 196t184 78q118 0 185.5 -78t67.5 -196q0 -123 -67 -199.5t-186 -76.5zM303 43q42 0 75 13t54.5 34.5t35.5 50.5t20 60t6 65q0 40 -10 77.5t-31 71t-59.5 53.5t-90.5 20q-51 0 -89 -20t-59 -53.5t-31 -71t-10 -77.5
q0 -43 10 -81t31 -70.5t59 -52t89 -19.5z" />
    <glyph glyph-name="one.osf" horiz-adv-x="330" 
d="M180 0v422q-80 -30 -156 -39v47q70 8 106.5 28.5t62.5 70.5h47v-529h-60z" />
    <glyph glyph-name="two.osf" horiz-adv-x="529" 
d="M50 0q-1 73 48.5 126.5t148.5 102.5q43 22 64 34t45 31t33.5 40t9.5 49q0 50 -36 77t-101 27q-75 0 -111 -35.5t-36 -95.5h-59q-1 87 54.5 135.5t153.5 48.5q92 0 145 -40.5t53 -115.5q0 -71 -48 -115t-146 -92q-61 -29 -101 -62t-42 -61h363v-54h-438z" />
    <glyph glyph-name="three.osf" horiz-adv-x="576" 
d="M284 -174q-114 0 -178 58t-62 167h60q-1 -82 46.5 -128t133.5 -46q78 0 128 40.5t50 115.5q0 68 -45.5 106t-138.5 38h-36v48h40q73 0 117.5 34t43.5 103q-1 61 -45.5 94t-109.5 33q-171 0 -171 -167h-59q-1 105 60 161.5t170 56.5q97 0 157 -45.5t60 -130.5
q0 -60 -29.5 -99.5t-81.5 -55.5l-8 -2l7 -2q58 -10 95 -54t37 -114q0 -101 -68 -156t-173 -55z" />
    <glyph glyph-name="four.osf" horiz-adv-x="565" 
d="M378 -168v168h-354v58l350 468h61v-473h105v-53h-105v-168h-57zM84 53h294v391h-3z" />
    <glyph glyph-name="five.osf" horiz-adv-x="543" 
d="M272 -173q-107 0 -170 60t-61 158h59q-1 -73 45.5 -120t126.5 -47t125.5 50.5t45.5 135.5q0 81 -46 130t-125 49q-103 0 -155 -74h-57l53 357h357v-55h-313l-35 -240q21 27 62 46t94 19q101 0 162 -62t61 -170q0 -105 -63 -171t-166 -66z" />
    <glyph glyph-name="six.osf" horiz-adv-x="574" 
d="M293 -13q-110 0 -173 81t-63 233q0 398 249 398q88 0 142 -47t60 -125h-60q-7 56 -44.5 88.5t-98.5 32.5q-95 0 -140 -79t-50 -240v-9l3 7q16 53 66.5 88.5t118.5 35.5q98 0 159.5 -61t61.5 -167t-64 -171t-167 -65zM294 39q77 0 124.5 50.5t47.5 131.5q0 84 -46 131.5
t-125 47.5q-76 0 -121.5 -52t-45.5 -129q0 -78 46.5 -129t119.5 -51z" />
    <glyph glyph-name="seven.osf" horiz-adv-x="475" 
d="M121 -160q2 169 76 330.5t199 300.5h-379v55h442v-56q-126 -133 -201 -296.5t-76 -333.5h-61z" />
    <glyph glyph-name="eight.osf" horiz-adv-x="567" 
d="M284 -13q-106 0 -169.5 54.5t-63.5 150.5q0 67 35 114.5t100 70.5q-48 17 -75.5 56.5t-27.5 91.5q0 81 56.5 127.5t144.5 46.5t143.5 -46.5t55.5 -127.5q0 -107 -103 -148q66 -19 100.5 -67.5t34.5 -117.5q0 -94 -65.5 -149.5t-165.5 -55.5zM284 403q58 0 99 31.5
t41 87.5q0 60 -39.5 91t-101.5 31q-61 0 -101 -31t-40 -91q0 -56 41.5 -87.5t100.5 -31.5zM284 42q75 0 122 40t47 113q0 74 -47.5 113t-122.5 39t-122.5 -39t-47.5 -113q0 -73 48 -113t123 -40z" />
    <glyph glyph-name="nine.osf" horiz-adv-x="563" 
d="M261 -174q-88 0 -143.5 49.5t-59.5 128.5h58q6 -64 47.5 -95.5t97.5 -31.5q44 0 76.5 15.5t53.5 41.5t34 67t19 85t8 103l1 9l-4 -7q-18 -52 -65 -85.5t-120 -33.5q-95 0 -156.5 63t-61.5 166q0 104 63 170t164 66q117 0 177 -79.5t60 -229.5q0 -202 -56.5 -302
t-192.5 -100zM272 123q78 0 123 50t45 131q0 82 -46.5 131.5t-121.5 49.5t-121.5 -51.5t-46.5 -130.5q0 -81 45.5 -130.5t122.5 -49.5z" />
    <glyph glyph-name="zero.tf" horiz-adv-x="584" 
d="M291 -13q-118 0 -177.5 98t-59.5 259q0 160 60 257.5t177 97.5q119 0 179 -97.5t60 -257.5q0 -162 -60 -259.5t-179 -97.5zM291 41q52 0 89 28.5t55 76t25.5 96t7.5 102.5q0 53 -7.5 101t-25.5 95.5t-55 76t-89 28.5q-51 0 -87.5 -28.5t-54.5 -76t-25.5 -95.5t-7.5 -101
q0 -54 7.5 -102.5t25.5 -96t54.5 -76t87.5 -28.5z" />
    <glyph glyph-name="one.tf" horiz-adv-x="584" 
d="M308 0v567q-93 -45 -173 -56v48q79 13 117.5 38.5t67.5 89.5h48v-687h-60z" />
    <glyph glyph-name="two.tf" horiz-adv-x="584" 
d="M72 0q-1 86 51.5 152.5t166.5 140.5q81 53 122 102t41 109q0 65 -40.5 101t-111.5 36q-163 0 -163 -187h-59q1 117 59.5 181t164.5 64q97 0 154 -50.5t57 -142.5q0 -79 -52 -139t-160 -132q-74 -50 -114 -92t-46 -88h386v-55h-456z" />
    <glyph glyph-name="three.tf" horiz-adv-x="584" 
d="M285 -13q-116 0 -177.5 59t-59.5 167h59q-1 -80 45 -124.5t133 -44.5q79 0 130.5 39t51.5 112q0 69 -46 108t-139 39h-37v48h40q74 0 118.5 32.5t43.5 98.5q-1 59 -44 90t-112 31q-172 0 -172 -162h-58q-1 104 61.5 161.5t168.5 57.5q96 0 155.5 -45.5t59.5 -129.5
q0 -58 -29.5 -96.5t-78.5 -52.5l-8 -3l7 -2q57 -12 93 -55t36 -115q0 -101 -68 -157t-173 -56z" />
    <glyph glyph-name="four.tf" horiz-adv-x="584" 
d="M394 0v168h-353v55l350 463h61v-469h105v-49h-105v-168h-58zM101 217h293v387h-2z" />
    <glyph glyph-name="five.tf" horiz-adv-x="584" 
d="M295 -13q-107 0 -168 59.5t-59 158.5h58q-1 -74 44 -120.5t125 -46.5q81 0 128 50.5t47 135.5q0 81 -46 130.5t-125 49.5q-102 0 -155 -75h-56l52 357h357v-55h-313l-34 -240q21 27 62 46t93 19q102 0 163 -61.5t61 -170.5q0 -105 -64.5 -171t-169.5 -66z" />
    <glyph glyph-name="six.tf" horiz-adv-x="584" 
d="M297 -13q-111 0 -174.5 79.5t-63.5 234.5q0 398 251 398q87 0 141 -47t60 -125h-59q-7 55 -44.5 87.5t-99.5 32.5q-94 0 -138.5 -79t-49.5 -239l-1 -8l3 7q17 52 67 87.5t117 35.5q100 0 161 -59.5t61 -167.5q0 -106 -64 -171.5t-167 -65.5zM298 39q80 0 126 50t46 132
q0 84 -46 131.5t-126 47.5q-74 0 -120.5 -52.5t-46.5 -128.5q0 -79 47 -129.5t120 -50.5z" />
    <glyph glyph-name="seven.tf" horiz-adv-x="584" 
d="M200 0q2 170 74.5 332t198.5 299h-396v55h460v-56q-276 -292 -277 -630h-60z" />
    <glyph glyph-name="eight.tf" horiz-adv-x="584" 
d="M300 -13q-105 0 -169 54t-64 152q0 67 35.5 114.5t103.5 69.5q-51 16 -79 56t-28 94q0 80 56.5 126t144.5 46t143.5 -46t55.5 -126q0 -110 -107 -150q69 -19 104 -67t35 -117q0 -95 -65.5 -150.5t-165.5 -55.5zM300 401q58 0 98.5 32t40.5 89q0 61 -38 92t-102 31
q-63 0 -101.5 -31t-38.5 -92q0 -57 41 -89t100 -32zM300 41q74 0 121.5 40t47.5 114t-47.5 114.5t-122.5 40.5t-122.5 -40.5t-47.5 -114.5t47.5 -114t123.5 -40z" />
    <glyph glyph-name="nine.tf" horiz-adv-x="584" 
d="M281 -13q-88 0 -143.5 49.5t-59.5 128.5h58q6 -63 47.5 -95t97.5 -32q104 0 144.5 79.5t46.5 233.5l1 9l-4 -8q-18 -52 -65 -85.5t-120 -33.5q-96 0 -157.5 63.5t-61.5 166.5q0 104 63.5 170t164.5 66q119 0 178.5 -79.5t59.5 -229.5q0 -203 -56.5 -303t-193.5 -100z
M292 284q78 0 123 50.5t45 130.5q0 83 -46.5 132.5t-121.5 49.5t-121.5 -51.5t-46.5 -130.5q0 -82 45.5 -131.5t122.5 -49.5z" />
    <glyph glyph-name="dollar.osf" horiz-adv-x="517" 
d="M469 143q0 -71 -53 -111.5t-139 -44.5v-64h-32v64q-93 4 -147.5 50t-53.5 137h59q0 -124 142 -132v205q-89 16 -136 48.5t-47 99.5q0 68 51.5 105.5t131.5 39.5v65h32v-66q80 -5 130 -46t51 -117h-59q-2 50 -34.5 77t-87.5 32v-186q48 -10 78.5 -19.5t59 -27t41.5 -44.5
t13 -65zM122 400q0 -38 31 -59t92 -35v180q-56 -2 -89.5 -23.5t-33.5 -62.5zM277 42q133 5 133 98q0 41 -33.5 63.5t-99.5 36.5v-198z" />
    <glyph glyph-name="Euro.osf" horiz-adv-x="569" 
d="M313 -13q-90 0 -148 59t-68 161h-58v34h55q-1 11 -1 30q0 18 1 25h-55v35h59q15 99 71.5 156t146.5 57q85 0 140 -41t64 -125h-60q-20 115 -144 115q-68 0 -108 -43.5t-52 -118.5h246v-35h-251q0 -4 -0.5 -12.5t-0.5 -12.5q0 -12 2 -30h250v-34h-246q9 -77 51.5 -122.5
t108.5 -45.5q128 0 145 121h59q-9 -88 -64.5 -130.5t-142.5 -42.5z" />
    <glyph glyph-name="florin.osf" horiz-adv-x="361" 
d="M285 487q-38 0 -58 -13.5t-25 -46.5l-15 -106h102l-9 -44h-99l-38 -280q-16 -119 -136 -119h-66v51h60q69 0 80 68l39 280h-93l10 44h90l16 116q7 55 41 79t98 24h60v-53h-57z" />
    <glyph glyph-name="sterling.osf" horiz-adv-x="561" 
d="M456 53h56v-53h-65q-98 0 -198 56q-40 -64 -115 -64q-43 0 -70 20.5t-27 60.5q0 37 27 58.5t68 21.5t83 -20q1 6 1 19q0 34 -25 88h-128v42h109q-31 64 -31 110q0 74 52 111t131 37q84 0 130.5 -40.5t46.5 -116.5h-58q-2 48 -31.5 76.5t-87.5 28.5q-55 0 -88.5 -23.5
t-33.5 -70.5q0 -36 35 -112h144v-42h-126q20 -47 20 -85q0 -26 -6 -50q94 -52 187 -52zM132 39q49 0 71 44q-39 23 -71 23q-21 0 -33 -9.5t-12 -23.5q0 -34 45 -34z" />
    <glyph glyph-name="yen.osf" horiz-adv-x="563" 
d="M249 0v183h-157v41h152l-64 90h-116v40h92l-133 186h75l186 -265l186 265h72l-134 -185h86v-41h-111l-66 -90h153v-41h-157v-183h-64z" />
    <glyph glyph-name="caroncomb.alt" 
d="M-127 559v29q47 1 47 59q-2 -1 -5 -1q-18 0 -29.5 11.5t-11.5 30.5q0 18 12.5 29.5t29.5 11.5q20 0 33 -13.5t13 -40.5q0 -53 -23.5 -84.5t-65.5 -31.5z" />
    <glyph glyph-name="uni0326.alt" 
d="M-125 589q-23 0 -37 14.5t-14 44.5q0 52 27.5 82.5t71.5 32.5v-33q-21 -2 -35.5 -15t-14.5 -31h2q21 0 34.5 -13t13.5 -34q0 -22 -14 -35t-34 -13z" />
    <glyph glyph-name="uni0308.case" 
d="M-234 798q-17 0 -29 12t-12 29q0 16 12 28t29 12q16 0 28 -11.5t12 -28.5t-11.5 -29t-28.5 -12zM-50 798q-17 0 -29 12t-12 29t12 28.5t29 11.5q16 0 28 -11.5t12 -28.5t-11.5 -29t-28.5 -12z" />
    <glyph glyph-name="uni0307.case" 
d="M-111 795q-18 0 -31.5 13t-13.5 32t13.5 32.5t31.5 13.5q19 0 32.5 -13.5t13.5 -32.5t-13.5 -32t-32.5 -13z" />
    <glyph glyph-name="gravecomb.case" 
d="M-61 775l-120 131h73l92 -131h-45z" />
    <glyph glyph-name="acutecomb.case" 
d="M-181 775l92 131h73l-119 -131h-46z" />
    <glyph glyph-name="uni030B.case" 
d="M-309 775l70 131h67l-97 -131h-40zM-163 775l76 131h67l-102 -131h-41z" />
    <glyph glyph-name="uni0302.case" 
d="M-286 775l113 131h50l113 -131h-50l-90 87l-88 -87h-48z" />
    <glyph glyph-name="uni030C.case" 
d="M-169 775l-109 131h50l87 -92l88 92h46l-110 -131h-52z" />
    <glyph glyph-name="uni0306.case" 
d="M-143 779q-57 0 -91 31t-38 91h39q10 -81 90 -81q39 0 65 20.5t30 60.5h38q-6 -59 -41.5 -90.5t-91.5 -31.5z" />
    <glyph glyph-name="uni030A.case" 
d="M-106 746q-41 0 -68 27t-27 67t27.5 67.5t67.5 27.5q41 0 68.5 -27.5t27.5 -67.5t-27.5 -67t-68.5 -27zM-106 779q26 0 43 17.5t17 43.5t-17.5 44t-42.5 18t-42 -18t-17 -44t17 -43.5t42 -17.5z" />
    <glyph glyph-name="tildecomb.case" 
d="M-284 796q2 39 22 63t51 24q25 0 64.5 -20t57.5 -20q33 0 38 39h42q-2 -41 -21.5 -63t-51.5 -22q-26 0 -64.5 20t-57.5 20q-17 0 -26.5 -11.5t-10.5 -29.5h-43z" />
    <glyph glyph-name="uni0304.case" 
d="M-275 813v38h265v-38h-265z" />
    <glyph glyph-name="uni0337.case" 
d="M-319 226v52l276 204v-51z" />
    <glyph glyph-name="uni0338.case" 
d="M-657 -7l-30 27l627 697l31 -28z" />
    <glyph glyph-name="caron.alt" horiz-adv-x="118" 
d="M15 559v29q47 1 47 59q-2 -1 -5 -1q-18 0 -29.5 11.5t-11.5 30.5q0 18 12.5 29.5t29.5 11.5q20 0 33 -13.5t13 -40.5q0 -53 -23.5 -84.5t-65.5 -31.5z" />
    <glyph glyph-name="acute.case" horiz-adv-x="185" 
d="M10 775l92 131h73l-119 -131h-46z" />
    <glyph glyph-name="breve.case" horiz-adv-x="282" 
d="M139 779q-57 0 -91 31t-38 91h39q10 -81 90 -81q39 0 65 20.5t30 60.5h38q-6 -59 -41.5 -90.5t-91.5 -31.5z" />
    <glyph glyph-name="caron.case" horiz-adv-x="291" 
d="M119 775l-109 131h50l87 -92l88 92h46l-110 -131h-52z" />
    <glyph glyph-name="circumflex.case" horiz-adv-x="296" 
d="M10 775l113 131h50l113 -131h-50l-90 87l-88 -87h-48z" />
    <glyph glyph-name="dieresis.case" horiz-adv-x="285" 
d="M51 798q-17 0 -29 12t-12 29q0 16 12 28t29 12t28.5 -11.5t11.5 -28.5t-11.5 -29t-28.5 -12zM235 798q-17 0 -29 12t-12 29t12 28.5t29 11.5t28.5 -11.5t11.5 -28.5t-11.5 -29t-28.5 -12z" />
    <glyph glyph-name="dotaccent.case" horiz-adv-x="111" 
d="M55 795q-18 0 -31.5 13t-13.5 32t13.5 32.5t31.5 13.5q19 0 32.5 -13.5t13.5 -32.5t-13.5 -32t-32.5 -13z" />
    <glyph glyph-name="grave.case" horiz-adv-x="185" 
d="M130 775l-120 131h73l92 -131h-45z" />
    <glyph glyph-name="hungarumlaut.case" horiz-adv-x="309" 
d="M10 775l70 131h67l-97 -131h-40zM156 775l76 131h67l-102 -131h-41z" />
    <glyph glyph-name="macron.case" horiz-adv-x="285" 
d="M10 813v38h265v-38h-265z" />
    <glyph glyph-name="ring.case" horiz-adv-x="211" 
d="M105 746q-41 0 -68 27t-27 67t27 67.5t68 27.5t68.5 -27.5t27.5 -67.5t-27.5 -67t-68.5 -27zM105 779q26 0 43 17.5t17 43.5t-17.5 44t-42.5 18t-42 -18t-17 -44t17 -43.5t42 -17.5z" />
    <glyph glyph-name="tilde.case" horiz-adv-x="290" 
d="M12 796q2 39 22 63t51 24q25 0 64.5 -20t57.5 -20q33 0 38 39h42q-2 -41 -21.5 -63t-51.5 -22q-26 0 -64.5 20t-57.5 20q-17 0 -26.5 -11.5t-10.5 -29.5h-43z" />
    </font>
</defs>
</svg>
