<?xml version="1.0" standalone="no"?>
<!DOCTYPE svg PUBLIC "-//W3C//DTD SVG 1.1//EN" "http://www.w3.org/Graphics/SVG/1.1/DTD/svg11.dtd" >
<svg xmlns="http://www.w3.org/2000/svg" xmlns:xlink="http://www.w3.org/1999/xlink" version="1.1">
<metadata>
Created by FontForge 20170731 at Tue Dec 13 12:41:49 2016
 By Aleksey,,,
Copyright (c) 2016 by Rick Banks. All rights reserved.
</metadata>
<defs>
<font id="F37Bolton-Regular" horiz-adv-x="0" >
  <font-face 
    font-family="F37 Bolton"
    font-weight="400"
    font-stretch="normal"
    units-per-em="1000"
    panose-1="0 0 5 0 0 0 0 0 0 0"
    ascent="800"
    descent="-200"
    x-height="516"
    cap-height="717"
    bbox="-693 -248 1182 943"
    underline-thickness="50"
    underline-position="-200"
    unicode-range="U+000D-FB02"
  />
<missing-glyph horiz-adv-x="542" 
 />
    <glyph glyph-name="fi" unicode="fi" horiz-adv-x="547" 
d="M113 0v434h-93v82h93v26q0 95 40.5 135t137.5 40h184v-85h-185q-50 0 -68.5 -18t-18.5 -68v-30h107v-82h-107v-434h-90zM385 0v516h90v-516h-90z" />
    <glyph glyph-name="fl" unicode="fl" horiz-adv-x="570" 
d="M510 76h38v-76h-58q-106 0 -106 97v535h-114q-35 0 -51 -15.5t-16 -50.5v-50h107v-82h-107v-434h-90v434h-93v82h93v46q0 80 38 117.5t120 37.5h202v-606q0 -21 9.5 -28t27.5 -7z" />
    <glyph glyph-name=".notdef" horiz-adv-x="542" 
 />
    <glyph glyph-name=".null" 
 />
    <glyph glyph-name="nonmarkingreturn" horiz-adv-x="333" 
 />
    <glyph glyph-name="CR" unicode="&#xd;" horiz-adv-x="243" 
 />
    <glyph glyph-name="space" unicode=" " horiz-adv-x="243" 
 />
    <glyph glyph-name="exclam" unicode="!" horiz-adv-x="255" 
d="M102 175l-21 278v261h93v-261l-21 -278h-51zM127 -7q-26 0 -43.5 18t-17.5 44t17.5 43.5t43.5 17.5t44 -18t18 -43t-18.5 -43.5t-43.5 -18.5z" />
    <glyph glyph-name="quotedbl" unicode="&#x22;" horiz-adv-x="375" 
d="M85 433l-35 281h104l-35 -281h-34zM256 433l-33 281h102l-34 -281h-35z" />
    <glyph glyph-name="numbersign" unicode="#" horiz-adv-x="539" 
d="M103 0l28 211h-94v60h103l19 147h-94v60h103l28 213h64l-28 -213h119l28 213h63l-27 -213h86v-60h-95l-19 -147h86v-60h-95l-27 -211h-64l27 211h-119l-27 -211h-65zM204 271h119l18 147h-117z" />
    <glyph glyph-name="dollar" unicode="$" horiz-adv-x="565" 
d="M524 202q0 -95 -60 -153t-159 -64v-82h-47v82q-100 8 -161.5 74.5t-61.5 170.5h93q0 -63 34.5 -104t95.5 -50v253q-42 13 -72.5 27t-61.5 38t-47.5 61t-16.5 86q0 79 57 132.5t141 61.5v71h47v-71q95 -7 149 -67.5t54 -152.5h-93q-2 54 -29 89.5t-81 41.5v-229l5 -2
q34 -11 55 -19t55 -26.5t53.5 -39t35 -54t15.5 -74.5zM155 542q0 -42 25.5 -66.5t77.5 -43.5v213q-48 -6 -75.5 -33.5t-27.5 -69.5zM305 75q56 4 90 35.5t34 80.5q0 48 -30 75t-94 48v-239z" />
    <glyph glyph-name="percent" unicode="%" horiz-adv-x="881" 
d="M200 -29l410 749h66l-411 -749h-65zM211 344q-75 0 -127.5 53t-52.5 128t52.5 128t127.5 53t128 -52.5t53 -128.5t-53 -128.5t-128 -52.5zM211 416q45 0 77 32t32 77q0 46 -32 78.5t-77 32.5q-44 0 -76 -32.5t-32 -78.5q0 -45 32 -77t76 -32zM670 -12q-75 0 -127.5 53
t-52.5 128q0 76 52.5 129t127.5 53t127.5 -53t52.5 -129q0 -75 -52.5 -128t-127.5 -53zM670 61q45 0 77 31.5t32 76.5q0 46 -32 78.5t-77 32.5t-77 -32.5t-32 -78.5q0 -45 32 -76.5t77 -31.5z" />
    <glyph glyph-name="ampersand" unicode="&#x26;" horiz-adv-x="655" 
d="M606 81h31v-81h-54q-67 0 -115 56q-75 -69 -185 -69t-173 61t-63 153q0 129 121 202q-72 86 -72 157q0 70 47 114.5t121 44.5q70 0 113 -40.5t43 -106.5q0 -57 -30 -98t-96 -82l164 -192q9 30 9 66v74h91v-69q0 -78 -35 -146q39 -44 83 -44zM260 645q-36 0 -58 -20.5
t-22 -55.5q0 -51 67 -124q90 55 90 123q0 36 -20.5 56.5t-56.5 20.5zM138 213q0 -60 39 -97.5t107 -37.5q82 0 128 43l-194 224q-43 -31 -61.5 -61t-18.5 -71z" />
    <glyph glyph-name="quotesingle" unicode="'" horiz-adv-x="204" 
d="M85 433l-35 281h104l-35 -281h-34z" />
    <glyph glyph-name="parenleft" unicode="(" horiz-adv-x="279" 
d="M168 -180q-119 225 -119 454q0 117 31 238.5t88 218.5h77q-106 -208 -106 -451q0 -249 106 -460h-77z" />
    <glyph glyph-name="parenright" unicode=")" horiz-adv-x="279" 
d="M34 -180q106 208 106 451q0 249 -106 460h76q120 -226 120 -454q0 -118 -31 -240t-89 -217h-76z" />
    <glyph glyph-name="asterisk" unicode="*" horiz-adv-x="416" 
d="M123 383l-43 35l86 106l-120 44l18 51l115 -41l-3 126h56v-128l123 41l16 -52l-125 -40l88 -112l-41 -33l-87 112z" />
    <glyph glyph-name="plus" unicode="+" horiz-adv-x="554" 
d="M242 20v218h-205v70h205v217h69v-217h206v-70h-206v-218h-69z" />
    <glyph glyph-name="comma" unicode="," horiz-adv-x="238" 
d="M56 -140v47q24 0 43.5 21t18.5 55h-1q-25 0 -42.5 16.5t-17.5 44.5q0 27 18 44t43 17q28 0 45.5 -19.5t17.5 -59.5q0 -75 -37.5 -120.5t-87.5 -45.5z" />
    <glyph glyph-name="hyphen" unicode="-" horiz-adv-x="374" 
d="M65 232v78h244v-78h-244z" />
    <glyph glyph-name="period" unicode="." horiz-adv-x="231" 
d="M115 -7q-26 0 -43.5 18t-17.5 44t17.5 43.5t43.5 17.5t44 -18t18 -43t-18.5 -43.5t-43.5 -18.5z" />
    <glyph glyph-name="slash" unicode="/" horiz-adv-x="417" 
d="M31 -17l282 748h74l-282 -748h-74z" />
    <glyph glyph-name="zero" unicode="0" horiz-adv-x="591" 
d="M294 -13q-114 0 -177 93t-63 267q0 172 63 265t177 93q115 0 179 -93t64 -265q0 -174 -63.5 -267t-179.5 -93zM294 69q36 0 63 19t42 47.5t24.5 68t12 73t2.5 70.5q0 36 -2.5 69t-12 72.5t-24.5 68t-42 47.5t-63 19q-44 0 -74 -27t-43.5 -73t-18.5 -87.5t-5 -88.5
q0 -48 5 -90t19 -88t44 -73t73 -27z" />
    <glyph glyph-name="one" unicode="1" horiz-adv-x="386" 
d="M189 0v494h-165v70q96 6 133.5 29t56.5 100h69v-693h-94z" />
    <glyph glyph-name="two" unicode="2" horiz-adv-x="574" 
d="M53 0q0 96 50.5 169t182.5 156q71 43 103 83.5t32 91.5q0 115 -130 115q-75 0 -106 -43.5t-31 -124.5h-95q0 122 63 189.5t173 67.5q106 0 164 -53t58 -147q0 -74 -55 -136t-161 -130q-55 -35 -91.5 -76t-43.5 -78h361v-84h-474z" />
    <glyph glyph-name="three" unicode="3" horiz-adv-x="594" 
d="M293 -13q-115 0 -179.5 59.5t-66.5 168.5h95q5 -70 42.5 -110t108.5 -40q66 0 108 35.5t42 99.5q0 60 -36 95t-137 35h-26v72h32q144 0 144 114q0 50 -35.5 80t-88.5 30q-22 0 -39 -2.5t-37 -11.5t-34 -24t-24.5 -42.5t-12.5 -65.5h-95q0 107 63 165.5t179 58.5
q104 0 162.5 -48t58.5 -136q0 -101 -88 -140l-8 -4l8 -2q115 -35 115 -164q0 -107 -69.5 -165t-181.5 -58z" />
    <glyph glyph-name="four" unicode="4" horiz-adv-x="585" 
d="M363 0v160h-338v86l335 445h89v-451h97v-80h-97v-160h-86zM118 240h245v324h-3z" />
    <glyph glyph-name="five" unicode="5" horiz-adv-x="561" 
d="M282 -13q-113 0 -176.5 58t-63.5 149h93q2 -52 40.5 -91t106.5 -39t106 43t38 118q0 70 -37.5 113t-106.5 43q-89 0 -135 -58h-84l53 368h367v-84h-298l-29 -197q15 17 50 33t83 16q103 0 165 -61.5t62 -172.5q0 -104 -64.5 -171t-169.5 -67z" />
    <glyph glyph-name="six" unicode="6" horiz-adv-x="576" 
d="M294 -13q-121 0 -180.5 86t-59.5 238q0 184 62.5 288.5t191.5 104.5q92 0 145.5 -50t53.5 -130h-95q0 43 -27.5 71t-78.5 28q-77 0 -113 -63.5t-46 -190.5l-1 -12l5 9q19 35 62 59t98 24q99 0 157 -61t58 -165q0 -106 -63.5 -171t-168.5 -65zM295 65q64 0 102.5 43
t38.5 112q0 73 -36.5 111.5t-104.5 38.5q-64 0 -99 -43t-35 -108q0 -70 36 -112t98 -42z" />
    <glyph glyph-name="seven" unicode="7" horiz-adv-x="496" 
d="M122 0q6 161 74 318t180 289h-351v84h449v-81q-111 -120 -183.5 -284.5t-73.5 -325.5h-95z" />
    <glyph glyph-name="eight" unicode="8" horiz-adv-x="573" 
d="M288 -13q-110 0 -174.5 57t-64.5 155q0 125 125 182q-94 41 -94 148q0 77 58.5 126.5t149.5 49.5q90 0 147.5 -49.5t57.5 -126.5q0 -100 -94 -148q125 -45 125 -182q0 -92 -67 -152t-169 -60zM288 417q50 0 81 28.5t31 73.5q0 48 -29 76t-84 28q-54 0 -83.5 -28.5
t-29.5 -75.5q0 -45 32 -73.5t82 -28.5zM288 69q63 0 101 36.5t38 96.5q0 62 -38 99.5t-102 37.5t-102.5 -37.5t-38.5 -99.5q0 -60 38.5 -96.5t103.5 -36.5z" />
    <glyph glyph-name="nine" unicode="9" horiz-adv-x="576" 
d="M267 -13q-93 0 -149 51t-56 132h95q0 -49 29.5 -77.5t80.5 -28.5q82 0 118 63.5t47 192.5l1 12l-6 -10q-48 -79 -162 -79q-98 0 -156 61t-58 164q0 106 63 171t167 65q241 0 241 -324q0 -393 -255 -393zM280 321q66 0 101.5 40t35.5 111q0 73 -36 113.5t-101 40.5
q-63 0 -101 -43t-38 -112q0 -73 36 -111.5t103 -38.5z" />
    <glyph glyph-name="colon" unicode=":" horiz-adv-x="251" 
d="M125 383q-26 0 -43.5 18t-17.5 44t17.5 43.5t43.5 17.5t44 -18t18 -43t-18.5 -43.5t-43.5 -18.5zM125 -7q-26 0 -43.5 18t-17.5 44t17.5 43.5t43.5 17.5t44 -18t18 -43t-18.5 -43.5t-43.5 -18.5z" />
    <glyph glyph-name="semicolon" unicode=";" horiz-adv-x="257" 
d="M127 376q-26 0 -43.5 18t-17.5 44t17.5 43.5t43.5 17.5t44 -18t18 -43q0 -26 -18.5 -44t-43.5 -18zM66 -130v47q24 0 43.5 21t18.5 55h-1q-25 0 -42.5 16.5t-17.5 44.5q0 27 18 44t43 17q28 0 45.5 -19.5t17.5 -59.5q0 -75 -37.5 -120.5t-87.5 -45.5z" />
    <glyph glyph-name="less" unicode="&#x3c;" horiz-adv-x="567" 
d="M515 -8l-483 222v78l483 222v-75l-394 -186l394 -186v-75z" />
    <glyph glyph-name="equal" unicode="=" horiz-adv-x="616" 
d="M68 340v70h480v-70h-480zM68 135v70h480v-70h-480z" />
    <glyph glyph-name="greater" unicode="&#x3e;" horiz-adv-x="567" 
d="M52 -8v75l393 186l-393 186v75l483 -222v-78z" />
    <glyph glyph-name="question" unicode="?" horiz-adv-x="514" 
d="M202 183q0 23 1 33q2 53 20 89t68 86l39 39q48 48 48 100q0 55 -30 85.5t-88 30.5q-67 0 -98 -31.5t-35 -107.5h-96q3 106 63.5 164.5t166.5 58.5q96 0 157 -46t61 -131q0 -56 -19 -94.5t-68 -88.5l-50 -51q-40 -40 -45 -105q-1 -10 -1 -31h-94zM251 -13q-25 0 -43 18
t-18 43t18 43t43 18t43.5 -18t18.5 -43t-18 -43t-44 -18z" />
    <glyph glyph-name="at" unicode="@" horiz-adv-x="862" 
d="M448 -140q-177 0 -288.5 103.5t-111.5 296.5q0 117 57 207t145 134.5t189 44.5q164 0 268 -100.5t104 -248.5q0 -105 -55.5 -170t-124.5 -65h-100v63q-14 -32 -45.5 -52.5t-75.5 -20.5q-79 0 -124.5 52.5t-45.5 145.5q0 91 48.5 142t121.5 51q45 0 76 -20t40 -47v59h78
v-305h24q37 0 66.5 43t29.5 124q0 122 -77.5 196.5t-207.5 74.5q-128 0 -216 -85.5t-88 -222.5q0 -151 87 -236.5t231 -85.5h282v-78h-287zM415 121q51 0 81 36t30 93q0 55 -29 90.5t-77 35.5q-47 0 -75 -34.5t-28 -91.5t25.5 -93t72.5 -36z" />
    <glyph glyph-name="A" unicode="A" horiz-adv-x="661" 
d="M544 0l-80 224h-271l-82 -224h-97l265 717h105l261 -717h-101zM227 318h203l-100 278h-2z" />
    <glyph glyph-name="B" unicode="B" horiz-adv-x="669" 
d="M92 0v717h282q103 0 163 -48.5t60 -139.5q0 -100 -84 -148v-1q104 -43 104 -168q0 -102 -68.5 -157t-174.5 -55h-282zM190 409h189q58 0 89.5 28.5t31.5 85.5q0 52 -36.5 78t-100.5 26h-173v-218zM190 90h176q69 0 110 29t41 91q0 113 -145 113h-182v-233z" />
    <glyph glyph-name="C" unicode="C" horiz-adv-x="722" 
d="M382 -17q-149 0 -242.5 101.5t-93.5 269.5q0 157 94 267t243 110q135 0 212.5 -75t89.5 -184h-95q-15 74 -70.5 120t-138.5 46q-113 0 -174 -83.5t-61 -200.5q0 -119 64 -198.5t173 -79.5q48 0 85 13.5t60.5 38.5t36 46t24.5 49h95q-21 -97 -101.5 -168.5t-200.5 -71.5z
" />
    <glyph glyph-name="D" unicode="D" horiz-adv-x="729" 
d="M92 0v717h233q151 0 254.5 -95t103.5 -263q0 -157 -101.5 -258t-265.5 -101h-224zM190 89h126q115 0 191.5 70.5t76.5 199.5q0 131 -75.5 199.5t-202.5 68.5h-116v-538z" />
    <glyph glyph-name="E" unicode="E" horiz-adv-x="621" 
d="M92 0v717h472v-89h-374v-219h346v-88h-346v-233h380v-88h-478z" />
    <glyph glyph-name="F" unicode="F" horiz-adv-x="579" 
d="M92 0v717h454v-91h-356v-225h314v-90h-314v-311h-98z" />
    <glyph glyph-name="G" unicode="G" horiz-adv-x="742" 
d="M383 -17q-157 0 -246.5 104.5t-89.5 267.5q0 161 91.5 268.5t246.5 107.5q130 0 208.5 -63.5t96.5 -180.5h-95q-32 151 -212 151q-111 0 -173 -79t-63 -204q1 -122 64 -200.5t175 -78.5q110 0 160.5 51.5t59.5 146.5h-213v88h306q1 -7 1 -22q0 -78 -17 -140.5t-53 -112
t-98.5 -77t-148.5 -27.5z" />
    <glyph glyph-name="H" unicode="H" horiz-adv-x="734" 
d="M92 0v717h98v-305h352v305h100v-717h-100v322h-352v-322h-98z" />
    <glyph glyph-name="I" unicode="I" horiz-adv-x="282" 
d="M92 0v717h98v-717h-98z" />
    <glyph glyph-name="J" unicode="J" horiz-adv-x="537" 
d="M237 -17q-105 0 -159 64.5t-54 173.5h95q3 -70 30 -108.5t88 -38.5q116 0 116 144v499h99v-499q0 -107 -54.5 -171t-160.5 -64z" />
    <glyph glyph-name="K" unicode="K" horiz-adv-x="675" 
d="M92 0v717h98v-356l348 356h124l-288 -290l310 -427h-121l-257 357l-116 -117v-240h-98z" />
    <glyph glyph-name="L" unicode="L" horiz-adv-x="565" 
d="M92 0v717h98v-624h357v-93h-455z" />
    <glyph glyph-name="M" unicode="M" horiz-adv-x="856" 
d="M92 0v717h93l248 -364l238 364h93v-717h-93v569l-204 -315h-78l-204 313v-567h-93z" />
    <glyph glyph-name="N" unicode="N" horiz-adv-x="753" 
d="M92 0v717h92l383 -556v556h94v-717h-94l-383 555v-555h-92z" />
    <glyph glyph-name="O" unicode="O" horiz-adv-x="783" 
d="M392 -17q-158 0 -252 107t-94 265q0 161 94 268.5t252 107.5t251.5 -107.5t93.5 -268.5q0 -158 -93.5 -265t-251.5 -107zM392 76q114 0 180.5 79.5t65.5 199.5q0 123 -66 203t-180 80q-115 0 -180 -80t-66 -203q1 -120 66.5 -199.5t179.5 -79.5z" />
    <glyph glyph-name="P" unicode="P" horiz-adv-x="622" 
d="M92 0v714h271q115 0 173 -54.5t58 -147.5q0 -90 -54 -149.5t-149 -59.5h-201v-303h-98zM190 396h179q55 0 88 28.5t33 87.5q0 51 -35 80t-96 29h-169v-225z" />
    <glyph glyph-name="Q" unicode="Q" horiz-adv-x="783" 
d="M737 355q0 -145 -79.5 -248.5t-216.5 -120.5q3 -64 62 -64h97v-85h-106q-145 0 -148 149q-138 16 -219 119.5t-81 249.5q0 161 94 268.5t252 107.5t251.5 -107.5t93.5 -268.5zM392 76q114 0 180.5 79.5t65.5 199.5q0 123 -66 203t-180 80q-115 0 -180 -80t-66 -203
q1 -120 66.5 -199.5t179.5 -79.5z" />
    <glyph glyph-name="R" unicode="R" horiz-adv-x="656" 
d="M629 0h-115l-189 304h-135v-304h-98v714h276q100 0 158.5 -53t60.5 -145q1 -77 -42.5 -135t-112.5 -73zM190 624v-229h181q53 0 85 31.5t32 89.5q0 47 -32 77.5t-78 30.5h-188z" />
    <glyph glyph-name="S" unicode="S" horiz-adv-x="624" 
d="M314 -17q-128 0 -198.5 59.5t-70.5 180.5h95q-1 -77 45 -114.5t131 -37.5q162 0 162 113q0 24 -9.5 43.5t-23 32.5t-39.5 25t-48 19.5t-59 18.5q-56 16 -91.5 30.5t-71.5 38t-53.5 58.5t-17.5 81q0 97 71.5 148.5t171.5 51.5q109 0 182 -54t76 -170h-95q-3 71 -49 103.5
t-114 32.5q-146 0 -146 -101q0 -50 34 -74.5t144 -60.5q47 -14 74 -24t62 -28t53 -38t31.5 -50.5t13.5 -69.5q0 -98 -72 -156t-188 -58z" />
    <glyph glyph-name="T" unicode="T" horiz-adv-x="571" 
d="M237 0v628h-220v89h537v-89h-219v-628h-98z" />
    <glyph glyph-name="U" unicode="U" horiz-adv-x="713" 
d="M356 -17q-133 0 -203 79.5t-70 234.5v420h98v-419q0 -222 175 -222q92 0 133.5 55.5t41.5 166.5v419h99v-420q0 -154 -71 -234t-203 -80z" />
    <glyph glyph-name="V" unicode="V" horiz-adv-x="629" 
d="M259 0l-238 714h103l153 -460q28 -86 41 -151q10 49 43 151l148 460h99l-238 -714h-111z" />
    <glyph glyph-name="W" unicode="W" horiz-adv-x="959" 
d="M213 0l-188 717h108l96 -400q29 -119 45 -205q16 83 48 207l104 398h113l100 -397q37 -147 49 -212q20 105 47 214l96 395h103l-188 -717h-115l-67 260q-58 224 -83 333q-29 -127 -83 -335l-67 -258h-118z" />
    <glyph glyph-name="X" unicode="X" horiz-adv-x="623" 
d="M620 0h-121l-190 288l-190 -288h-114l248 368l-234 346h120l176 -272l173 272h112l-228 -345z" />
    <glyph glyph-name="Y" unicode="Y" horiz-adv-x="648" 
d="M274 0v284l-263 430h113l203 -336l201 336h110l-265 -428v-286h-99z" />
    <glyph glyph-name="Z" unicode="Z" horiz-adv-x="631" 
d="M37 0v88l289 366q57 73 139 170h-418v90h533v-88l-308 -389q-79 -102 -120 -147h446v-90h-561z" />
    <glyph glyph-name="bracketleft" unicode="[" horiz-adv-x="314" 
d="M85 -180v911h196v-73h-106v-765h106v-73h-196z" />
    <glyph glyph-name="backslash" unicode="\" horiz-adv-x="417" 
d="M312 -17l-282 748h74l282 -748h-74z" />
    <glyph glyph-name="bracketright" unicode="]" horiz-adv-x="314" 
d="M33 -180v73h106v765h-106v73h196v-911h-196z" />
    <glyph glyph-name="asciicircum" unicode="^" horiz-adv-x="524" 
d="M34 277l185 414h86l185 -414h-76l-152 343l-152 -343h-76z" />
    <glyph glyph-name="underscore" unicode="_" horiz-adv-x="475" 
d="M0 -125v50h475v-50h-475z" />
    <glyph glyph-name="grave" unicode="`" horiz-adv-x="183" 
d="M173 573h-61l-102 144h102z" />
    <glyph glyph-name="a" unicode="a" horiz-adv-x="540" 
d="M200 -13q-68 0 -116.5 40.5t-48.5 108.5q0 133 168 164l111 21q34 6 44.5 17.5t10.5 34.5q0 30 -25 50t-82 20t-84 -20.5t-26 -60.5h-93q1 78 55.5 122.5t145.5 44.5q201 0 201 -184v-234q0 -19 8 -27t27 -8h12v-76h-73q-59 0 -59 55v11q-58 -79 -176 -79zM221 71
q67 0 109 38t42 92v61q-15 -9 -43 -15l-89 -19q-56 -12 -80 -30t-24 -53t22 -54.5t63 -19.5z" />
    <glyph glyph-name="b" unicode="b" horiz-adv-x="578" 
d="M312 529q101 0 162 -74.5t61 -194.5q0 -121 -62 -197t-162 -76t-153 70v-57h-86v717h90l-1 -253q55 65 151 65zM307 71q63 0 100.5 52.5t37.5 135.5q0 81 -37.5 133.5t-99.5 52.5q-68 0 -108.5 -50t-39.5 -136q1 -89 41 -138.5t106 -49.5z" />
    <glyph glyph-name="c" unicode="c" horiz-adv-x="536" 
d="M278 -13q-109 0 -172 74t-63 193q0 122 63.5 198.5t177.5 76.5q88 0 146 -49t65 -148h-93q-1 52 -33.5 81.5t-85.5 29.5q-75 0 -112 -53.5t-37 -134.5q0 -80 36.5 -131t108.5 -51q57 0 86.5 23.5t36.5 77.5h93q-10 -91 -67.5 -139t-149.5 -48z" />
    <glyph glyph-name="d" unicode="d" horiz-adv-x="577" 
d="M415 717h90v-717h-86v54q-55 -67 -148 -67q-107 0 -167.5 73t-60.5 199q0 120 63 195t166 75q89 0 145 -64zM417 258v1q0 86 -39 136t-104 50q-66 0 -104 -52t-38 -134t39.5 -135t102.5 -53t103 49.5t40 137.5z" />
    <glyph glyph-name="e" unicode="e" horiz-adv-x="548" 
d="M134 227q4 -70 46 -112t104 -42q50 0 83.5 21.5t42.5 61.5h88q-14 -76 -72.5 -122.5t-143.5 -46.5q-106 0 -172.5 71.5t-66.5 199.5q0 120 67.5 195.5t171.5 75.5q107 0 168 -71t61 -187q0 -31 -1 -44h-376zM281 443q-59 0 -98.5 -36t-46.5 -99h282q-4 58 -40.5 96.5
t-96.5 38.5z" />
    <glyph glyph-name="f" unicode="f" horiz-adv-x="328" 
d="M113 0v434h-93v82h93v46q0 80 38 117.5t120 37.5h85v-85h-86q-35 0 -51 -15.5t-16 -50.5v-50h107v-82h-107v-434h-90z" />
    <glyph glyph-name="g" unicode="g" horiz-adv-x="578" 
d="M420 516h86v-516q0 -112 -50.5 -162.5t-150.5 -50.5h-193v85h167q75 0 106 29.5t31 103.5v44q-59 -62 -149 -62q-104 0 -164 72.5t-60 196.5q0 121 61.5 197t161.5 76q96 0 154 -65v52zM273 72q68 0 106.5 52t38.5 134q0 84 -38 135.5t-106 51.5q-66 0 -103.5 -52
t-37.5 -135t37 -134.5t103 -51.5z" />
    <glyph glyph-name="h" unicode="h" horiz-adv-x="567" 
d="M72 0v717h89v-250q51 62 146 62q90 0 141.5 -54t51.5 -149v-326h-90l1 304q0 64 -32.5 101.5t-91.5 37.5q-36 0 -66.5 -21t-43.5 -50q-15 -32 -15 -93v-279h-90z" />
    <glyph glyph-name="i" unicode="i" horiz-adv-x="234" 
d="M117 601q-24 0 -42 17.5t-18 42.5t18 42.5t42 17.5q25 0 43 -17.5t18 -42.5t-17.5 -42.5t-43.5 -17.5zM72 0v516h90v-516h-90z" />
    <glyph glyph-name="j" unicode="j" horiz-adv-x="242" 
d="M125 602q-24 0 -42 18t-18 43q0 24 18 42t42 18q25 0 42.5 -18t17.5 -42q0 -26 -17.5 -43.5t-42.5 -17.5zM-36 -213v86h64q29 0 40.5 11t11.5 42v590h90v-601q0 -70 -29.5 -99t-93.5 -29h-83z" />
    <glyph glyph-name="k" unicode="k" horiz-adv-x="510" 
d="M510 0h-109l-170 262l-69 -68v-194h-90v717h90v-415l221 214h109l-196 -191z" />
    <glyph glyph-name="l" unicode="l" horiz-adv-x="255" 
d="M175 0q-106 0 -106 97v620h89v-606q0 -21 9.5 -28t27.5 -7h38v-76h-58z" />
    <glyph glyph-name="m" unicode="m" horiz-adv-x="848" 
d="M72 0v517h87v-52q19 29 55.5 46.5t80.5 17.5q103 0 144 -81q53 81 158 81q85 0 134.5 -55t49.5 -150v-324h-90l1 306q0 64 -29 100.5t-82 36.5q-51 0 -80 -39t-29 -101v-303h-90v306q0 64 -28.5 100.5t-81.5 36.5q-50 0 -80 -37.5t-30 -94.5v-311h-90z" />
    <glyph glyph-name="n" unicode="n" horiz-adv-x="567" 
d="M72 0v516h87v-53q22 29 63 47.5t87 18.5q90 0 140.5 -55.5t50.5 -155.5v-318h-90l1 303q0 66 -30.5 103t-80.5 37q-62 0 -100 -41.5t-38 -109.5v-292h-90z" />
    <glyph glyph-name="o" unicode="o" horiz-adv-x="567" 
d="M283 -13q-109 0 -175 76.5t-66 194.5q0 115 66.5 193t174.5 78q109 0 175.5 -77t66.5 -194q0 -115 -67 -193t-175 -78zM283 71q69 0 110.5 51.5t41.5 135.5q0 83 -41.5 135t-110.5 52q-68 0 -109.5 -52t-41.5 -135q0 -84 41 -135.5t110 -51.5z" />
    <glyph glyph-name="p" unicode="p" horiz-adv-x="577" 
d="M313 529q97 0 159 -75.5t62 -193.5q0 -121 -62 -197t-162 -76q-96 0 -150 66l2 -265h-90v728h87v-53q54 66 154 66zM305 71q64 0 101.5 52.5t37.5 135.5q0 81 -37.5 133.5t-100.5 52.5q-66 0 -106.5 -50t-40.5 -136q0 -88 41 -138t105 -50z" />
    <glyph glyph-name="q" unicode="q" horiz-adv-x="577" 
d="M551 -128h39v-85h-68q-52 0 -79.5 27.5t-27.5 79.5l1 157q-54 -64 -143 -64q-109 0 -169.5 73t-60.5 199q0 120 63 195t167 75q93 0 146 -66v53h86v-593q0 -51 46 -51zM273 71q64 0 104.5 50t40.5 138v1q0 85 -40 135t-105 50q-62 0 -101 -52.5t-39 -133.5
q0 -82 38.5 -135t101.5 -53z" />
    <glyph glyph-name="r" unicode="r" horiz-adv-x="356" 
d="M72 0v516h86v-63q50 73 147 73h38v-88h-47q-53 0 -93.5 -41.5t-40.5 -118.5v-278h-90z" />
    <glyph glyph-name="s" unicode="s" horiz-adv-x="488" 
d="M246 -13q-93 0 -150.5 42t-57.5 132h93q7 -92 116 -92q111 0 111 68q0 26 -18 39.5t-68 31.5l-67 23q-38 13 -60 22.5t-46 26.5t-35 41t-11 56q0 73 54 112.5t137 39.5q87 0 140.5 -40t54.5 -127h-93q-4 85 -104 85q-97 0 -97 -62q0 -25 16.5 -37t67.5 -30l95 -34
q61 -22 91.5 -52t30.5 -85q0 -83 -57 -121.5t-143 -38.5z" />
    <glyph glyph-name="t" unicode="t" horiz-adv-x="362" 
d="M246 0q-63 0 -96.5 24.5t-33.5 92.5v317h-97v82h97v146h90v-146h126v-82h-126v-297q0 -34 14 -45.5t49 -11.5h65v-80h-88z" />
    <glyph glyph-name="u" unicode="u" horiz-adv-x="563" 
d="M250 -13q-88 0 -135.5 53t-47.5 149v327h90l-1 -309q0 -70 31.5 -102t84.5 -32q65 0 97 46t32 109v288h90v-516h-87v52q-18 -28 -60.5 -46.5t-93.5 -18.5z" />
    <glyph glyph-name="v" unicode="v" horiz-adv-x="505" 
d="M204 0l-188 516h98l89 -262l54 -161h1l49 161l87 262h92l-181 -516h-101z" />
    <glyph glyph-name="w" unicode="w" horiz-adv-x="739" 
d="M161 0l-136 516h94l94 -414l113 414h93l108 -414l97 414h92l-139 -516h-99l-63 230l-43 165h-2l-45 -167l-65 -228h-99z" />
    <glyph glyph-name="x" unicode="x" horiz-adv-x="495" 
d="M10 0l183 267l-169 249h108l119 -185l117 185h101l-169 -253l185 -263h-108l-133 198l-133 -198h-101z" />
    <glyph glyph-name="y" unicode="y" horiz-adv-x="516" 
d="M69 -213v85h73q41 0 59 15q20 17 20 43q0 25 -17 74l-184 512h104l86 -267l63 -192l56 192l71 267h98l-189 -604q-22 -71 -54.5 -98t-91.5 -27h-94z" />
    <glyph glyph-name="z" unicode="z" horiz-adv-x="484" 
d="M35 0v70l286 367h-273v79h387v-69l-288 -368h305v-79h-417z" />
    <glyph glyph-name="braceleft" unicode="{" horiz-adv-x="346" 
d="M219 -180q-41 0 -71.5 32.5t-30.5 92.5v181q0 90 -83 122v58q31 2 57 36.5t26 86.5v178q0 60 30.5 92t71.5 32h94v-73h-51q-32 0 -43.5 -21.5t-11.5 -65.5v-157q0 -50 -22 -88.5t-65 -50.5q33 -10 60 -44t27 -89v-161q0 -45 12 -66.5t43 -21.5h51v-73h-94z" />
    <glyph glyph-name="bar" unicode="|" horiz-adv-x="238" 
d="M84 -214v1000h70v-1000h-70z" />
    <glyph glyph-name="braceright" unicode="}" horiz-adv-x="346" 
d="M127 731q41 0 71.5 -32.5t30.5 -92.5v-181q0 -90 83 -122v-58q-31 -2 -57 -36.5t-26 -86.5v-178q0 -60 -30.5 -92t-71.5 -32h-94v73h51q32 0 43.5 21.5t11.5 65.5v157q0 50 22 88.5t65 50.5q-33 10 -60 44t-27 89v161q0 45 -12 66.5t-43 21.5h-51v73h94z" />
    <glyph glyph-name="asciitilde" unicode="~" horiz-adv-x="564" 
d="M95 200l-31 56q42 83 116 86q35 1 108.5 -33.5t96.5 -34.5q11 0 22 5t17.5 9.5t17 18t13 17.5t14.5 22l31 -56q-17 -27 -29.5 -42.5t-35 -29.5t-48.5 -14q-37 0 -99 34t-108 34q-51 0 -85 -72z" />
    <glyph glyph-name="uni00A0" unicode="&#xa0;" horiz-adv-x="243" 
 />
    <glyph glyph-name="exclamdown" unicode="&#xa1;" horiz-adv-x="243" 
d="M122 531q26 0 43.5 -18t17.5 -44t-17.5 -43.5t-43.5 -17.5t-44 18t-18 43t18 43.5t44 18.5zM147 349l21 -278v-261h-93v261l21 278h51z" />
    <glyph glyph-name="cent" unicode="&#xa2;" horiz-adv-x="541" 
d="M266 -108v95q-102 6 -160.5 79.5t-58.5 187.5q0 115 57.5 191t161.5 83v85h40v-85q83 -5 136.5 -54t59.5 -142h-93q-5 47 -32 76t-71 34v-368q46 4 71 27.5t36 72.5h91q-7 -85 -59.5 -132.5t-138.5 -53.5v-96h-40zM266 74v368q-65 -8 -96.5 -60t-31.5 -127t32.5 -125
t95.5 -56z" />
    <glyph glyph-name="sterling" unicode="&#xa3;" horiz-adv-x="633" 
d="M508 83h76v-83h-87q-94 0 -206 67q-47 -75 -135 -75q-53 0 -87.5 31.5t-34.5 84.5q0 51 34 80.5t83 29.5q37 0 84 -22v16q0 38 -22 102h-140v77h113q-21 63 -21 113t15.5 89t38.5 61t53 35.5t54 18t47 4.5q91 0 146.5 -52.5t52.5 -140.5h-89q-5 105 -110 105
q-109 0 -109 -120q0 -39 24 -113h169v-77h-145q18 -61 18 -100q0 -34 -7 -68q108 -63 185 -63zM152 71q44 0 65 41q-43 24 -66 24q-18 0 -28 -10.5t-10 -22.5q0 -13 10 -22.5t29 -9.5z" />
    <glyph glyph-name="currency" unicode="&#xa4;" horiz-adv-x="637" 
d="M107 96l-38 39l57 57q-56 62 -56 153q2 97 56 154l-57 58l39 39l57 -57q61 55 155 55q90 0 150 -54l58 57l41 -41l-57 -56q54 -57 54 -154q0 -92 -54 -155l56 -56l-38 -38l-57 58q-60 -57 -154 -57t-155 56zM319 178q69 0 113.5 49.5t44.5 118.5t-44 118.5t-113 49.5
q-70 0 -115.5 -49.5t-45.5 -119.5q0 -69 45 -118t115 -49z" />
    <glyph glyph-name="yen" unicode="&#xa5;" horiz-adv-x="683" 
d="M292 0v246h-175v61h163l-68 110h-118v60h81l-148 237h117l202 -339l201 339h110l-145 -237h70v-60h-108l-71 -110h165v-61h-176v-246h-100z" />
    <glyph glyph-name="brokenbar" unicode="&#xa6;" horiz-adv-x="232" 
d="M81 411v250h70v-250h-70zM81 -89v250h70v-250h-70z" />
    <glyph glyph-name="section" unicode="&#xa7;" horiz-adv-x="520" 
d="M394 104q64 -56 64 -121q0 -78 -52.5 -124.5t-145.5 -46.5q-86 0 -143 51.5t-57 141.5h102q0 -103 107 -103q89 0 89 71q0 31 -21.5 50.5t-97.5 67.5l-24 15q-47 30 -68.5 45t-47 38.5t-35 48t-9.5 55.5q0 81 71 132q-64 56 -64 121q0 78 52.5 124.5t145.5 46.5
q86 0 143 -51.5t57 -141.5h-102q0 103 -107 103q-89 0 -89 -71q0 -31 21.5 -50.5t97.5 -67.5l24 -15q47 -30 68.5 -45t47 -38.5t35 -48t9.5 -55.5q0 -81 -71 -132zM212 229q63 -43 112 -75q42 23 42 64q0 42 -58 82q-63 43 -112 75q-42 -23 -42 -64q0 -45 58 -82z" />
    <glyph glyph-name="dieresis" unicode="&#xa8;" horiz-adv-x="304" 
d="M64 600q-22 0 -38 16t-16 38t16 37.5t38 15.5t38 -15.5t16 -37.5t-16 -38t-38 -16zM240 600q-22 0 -38 16t-16 38t16 37.5t38 15.5t38 -15.5t16 -37.5t-16 -38t-38 -16z" />
    <glyph glyph-name="copyright" unicode="&#xa9;" horiz-adv-x="856" 
d="M428 -17q-157 0 -269 106t-112 268q0 163 112 268.5t269 105.5t269 -105.5t112 -268.5q0 -162 -112 -268t-269 -106zM428 45q127 0 215.5 89.5t88.5 222.5q0 132 -89 222.5t-215 90.5q-127 0 -215.5 -90t-88.5 -223t88 -222.5t216 -89.5zM435 131q-97 0 -156.5 64
t-59.5 161q0 99 57.5 162t156.5 63q72 0 122.5 -40.5t59.5 -113.5h-61q-9 43 -42 67.5t-79 24.5q-67 0 -104 -45t-37 -117q0 -69 39.5 -116.5t103.5 -47.5q46 0 78 25t41 70h63q-13 -72 -63 -114.5t-119 -42.5z" />
    <glyph glyph-name="ordfeminine" unicode="&#xaa;" horiz-adv-x="413" 
d="M156 379q-47 0 -77 24t-30 68q0 42 29 67.5t78 33.5l69 11q20 3 27 8t7 18q0 46 -62 46q-64 0 -64 -46h-73q1 51 39 78.5t100 27.5q63 0 98 -28t35 -97v-124q0 -21 18 -21h11v-58h-60q-38 0 -38 29v11q-35 -48 -107 -48zM172 437q38 0 63 25.5t25 63.5v15q-7 -7 -25 -10
l-58 -9q-55 -9 -55 -46q0 -39 50 -39z" />
    <glyph glyph-name="guillemotleft" unicode="&#xab;" horiz-adv-x="386" 
d="M179 97l-129 131v85l129 130v-84l-83 -89l83 -89v-84zM317 97l-129 131v85l129 130v-84l-83 -89l83 -89v-84z" />
    <glyph glyph-name="logicalnot" unicode="&#xac;" horiz-adv-x="615" 
d="M472 96v220h-409v70h479v-290h-70z" />
    <glyph glyph-name="uni00AD" unicode="&#xad;" horiz-adv-x="374" 
d="M65 232v78h244v-78h-244z" />
    <glyph glyph-name="registered" unicode="&#xae;" horiz-adv-x="856" 
d="M428 -17q-157 0 -269 106t-112 269q0 162 112 267.5t269 105.5t269 -105.5t112 -267.5q0 -163 -112 -269t-269 -106zM428 45q127 0 215.5 89.5t88.5 223.5q0 132 -89 222t-215 90q-127 0 -215.5 -90t-88.5 -222q0 -134 88 -223.5t216 -89.5zM284 148v423h155
q156 0 156 -120q0 -53 -31.5 -81t-78.5 -33l118 -189h-72l-110 186h-72v-186h-65zM349 384h80q46 0 72.5 14t26.5 56q0 65 -98 65h-81v-135z" />
    <glyph glyph-name="macron" unicode="&#xaf;" horiz-adv-x="322" 
d="M10 628v52h302v-52h-302z" />
    <glyph glyph-name="degree" unicode="&#xb0;" horiz-adv-x="368" 
d="M184 412q-59 0 -99 42.5t-40 104.5q0 60 40.5 103t98.5 43t98.5 -43t40.5 -103q0 -62 -40.5 -104.5t-98.5 -42.5zM184 455q39 0 65 29.5t26 74.5q0 43 -26 73t-65 30q-38 0 -65 -30t-27 -73q0 -45 26.5 -74.5t65.5 -29.5z" />
    <glyph glyph-name="plusminus" unicode="&#xb1;" horiz-adv-x="604" 
d="M267 117v160h-205v69h205v160h69v-160h206v-69h-206v-160h-69zM62 0v70h480v-70h-480z" />
    <glyph glyph-name="uni00B2" unicode="&#xb2;" horiz-adv-x="446" 
d="M59 275q0 43 17.5 76t42.5 53.5t78 55.5q32 21 44 29.5t30 24t24 29.5t6 32q0 28 -20 45t-56 17q-46 0 -69 -24.5t-23 -67.5h-71q2 76 45.5 119.5t124.5 43.5q65 0 106 -34t41 -94q0 -49 -27 -80t-109 -87q-75 -50 -83 -74h225v-64h-326z" />
    <glyph glyph-name="uni00B3" unicode="&#xb3;" horiz-adv-x="428" 
d="M213 266q-77 0 -121.5 41t-43.5 114h71q-1 -43 23 -66.5t71 -23.5q42 0 67 18.5t25 52.5q0 69 -90 69h-27v53h21q82 0 82 62q0 55 -78 55q-46 0 -64.5 -18t-18.5 -62h-71q0 69 40 107.5t117 38.5q63 0 105 -30t42 -84q0 -35 -17 -59.5t-40 -30.5q30 -7 51.5 -35.5
t21.5 -70.5q0 -59 -47.5 -95t-118.5 -36z" />
    <glyph glyph-name="acute" unicode="&#xb4;" horiz-adv-x="183" 
d="M10 573l61 144h102l-102 -144h-61z" />
    <glyph glyph-name="uni00B5" unicode="&#xb5;" horiz-adv-x="592" 
d="M84 -180v696h90l-1 -309q0 -70 31.5 -102t84.5 -32q65 0 97 46t32 109v288h90v-516h-87v52q-19 -29 -57.5 -47t-84.5 -18q-72 0 -106 38v-205h-89z" />
    <glyph glyph-name="paragraph" unicode="&#xb6;" horiz-adv-x="621" 
d="M161 -169v80h5q70 1 87.5 26t17.5 102v303q-240 0 -240 186q0 82 59 134t158 52h321v-74h-54v-783h-78v783h-88v-601q0 -118 -38 -162.5t-144 -45.5h-6z" />
    <glyph glyph-name="periodcentered" unicode="&#xb7;" horiz-adv-x="246" 
d="M124 248q-26 0 -44 18t-18 44t18.5 44t43.5 18q24 0 42 -18t18 -44q0 -25 -18 -43.5t-42 -18.5z" />
    <glyph glyph-name="cedilla" unicode="&#xb8;" horiz-adv-x="235" 
d="M113 -195q-65 3 -110 39l23 37q32 -24 76 -24q50 0 50 33q0 14 -9.5 23t-25.5 9q-24 0 -46 -8l-20 29l57 57h48l-38 -37l2 -2q12 2 23 2q39 0 62 -18t23 -49q0 -42 -33.5 -66.5t-81.5 -24.5z" />
    <glyph glyph-name="uni00B9" unicode="&#xb9;" horiz-adv-x="291" 
d="M144 275v306q-52 -15 -112 -21v58q52 4 82 22.5t43 58.5h66v-424h-79z" />
    <glyph glyph-name="ordmasculine" unicode="&#xba;" horiz-adv-x="407" 
d="M203 379q-72 0 -116 47.5t-44 121.5q0 71 44.5 119.5t116.5 48.5q71 0 115 -47t44 -121q0 -72 -44 -120.5t-116 -48.5zM204 446q39 0 62.5 27.5t23.5 74.5q0 46 -23.5 73.5t-62.5 27.5q-40 0 -64 -27.5t-24 -73.5q0 -47 24 -74.5t64 -27.5z" />
    <glyph glyph-name="guillemotright" unicode="&#xbb;" horiz-adv-x="401" 
d="M69 97v84l83 89l-83 89v84l129 -130v-85zM222 97v84l83 89l-83 89v84l129 -130v-85z" />
    <glyph glyph-name="onequarter" unicode="&#xbc;" horiz-adv-x="793" 
d="M120 -27l416 746h71l-415 -746h-72zM144 275v306q-52 -15 -112 -21v58q52 4 82 22.5t43 58.5h66v-424h-79zM620 1v85h-213v67l211 270h79v-274h68v-63h-68v-85h-77zM484 149h136v172h-2z" />
    <glyph glyph-name="onehalf" unicode="&#xbd;" horiz-adv-x="859" 
d="M145 -26l413 745h74l-412 -745h-75zM144 275v306q-52 -15 -112 -21v58q52 4 82 22.5t43 58.5h66v-424h-79zM490 1q0 43 17.5 76t42.5 53.5t78 55.5q32 21 44 29.5t30 24t24 29.5t6 32q0 28 -20 44.5t-56 16.5q-42 0 -64 -24.5t-22 -66.5h-79q2 76 46.5 119.5t125.5 43.5
q66 0 107.5 -34t41.5 -94q0 -49 -27.5 -80t-110.5 -87q-75 -50 -83 -74h225v-64h-326z" />
    <glyph glyph-name="threequarters" unicode="&#xbe;" horiz-adv-x="868" 
d="M224 -27l416 746h71l-415 -746h-72zM203 266q-77 0 -121.5 41t-43.5 114h71q-1 -43 23 -66.5t71 -23.5q42 0 67 18.5t25 52.5q0 69 -90 69h-27v53h21q82 0 82 62q0 55 -78 55q-46 0 -64.5 -18t-18.5 -62h-71q0 69 40 107.5t117 38.5q63 0 105 -30t42 -84q0 -35 -17 -59.5
t-40 -30.5q30 -7 51.5 -35.5t21.5 -70.5q0 -59 -47.5 -95t-118.5 -36zM695 1v85h-213v67l211 270h79v-274h68v-63h-68v-85h-77zM559 149h136v172h-2z" />
    <glyph glyph-name="questiondown" unicode="&#xbf;" horiz-adv-x="509" 
d="M260 534q25 0 43 -18t18 -43t-18 -43t-43 -18t-43.5 18t-18.5 43t18 43t44 18zM309 338q0 -23 -1 -33q-2 -53 -20 -89t-68 -86l-39 -39q-48 -48 -48 -100q0 -55 30 -85.5t88 -30.5q67 0 98 31.5t35 107.5h96q-3 -106 -63.5 -164.5t-166.5 -58.5q-96 0 -157 46t-61 131
q0 56 19 94.5t68 88.5l50 51q40 40 45 105q1 10 1 31h94z" />
    <glyph glyph-name="Agrave" unicode="&#xc0;" horiz-adv-x="661" 
d="M405 772h-69l-122 134h110zM544 0l-80 224h-271l-82 -224h-97l265 717h105l261 -717h-101zM227 318h203l-100 278h-2z" />
    <glyph glyph-name="Aacute" unicode="&#xc1;" horiz-adv-x="661" 
d="M445 906l-122 -134h-69l81 134h110zM544 0l-80 224h-271l-82 -224h-97l265 717h105l261 -717h-101zM227 318h203l-100 278h-2z" />
    <glyph glyph-name="Acircumflex" unicode="&#xc2;" horiz-adv-x="661" 
d="M326 842l-80 -70h-73l118 134h78l117 -134h-74zM544 0l-80 224h-271l-82 -224h-97l265 717h105l261 -717h-101zM227 318h203l-100 278h-2z" />
    <glyph glyph-name="Atilde" unicode="&#xc3;" horiz-adv-x="661" 
d="M285 816q-27 0 -27 -26h-62q0 45 21.5 69t54.5 24q24 0 63 -12.5t55 -12.5q28 0 28 26h61q0 -45 -21.5 -69.5t-54.5 -24.5q-24 0 -63 13t-55 13zM544 0l-80 224h-271l-82 -224h-97l265 717h105l261 -717h-101zM227 318h203l-100 278h-2z" />
    <glyph glyph-name="Adieresis" unicode="&#xc4;" horiz-adv-x="661" 
d="M235 786q-23 0 -38.5 16t-15.5 38t16 37.5t38 15.5t38 -15.5t16 -37.5t-15.5 -38t-38.5 -16zM424 786q-22 0 -38 16t-16 38t16 37.5t38 15.5t38 -15.5t16 -37.5t-16 -38t-38 -16zM544 0l-80 224h-271l-82 -224h-97l265 717h105l261 -717h-101zM227 318h203l-100 278h-2z
" />
    <glyph glyph-name="Aring" unicode="&#xc5;" horiz-adv-x="661" 
d="M330 737q-45 0 -75 29t-30 73t30.5 74t74.5 30t74.5 -30t30.5 -74t-30.5 -73t-74.5 -29zM330 898q-23 0 -39.5 -17t-16.5 -42t16 -41.5t40 -16.5t40 16.5t16 41.5t-16 42t-40 17zM544 0l-80 224h-271l-82 -224h-97l265 717h105l261 -717h-101zM227 318h203l-100 278h-2z
" />
    <glyph glyph-name="AE" unicode="&#xc6;" horiz-adv-x="907" 
d="M512 84h343v-84h-439v228h-209l-115 -228h-105l369 714h493v-84h-337v-221h314v-79h-314v-246zM246 304h170v327h-5z" />
    <glyph glyph-name="Ccedilla" unicode="&#xc7;" horiz-adv-x="722" 
d="M383 76q48 0 85 13.5t60.5 38.5t36 46t24.5 49h95q-20 -94 -97 -164.5t-191 -75.5l-21 -20l2 -2q12 2 23 2q39 0 62 -18t23 -49q0 -42 -33.5 -66.5t-81.5 -24.5q-65 3 -110 39l23 37q31 -24 76 -24q50 0 50 33q0 14 -9.5 23t-25.5 9q-24 0 -46 -8l-20 29l41 41
q-135 12 -219 112t-84 258q0 157 94 267t243 110q135 0 212.5 -75t89.5 -184h-95q-15 74 -70.5 120t-138.5 46q-113 0 -174 -83.5t-61 -200.5q0 -119 64 -198.5t173 -79.5z" />
    <glyph glyph-name="Egrave" unicode="&#xc8;" horiz-adv-x="621" 
d="M343 772l-122 134h110l81 -134h-69zM92 0v717h472v-89h-374v-219h346v-88h-346v-233h380v-88h-478z" />
    <glyph glyph-name="Eacute" unicode="&#xc9;" horiz-adv-x="621" 
d="M261 772l81 134h110l-122 -134h-69zM92 0v717h472v-89h-374v-219h346v-88h-346v-233h380v-88h-478z" />
    <glyph glyph-name="Ecircumflex" unicode="&#xca;" horiz-adv-x="621" 
d="M180 772l118 134h78l117 -134h-74l-86 70l-80 -70h-73zM92 0v717h472v-89h-374v-219h346v-88h-346v-233h380v-88h-478z" />
    <glyph glyph-name="Edieresis" unicode="&#xcb;" horiz-adv-x="621" 
d="M242 786q-22 0 -38 16t-16 38t16 37.5t38 15.5t38 -15.5t16 -37.5t-16 -38t-38 -16zM431 786q-23 0 -38.5 16t-15.5 38t16 37.5t38 15.5t38 -15.5t16 -37.5t-15.5 -38t-38.5 -16zM92 0v717h472v-89h-374v-219h346v-88h-346v-233h380v-88h-478z" />
    <glyph glyph-name="Igrave" unicode="&#xcc;" horiz-adv-x="282" 
d="M147 772l-122 134h110l81 -134h-69zM92 0v717h98v-717h-98z" />
    <glyph glyph-name="Iacute" unicode="&#xcd;" horiz-adv-x="282" 
d="M65 772l81 134h110l-122 -134h-69zM92 0v717h98v-717h-98z" />
    <glyph glyph-name="Icircumflex" unicode="&#xce;" horiz-adv-x="282" 
d="M-16 772l118 134h78l117 -134h-74l-86 70l-80 -70h-73zM92 0v717h98v-717h-98z" />
    <glyph glyph-name="Idieresis" unicode="&#xcf;" horiz-adv-x="282" 
d="M46 786q-22 0 -38 16t-16 38t16 37.5t38 15.5t38 -15.5t16 -37.5t-16 -38t-38 -16zM235 786q-23 0 -38.5 16t-15.5 38t16 37.5t38 15.5t38 -15.5t16 -37.5t-15.5 -38t-38.5 -16zM92 0v717h98v-717h-98z" />
    <glyph glyph-name="Eth" unicode="&#xd0;" horiz-adv-x="735" 
d="M331 717q151 0 254.5 -95t103.5 -263q0 -157 -101.5 -258t-265.5 -101h-224v324h-84v65h84v328h233zM322 89q115 0 191.5 70.5t76.5 199.5q0 131 -75.5 199.5t-202.5 68.5h-116v-238h136v-65h-136v-235h126z" />
    <glyph glyph-name="Ntilde" unicode="&#xd1;" horiz-adv-x="753" 
d="M243 790q0 45 21.5 69t54.5 24q24 0 63 -12.5t55 -12.5q28 0 28 26h61q0 -45 -21.5 -69.5t-54.5 -24.5q-24 0 -63 13t-55 13q-27 0 -27 -26h-62zM92 0v717h92l383 -556v556h94v-717h-94l-383 555v-555h-92z" />
    <glyph glyph-name="Ograve" unicode="&#xd2;" horiz-adv-x="783" 
d="M373 772l-122 134h110l81 -134h-69zM392 -17q-158 0 -252 107t-94 265q0 161 94 268.5t252 107.5t251.5 -107.5t93.5 -268.5q0 -158 -93.5 -265t-251.5 -107zM392 76q114 0 180.5 79.5t65.5 199.5q0 123 -66 203t-180 80q-115 0 -180 -80t-66 -203q1 -120 66.5 -199.5
t179.5 -79.5z" />
    <glyph glyph-name="Oacute" unicode="&#xd3;" horiz-adv-x="783" 
d="M336 772l81 134h110l-122 -134h-69zM392 -17q-158 0 -252 107t-94 265q0 161 94 268.5t252 107.5t251.5 -107.5t93.5 -268.5q0 -158 -93.5 -265t-251.5 -107zM392 76q114 0 180.5 79.5t65.5 199.5q0 123 -66 203t-180 80q-115 0 -180 -80t-66 -203q1 -120 66.5 -199.5
t179.5 -79.5z" />
    <glyph glyph-name="Ocircumflex" unicode="&#xd4;" horiz-adv-x="783" 
d="M235 772l118 134h78l117 -134h-74l-86 70l-80 -70h-73zM392 -17q-158 0 -252 107t-94 265q0 161 94 268.5t252 107.5t251.5 -107.5t93.5 -268.5q0 -158 -93.5 -265t-251.5 -107zM392 76q114 0 180.5 79.5t65.5 199.5q0 123 -66 203t-180 80q-115 0 -180 -80t-66 -203
q1 -120 66.5 -199.5t179.5 -79.5z" />
    <glyph glyph-name="Otilde" unicode="&#xd5;" horiz-adv-x="783" 
d="M258 790q0 45 21.5 69t54.5 24q24 0 63 -12.5t55 -12.5q28 0 28 26h61q0 -45 -21.5 -69.5t-54.5 -24.5q-24 0 -63 13t-55 13q-27 0 -27 -26h-62zM392 -17q-158 0 -252 107t-94 265q0 161 94 268.5t252 107.5t251.5 -107.5t93.5 -268.5q0 -158 -93.5 -265t-251.5 -107z
M392 76q114 0 180.5 79.5t65.5 199.5q0 123 -66 203t-180 80q-115 0 -180 -80t-66 -203q1 -120 66.5 -199.5t179.5 -79.5z" />
    <glyph glyph-name="Odieresis" unicode="&#xd6;" horiz-adv-x="783" 
d="M297 786q-23 0 -38.5 16t-15.5 38t16 37.5t38 15.5t38 -15.5t16 -37.5t-15.5 -38t-38.5 -16zM486 786q-22 0 -38 16t-16 38t16 37.5t38 15.5t38 -15.5t16 -37.5t-16 -38t-38 -16zM392 -17q-158 0 -252 107t-94 265q0 161 94 268.5t252 107.5t251.5 -107.5t93.5 -268.5
q0 -158 -93.5 -265t-251.5 -107zM392 76q114 0 180.5 79.5t65.5 199.5q0 123 -66 203t-180 80q-115 0 -180 -80t-66 -203q1 -120 66.5 -199.5t179.5 -79.5z" />
    <glyph glyph-name="multiply" unicode="&#xd7;" horiz-adv-x="524" 
d="M98 51l-49 49l163 173l-162 173l49 49l162 -173l163 173l50 -49l-164 -173l164 -173l-50 -49l-163 173z" />
    <glyph glyph-name="Oslash" unicode="&#xd8;" horiz-adv-x="787" 
d="M659 607q80 -102 80 -252q0 -158 -93.5 -265t-251.5 -107q-132 0 -225 80l-73 -82l-44 41l76 85q-80 102 -80 248q0 161 94 268.5t252 107.5q133 0 224 -80l73 82l44 -41zM148 355q0 -99 47 -174l358 399q-64 58 -159 58q-115 0 -180 -80t-66 -203zM394 76
q114 0 180.5 79.5t65.5 199.5q0 106 -48 178l-358 -398q64 -59 160 -59z" />
    <glyph glyph-name="Ugrave" unicode="&#xd9;" horiz-adv-x="713" 
d="M363 772l-122 134h110l81 -134h-69zM356 -17q-133 0 -203 79.5t-70 234.5v420h98v-419q0 -222 175 -222q92 0 133.5 55.5t41.5 166.5v419h99v-420q0 -154 -71 -234t-203 -80z" />
    <glyph glyph-name="Uacute" unicode="&#xda;" horiz-adv-x="713" 
d="M281 772l81 134h110l-122 -134h-69zM356 -17q-133 0 -203 79.5t-70 234.5v420h98v-419q0 -222 175 -222q92 0 133.5 55.5t41.5 166.5v419h99v-420q0 -154 -71 -234t-203 -80z" />
    <glyph glyph-name="Ucircumflex" unicode="&#xdb;" horiz-adv-x="713" 
d="M200 772l118 134h78l117 -134h-74l-86 70l-80 -70h-73zM356 -17q-133 0 -203 79.5t-70 234.5v420h98v-419q0 -222 175 -222q92 0 133.5 55.5t41.5 166.5v419h99v-420q0 -154 -71 -234t-203 -80z" />
    <glyph glyph-name="Udieresis" unicode="&#xdc;" horiz-adv-x="713" 
d="M262 786q-22 0 -38 16t-16 38t16 37.5t38 15.5t38 -15.5t16 -37.5t-16 -38t-38 -16zM451 786q-23 0 -38.5 16t-15.5 38t16 37.5t38 15.5t38 -15.5t16 -37.5t-15.5 -38t-38.5 -16zM356 -17q-133 0 -203 79.5t-70 234.5v420h98v-419q0 -222 175 -222q92 0 133.5 55.5
t41.5 166.5v419h99v-420q0 -154 -71 -234t-203 -80z" />
    <glyph glyph-name="Yacute" unicode="&#xdd;" horiz-adv-x="648" 
d="M249 772l81 134h110l-122 -134h-69zM274 0v284l-263 430h113l203 -336l201 336h110l-265 -428v-286h-99z" />
    <glyph glyph-name="Thorn" unicode="&#xde;" horiz-adv-x="640" 
d="M92 0v714h98v-139h196q111 0 167 -59t56 -155q0 -94 -59 -154t-169 -60h-191v-147h-98zM190 225h170q69 0 111 32.5t42 103.5q0 136 -153 136h-170v-272z" />
    <glyph glyph-name="germandbls" unicode="&#xdf;" horiz-adv-x="567" 
d="M72 0v500q0 102 60.5 163t156.5 61q97 0 154.5 -50.5t57.5 -141.5q0 -51 -25.5 -94t-58.5 -62q41 -13 74 -58.5t33 -109.5q0 -100 -60 -154t-175 -54h-68v81h68q68 0 105.5 33t37.5 95q0 60 -38 89.5t-93 29.5h-25v84h25q50 0 79.5 34t29.5 84q0 52 -34.5 80.5
t-86.5 28.5q-62 0 -93 -38t-31 -91v-510h-93z" />
    <glyph glyph-name="agrave" unicode="&#xe0;" horiz-adv-x="540" 
d="M302 573h-61l-102 144h102zM200 -13q-68 0 -116.5 40.5t-48.5 108.5q0 133 168 164l111 21q34 6 44.5 17.5t10.5 34.5q0 30 -25 50t-82 20t-84 -20.5t-26 -60.5h-93q1 78 55.5 122.5t145.5 44.5q201 0 201 -184v-234q0 -19 8 -27t27 -8h12v-76h-73q-59 0 -59 55v11
q-58 -79 -176 -79zM221 71q67 0 109 38t42 92v61q-15 -9 -43 -15l-89 -19q-56 -12 -80 -30t-24 -53t22 -54.5t63 -19.5z" />
    <glyph glyph-name="aacute" unicode="&#xe1;" horiz-adv-x="540" 
d="M215 573l61 144h102l-102 -144h-61zM200 -13q-68 0 -116.5 40.5t-48.5 108.5q0 133 168 164l111 21q34 6 44.5 17.5t10.5 34.5q0 30 -25 50t-82 20t-84 -20.5t-26 -60.5h-93q1 78 55.5 122.5t145.5 44.5q201 0 201 -184v-234q0 -19 8 -27t27 -8h12v-76h-73q-59 0 -59 55
v11q-58 -79 -176 -79zM221 71q67 0 109 38t42 92v61q-15 -9 -43 -15l-89 -19q-56 -12 -80 -30t-24 -53t22 -54.5t63 -19.5z" />
    <glyph glyph-name="acircumflex" unicode="&#xe2;" horiz-adv-x="540" 
d="M115 574l108 143h78l107 -143h-74l-76 79l-72 -79h-71zM200 -13q-68 0 -116.5 40.5t-48.5 108.5q0 133 168 164l111 21q34 6 44.5 17.5t10.5 34.5q0 30 -25 50t-82 20t-84 -20.5t-26 -60.5h-93q1 78 55.5 122.5t145.5 44.5q201 0 201 -184v-234q0 -19 8 -27t27 -8h12v-76
h-73q-59 0 -59 55v11q-58 -79 -176 -79zM221 71q67 0 109 38t42 92v61q-15 -9 -43 -15l-89 -19q-56 -12 -80 -30t-24 -53t22 -54.5t63 -19.5z" />
    <glyph glyph-name="atilde" unicode="&#xe3;" horiz-adv-x="540" 
d="M121 609q0 45 21.5 69t54.5 24q24 0 62 -12.5t54 -12.5q28 0 28 26h61q0 -45 -21.5 -69.5t-54.5 -24.5q-24 0 -62 13t-54 13q-27 0 -27 -26h-62zM200 -13q-68 0 -116.5 40.5t-48.5 108.5q0 133 168 164l111 21q34 6 44.5 17.5t10.5 34.5q0 30 -25 50t-82 20t-84 -20.5
t-26 -60.5h-93q1 78 55.5 122.5t145.5 44.5q201 0 201 -184v-234q0 -19 8 -27t27 -8h12v-76h-73q-59 0 -59 55v11q-58 -79 -176 -79zM221 71q67 0 109 38t42 92v61q-15 -9 -43 -15l-89 -19q-56 -12 -80 -30t-24 -53t22 -54.5t63 -19.5z" />
    <glyph glyph-name="adieresis" unicode="&#xe4;" horiz-adv-x="540" 
d="M174 600q-22 0 -38 16t-16 38t16 37.5t38 15.5t38 -15.5t16 -37.5t-16 -38t-38 -16zM350 600q-22 0 -38 16t-16 38t16 37.5t38 15.5t38 -15.5t16 -37.5t-16 -38t-38 -16zM200 -13q-68 0 -116.5 40.5t-48.5 108.5q0 133 168 164l111 21q34 6 44.5 17.5t10.5 34.5
q0 30 -25 50t-82 20t-84 -20.5t-26 -60.5h-93q1 78 55.5 122.5t145.5 44.5q201 0 201 -184v-234q0 -19 8 -27t27 -8h12v-76h-73q-59 0 -59 55v11q-58 -79 -176 -79zM221 71q67 0 109 38t42 92v61q-15 -9 -43 -15l-89 -19q-56 -12 -80 -30t-24 -53t22 -54.5t63 -19.5z" />
    <glyph glyph-name="aring" unicode="&#xe5;" horiz-adv-x="540" 
d="M262 549q-44 0 -74.5 30.5t-30.5 75.5q0 46 30.5 76.5t74.5 30.5t74.5 -31t30.5 -76t-30.5 -75.5t-74.5 -30.5zM262 597q23 0 38 16.5t15 41.5t-15 41.5t-38 16.5t-38.5 -16.5t-15.5 -41.5t15.5 -41.5t38.5 -16.5zM200 -13q-68 0 -116.5 40.5t-48.5 108.5q0 133 168 164
l111 21q34 6 44.5 17.5t10.5 34.5q0 30 -25 50t-82 20t-84 -20.5t-26 -60.5h-93q1 78 55.5 122.5t145.5 44.5q201 0 201 -184v-234q0 -19 8 -27t27 -8h12v-76h-73q-59 0 -59 55v11q-58 -79 -176 -79zM221 71q67 0 109 38t42 92v61q-15 -9 -43 -15l-89 -19q-56 -12 -80 -30
t-24 -53t22 -54.5t63 -19.5z" />
    <glyph glyph-name="ae" unicode="&#xe6;" horiz-adv-x="877" 
d="M463 227q4 -70 45.5 -112t104.5 -42q50 0 83.5 21.5t42.5 61.5h88q-14 -76 -72.5 -122.5t-143.5 -46.5q-136 0 -200 109q-64 -109 -211 -109q-68 0 -116.5 40.5t-48.5 108.5q0 133 168 164l111 21q34 6 44.5 17.5t10.5 34.5q0 30 -25 50t-82 20t-84 -20.5t-26 -60.5h-93
q1 78 55.5 122.5t145.5 44.5q133 0 177 -78q68 78 174 78q107 0 168 -71t61 -187q0 -31 -1 -44h-376zM610 443q-59 0 -98.5 -36t-46.5 -99h282q-4 58 -40.5 96.5t-96.5 38.5zM372 201v61q-15 -9 -43 -15l-89 -19q-56 -12 -80 -30t-24 -53q0 -34 22.5 -53.5t62.5 -19.5
q67 0 109 38t42 91z" />
    <glyph glyph-name="ccedilla" unicode="&#xe7;" horiz-adv-x="536" 
d="M279 73q57 0 86.5 23.5t36.5 77.5h93q-9 -83 -58 -130.5t-128 -55.5l-26 -25l2 -2q12 2 23 2q39 0 62 -18t23 -49q0 -42 -33.5 -66.5t-81.5 -24.5q-65 3 -110 39l23 37q31 -24 76 -24q50 0 50 33q0 14 -9.5 23t-25.5 9q-24 0 -46 -8l-20 29l45 45q-102 6 -160 79t-58 187
q0 122 63.5 198.5t177.5 76.5q88 0 146 -49t65 -148h-93q-1 52 -33.5 81.5t-85.5 29.5q-75 0 -112 -53.5t-37 -134.5q0 -80 36.5 -131t108.5 -51z" />
    <glyph glyph-name="egrave" unicode="&#xe8;" horiz-adv-x="548" 
d="M321 573h-61l-102 144h102zM134 227q4 -70 46 -112t104 -42q50 0 83.5 21.5t42.5 61.5h88q-14 -76 -72.5 -122.5t-143.5 -46.5q-106 0 -172.5 71.5t-66.5 199.5q0 120 67.5 195.5t171.5 75.5q107 0 168 -71t61 -187q0 -31 -1 -44h-376zM281 443q-59 0 -98.5 -36
t-46.5 -99h282q-4 58 -40.5 96.5t-96.5 38.5z" />
    <glyph glyph-name="eacute" unicode="&#xe9;" horiz-adv-x="548" 
d="M397 717l-102 -144h-61l61 144h102zM134 227q4 -70 46 -112t104 -42q50 0 83.5 21.5t42.5 61.5h88q-14 -76 -72.5 -122.5t-143.5 -46.5q-106 0 -172.5 71.5t-66.5 199.5q0 120 67.5 195.5t171.5 75.5q107 0 168 -71t61 -187q0 -31 -1 -44h-376zM281 443q-59 0 -98.5 -36
t-46.5 -99h282q-4 58 -40.5 96.5t-96.5 38.5z" />
    <glyph glyph-name="ecircumflex" unicode="&#xea;" horiz-adv-x="548" 
d="M277 653l-72 -79h-71l108 143h78l107 -143h-74zM134 227q4 -70 46 -112t104 -42q50 0 83.5 21.5t42.5 61.5h88q-14 -76 -72.5 -122.5t-143.5 -46.5q-106 0 -172.5 71.5t-66.5 199.5q0 120 67.5 195.5t171.5 75.5q107 0 168 -71t61 -187q0 -31 -1 -44h-376zM281 443
q-59 0 -98.5 -36t-46.5 -99h282q-4 58 -40.5 96.5t-96.5 38.5z" />
    <glyph glyph-name="edieresis" unicode="&#xeb;" horiz-adv-x="548" 
d="M193 600q-23 0 -38.5 16t-15.5 38t16 37.5t38 15.5t38 -15.5t16 -37.5t-15.5 -38t-38.5 -16zM369 600q-23 0 -38.5 16t-15.5 38t16 37.5t38 15.5t38 -15.5t16 -37.5t-15.5 -38t-38.5 -16zM134 227q4 -70 46 -112t104 -42q50 0 83.5 21.5t42.5 61.5h88
q-14 -76 -72.5 -122.5t-143.5 -46.5q-106 0 -172.5 71.5t-66.5 199.5q0 120 67.5 195.5t171.5 75.5q107 0 168 -71t61 -187q0 -31 -1 -44h-376zM281 443q-59 0 -98.5 -36t-46.5 -99h282q-4 58 -40.5 96.5t-96.5 38.5z" />
    <glyph glyph-name="igrave" unicode="&#xec;" horiz-adv-x="234" 
d="M157 573h-61l-102 144h102zM72 0v516h90v-516h-90z" />
    <glyph glyph-name="iacute" unicode="&#xed;" horiz-adv-x="234" 
d="M70 573l61 144h102l-102 -144h-61zM72 0v516h90v-516h-90z" />
    <glyph glyph-name="icircumflex" unicode="&#xee;" horiz-adv-x="234" 
d="M-30 574l108 143h78l107 -143h-74l-76 79l-72 -79h-71zM72 0v516h90v-516h-90z" />
    <glyph glyph-name="idieresis" unicode="&#xef;" horiz-adv-x="234" 
d="M29 600q-23 0 -38.5 16t-15.5 38t16 37.5t38 15.5t38 -15.5t16 -37.5t-15.5 -38t-38.5 -16zM205 600q-23 0 -38.5 16t-15.5 38t16 37.5t38 15.5t38 -15.5t16 -37.5t-15.5 -38t-38.5 -16zM72 0v516h90v-516h-90z" />
    <glyph glyph-name="eth" unicode="&#xf0;" horiz-adv-x="571" 
d="M525 262v-7v-7q0 -110 -67 -185.5t-175 -75.5q-109 0 -175 73.5t-66 187.5q0 111 66.5 186t174.5 75q51 0 94 -17q-48 74 -95 114l-109 -61l-26 46l93 52q-37 31 -65 44l41 61q71 -40 100 -64l113 63l28 -45l-99 -55q167 -167 167 -385zM283 68q69 0 110.5 49.5
t41.5 130.5q0 80 -41.5 130t-110.5 50q-68 0 -109.5 -50t-41.5 -130q0 -81 41 -130.5t110 -49.5z" />
    <glyph glyph-name="ntilde" unicode="&#xf1;" horiz-adv-x="567" 
d="M145 609q0 45 21.5 69t54.5 24q24 0 62 -12.5t54 -12.5q28 0 28 26h61q0 -45 -21.5 -69.5t-54.5 -24.5q-24 0 -62 13t-54 13q-27 0 -27 -26h-62zM72 0v516h87v-53q22 29 63 47.5t87 18.5q90 0 140.5 -55.5t50.5 -155.5v-318h-90l1 303q0 66 -30.5 103t-80.5 37
q-62 0 -100 -41.5t-38 -109.5v-292h-90z" />
    <glyph glyph-name="ograve" unicode="&#xf2;" horiz-adv-x="567" 
d="M321 573h-61l-102 144h102zM283 -13q-109 0 -175 76.5t-66 194.5q0 115 66.5 193t174.5 78q109 0 175.5 -77t66.5 -194q0 -115 -67 -193t-175 -78zM283 71q69 0 110.5 51.5t41.5 135.5q0 83 -41.5 135t-110.5 52q-68 0 -109.5 -52t-41.5 -135q0 -84 41 -135.5t110 -51.5z
" />
    <glyph glyph-name="oacute" unicode="&#xf3;" horiz-adv-x="567" 
d="M234 573l61 144h102l-102 -144h-61zM283 -13q-109 0 -175 76.5t-66 194.5q0 115 66.5 193t174.5 78q109 0 175.5 -77t66.5 -194q0 -115 -67 -193t-175 -78zM283 71q69 0 110.5 51.5t41.5 135.5q0 83 -41.5 135t-110.5 52q-68 0 -109.5 -52t-41.5 -135q0 -84 41 -135.5
t110 -51.5z" />
    <glyph glyph-name="ocircumflex" unicode="&#xf4;" horiz-adv-x="567" 
d="M134 574l108 143h78l107 -143h-74l-76 79l-72 -79h-71zM283 -13q-109 0 -175 76.5t-66 194.5q0 115 66.5 193t174.5 78q109 0 175.5 -77t66.5 -194q0 -115 -67 -193t-175 -78zM283 71q69 0 110.5 51.5t41.5 135.5q0 83 -41.5 135t-110.5 52q-68 0 -109.5 -52t-41.5 -135
q0 -84 41 -135.5t110 -51.5z" />
    <glyph glyph-name="otilde" unicode="&#xf5;" horiz-adv-x="567" 
d="M140 609q0 45 21.5 69t54.5 24q24 0 62 -12.5t54 -12.5q28 0 28 26h61q0 -45 -21.5 -69.5t-54.5 -24.5q-24 0 -62 13t-54 13q-27 0 -27 -26h-62zM283 -13q-109 0 -175 76.5t-66 194.5q0 115 66.5 193t174.5 78q109 0 175.5 -77t66.5 -194q0 -115 -67 -193t-175 -78z
M283 71q69 0 110.5 51.5t41.5 135.5q0 83 -41.5 135t-110.5 52q-68 0 -109.5 -52t-41.5 -135q0 -84 41 -135.5t110 -51.5z" />
    <glyph glyph-name="odieresis" unicode="&#xf6;" horiz-adv-x="567" 
d="M193 600q-23 0 -38.5 16t-15.5 38t16 37.5t38 15.5t38 -15.5t16 -37.5t-15.5 -38t-38.5 -16zM369 600q-23 0 -38.5 16t-15.5 38t16 37.5t38 15.5t38 -15.5t16 -37.5t-15.5 -38t-38.5 -16zM283 -13q-109 0 -175 76.5t-66 194.5q0 115 66.5 193t174.5 78q109 0 175.5 -77
t66.5 -194q0 -115 -67 -193t-175 -78zM283 71q69 0 110.5 51.5t41.5 135.5q0 83 -41.5 135t-110.5 52q-68 0 -109.5 -52t-41.5 -135q0 -84 41 -135.5t110 -51.5z" />
    <glyph glyph-name="divide" unicode="&#xf7;" horiz-adv-x="588" 
d="M294 416q-27 0 -46 19.5t-19 46.5q0 28 19 47t46 19q26 0 45 -19.5t19 -46.5q0 -26 -18 -46t-46 -20zM54 238v70h480v-70h-480zM294 -3q-27 0 -46 19.5t-19 46.5t19.5 46.5t45.5 19.5t45 -19.5t19 -46.5q0 -26 -18 -46t-46 -20z" />
    <glyph glyph-name="oslash" unicode="&#xf8;" horiz-adv-x="572" 
d="M537 503l-62 -68q53 -73 53 -177q0 -115 -67 -193t-175 -78q-94 0 -160 61l-58 -64l-32 28l62 68q-53 73 -53 178q0 115 66.5 193t174.5 78q96 0 161 -62l58 65zM135 258q0 -61 24 -109l229 253q-41 43 -102 43q-68 0 -109.5 -52t-41.5 -135zM438 258q0 62 -24 108
l-229 -253q39 -42 101 -42q69 0 110.5 51.5t41.5 135.5z" />
    <glyph glyph-name="ugrave" unicode="&#xf9;" horiz-adv-x="563" 
d="M320 573h-61l-102 144h102zM250 -13q-88 0 -135.5 53t-47.5 149v327h90l-1 -309q0 -70 31.5 -102t84.5 -32q65 0 97 46t32 109v288h90v-516h-87v52q-18 -28 -60.5 -46.5t-93.5 -18.5z" />
    <glyph glyph-name="uacute" unicode="&#xfa;" horiz-adv-x="563" 
d="M233 573l61 144h102l-102 -144h-61zM250 -13q-88 0 -135.5 53t-47.5 149v327h90l-1 -309q0 -70 31.5 -102t84.5 -32q65 0 97 46t32 109v288h90v-516h-87v52q-18 -28 -60.5 -46.5t-93.5 -18.5z" />
    <glyph glyph-name="ucircumflex" unicode="&#xfb;" horiz-adv-x="563" 
d="M133 574l108 143h78l107 -143h-74l-76 79l-72 -79h-71zM250 -13q-88 0 -135.5 53t-47.5 149v327h90l-1 -309q0 -70 31.5 -102t84.5 -32q65 0 97 46t32 109v288h90v-516h-87v52q-18 -28 -60.5 -46.5t-93.5 -18.5z" />
    <glyph glyph-name="udieresis" unicode="&#xfc;" horiz-adv-x="563" 
d="M192 600q-22 0 -38 16t-16 38t16 37.5t38 15.5t38 -15.5t16 -37.5t-16 -38t-38 -16zM368 600q-22 0 -38 16t-16 38t16 37.5t38 15.5t38 -15.5t16 -37.5t-16 -38t-38 -16zM250 -13q-88 0 -135.5 53t-47.5 149v327h90l-1 -309q0 -70 31.5 -102t84.5 -32q65 0 97 46t32 109
v288h90v-516h-87v52q-18 -28 -60.5 -46.5t-93.5 -18.5z" />
    <glyph glyph-name="yacute" unicode="&#xfd;" horiz-adv-x="516" 
d="M215 573l61 144h102l-102 -144h-61zM69 -213v85h73q41 0 59 15q20 17 20 43q0 25 -17 74l-184 512h104l86 -267l63 -192l56 192l71 267h98l-189 -604q-22 -71 -54.5 -98t-91.5 -27h-94z" />
    <glyph glyph-name="thorn" unicode="&#xfe;" horiz-adv-x="579" 
d="M313 529q102 0 162.5 -74.5t60.5 -194.5q0 -121 -63 -197t-163 -76q-96 0 -150 66l2 -265h-90v929h83v-267q57 79 158 79zM305 71q65 0 103 52.5t38 135.5q0 81 -38 133.5t-102 52.5q-65 0 -105 -50t-40 -136q0 -88 40.5 -138t103.5 -50z" />
    <glyph glyph-name="ydieresis" unicode="&#xff;" horiz-adv-x="516" 
d="M174 600q-22 0 -38 16t-16 38t16 37.5t38 15.5t38 -15.5t16 -37.5t-16 -38t-38 -16zM350 600q-22 0 -38 16t-16 38t16 37.5t38 15.5t38 -15.5t16 -37.5t-16 -38t-38 -16zM69 -213v85h73q41 0 59 15q20 17 20 43q0 25 -17 74l-184 512h104l86 -267l63 -192l56 192l71 267
h98l-189 -604q-22 -71 -54.5 -98t-91.5 -27h-94z" />
    <glyph glyph-name="dotlessi" unicode="&#x131;" horiz-adv-x="234" 
d="M72 0v516h90v-516h-90z" />
    <glyph glyph-name="Ldot" unicode="&#x13f;" horiz-adv-x="566" 
d="M92 0v717h98v-624h357v-93h-455zM428 325q-26 0 -44 18t-18 44t18.5 44t43.5 18q24 0 42 -18t18 -44q0 -25 -18 -43.5t-42 -18.5z" />
    <glyph glyph-name="ldot" unicode="&#x140;" horiz-adv-x="282" 
d="M175 0q-106 0 -106 97v620h89v-606q0 -21 9.5 -28t27.5 -7h38v-76h-58zM252 322q-26 0 -44 18t-18 44t18.5 44t43.5 18q24 0 42 -18t18 -44q0 -25 -18 -43.5t-42 -18.5z" />
    <glyph glyph-name="Lslash" unicode="&#x141;" horiz-adv-x="587" 
d="M211 93h357v-93h-455v279l-92 -67v75l92 67v363h98v-292l125 91v-74l-125 -91v-258z" />
    <glyph glyph-name="lslash" unicode="&#x142;" horiz-adv-x="300" 
d="M263 438l-80 -67v-260q0 -21 9.5 -28t27.5 -7h38v-76h-58q-106 0 -106 97v199l-53 -44v69l53 44v352h89v-277l80 67v-69z" />
    <glyph glyph-name="OE" unicode="&#x152;" horiz-adv-x="1088" 
d="M373 -17q-149 0 -237.5 107t-88.5 265q0 161 88.5 268.5t237.5 107.5q115 0 198 -70v56h460v-89h-362v-219h334v-88h-334v-233h368v-88h-466v53q-83 -70 -198 -70zM373 76q69 0 120 35.5t78 96.5v295q-27 63 -78 99t-120 36q-105 0 -165 -80t-61 -203q1 -120 61 -199.5
t165 -79.5z" />
    <glyph glyph-name="oe" unicode="&#x153;" horiz-adv-x="940" 
d="M283 -13q-109 0 -175 76.5t-66 194.5q0 115 66.5 193t174.5 78q128 0 197 -105q32 50 82.5 77.5t111.5 27.5q107 0 168 -71t61 -187q0 -31 -1 -44h-376q4 -70 46 -112t104 -42q50 0 83.5 21.5t42.5 61.5h88q-14 -76 -72.5 -122.5t-143.5 -46.5q-131 0 -197 103
q-68 -103 -194 -103zM283 71q69 0 110.5 51.5t41.5 135.5q0 83 -41.5 135t-110.5 52q-68 0 -109.5 -52t-41.5 -135q0 -84 41 -135.5t110 -51.5zM528 308h282q-4 58 -40.5 96.5t-96.5 38.5q-59 0 -98.5 -36t-46.5 -99z" />
    <glyph glyph-name="Scaron" unicode="&#x160;" horiz-adv-x="624" 
d="M272 772l-111 134h75l81 -77l79 77h70l-112 -134h-82zM314 -17q-128 0 -198.5 59.5t-70.5 180.5h95q-1 -77 45 -114.5t131 -37.5q162 0 162 113q0 24 -9.5 43.5t-23 32.5t-39.5 25t-48 19.5t-59 18.5q-56 16 -91.5 30.5t-71.5 38t-53.5 58.5t-17.5 81q0 97 71.5 148.5
t171.5 51.5q109 0 182 -54t76 -170h-95q-3 71 -49 103.5t-114 32.5q-146 0 -146 -101q0 -50 34 -74.5t144 -60.5q47 -14 74 -24t62 -28t53 -38t31.5 -50.5t13.5 -69.5q0 -98 -72 -156t-188 -58z" />
    <glyph glyph-name="scaron" unicode="&#x161;" horiz-adv-x="488" 
d="M201 574l-105 140h75l75 -83l73 83h70l-106 -140h-82zM246 -13q-93 0 -150.5 42t-57.5 132h93q7 -92 116 -92q111 0 111 68q0 26 -18 39.5t-68 31.5l-67 23q-38 13 -60 22.5t-46 26.5t-35 41t-11 56q0 73 54 112.5t137 39.5q87 0 140.5 -40t54.5 -127h-93q-4 85 -104 85
q-97 0 -97 -62q0 -25 16.5 -37t67.5 -30l95 -34q61 -22 91.5 -52t30.5 -85q0 -83 -57 -121.5t-143 -38.5z" />
    <glyph glyph-name="Ydieresis" unicode="&#x178;" horiz-adv-x="648" 
d="M230 786q-22 0 -38 16t-16 38t16 37.5t38 15.5t38 -15.5t16 -37.5t-16 -38t-38 -16zM419 786q-23 0 -38.5 16t-15.5 38t16 37.5t38 15.5t38 -15.5t16 -37.5t-15.5 -38t-38.5 -16zM274 0v284l-263 430h113l203 -336l201 336h110l-265 -428v-286h-99z" />
    <glyph glyph-name="Zcaron" unicode="&#x17d;" horiz-adv-x="631" 
d="M276 772l-111 134h75l81 -77l79 77h70l-112 -134h-82zM37 0v88l289 366q57 73 139 170h-418v90h533v-88l-308 -389q-79 -102 -120 -147h446v-90h-561z" />
    <glyph glyph-name="zcaron" unicode="&#x17e;" horiz-adv-x="484" 
d="M193 574l-105 140h75l75 -83l73 83h70l-106 -140h-82zM35 0v70l286 367h-273v79h387v-69l-288 -368h305v-79h-417z" />
    <glyph glyph-name="florin" unicode="&#x192;" horiz-adv-x="478" 
d="M-33 -158v77h69q38 0 55.5 21t25.5 65l63 353h-98l15 74h97l26 139q14 78 52.5 110.5t115.5 32.5h72v-80h-65q-39 0 -57.5 -17t-26.5 -59l-24 -126h105l-14 -74h-105l-61 -351q-15 -85 -51 -125t-117 -40h-77z" />
    <glyph glyph-name="circumflex" unicode="&#x2c6;" horiz-adv-x="313" 
d="M10 574l108 143h78l107 -143h-74l-76 79l-72 -79h-71z" />
    <glyph glyph-name="caron" unicode="&#x2c7;" horiz-adv-x="313" 
d="M115 574l-105 140h75l75 -83l73 83h70l-106 -140h-82z" />
    <glyph glyph-name="uni02C9" unicode="&#x2c9;" horiz-adv-x="322" 
d="M10 628v52h302v-52h-302z" />
    <glyph glyph-name="breve" unicode="&#x2d8;" horiz-adv-x="306" 
d="M149 574q-62 0 -99.5 35t-39.5 105h57q3 -42 25 -61.5t57 -19.5q82 0 93 81h54q-15 -140 -147 -140z" />
    <glyph glyph-name="dotaccent" unicode="&#x2d9;" horiz-adv-x="141" 
d="M70 601q-24 0 -42 17.5t-18 42.5t18 42.5t42 17.5q25 0 43 -17.5t18 -42.5t-17.5 -42.5t-43.5 -17.5z" />
    <glyph glyph-name="ring" unicode="&#x2da;" horiz-adv-x="230" 
d="M131 549q-45 0 -75 30.5t-30 75.5q0 46 30.5 76.5t74.5 30.5t74.5 -31t30.5 -76t-30.5 -75.5t-74.5 -30.5zM131 597q23 0 38 16.5t15 41.5t-15 41.5t-38 16.5t-38.5 -16.5t-15.5 -41.5t15.5 -41.5t38.5 -16.5z" />
    <glyph glyph-name="ogonek" unicode="&#x2db;" horiz-adv-x="216" 
d="M102 -211q-39 0 -65.5 19.5t-26.5 56.5q0 77 108 135h44q-79 -62 -79 -115q0 -22 12 -34t33 -12q34 0 49 26l29 -18q-37 -58 -104 -58z" />
    <glyph glyph-name="tilde" unicode="&#x2dc;" horiz-adv-x="295" 
d="M7 609q0 45 21.5 69t54.5 24q24 0 62 -12.5t54 -12.5q28 0 28 26h61q0 -45 -21.5 -69.5t-54.5 -24.5q-24 0 -62 13t-54 13q-27 0 -27 -26h-62z" />
    <glyph glyph-name="hungarumlaut" unicode="&#x2dd;" horiz-adv-x="347" 
d="M10 573l61 144h102l-102 -144h-61zM164 573l71 144h102l-112 -144h-61z" />
    <glyph glyph-name="gravecomb" unicode="&#x300;" 
d="M-55 573h-61l-102 144h102z" />
    <glyph glyph-name="acutecomb" unicode="&#x301;" 
d="M-218 573l61 144h102l-102 -144h-61z" />
    <glyph glyph-name="uni0302" unicode="&#x302;" 
d="M-303 574l108 143h78l107 -143h-74l-76 79l-72 -79h-71z" />
    <glyph glyph-name="tildecomb" unicode="&#x303;" 
d="M-285 609q0 45 21.5 69t54.5 24q24 0 62 -12.5t54 -12.5q28 0 28 26h61q0 -45 -21.5 -69.5t-54.5 -24.5q-24 0 -62 13t-54 13q-27 0 -27 -26h-62z" />
    <glyph glyph-name="uni0304" unicode="&#x304;" 
d="M-312 628v52h302v-52h-302z" />
    <glyph glyph-name="uni0306" unicode="&#x306;" 
d="M-157 574q-62 0 -99.5 35t-39.5 105h57q3 -42 25 -61.5t57 -19.5q82 0 93 81h54q-15 -140 -147 -140z" />
    <glyph glyph-name="uni0307" unicode="&#x307;" 
d="M-111 601q-24 0 -42 17.5t-18 42.5t18 42.5t42 17.5q25 0 43 -17.5t18 -42.5t-17.5 -42.5t-43.5 -17.5z" />
    <glyph glyph-name="uni0308" unicode="&#x308;" 
d="M-240 600q-22 0 -38 16t-16 38t16 37.5t38 15.5t38 -15.5t16 -37.5t-16 -38t-38 -16zM-64 600q-22 0 -38 16t-16 38t16 37.5t38 15.5t38 -15.5t16 -37.5t-16 -38t-38 -16z" />
    <glyph glyph-name="uni030A" unicode="&#x30a;" 
d="M-115 549q-45 0 -75 30.5t-30 75.5q0 46 30.5 76.5t74.5 30.5t74.5 -31t30.5 -76t-30.5 -75.5t-74.5 -30.5zM-115 597q23 0 38 16.5t15 41.5t-15 41.5t-38 16.5t-38.5 -16.5t-15.5 -41.5t15.5 -41.5t38.5 -16.5z" />
    <glyph glyph-name="uni030B" unicode="&#x30b;" 
d="M-337 573l61 144h102l-102 -144h-61zM-183 573l71 144h102l-112 -144h-61z" />
    <glyph glyph-name="uni030C" unicode="&#x30c;" 
d="M-198 574l-105 140h75l75 -83l73 83h70l-106 -140h-82z" />
    <glyph glyph-name="uni0326" unicode="&#x326;" 
d="M-178 -248v47q23 0 42.5 10.5t19.5 24.5h-1q-26 0 -43.5 16.5t-17.5 44.5t18 44.5t44 16.5q30 0 48 -19.5t18 -59.5q0 -57 -36 -91t-92 -34z" />
    <glyph glyph-name="uni0327" unicode="&#x327;" 
d="M-156 -195q-65 3 -110 39l23 37q32 -24 76 -24q50 0 50 33q0 14 -9.5 23t-25.5 9q-24 0 -46 -8l-20 29l57 57h48l-38 -37l2 -2q12 2 23 2q39 0 62 -18t23 -49q0 -42 -33.5 -66.5t-81.5 -24.5z" />
    <glyph glyph-name="uni0328" unicode="&#x328;" 
d="M-114 -211q-39 0 -65.5 19.5t-26.5 56.5q0 77 108 135h44q-79 -62 -79 -115q0 -22 12 -34t33 -12q34 0 49 26l29 -18q-37 -58 -104 -58z" />
    <glyph glyph-name="uni0335" unicode="&#x335;" 
d="M-328 580v65h318v-65h-318z" />
    <glyph glyph-name="uni0336" unicode="&#x336;" 
d="M-609 547h550v-52h-550v52z" />
    <glyph glyph-name="uni0337" unicode="&#x337;" 
d="M-232 267v69l222 186v-69z" />
    <glyph glyph-name="uni0338" unicode="&#x338;" 
d="M-523 -22l-32 28l469 520l32 -29z" />
    <glyph glyph-name="uni0394" unicode="&#x394;" horiz-adv-x="642" 
d="M16 0l258 712h86l270 -712h-614zM131 79h379l-193 529z" />
    <glyph glyph-name="uni03A9" unicode="&#x3a9;" horiz-adv-x="716" 
d="M55 0v76h176v47q-86 37 -131 114.5t-45 173.5q0 134 88 222t215 88q129 0 216.5 -87.5t87.5 -221.5q0 -96 -45 -173t-132 -116v-47h176v-76h-245v182q75 21 114.5 81t39.5 148q0 95 -59 159.5t-152 64.5q-92 0 -152.5 -65t-60.5 -159q0 -90 39.5 -149.5t116.5 -79.5v-182
h-247z" />
    <glyph glyph-name="uni03BC" unicode="&#x3bc;" horiz-adv-x="568" 
d="M72 -178v694h90l-1 -309q0 -70 31.5 -102t84.5 -32q65 0 97 46t32 109v288h90v-516h-87v52q-18 -28 -58.5 -46.5t-85.5 -18.5q-67 0 -104 38v-203h-89z" />
    <glyph glyph-name="pi" unicode="&#x3c0;" horiz-adv-x="589" 
d="M470 -6q-51 0 -69 31t-18 87v286h-188v-398h-82v398h-87v76h517v-76h-79v-267q0 -20 1 -31.5t10 -23.5t27 -12q21 0 40 13v-63q-37 -20 -72 -20z" />
    <glyph glyph-name="endash" unicode="&#x2013;" horiz-adv-x="605" 
d="M65 232v78h475v-78h-475z" />
    <glyph glyph-name="emdash" unicode="&#x2014;" horiz-adv-x="833" 
d="M65 232v78h703v-78h-703z" />
    <glyph glyph-name="quoteleft" unicode="&#x2018;" horiz-adv-x="232" 
d="M115 477q-28 0 -46 19t-18 58q0 68 37 111.5t88 47.5v-47q-23 0 -42.5 -20t-19.5 -49h1q25 0 42.5 -16.5t17.5 -44.5q0 -27 -17.5 -43t-42.5 -16z" />
    <glyph glyph-name="quoteright" unicode="&#x2019;" horiz-adv-x="233" 
d="M123 712q28 0 46 -19t18 -58q0 -68 -37 -111.5t-88 -47.5v47q23 0 42.5 20t19.5 49h-1q-25 0 -42.5 16.5t-17.5 44.5q0 27 17.5 43t42.5 16z" />
    <glyph glyph-name="quotesinglbase" unicode="&#x201a;" horiz-adv-x="239" 
d="M117 105q28 0 46 -19t18 -58q0 -68 -37 -111.5t-88 -47.5v47q23 0 42.5 20t19.5 49h-1q-25 0 -42.5 16.5t-17.5 44.5q0 27 17.5 43t42.5 16z" />
    <glyph glyph-name="quotedblleft" unicode="&#x201c;" horiz-adv-x="399" 
d="M115 477q-28 0 -46 19t-18 58q0 68 37 111.5t88 47.5v-47q-23 0 -42.5 -20t-19.5 -49h1q25 0 42.5 -16.5t17.5 -44.5q0 -27 -17.5 -43t-42.5 -16zM282 477q-28 0 -46 19t-18 58q0 68 37 111.5t88 47.5v-47q-23 0 -42.5 -20t-19.5 -49h1q25 0 42.5 -16.5t17.5 -44.5
q0 -27 -17.5 -43t-42.5 -16z" />
    <glyph glyph-name="quotedblright" unicode="&#x201d;" horiz-adv-x="400" 
d="M123 712q28 0 46 -19t18 -58q0 -68 -37 -111.5t-88 -47.5v47q23 0 42.5 20t19.5 49h-1q-25 0 -42.5 16.5t-17.5 44.5q0 27 17.5 43t42.5 16zM290 712q28 0 46 -19t18 -58q0 -68 -37 -111.5t-88 -47.5v47q23 0 42.5 20t19.5 49h-1q-25 0 -42.5 16.5t-17.5 44.5
q0 27 17.5 43t42.5 16z" />
    <glyph glyph-name="quotedblbase" unicode="&#x201e;" horiz-adv-x="406" 
d="M117 105q28 0 46 -19t18 -58q0 -68 -37 -111.5t-88 -47.5v47q23 0 42.5 20t19.5 49h-1q-25 0 -42.5 16.5t-17.5 44.5q0 27 17.5 43t42.5 16zM284 105q28 0 46 -19t18 -58q0 -68 -37 -111.5t-88 -47.5v47q23 0 42.5 20t19.5 49h-1q-25 0 -42.5 16.5t-17.5 44.5
q0 27 17.5 43t42.5 16z" />
    <glyph glyph-name="dagger" unicode="&#x2020;" horiz-adv-x="571" 
d="M242 -155v577h-185v75h185v217h86v-217h186v-75h-186v-577h-86z" />
    <glyph glyph-name="daggerdbl" unicode="&#x2021;" horiz-adv-x="571" 
d="M242 -155v195h-185v75h185v326h-185v76h185v197h86v-197h186v-76h-186v-326h186v-75h-186v-195h-86z" />
    <glyph glyph-name="bullet" unicode="&#x2022;" horiz-adv-x="438" 
d="M219 178q-61 0 -104.5 45.5t-43.5 110.5t43 110.5t105 45.5t105 -45.5t43 -110.5t-43.5 -110.5t-104.5 -45.5z" />
    <glyph glyph-name="ellipsis" unicode="&#x2026;" horiz-adv-x="717" 
d="M115 -7q-26 0 -43.5 18t-17.5 44t17.5 43.5t43.5 17.5t44 -18t18 -43t-18.5 -43.5t-43.5 -18.5zM355 -7q-26 0 -43.5 18t-17.5 44t17.5 43.5t43.5 17.5t44 -18t18 -43t-18.5 -43.5t-43.5 -18.5zM601 -7q-26 0 -43.5 18t-17.5 44t17.5 43.5t43.5 17.5t44 -18t18 -43
t-18.5 -43.5t-43.5 -18.5z" />
    <glyph glyph-name="perthousand" unicode="&#x2030;" horiz-adv-x="1213" 
d="M162 -29l410 749h66l-411 -749h-65zM213 344q-75 0 -127.5 53t-52.5 128t52.5 128t127.5 53t128 -52.5t53 -128.5t-53 -128.5t-128 -52.5zM213 416q45 0 77 32t32 77q0 46 -32 78.5t-77 32.5q-44 0 -76 -32.5t-32 -78.5q0 -45 32 -77t76 -32zM592 -12q-75 0 -127.5 53
t-52.5 128q0 76 52.5 129t127.5 53t127.5 -53t52.5 -129q0 -75 -52.5 -128t-127.5 -53zM1002 -12q-75 0 -127.5 53t-52.5 128q0 76 52.5 129t127.5 53t127.5 -53t52.5 -129q0 -75 -52.5 -128t-127.5 -53zM592 61q45 0 77 31.5t32 76.5q0 46 -32 78.5t-77 32.5t-77 -32.5
t-32 -78.5q0 -45 32 -76.5t77 -31.5zM1002 61q45 0 77 31.5t32 76.5q0 46 -32 78.5t-77 32.5t-77 -32.5t-32 -78.5q0 -45 32 -76.5t77 -31.5z" />
    <glyph glyph-name="guilsinglleft" unicode="&#x2039;" horiz-adv-x="248" 
d="M179 97l-129 131v85l129 130v-84l-83 -89l83 -89v-84z" />
    <glyph glyph-name="guilsinglright" unicode="&#x203a;" horiz-adv-x="248" 
d="M69 97v84l83 89l-83 89v84l129 -130v-85z" />
    <glyph glyph-name="fraction" unicode="&#x2044;" horiz-adv-x="485" 
d="M0 -27l416 746h71l-415 -746h-72z" />
    <glyph glyph-name="Euro" unicode="&#x20ac;" horiz-adv-x="629" 
d="M345 -18q-104 0 -168 72.5t-72 202.5h-67v61h63v34v30h-63v61h67q15 136 80 207t169 71t163.5 -60t67.5 -163h-93q-8 65 -46 101t-94 36q-124 0 -142 -192h219v-61h-221v-30v-34h221v-61h-219q12 -186 135 -186q71 0 105 40.5t42 117.5h93q-9 -113 -71 -180t-169 -67z
" />
    <glyph glyph-name="trademark" unicode="&#x2122;" horiz-adv-x="932" 
d="M158 302v349h-125v60h325v-60h-124v-349h-76zM424 302v409h87l131 -191l129 191h83v-409h-72v303l-116 -176h-54l-115 176l-1 -303h-72z" />
    <glyph glyph-name="minus" unicode="&#x2212;" horiz-adv-x="596" 
d="M68 238v70h460v-70h-460z" />
    <glyph glyph-name="uniF004" unicode="&#xf004;" horiz-adv-x="227" 
d="M52 -248v47q23 0 42.5 10.5t19.5 24.5h-1q-26 0 -43.5 16.5t-17.5 44.5t18 44.5t44 16.5q30 0 48 -19.5t18 -59.5q0 -57 -36 -91t-92 -34z" />
    <glyph glyph-name="uniF6BE" unicode="&#xf6be;" horiz-adv-x="242" 
d="M-36 -213v86h64q29 0 40.5 11t11.5 42v590h90v-601q0 -70 -29.5 -99t-93.5 -29h-83z" />
    <glyph glyph-name="uniF8FF" unicode="&#xf8ff;" horiz-adv-x="894" 
d="M239 717h372v-120h-246v-189q40 -14 95.5 -43.5t97.5 -53.5t96.5 -43t102.5 -19l47 4q-2 -4 -8 -9t-30.5 -14t-58.5 -9q-125 0 -342 113v-334h-126v386q-24 10 -52 10q-34 0 -56 -14.5t-22 -42.5q0 -19 10 -35t27 -22q-26 1 -41 18t-15 45q0 40 33.5 65t92.5 25
q14 0 23 -2v284z" />
    <glyph glyph-name="a.ss01" horiz-adv-x="584" 
d="M422 516h90v-516h-90v53q-55 -66 -147 -66q-108 0 -170 73t-62 199q0 119 64.5 194.5t170.5 75.5q91 0 144 -58v45zM281 71q65 0 103.5 51t38.5 138q0 85 -39 135t-103 50t-103.5 -53t-39.5 -133q0 -82 39.5 -135t103.5 -53z" />
    <glyph glyph-name="aacute.ss01" horiz-adv-x="584" 
d="M412 717l-102 -144h-61l61 144h102zM422 516h90v-516h-90v53q-55 -66 -147 -66q-108 0 -170 73t-62 199q0 119 64.5 194.5t170.5 75.5q91 0 144 -58v45zM281 71q65 0 103.5 51t38.5 138q0 85 -39 135t-103 50t-103.5 -53t-39.5 -133q0 -82 39.5 -135t103.5 -53z" />
    <glyph glyph-name="acircumflex.ss01" horiz-adv-x="584" 
d="M292 653l-72 -79h-71l108 143h78l107 -143h-74zM422 516h90v-516h-90v53q-55 -66 -147 -66q-108 0 -170 73t-62 199q0 119 64.5 194.5t170.5 75.5q91 0 144 -58v45zM281 71q65 0 103.5 51t38.5 138q0 85 -39 135t-103 50t-103.5 -53t-39.5 -133q0 -82 39.5 -135
t103.5 -53z" />
    <glyph glyph-name="adieresis.ss01" horiz-adv-x="584" 
d="M208 600q-22 0 -38 16t-16 38t16 37.5t38 15.5t38 -15.5t16 -37.5t-16 -38t-38 -16zM384 600q-22 0 -38 16t-16 38t16 37.5t38 15.5t38 -15.5t16 -37.5t-16 -38t-38 -16zM422 516h90v-516h-90v53q-55 -66 -147 -66q-108 0 -170 73t-62 199q0 119 64.5 194.5t170.5 75.5
q91 0 144 -58v45zM281 71q65 0 103.5 51t38.5 138q0 85 -39 135t-103 50t-103.5 -53t-39.5 -133q0 -82 39.5 -135t103.5 -53z" />
    <glyph glyph-name="agrave.ss01" horiz-adv-x="584" 
d="M336 573h-61l-102 144h102zM422 516h90v-516h-90v53q-55 -66 -147 -66q-108 0 -170 73t-62 199q0 119 64.5 194.5t170.5 75.5q91 0 144 -58v45zM281 71q65 0 103.5 51t38.5 138q0 85 -39 135t-103 50t-103.5 -53t-39.5 -133q0 -82 39.5 -135t103.5 -53z" />
    <glyph glyph-name="aring.ss01" horiz-adv-x="584" 
d="M296 549q-44 0 -74.5 30.5t-30.5 75.5q0 46 30.5 76.5t74.5 30.5t74.5 -31t30.5 -76t-30.5 -75.5t-74.5 -30.5zM296 713q-23 0 -38.5 -16.5t-15.5 -41.5t15.5 -41.5t38.5 -16.5t38 16.5t15 41.5t-15 41.5t-38 16.5zM422 516h90v-516h-90v53q-55 -66 -147 -66
q-108 0 -170 73t-62 199q0 119 64.5 194.5t170.5 75.5q91 0 144 -58v45zM281 71q65 0 103.5 51t38.5 138q0 85 -39 135t-103 50t-103.5 -53t-39.5 -133q0 -82 39.5 -135t103.5 -53z" />
    <glyph glyph-name="atilde.ss01" horiz-adv-x="584" 
d="M244 635q-27 0 -27 -26h-62q0 45 21.5 69t54.5 24q24 0 62 -12.5t54 -12.5q28 0 28 26h61q0 -45 -21.5 -69.5t-54.5 -24.5q-24 0 -62 13t-54 13zM422 516h90v-516h-90v53q-55 -66 -147 -66q-108 0 -170 73t-62 199q0 119 64.5 194.5t170.5 75.5q91 0 144 -58v45zM281 71
q65 0 103.5 51t38.5 138q0 85 -39 135t-103 50t-103.5 -53t-39.5 -133q0 -82 39.5 -135t103.5 -53z" />
    <glyph glyph-name="g.ss01" horiz-adv-x="592" 
d="M494 516h64v-75h-22q-30 0 -30 -32v-391q0 -121 -46.5 -176t-152.5 -55h-195v85h173q76 0 103 32t28 110v39q-58 -66 -150 -66q-107 0 -165 75.5t-58 200.5q0 116 62.5 191t164.5 75q94 0 151 -66q6 53 73 53zM277 71q66 0 104 53.5t38 139.5q0 81 -38.5 131t-101.5 50
q-68 0 -107 -50.5t-39 -130.5q0 -87 36.5 -140t107.5 -53z" />
    <glyph glyph-name="k.ss01" horiz-adv-x="514" 
d="M515 0h-113l-177 227l-63 -1v-226h-90v714h90v-405h64l165 207h106l-196 -242z" />
    <glyph glyph-name="t.ss01" horiz-adv-x="386" 
d="M149 0v434h-127v82h127v147h90v-147h132v-82h-132v-434h-90z" />
    <glyph glyph-name="y.ss01" horiz-adv-x="508" 
d="M88 -213v85h74q32 0 45.5 10t13.5 38v59l-204 537h97l155 -434l130 434h93l-180 -543v-91q0 -50 -24 -72.5t-77 -22.5h-123z" />
    <glyph glyph-name="yacute.ss01" horiz-adv-x="508" 
d="M214 573l61 144h102l-102 -144h-61zM88 -213v85h74q32 0 45.5 10t13.5 38v59l-204 537h97l155 -434l130 434h93l-180 -543v-91q0 -50 -24 -72.5t-77 -22.5h-123z" />
    <glyph glyph-name="ydieresis.ss01" horiz-adv-x="508" 
d="M173 600q-23 0 -38.5 16t-15.5 38t16 37.5t38 15.5t38 -15.5t16 -37.5t-15.5 -38t-38.5 -16zM349 600q-23 0 -38.5 16t-15.5 38t16 37.5t38 15.5t38 -15.5t16 -37.5t-15.5 -38t-38.5 -16zM88 -213v85h74q32 0 45.5 10t13.5 38v59l-204 537h97l155 -434l130 434h93
l-180 -543v-91q0 -50 -24 -72.5t-77 -22.5h-123z" />
    <glyph glyph-name="zero.osf" horiz-adv-x="598" 
d="M298 -10q-114 0 -183 73t-69 204q0 122 70 198.5t182 76.5t183 -76.5t71 -198.5q0 -131 -70 -204t-184 -73zM298 70q57 0 94 29.5t50 71.5t13 96q0 49 -13 90t-50 72.5t-94 31.5q-43 0 -74.5 -17.5t-48 -47t-24 -61.5t-7.5 -68q0 -54 13 -96t49 -71.5t92 -29.5z" />
    <glyph glyph-name="one.osf" horiz-adv-x="349" 
d="M167 0v364h-150v68q82 2 119.5 22.5t54.5 79.5h69v-534h-93z" />
    <glyph glyph-name="two.osf" horiz-adv-x="536" 
d="M47 0q0 86 47 143.5t161 111.5q68 32 96.5 57.5t28.5 64.5q0 83 -114 83q-122 0 -122 -109h-93q-1 90 59 140.5t160 50.5q99 0 153.5 -43t54.5 -120q0 -69 -49 -115.5t-142 -89.5q-48 -22 -84 -48.5t-36 -43.5h329v-82h-449z" />
    <glyph glyph-name="three.osf" horiz-adv-x="578" 
d="M284 -181q-117 0 -180.5 57t-65.5 171h93q10 -150 153 -150q70 0 110 35.5t40 99.5q0 58 -36 92.5t-137 34.5h-26v72h32q144 0 144 123q0 50 -35.5 80t-89.5 30q-27 0 -48.5 -5t-45 -18.5t-36.5 -44.5t-14 -78h-93q0 107 62 165.5t175 58.5q104 0 163 -48t59 -136
q0 -102 -88 -149l-8 -4l8 -2q46 -11 79.5 -53t33.5 -110q0 -107 -69 -164t-180 -57z" />
    <glyph glyph-name="four.osf" horiz-adv-x="569" 
d="M359 -160v160h-334v87l331 441h92v-447h95v-81h-95v-160h-89zM118 81h241v320h-3z" />
    <glyph glyph-name="five.osf" horiz-adv-x="544" 
d="M274 -178q-113 0 -176.5 58t-63.5 149h93q2 -52 40.5 -91t106.5 -39t106 43t38 118q0 70 -37.5 112t-106.5 42q-89 0 -135 -56h-84l53 368h367v-84h-298l-29 -197q14 17 49.5 33t86.5 16q101 0 162.5 -62t61.5 -172q0 -104 -64.5 -171t-169.5 -67z" />
    <glyph glyph-name="six.osf" horiz-adv-x="568" 
d="M291 -13q-122 0 -181 85.5t-59 238.5q0 184 62.5 288.5t191.5 104.5q92 0 147.5 -50.5t55.5 -129.5h-93q0 44 -29.5 73.5t-80.5 29.5q-80 0 -117 -65t-47 -193l-1 -12l5 9q19 35 63 59t100 24q99 0 157 -60.5t58 -165.5q0 -106 -63.5 -171t-168.5 -65zM292 65
q64 0 102.5 43t38.5 112q0 73 -36.5 112t-102.5 39q-65 0 -102 -43.5t-37 -108.5q0 -67 37 -110.5t100 -43.5z" />
    <glyph glyph-name="seven.osf" horiz-adv-x="484" 
d="M114 -165q6 161 74 318t180 289h-351v84h449v-81q-111 -120 -183.5 -284.5t-73.5 -325.5h-95z" />
    <glyph glyph-name="eight.osf" horiz-adv-x="566" 
d="M284 -13q-113 0 -176 58t-63 152q0 124 118 184q-87 43 -87 144q0 79 58.5 129.5t149.5 50.5t148 -50t57 -130q0 -94 -87 -144q118 -47 118 -184q0 -91 -67 -150.5t-169 -59.5zM284 420q51 0 82 28t31 72q0 45 -31 73t-83 28q-50 0 -82 -28t-32 -73q0 -44 32 -72t83 -28z
M284 71q63 0 101 36.5t38 94.5q0 60 -38 96t-102 36t-102.5 -36t-38.5 -96q0 -58 39 -94.5t103 -36.5z" />
    <glyph glyph-name="nine.osf" horiz-adv-x="558" 
d="M257 -181q-93 0 -149 51t-56 132h91q0 -49 30.5 -77.5t83.5 -28.5q82 0 118 63.5t47 192.5l1 12l-6 -10q-48 -79 -162 -79q-98 0 -156 61t-58 164q0 106 63 171t167 65q240 0 240 -324q0 -393 -254 -393zM270 152q67 0 102 40t35 112q0 73 -36 113.5t-101 40.5
q-63 0 -101 -43t-38 -112q0 -73 36 -112t103 -39z" />
    <glyph glyph-name="zero.tf" horiz-adv-x="570" 
d="M284 -13q-114 0 -177 93t-63 267q0 172 63 265t177 93q115 0 179 -93t64 -265q0 -174 -63.5 -267t-179.5 -93zM284 69q36 0 63.5 19t42.5 47.5t24.5 68t12 73t2.5 70.5q0 36 -2.5 69t-12 72.5t-24.5 68t-42.5 47.5t-63.5 19t-62.5 -19t-41.5 -47.5t-24 -68t-11.5 -72.5
t-2.5 -69q0 -48 5 -90t19 -88t44 -73t74 -27z" />
    <glyph glyph-name="one.tf" horiz-adv-x="570" 
d="M289 0v494h-165v70q96 6 133.5 29t56.5 100h69v-693h-94z" />
    <glyph glyph-name="two.tf" horiz-adv-x="570" 
d="M60 0q0 96 50.5 169t182.5 156q71 43 103 83.5t32 91.5q0 55 -32.5 85t-97.5 30q-77 0 -109 -43.5t-32 -124.5h-91q0 123 63 190t173 67q105 0 163 -52.5t58 -147.5q0 -80 -50 -138t-164 -130q-121 -75 -136 -152h361v-84h-474z" />
    <glyph glyph-name="three.tf" horiz-adv-x="570" 
d="M269 -13q-234 0 -239 228h92q10 -141 147 -141q70 0 113.5 33t43.5 93t-36.5 95t-139.5 35h-26v72h32q150 0 150 114q0 48 -33.5 74t-96.5 26q-30 0 -53 -5t-45.5 -18t-35 -41.5t-12.5 -71.5h-91q0 106 64.5 165t172.5 59q103 0 162 -48t59 -134q0 -99 -88 -142l-8 -4
l8 -2q110 -35 110 -164q0 -107 -69.5 -165t-180.5 -58z" />
    <glyph glyph-name="four.tf" horiz-adv-x="570" 
d="M363 0v160h-338v81l335 450h93v-456h94v-75h-94v-160h-90zM118 235h245v329h-3z" />
    <glyph glyph-name="five.tf" horiz-adv-x="570" 
d="M284 -13q-113 0 -172.5 57.5t-59.5 149.5h90q2 -54 37.5 -92t104.5 -38q72 0 112 43t40 118q0 70 -37.5 112.5t-106.5 42.5q-88 0 -135 -57h-84l53 368h367v-84h-298l-29 -197q15 17 51 33t85 16q104 0 164.5 -61t60.5 -173q0 -104 -67 -171t-176 -67z" />
    <glyph glyph-name="six.tf" horiz-adv-x="570" 
d="M287 -13q-243 0 -243 324q0 184 63 288.5t194 104.5q92 0 147 -50.5t55 -129.5h-91q0 44 -30.5 73t-83.5 29q-77 0 -113 -64.5t-47 -191.5l-1 -12l5 9q19 34 63 58t99 24q101 0 158.5 -58t57.5 -167q0 -106 -63.5 -171.5t-169.5 -65.5zM288 65q69 0 105 42t36 113
q0 73 -36.5 112t-104.5 39q-61 0 -99 -44t-38 -108q0 -70 37 -112t100 -42z" />
    <glyph glyph-name="seven.tf" horiz-adv-x="570" 
d="M185 0q6 163 72.5 320.5t179.5 286.5h-359v84h459v-81q-123 -132 -189.5 -288t-67.5 -322h-95z" />
    <glyph glyph-name="eight.tf" horiz-adv-x="570" 
d="M293 -13q-110 0 -174.5 57t-64.5 154q0 126 125 183q-94 41 -94 148q0 77 58.5 126.5t149.5 49.5q90 0 147.5 -49.5t57.5 -126.5q0 -100 -94 -148q125 -45 125 -183q0 -91 -67 -151t-169 -60zM293 417q50 0 81 28.5t31 73.5q0 48 -29 76t-84 28q-54 0 -83.5 -28.5
t-29.5 -75.5q0 -45 32 -73.5t82 -28.5zM293 69q63 0 101 36.5t38 96.5q0 62 -38 99.5t-102 37.5t-102.5 -37.5t-38.5 -99.5q0 -60 38.5 -96.5t103.5 -36.5z" />
    <glyph glyph-name="nine.tf" horiz-adv-x="570" 
d="M277 -13q-93 0 -149 51t-56 132h91q0 -49 30.5 -77.5t83.5 -28.5q82 0 118 63.5t47 192.5l1 12l-6 -10q-48 -79 -162 -79q-99 0 -157.5 61t-58.5 164q0 106 63.5 171t168.5 65q243 0 243 -324q0 -393 -257 -393zM290 320q67 0 102 40t35 112q0 73 -36 113.5t-101 40.5
q-63 0 -101 -43t-38 -112q0 -73 36 -112t103 -39z" />
    <glyph glyph-name="dollar.osf" horiz-adv-x="515" 
d="M472 151q0 -73 -52 -115.5t-141 -47.5v-63h-45v63q-89 5 -142 51t-52 138h93q0 -50 25.5 -74.5t75.5 -29.5v159q-86 20 -132 54.5t-46 103.5q0 68 49 107t129 44v69h45v-69q82 -5 131.5 -47t49.5 -115h-93q-3 69 -88 80v-143q1 0 3 -1t3 -1q30 -8 45 -12.5t39 -13.5
t35.5 -16t27 -19.5t22.5 -26t12.5 -33t5.5 -42.5zM150 399q0 -26 20 -41t64 -29v131q-84 -6 -84 -61zM279 72q48 2 73.5 18t25.5 55q0 29 -23.5 45.5t-75.5 30.5v-149z" />
    <glyph glyph-name="Euro.osf" horiz-adv-x="572" 
d="M314 -13q-92 0 -150 56t-68 156h-60v51h55v22v17h-55v51h61q16 98 74 150t149 52q88 0 146.5 -42.5t65.5 -126.5h-93q-9 49 -39.5 69.5t-80.5 20.5q-108 0 -131 -123h205v-51h-213v-18v-21h213v-51h-206q8 -63 42 -98t91 -35q55 0 83 22.5t36 67.5h93q-7 -85 -66.5 -127
t-151.5 -42z" />
    <glyph glyph-name="florin.osf" horiz-adv-x="369" 
d="M290 460q-36 0 -53.5 -12t-20.5 -39l-11 -92h103l-13 -65h-97l-28 -238q-9 -72 -44 -105.5t-114 -33.5h-70v79h62q34 0 50 14.5t20 44.5l29 239h-79l14 65h73l13 103q8 65 45.5 92.5t112.5 27.5h67v-80h-59z" />
    <glyph glyph-name="sterling.osf" horiz-adv-x="559" 
d="M450 80h62v-80h-77q-89 0 -183 45q-43 -55 -119 -55q-45 0 -73.5 22.5t-28.5 66.5q0 40 28.5 63.5t69.5 23.5q31 0 69 -12v8q0 26 -14 63h-122v63h95q-22 55 -22 95q0 75 51.5 116.5t139.5 41.5q83 0 131.5 -43.5t48.5 -122.5h-89q-2 35 -24.5 61t-66.5 26q-95 0 -95 -74
q0 -30 28 -100h141v-63h-118q9 -34 9 -59q0 -24 -6 -49q90 -37 165 -37zM129 61q33 0 50 20q-33 14 -50 14q-22 0 -22 -17t22 -17z" />
    <glyph glyph-name="yen.osf" horiz-adv-x="590" 
d="M245 0v160h-153v60h144l-59 83h-109v60h74l-129 177h118l169 -243l165 243h113l-127 -176h65v-60h-101l-62 -84h146v-60h-154v-160h-100z" />
    <glyph glyph-name="caroncomb.alt" 
d="M-159 542v40q26 0 40.5 13.5t13.5 38.5h-1q-23 0 -38 14t-15 39q0 23 16 37.5t38 14.5q25 0 42 -17.5t17 -52.5q0 -59 -31 -93t-82 -34z" />
    <glyph glyph-name="uni0326.alt" 
d="M-109 577q-30 0 -48.5 19t-18.5 57q0 57 36.5 92.5t92.5 35.5v-47q-23 0 -42.5 -10.5t-19.5 -24.5h1q26 0 43.5 -16.5t17.5 -44.5t-18 -44.5t-44 -16.5z" />
    <glyph glyph-name="uni0308.case" 
d="M-253 786q-23 0 -38.5 16t-15.5 38t16 37.5t38 15.5t38 -15.5t16 -37.5t-15.5 -38t-38.5 -16zM-64 786q-22 0 -38 16t-16 38t16 37.5t38 15.5t38 -15.5t16 -37.5t-16 -38t-38 -16z" />
    <glyph glyph-name="uni0307.case" 
d="M-111 779q-24 0 -42 17.5t-18 42.5t18 42.5t42 17.5q25 0 43 -17.5t18 -42.5t-17.5 -42.5t-43.5 -17.5z" />
    <glyph glyph-name="gravecomb.case" 
d="M-89 772l-122 134h110l81 -134h-69z" />
    <glyph glyph-name="acutecomb.case" 
d="M-211 772l81 134h110l-122 -134h-69z" />
    <glyph glyph-name="uni030B.case" 
d="M-344 772l68 134h102l-109 -134h-61zM-190 772l78 134h102l-119 -134h-61z" />
    <glyph glyph-name="uni0302.case" 
d="M-323 772l118 134h78l117 -134h-74l-86 70l-80 -70h-73z" />
    <glyph glyph-name="uni030C.case" 
d="M-198 772l-111 134h75l81 -77l79 77h70l-112 -134h-82z" />
    <glyph glyph-name="uni0306.case" 
d="M-154 773q-66 0 -103 32.5t-39 99.5h57q7 -73 85 -73q36 0 60.5 18t28.5 55h55q-15 -132 -144 -132z" />
    <glyph glyph-name="uni030A.case" 
d="M-115 737q-45 0 -75 29t-30 73t30.5 74t74.5 30t74.5 -30t30.5 -74t-30.5 -73t-74.5 -29zM-115 781q24 0 40 16.5t16 41.5t-16 42t-40 17q-23 0 -39.5 -17t-16.5 -42t16 -41.5t40 -16.5z" />
    <glyph glyph-name="tildecomb.case" 
d="M-292 790q0 45 21.5 69t54.5 24q24 0 63 -12.5t55 -12.5q28 0 28 26h61q0 -45 -21.5 -69.5t-54.5 -24.5q-24 0 -63 13t-55 13q-27 0 -27 -26h-62z" />
    <glyph glyph-name="uni0304.case" 
d="M-312 805v52h302v-52h-302z" />
    <glyph glyph-name="uni0337.case" 
d="M-356 206v75l315 229v-74z" />
    <glyph glyph-name="uni0338.case" 
d="M-649 -18l-44 41l639 711l44 -41z" />
    <glyph glyph-name="caron.alt" horiz-adv-x="133" 
d="M10 542v40q26 0 40.5 13.5t13.5 38.5h-1q-23 0 -38 14t-15 39q0 23 16 37.5t38 14.5q25 0 42 -17.5t17 -52.5q0 -59 -31 -93t-82 -34z" />
    <glyph glyph-name="acute.case" horiz-adv-x="211" 
d="M10 772l81 134h110l-122 -134h-69z" />
    <glyph glyph-name="breve.case" horiz-adv-x="306" 
d="M152 773q-66 0 -103 32.5t-39 99.5h57q7 -73 85 -73q36 0 60.5 18t28.5 55h55q-15 -132 -144 -132z" />
    <glyph glyph-name="caron.case" horiz-adv-x="325" 
d="M121 772l-111 134h75l81 -77l79 77h70l-112 -134h-82z" />
    <glyph glyph-name="circumflex.case" horiz-adv-x="333" 
d="M10 772l118 134h78l117 -134h-74l-86 70l-80 -70h-73z" />
    <glyph glyph-name="dieresis.case" horiz-adv-x="317" 
d="M64 786q-22 0 -38 16t-16 38t16 37.5t38 15.5t38 -15.5t16 -37.5t-16 -38t-38 -16zM253 786q-23 0 -38.5 16t-15.5 38t16 37.5t38 15.5t38 -15.5t16 -37.5t-15.5 -38t-38.5 -16z" />
    <glyph glyph-name="dotaccent.case" horiz-adv-x="141" 
d="M70 779q-24 0 -42 17.5t-18 42.5t18 42.5t42 17.5q25 0 43 -17.5t18 -42.5t-17.5 -42.5t-43.5 -17.5z" />
    <glyph glyph-name="grave.case" horiz-adv-x="211" 
d="M132 772l-122 134h110l81 -134h-69z" />
    <glyph glyph-name="hungarumlaut.case" horiz-adv-x="354" 
d="M10 772l68 134h102l-109 -134h-61zM164 772l78 134h102l-119 -134h-61z" />
    <glyph glyph-name="macron.case" horiz-adv-x="322" 
d="M10 805v52h302v-52h-302z" />
    <glyph glyph-name="ring.case" horiz-adv-x="230" 
d="M115 737q-45 0 -75 29t-30 73t30.5 74t74.5 30t74.5 -30t30.5 -74t-30.5 -73t-74.5 -29zM115 781q24 0 40 16.5t16 41.5t-16 42t-40 17q-23 0 -39.5 -17t-16.5 -42t16 -41.5t40 -16.5z" />
    <glyph glyph-name="tilde.case" horiz-adv-x="295" 
d="M14 790q0 45 21.5 69t54.5 24q24 0 63 -12.5t55 -12.5q28 0 28 26h61q0 -45 -21.5 -69.5t-54.5 -24.5q-24 0 -63 13t-55 13q-27 0 -27 -26h-62z" />
    </font>
</defs>
</svg>
