<?xml version="1.0" standalone="no"?>
<!DOCTYPE svg PUBLIC "-//W3C//DTD SVG 1.1//EN" "http://www.w3.org/Graphics/SVG/1.1/DTD/svg11.dtd" >
<svg xmlns="http://www.w3.org/2000/svg" xmlns:xlink="http://www.w3.org/1999/xlink" version="1.1">
<metadata>
Created by FontForge 20170731 at Tue Dec 13 12:40:50 2016
 By Aleksey,,,
Copyright (c) 2016 by Rick Banks. All rights reserved.
</metadata>
<defs>
<font id="F37Bolton-ThinItalic" horiz-adv-x="0" >
  <font-face 
    font-family="F37 Bolton Thin Italic"
    font-weight="250"
    font-style="italic"
    font-stretch="normal"
    units-per-em="1000"
    panose-1="0 0 3 0 0 0 0 0 0 0"
    ascent="800"
    descent="-200"
    x-height="515"
    cap-height="715"
    bbox="-616 -218 1164 930"
    underline-thickness="50"
    underline-position="-200"
    slope="-10"
    unicode-range="U+000D-FB02"
  />
<missing-glyph horiz-adv-x="543" 
 />
    <glyph glyph-name="fi" unicode="fi" horiz-adv-x="478" 
d="M110 0l84 479h-89l6 36h89l13 69q13 72 53 102.5t107 30.5h145l-6 -37h-148q-52 0 -78 -22t-36 -78l-12 -65h116l-6 -36h-116l-84 -479h-38zM354 0l91 515h38l-91 -515h-38z" />
    <glyph glyph-name="fl" unicode="fl" horiz-adv-x="492" 
d="M405 74q-6 -40 34 -40h28l-6 -34h-35q-70 0 -59 69l107 611h-115q-48 0 -73 -21.5t-34 -73.5l-13 -70h117l-6 -36h-117l-84 -479h-38l84 479h-89l6 36h89l13 74q23 128 155 128h149z" />
    <glyph glyph-name=".notdef" horiz-adv-x="543" 
 />
    <glyph glyph-name=".null" 
 />
    <glyph glyph-name="nonmarkingreturn" horiz-adv-x="333" 
 />
    <glyph glyph-name="CR" unicode="&#xd;" horiz-adv-x="263" 
 />
    <glyph glyph-name="space" unicode=" " horiz-adv-x="263" 
 />
    <glyph glyph-name="exclam" unicode="!" horiz-adv-x="230" 
d="M134 180l31 209l57 325h39l-58 -325l-44 -209h-25zM113 -4q-13 0 -22 9t-9 22q0 18 13.5 31t31.5 13q13 0 22 -9t9 -23q0 -18 -13.5 -30.5t-31.5 -12.5z" />
    <glyph glyph-name="quotedbl" unicode="&#x22;" horiz-adv-x="308" 
d="M166 475l29 239h46l-56 -239h-19zM290 475l29 239h46l-56 -239h-19z" />
    <glyph glyph-name="numbersign" unicode="#" horiz-adv-x="548" 
d="M125 0l68 224h-112l6 31h118l52 169h-113l6 30h118l69 229h32l-70 -229h151l70 229h30l-69 -229h104l-6 -30h-109l-52 -169h104l-5 -31h-110l-68 -224h-31l68 224h-151l-68 -224h-32zM236 255h151l51 169h-150z" />
    <glyph glyph-name="dollar" unicode="$" horiz-adv-x="563" 
d="M425 713q87 -9 132.5 -63.5t29.5 -153.5h-38q12 82 -24.5 126.5t-105.5 51.5l-53 -295q41 -13 67 -24.5t55.5 -32t44 -52t14.5 -74.5q0 -99 -72 -155t-179 -58l-15 -86h-27l15 87q-105 5 -156.5 67.5t-29.5 174.5h40q-17 -97 24 -148t129 -56l57 324q-83 27 -129 64.5
t-46 106.5q0 95 69 146t168 51h3l15 82h27zM341 388l51 288h-3q-80 0 -135 -40t-55 -110q0 -53 38 -84.5t104 -53.5zM508 193q0 32 -12 56.5t-36.5 41.5t-46 26.5t-54.5 20.5l-56 -317q84 1 144.5 45.5t60.5 126.5z" />
    <glyph glyph-name="percent" unicode="%" horiz-adv-x="861" 
d="M196 -33l551 749h34l-551 -749h-34zM279 350q-75 0 -118.5 46t-43.5 112q0 86 51.5 138t130.5 52q75 0 118.5 -45t43.5 -113q0 -87 -51 -138.5t-131 -51.5zM285 384q62 0 102 41t40 110q0 54 -35 92t-98 38t-103 -42t-40 -110q0 -54 36 -91.5t98 -37.5zM680 -6
q-75 0 -119 46t-44 112q0 86 51.5 138t131.5 52q75 0 118 -45t43 -113q0 -87 -50.5 -138.5t-130.5 -51.5zM685 28q62 0 102.5 41t40.5 110q0 54 -35.5 92t-98.5 38t-103 -42t-40 -110q0 -54 36.5 -91.5t97.5 -37.5z" />
    <glyph glyph-name="ampersand" unicode="&#x26;" horiz-adv-x="634" 
d="M601 35h27l-6 -35h-32q-34 0 -60 19.5t-53 58.5q-79 -91 -215 -91q-78 0 -127.5 46.5t-49.5 121.5q0 151 177 246q-57 87 -57 147q0 80 50.5 123.5t118.5 43.5q52 0 84.5 -30.5t32.5 -82.5q0 -69 -47.5 -118t-129.5 -91l168 -252q25 44 36 101l12 65h37l-12 -63
q-15 -77 -53 -134q25 -37 46.5 -56t52.5 -19zM370 681q-53 0 -90 -34t-37 -92q0 -47 55 -136q157 81 157 177q0 38 -24 61.5t-61 23.5zM269 24q120 0 189 83l-179 268q-78 -44 -116.5 -94.5t-38.5 -119.5q0 -63 40.5 -100t104.5 -37z" />
    <glyph glyph-name="quotesingle" unicode="'" horiz-adv-x="185" 
d="M166 475l29 239h46l-56 -239h-19z" />
    <glyph glyph-name="parenleft" unicode="(" horiz-adv-x="248" 
d="M140 -178q-47 147 -47 320q0 300 207 589h35q-205 -293 -205 -596q0 -179 45 -313h-35z" />
    <glyph glyph-name="parenright" unicode=")" horiz-adv-x="248" 
d="M11 -178q204 296 204 596q0 181 -45 313h35q48 -150 48 -320q0 -299 -208 -589h-34z" />
    <glyph glyph-name="asterisk" unicode="*" horiz-adv-x="401" 
d="M192 424l-19 19l102 106l-113 41l14 28l110 -42l18 128h30l-19 -129l130 42l3 -27l-131 -43l61 -109l-25 -18l-60 110z" />
    <glyph glyph-name="plus" unicode="+" horiz-adv-x="570" 
d="M272 16l41 237h-224l6 33h224l42 236h32l-42 -236h224l-6 -33h-224l-41 -237h-32z" />
    <glyph glyph-name="comma" unicode="," horiz-adv-x="224" 
d="M49 -124l2 25q37 18 51.5 40t17.5 55q-2 -1 -6 -1q-15 0 -25 9.5t-10 24.5q0 18 12 29t29 11q15 0 25 -10t10 -27q0 -117 -106 -156z" />
    <glyph glyph-name="hyphen" unicode="-" horiz-adv-x="335" 
d="M118 251l6 35h187l-6 -35h-187z" />
    <glyph glyph-name="period" unicode="." horiz-adv-x="212" 
d="M110 -3q-16 0 -26 10.5t-10 25.5q0 16 12 27.5t29 11.5q15 0 25 -10t10 -25q0 -16 -12 -28t-28 -12z" />
    <glyph glyph-name="slash" unicode="/" horiz-adv-x="410" 
d="M34 -17l435 748h34l-435 -748h-34z" />
    <glyph glyph-name="zero" unicode="0" horiz-adv-x="598" 
d="M309 -11q-101 0 -149 71t-48 184q0 59 9.5 119t32.5 120.5t56 107t84 75.5t113 29q102 0 150.5 -71.5t48.5 -184.5q0 -59 -10 -119.5t-33 -120.5t-56 -106t-84.5 -75t-113.5 -29zM313 24q54 0 98.5 28t72 71.5t46.5 99t27 108t8 102.5q0 97 -38 161.5t-125 64.5
q-66 0 -116.5 -41.5t-78 -106t-41 -131.5t-13.5 -130q0 -62 13.5 -110t50.5 -82t96 -34z" />
    <glyph glyph-name="one" unicode="1" horiz-adv-x="344" 
d="M205 0l107 613q-84 -69 -194 -92l6 34q71 17 115.5 44.5t90.5 83.5h34l-120 -683h-39z" />
    <glyph glyph-name="two" unicode="2" horiz-adv-x="550" 
d="M57 0q11 81 75 145t178 129q112 62 169.5 118.5t57.5 131.5q0 64 -39 99t-106 35q-181 0 -210 -197h-39q17 112 83 173t172 61q80 0 129 -43t49 -122q0 -49 -20 -91.5t-61.5 -79.5t-80.5 -64t-101 -62q-89 -53 -141 -98t-66 -98h400l-7 -37h-442z" />
    <glyph glyph-name="three" unicode="3" horiz-adv-x="574" 
d="M301 -14q-119 0 -176.5 59.5t-31.5 164.5h39q-22 -89 25.5 -138.5t149.5 -49.5q93 0 154.5 49.5t61.5 139.5q0 66 -43 99.5t-122 33.5h-44l6 33h45q81 0 140 40.5t59 123.5q0 58 -43.5 88t-115.5 30q-183 0 -212 -179h-39q16 105 81.5 160t173.5 55q88 0 141 -38.5
t53 -111.5q0 -76 -43 -122t-119 -60q123 -25 123 -146q0 -110 -71 -170.5t-192 -60.5z" />
    <glyph glyph-name="four" unicode="4" horiz-adv-x="546" 
d="M363 0l30 173h-338l7 39l417 471h43l-84 -477h111l-6 -33h-112l-30 -173h-38zM101 206h299l74 423h-2z" />
    <glyph glyph-name="five" unicode="5" horiz-adv-x="542" 
d="M296 -13q-111 0 -165.5 62.5t-37.5 169.5h39q-13 -92 30 -144.5t139 -52.5q95 0 153.5 64t58.5 171q0 75 -43.5 118.5t-119.5 43.5q-111 0 -180 -85h-39l94 349h366l-7 -36h-333l-70 -268q65 75 180 75q89 0 140 -50.5t51 -138.5q0 -124 -72.5 -201t-183.5 -77z" />
    <glyph glyph-name="six" unicode="6" horiz-adv-x="583" 
d="M360 453q96 0 153 -52.5t57 -147.5q0 -118 -68 -191.5t-182 -73.5q-101 0 -157.5 61.5t-56.5 172.5q0 93 17.5 175.5t52.5 150.5t95 107.5t138 39.5q91 0 137.5 -44t46.5 -123h-39q0 62 -38.5 97t-115.5 35q-58 0 -105.5 -29.5t-77 -80t-47 -111.5t-22.5 -129
q27 71 85 107t127 36zM324 23q97 0 152 63.5t55 160.5q0 81 -46 126t-131 45q-94 0 -151 -63.5t-57 -157.5q0 -72 46 -123t132 -51z" />
    <glyph glyph-name="seven" unicode="7" horiz-adv-x="487" 
d="M138 0q59 339 401 646h-396l7 37h437l-7 -41q-343 -304 -403 -642h-39z" />
    <glyph glyph-name="eight" unicode="8" horiz-adv-x="572" 
d="M301 -12q-100 0 -157.5 45.5t-57.5 133.5q0 83 50 138t133 71q-92 40 -92 137q0 84 61 133t149 49q87 0 137.5 -39.5t50.5 -112.5q0 -65 -40.5 -110.5t-103.5 -59.5q55 -15 87 -57.5t32 -104.5q0 -106 -71 -164.5t-178 -58.5zM363 391q67 0 120 36.5t53 108.5
q0 63 -41.5 93t-112.5 30q-68 0 -117 -36.5t-49 -107.5q0 -62 41.5 -93t105.5 -31zM307 24q87 0 145 46.5t58 136.5q0 74 -47 111t-127 37q-87 0 -148.5 -47.5t-61.5 -135.5q0 -75 48 -111.5t133 -36.5z" />
    <glyph glyph-name="nine" unicode="9" horiz-adv-x="582" 
d="M385 695q101 0 157.5 -61.5t56.5 -172.5q0 -93 -17.5 -175.5t-52.5 -150.5t-95 -107.5t-138 -39.5q-91 0 -137.5 44t-46.5 123h39q0 -62 38.5 -97t115.5 -35q58 0 105.5 29.5t77 80t47 111.5t22.5 129q-27 -71 -85 -107t-127 -36q-96 0 -153 52.5t-57 147.5
q0 118 68 191.5t182 73.5zM351 265q94 0 151 63.5t57 157.5q0 72 -46 123t-132 51q-97 0 -152 -63.5t-55 -160.5q0 -81 46 -126t131 -45z" />
    <glyph glyph-name="colon" unicode=":" horiz-adv-x="224" 
d="M189 413q-16 0 -26 10t-10 25q0 16 12 27.5t29 11.5q15 0 25 -10t10 -24q0 -16 -12 -28t-28 -12zM115 -3q-15 0 -25 10.5t-10 25.5q0 16 12 27.5t28 11.5q15 0 25.5 -10t10.5 -25q0 -16 -12.5 -28t-28.5 -12z" />
    <glyph glyph-name="semicolon" unicode=";" horiz-adv-x="230" 
d="M184 392q-15 0 -23.5 9t-8.5 24q0 19 13.5 32.5t32.5 13.5q15 0 24 -9.5t9 -23.5q0 -19 -14 -32.5t-33 -13.5zM53 -122l5 27q51 19 62 94q-2 -1 -7 -1q-13 0 -22 8.5t-9 22.5q0 19 13 31.5t31 12.5q33 0 33 -41q0 -58 -29.5 -99.5t-76.5 -54.5z" />
    <glyph glyph-name="less" unicode="&#x3c;" horiz-adv-x="568" 
d="M515 -8l-441 242l8 38l525 242l-6 -37l-486 -224l406 -226z" />
    <glyph glyph-name="equal" unicode="=" horiz-adv-x="636" 
d="M141 353l5 32h479l-5 -32h-479zM106 156l5 33h480l-6 -33h-479z" />
    <glyph glyph-name="greater" unicode="&#x3e;" horiz-adv-x="568" 
d="M51 -8l6 36l486 225l-407 226l7 35l440 -242l-7 -38z" />
    <glyph glyph-name="question" unicode="?" horiz-adv-x="501" 
d="M260 182q4 24 7 35q13 54 40.5 93.5t85.5 82.5l30 24q97 71 97 161q0 54 -37 85t-103 31q-89 0 -144.5 -52t-70.5 -145h-40q17 106 87.5 170t174.5 64q80 0 127.5 -38t47.5 -106q0 -63 -28.5 -104.5t-85.5 -88.5l-31 -25q-50 -39 -74 -71.5t-37 -81.5q-4 -15 -7 -34h-39z
M249 4q-13 0 -21 8.5t-8 20.5q0 15 12.5 27t27.5 12q13 0 21 -8.5t8 -20.5q0 -15 -12.5 -27t-27.5 -12z" />
    <glyph glyph-name="at" unicode="@" horiz-adv-x="811" 
d="M413 -124q-141 0 -230 79.5t-89 225.5q0 133 60.5 236t155.5 155.5t204 52.5q133 0 213 -78t80 -201q0 -124 -65.5 -199t-147.5 -75h-40l15 78q-27 -42 -63 -65t-94 -23q-66 0 -102 43t-36 113q0 93 57.5 158.5t146.5 65.5q53 0 84 -26t39 -70l15 86h35l-58 -329h7
q61 0 115 62.5t54 174.5q0 111 -70.5 181t-189.5 70q-156 0 -266.5 -114t-110.5 -288q0 -129 80.5 -203.5t211.5 -74.5h234l-7 -35h-238zM418 94q77 0 124 55.5t47 132.5q0 55 -29 91.5t-85 36.5q-74 0 -120 -55t-46 -131q0 -57 28 -93.5t81 -36.5z" />
    <glyph glyph-name="A" unicode="A" horiz-adv-x="641" 
d="M569 0l-48 246h-316l-136 -246h-42l398 715h46l141 -715h-43zM226 285h288l-74 383h-2z" />
    <glyph glyph-name="B" unicode="B" horiz-adv-x="655" 
d="M107 0l126 715h252q79 0 127 -38.5t48 -110.5q0 -74 -38 -121.5t-92 -68.5v-1q98 -34 98 -142q0 -111 -74.5 -172t-193.5 -61h-253zM215 389h241q56 0 109 45t53 125q0 58 -37.5 87.5t-105.5 29.5h-209zM154 39h209q96 0 159.5 47.5t63.5 136.5q0 128 -143 128h-234z" />
    <glyph glyph-name="C" unicode="C" horiz-adv-x="712" 
d="M397 -15q-124 0 -204.5 85.5t-80.5 227.5q0 185 96.5 308t252.5 123q118 0 190.5 -70.5t81.5 -180.5h-38q-13 101 -77.5 156.5t-163.5 55.5q-139 0 -220 -112t-81 -271q0 -127 69 -205t181 -78q102 0 170.5 57.5t93.5 149.5h40q-31 -111 -111 -178.5t-199 -67.5z" />
    <glyph glyph-name="D" unicode="D" horiz-adv-x="716" 
d="M107 0l127 715h192q127 0 214.5 -78.5t87.5 -222.5q0 -187 -110 -300.5t-276 -113.5h-235zM154 37h193q149 0 245 103t96 270q0 128 -77.5 198t-192.5 70h-150z" />
    <glyph glyph-name="E" unicode="E" horiz-adv-x="616" 
d="M107 0l126 715h456l-7 -38h-416l-51 -288h375l-6 -38h-375l-55 -314h421l-7 -37h-461z" />
    <glyph glyph-name="F" unicode="F" horiz-adv-x="564" 
d="M107 0l126 715h428l-7 -38h-388l-51 -290h348l-6 -38h-348l-62 -349h-40z" />
    <glyph glyph-name="G" unicode="G" horiz-adv-x="753" 
d="M406 -15q-135 0 -214.5 89.5t-79.5 231.5q0 115 43.5 210.5t128 154t195.5 58.5q110 0 185 -65t94 -173h-40q-20 92 -84 145.5t-162 53.5q-144 0 -231.5 -109t-87.5 -270q0 -130 70.5 -208.5t188.5 -78.5q119 0 198 73.5t104 202.5h-219l7 38h259q-23 -168 -117 -260.5
t-238 -92.5z" />
    <glyph glyph-name="H" unicode="H" horiz-adv-x="737" 
d="M107 0l126 715h40l-58 -325h442l58 325h41l-126 -715h-41l62 352h-442l-62 -352h-40z" />
    <glyph glyph-name="I" unicode="I" horiz-adv-x="254" 
d="M107 0l126 715h40l-126 -715h-40z" />
    <glyph glyph-name="J" unicode="J" horiz-adv-x="516" 
d="M235 -17q-170 0 -170 156q0 35 7 75h39q-5 -30 -5 -63q0 -66 30.5 -98t101.5 -32q73 0 115.5 45.5t61.5 152.5l87 496h40l-88 -508q-20 -113 -71 -168.5t-148 -55.5z" />
    <glyph glyph-name="K" unicode="K" horiz-adv-x="659" 
d="M107 0l127 715h40l-74 -414l506 414h56l-369 -303l263 -412h-49l-247 387l-169 -137l-44 -250h-40z" />
    <glyph glyph-name="L" unicode="L" horiz-adv-x="553" 
d="M107 0l126 715h40l-119 -676h386l-7 -39h-426z" />
    <glyph glyph-name="M" unicode="M" horiz-adv-x="861" 
d="M107 0l126 715h39l215 -385l354 385h39l-126 -715h-38l114 650l-330 -358h-36l-202 361l-116 -653h-39z" />
    <glyph glyph-name="N" unicode="N" horiz-adv-x="742" 
d="M107 0l126 715h37l337 -651l114 651h40l-126 -715h-38l-337 650l-115 -650h-38z" />
    <glyph glyph-name="O" unicode="O" horiz-adv-x="786" 
d="M421 -15q-141 0 -224.5 89.5t-83.5 227.5q0 181 102 304t267 123q141 0 224.5 -90.5t83.5 -226.5q0 -183 -100.5 -305t-268.5 -122zM424 24q102 0 177 53.5t111.5 139t36.5 190.5q0 124 -73 203.5t-198 79.5q-99 0 -174 -53.5t-112.5 -139.5t-37.5 -189
q0 -125 72.5 -204.5t197.5 -79.5z" />
    <glyph glyph-name="P" unicode="P" horiz-adv-x="622" 
d="M107 0l126 714h274q86 0 131 -39t45 -111q0 -101 -68 -162t-175 -61h-233l-60 -341h-40zM214 380h237q80 0 135 47t55 130q0 57 -35 87.5t-103 30.5h-237z" />
    <glyph glyph-name="Q" unicode="Q" horiz-adv-x="786" 
d="M421 -15h-17q-10 -58 7.5 -82.5t68.5 -24.5h78l-7 -37h-80q-71 0 -95 35.5t-11 112.5q-117 18 -184.5 104t-67.5 209q0 181 102 304t267 123q141 0 224.5 -90.5t83.5 -226.5q0 -183 -100.5 -305t-268.5 -122zM154 308q0 -125 72.5 -204.5t197.5 -79.5q102 0 177 53.5
t111.5 139t36.5 190.5q0 124 -73 203.5t-198 79.5q-99 0 -174 -53.5t-112.5 -139.5t-37.5 -189z" />
    <glyph glyph-name="R" unicode="R" horiz-adv-x="633" 
d="M665 564q0 -99 -63 -155.5t-166 -61.5l156 -347h-46l-153 346h-185l-61 -346h-40l126 714h231q201 0 201 -150zM413 384q89 0 150 44.5t61 130.5q0 57 -40.5 87t-118.5 30h-199l-51 -292h198z" />
    <glyph glyph-name="S" unicode="S" horiz-adv-x="619" 
d="M335 -17q-119 0 -185 45t-66 137q0 27 6 59h39q-4 -34 -4 -49q0 -155 213 -155q101 0 160 42.5t59 126.5q0 68 -45.5 101.5t-138.5 61.5q-38 12 -63.5 21.5t-54.5 25t-46.5 33t-29 43.5t-11.5 58q0 97 71 147.5t188 50.5q96 0 156.5 -43t60.5 -134q0 -20 -3 -42h-40
q2 12 2 35q0 148 -180 148q-97 0 -156 -38.5t-59 -116.5q0 -33 12.5 -56.5t42 -41t55.5 -28t75 -26.5q50 -16 82.5 -30t63 -36t45 -53t14.5 -72q0 -105 -71 -159.5t-192 -54.5z" />
    <glyph glyph-name="T" unicode="T" horiz-adv-x="555" 
d="M258 0l119 678h-238l7 37h515l-6 -37h-238l-119 -678h-40z" />
    <glyph glyph-name="U" unicode="U" horiz-adv-x="705" 
d="M354 -17q-104 0 -160.5 52.5t-56.5 151.5q0 44 8 87l78 441h40l-77 -441q-8 -45 -8 -79q0 -82 46.5 -127.5t137.5 -45.5q109 0 170.5 63t83.5 189l78 441h40l-78 -441q-52 -291 -302 -291z" />
    <glyph glyph-name="V" unicode="V" horiz-adv-x="619" 
d="M289 0l-133 714h40l100 -534q2 -13 10.5 -59.5t12.5 -73.5q45 86 71 135l281 532h41l-378 -714h-45z" />
    <glyph glyph-name="W" unicode="W" horiz-adv-x="949" 
d="M233 0l-72 715h44l43 -463q9 -88 19 -204q82 181 95 209l214 458h51l52 -458q17 -147 23 -210q31 73 91 209l204 459h41l-321 -715h-49l-51 431q-16 154 -24 238q-39 -93 -107 -239l-203 -430h-50z" />
    <glyph glyph-name="X" unicode="X" horiz-adv-x="594" 
d="M691 714l-303 -349l190 -365h-45l-176 337l-294 -337h-49l325 371l-180 343h45l164 -317l275 317h48z" />
    <glyph glyph-name="Y" unicode="Y" horiz-adv-x="638" 
d="M299 0l52 298l-198 416h44l180 -378l312 378h46l-344 -417l-52 -297h-40z" />
    <glyph glyph-name="Z" unicode="Z" horiz-adv-x="578" 
d="M28 0l8 42l453 506q114 122 119 128h-439l7 38h485l-8 -42l-463 -516q-99 -107 -110 -118h471l-8 -38h-515z" />
    <glyph glyph-name="bracketleft" unicode="[" horiz-adv-x="263" 
d="M63 -178l161 909h131l-6 -34h-94l-148 -841h93l-5 -34h-132z" />
    <glyph glyph-name="backslash" unicode="\" horiz-adv-x="410" 
d="M336 -17l-171 748h34l171 -748h-34z" />
    <glyph glyph-name="bracketright" unicode="]" horiz-adv-x="263" 
d="M5 -178l6 34h93l149 841h-94l7 34h131l-160 -909h-132z" />
    <glyph glyph-name="asciicircum" unicode="^" horiz-adv-x="545" 
d="M86 240l288 443h37l132 -443h-34l-122 410l-267 -410h-34z" />
    <glyph glyph-name="underscore" unicode="_" horiz-adv-x="475" 
d="M-18 -102l5 27h475l-5 -27h-475z" />
    <glyph glyph-name="grave" unicode="`" horiz-adv-x="169" 
d="M266 573h-27l-87 144h46z" />
    <glyph glyph-name="a" unicode="a" horiz-adv-x="524" 
d="M213 -12q-63 0 -105 34t-42 96q0 138 188 170l142 23q38 6 53 23.5t15 67.5q0 46 -28.5 68t-93.5 22q-148 0 -173 -128h-37q13 75 67 119t147 44q156 0 156 -123q0 -23 -4 -46l-50 -286q-1 -4 -1 -12q0 -25 27 -25h22l-6 -35h-42q-42 0 -42 39q0 4 2 16l7 37
q-33 -48 -86 -76t-116 -28zM222 24q74 0 135 45.5t72 112.5l21 116q-22 -17 -63 -23l-126 -20q-80 -13 -116.5 -45.5t-36.5 -87.5q0 -47 31 -72.5t83 -25.5z" />
    <glyph glyph-name="b" unicode="b" horiz-adv-x="581" 
d="M383 527q91 0 142.5 -61t51.5 -154q0 -144 -70 -234t-181 -90q-69 0 -117 36t-64 104l-23 -128h-37l126 717h38l-51 -293q71 103 185 103zM331 24q93 0 151.5 79t58.5 201q0 83 -43 134.5t-123 51.5q-95 0 -152 -81t-57 -204q0 -84 45 -132.5t120 -48.5z" />
    <glyph glyph-name="c" unicode="c" horiz-adv-x="527" 
d="M289 -12q-91 0 -143.5 61t-52.5 166q0 132 71 222t186 90q81 0 131 -46t56 -124h-37q-24 133 -158 133q-100 0 -156 -82t-56 -188q0 -94 40.5 -144.5t122.5 -50.5q67 0 114 32.5t68 97.5h37q-24 -81 -82.5 -124t-140.5 -43z" />
    <glyph glyph-name="d" unicode="d" horiz-adv-x="581" 
d="M583 717h38l-126 -717h-37l16 92q-70 -104 -186 -104q-90 0 -141.5 59.5t-51.5 155.5q0 141 69.5 232.5t179.5 91.5q70 0 118 -36t64 -103zM295 25q97 0 154 81.5t57 204.5q0 84 -44 131.5t-121 47.5q-92 0 -151 -79t-59 -199q0 -85 43 -136t121 -51z" />
    <glyph glyph-name="e" unicode="e" horiz-adv-x="543" 
d="M347 527q86 0 140 -59t54 -157q0 -39 -4 -60h-406q-1 -11 -1 -33q0 -97 44 -145.5t123 -48.5q64 0 109.5 33.5t67.5 92.5h38q-26 -76 -82.5 -119t-136.5 -43q-91 0 -146 59.5t-55 166.5q0 131 70 222t185 91zM136 285l368 -1q1 8 1 23q0 83 -45 133t-118 50
q-84 0 -137 -58t-69 -147z" />
    <glyph glyph-name="f" unicode="f" horiz-adv-x="279" 
d="M111 0l84 479h-89l6 36h90l13 74q22 128 154 128h70l-6 -37h-73q-48 0 -73.5 -21.5t-34.5 -73.5l-13 -70h114l-7 -36h-113l-84 -479h-38z" />
    <glyph glyph-name="g" unicode="g" horiz-adv-x="581" 
d="M550 515h37l-92 -519q-37 -205 -217 -205h-196l6 37h183q84 0 128 44t59 128l16 90q-70 -102 -185 -102q-90 0 -142 59.5t-52 155.5q0 141 69 232.5t180 91.5q70 0 118.5 -36.5t64.5 -103.5zM296 25q97 0 153.5 81.5t56.5 204.5q0 83 -44 131t-121 48q-92 0 -151 -79
t-59 -199q0 -85 43.5 -136t121.5 -51z" />
    <glyph glyph-name="h" unicode="h" horiz-adv-x="552" 
d="M85 0l126 717h38l-52 -289q28 47 76.5 73t102.5 26q77 0 118 -39t41 -110q0 -22 -5 -54l-57 -324h-38l55 315q5 28 5 47q0 62 -31.5 95.5t-95.5 33.5q-71 0 -122 -45t-65 -120l-58 -326h-38z" />
    <glyph glyph-name="i" unicode="i" horiz-adv-x="209" 
d="M219 631q-14 0 -23.5 9.5t-9.5 24.5q0 17 11 28t28 11q14 0 23.5 -9.5t9.5 -24.5q0 -16 -11 -27.5t-28 -11.5zM85 0l91 515h38l-91 -515h-38z" />
    <glyph glyph-name="j" unicode="j" horiz-adv-x="217" 
d="M226 631q-14 0 -23.5 9.5t-9.5 24.5q0 17 11 28t28 11q14 0 23.5 -9.5t9.5 -24.5q0 -16 -11 -27.5t-28 -11.5zM-66 -209l7 37h52q39 0 57 14.5t26 59.5l108 613h38l-109 -621q-11 -59 -40.5 -81t-81.5 -22h-57z" />
    <glyph glyph-name="k" unicode="k" horiz-adv-x="487" 
d="M549 515l-260 -216l193 -299h-44l-179 274l-103 -86l-33 -188h-38l126 717h38l-85 -477l331 275h54z" />
    <glyph glyph-name="l" unicode="l" horiz-adv-x="221" 
d="M155 0q-71 0 -60 69l114 648h39l-114 -643q-8 -40 34 -40h28l-6 -34h-35z" />
    <glyph glyph-name="m" unicode="m" horiz-adv-x="827" 
d="M85 0l91 515h38l-15 -78q26 41 68.5 65.5t90.5 24.5q122 0 136 -114q30 57 77.5 85.5t97.5 28.5q83 0 118 -53.5t18 -146.5l-57 -327h-38l56 319q15 80 -12.5 126t-94.5 46q-61 0 -107.5 -48t-59.5 -121l-56 -322h-38l56 319q14 79 -13.5 125.5t-94.5 46.5
q-61 0 -106.5 -43.5t-56.5 -109.5l-60 -338h-38z" />
    <glyph glyph-name="n" unicode="n" horiz-adv-x="552" 
d="M85 0l91 515h38l-20 -108q29 56 78 88t105 32q77 0 117 -39.5t40 -110.5q0 -26 -5 -59l-56 -318h-38l54 311q6 38 6 52q0 61 -32 94.5t-94 33.5q-70 0 -124 -53.5t-68 -132.5l-54 -305h-38z" />
    <glyph glyph-name="o" unicode="o" horiz-adv-x="566" 
d="M303 -12q-100 0 -154.5 61t-54.5 160q0 136 73 227t187 91q99 0 153.5 -61.5t55.5 -159.5q1 -139 -72.5 -228.5t-187.5 -89.5zM307 23q96 0 157 79.5t61 198.5q0 86 -45.5 138t-128.5 52q-98 0 -158 -79.5t-60 -197.5q0 -87 45 -139t129 -52z" />
    <glyph glyph-name="p" unicode="p" horiz-adv-x="581" 
d="M383 527q91 0 142.5 -61t51.5 -154q0 -144 -70 -234t-181 -90q-68 0 -115.5 35t-64.5 102l-59 -333h-38l127 723h38l-17 -92q70 104 186 104zM331 24q93 0 151.5 79t58.5 201q0 83 -43 134.5t-123 51.5q-95 0 -152 -81t-57 -204q0 -84 45 -132.5t120 -48.5z" />
    <glyph glyph-name="q" unicode="q" horiz-adv-x="581" 
d="M473 -137q0 -35 41 -35h39l-6 -37h-47q-68 0 -68 56q0 11 3 23l39 222q-68 -104 -186 -104q-90 0 -141.5 59.5t-51.5 155.5q0 141 69 232.5t180 91.5q70 0 118.5 -36.5t64.5 -104.5l22 129h37l-111 -632q-2 -16 -2 -20zM295 25q98 0 154.5 81t56.5 204q0 84 -44.5 132
t-121.5 48q-92 0 -150.5 -78.5t-58.5 -200.5q0 -84 43 -135t121 -51z" />
    <glyph glyph-name="r" unicode="r" horiz-adv-x="326" 
d="M85 0l91 515h37l-16 -91q23 41 65.5 68t101.5 27h42l-7 -37h-44q-64 0 -113 -43t-66 -139l-53 -300h-38z" />
    <glyph glyph-name="s" unicode="s" horiz-adv-x="478" 
d="M242 -12q-173 0 -173 130q0 15 3 33h37q-2 -9 -2 -24q0 -51 36.5 -77.5t104.5 -26.5q73 0 118.5 29t45.5 90q0 65 -89 93l-76 24q-54 18 -84 44t-30 74q0 70 50.5 110t141.5 40q76 0 119.5 -30.5t43.5 -93.5q0 -11 -4 -39h-37q2 22 2 29q0 98 -130 98q-79 0 -112.5 -31
t-33.5 -76q0 -36 20.5 -55t69.5 -35l75 -24q59 -20 86.5 -48.5t27.5 -70.5q0 -83 -60 -123t-150 -40z" />
    <glyph glyph-name="t" unicode="t" horiz-adv-x="311" 
d="M209 0q-43 0 -62.5 20.5t-10.5 71.5l67 387h-99l7 36h99l27 157h38l-27 -157h134l-6 -36h-135l-67 -379q-8 -43 7.5 -54t56.5 -11h63l-6 -35h-86z" />
    <glyph glyph-name="u" unicode="u" horiz-adv-x="550" 
d="M254 -12q-80 0 -119 50t-24 141l60 336h38l-59 -331q-14 -81 18.5 -120t97.5 -39q79 0 129.5 45t64.5 125l57 320h38l-91 -515h-37l13 78q-26 -41 -74.5 -65.5t-111.5 -24.5z" />
    <glyph glyph-name="v" unicode="v" horiz-adv-x="494" 
d="M229 0l-115 515h42l93 -431l8 -47h2l21 47l232 431h42l-281 -515h-44z" />
    <glyph glyph-name="w" unicode="w" horiz-adv-x="737" 
d="M180 0l-57 515h39l49 -476l225 476h47l55 -476l220 476h39l-243 -515h-45l-32 263l-25 206h-2l-98 -207l-125 -262h-47z" />
    <glyph glyph-name="x" unicode="x" horiz-adv-x="469" 
d="M19 0l240 267l-131 248h44l115 -221l191 221h45l-220 -250l146 -265h-44l-129 238l-212 -238h-45z" />
    <glyph glyph-name="y" unicode="y" horiz-adv-x="487" 
d="M24 -209l6 37h75q49 0 84 56q32 47 32 71q0 10 -6 48l-93 512h43l46 -287l41 -230l257 517h41l-321 -631q-25 -50 -56 -71.5t-74 -21.5h-75z" />
    <glyph glyph-name="z" unicode="z" horiz-adv-x="474" 
d="M33 0l6 37l424 443h-337l6 35h383l-8 -38l-424 -443h366l-7 -34h-409z" />
    <glyph glyph-name="braceleft" unicode="{" horiz-adv-x="290" 
d="M165 -178q-80 0 -61 115l30 167q11 59 0.5 97.5t-46.5 62.5l4 30q33 5 62.5 50.5t39.5 105.5l31 168q19 113 100 113h61l-6 -34h-49q-31 0 -46.5 -22.5t-25.5 -78.5l-29 -163q-8 -50 -36 -96t-68 -60q30 -14 44.5 -57t4.5 -99l-28 -162q-11 -60 -3 -81.5t39 -21.5h49
l-6 -34h-61z" />
    <glyph glyph-name="bar" unicode="|" horiz-adv-x="222" 
d="M56 -214l177 1000h33l-177 -1000h-33z" />
    <glyph glyph-name="braceright" unicode="}" horiz-adv-x="290" 
d="M223 731q81 0 61 -115l-30 -167q-11 -58 -0.5 -97t46.5 -63l-4 -30q-33 -5 -62.5 -50.5t-39.5 -105.5l-31 -168q-19 -113 -100 -113h-61l6 34h49q31 0 46.5 22.5t25.5 79.5l29 162q8 50 36 96t68 60q-30 14 -44.5 57t-4.5 99l28 162q11 60 3 81.5t-39 21.5h-49l6 34h61z
" />
    <glyph glyph-name="asciitilde" unicode="~" horiz-adv-x="594" 
d="M134 208l-19 19q60 86 132 87q41 0 103 -34t99 -34q51 0 103 73l19 -19q-61 -87 -127 -87q-46 0 -105 34t-101 34q-54 0 -104 -73z" />
    <glyph glyph-name="uni00A0" unicode="&#xa0;" horiz-adv-x="263" 
 />
    <glyph glyph-name="exclamdown" unicode="&#xa1;" horiz-adv-x="214" 
d="M201 528q14 0 22.5 -8.5t8.5 -22.5q0 -18 -13.5 -31t-31.5 -13q-13 0 -22 9t-9 23q0 18 13.5 30.5t31.5 12.5zM180 344l-30 -209l-58 -325h-38l57 325l44 209h25z" />
    <glyph glyph-name="cent" unicode="&#xa2;" horiz-adv-x="545" 
d="M249 -118l19 106q-82 8 -127.5 68t-45.5 156q0 134 74 223t194 92l15 86h25l-16 -87q74 -7 117 -51.5t46 -117.5h-37q-18 119 -132 132l-81 -464q146 2 187 130h38q-25 -81 -85 -123t-147 -44l-19 -106h-25zM275 26l81 464q-103 -3 -163 -81t-60 -192q0 -84 35.5 -134
t106.5 -57z" />
    <glyph glyph-name="sterling" unicode="&#xa3;" horiz-adv-x="629" 
d="M483 711q93 0 135 -49t26 -143h-38q20 155 -129 155q-79 0 -133 -45.5t-54 -139.5q0 -40 19 -120h165l-7 -34h-151q14 -63 14 -107q0 -53 -15 -104q42 -31 60.5 -43.5t59.5 -28.5t81 -16h76l-7 -36h-79q-42 0 -83 14.5t-64.5 29.5t-58.5 42q-48 -94 -145 -94
q-45 0 -71.5 25t-26.5 63q0 49 33 78.5t83 29.5q49 0 110 -41q8 37 8 76q0 40 -17 112h-146l7 34h131q-17 74 -17 115q0 53 15.5 94t39.5 65.5t56.5 40.5t62 21.5t60.5 5.5zM160 26q78 0 111 82q-63 45 -104 45q-33 0 -54 -19.5t-21 -49.5q0 -26 18 -42t50 -16z" />
    <glyph glyph-name="currency" unicode="&#xa4;" horiz-adv-x="652" 
d="M376 86q-97 0 -165 64l-57 -58l-20 21l57 57q-65 71 -63 164q2 98 63 164l-57 58l20 20l57 -57q69 63 165 63q97 0 163 -63l58 57l21 -21l-57 -56q63 -67 63 -165q0 -94 -63 -165l56 -56l-20 -20l-57 57q-69 -64 -164 -64zM376 119q89 0 150.5 63.5t61.5 151.5
t-61.5 151.5t-150.5 63.5t-151 -63.5t-62 -151.5t62 -151.5t151 -63.5z" />
    <glyph glyph-name="yen" unicode="&#xa5;" horiz-adv-x="607" 
d="M282 0l49 273h-180l5 30h177l-54 126h-133l6 30h115l-108 255h49l154 -376l292 376h48l-200 -255h111l-6 -30h-129l-98 -126h175l-5 -30h-179l-48 -273h-41z" />
    <glyph glyph-name="brokenbar" unicode="&#xa6;" horiz-adv-x="216" 
d="M163 411l45 250h33l-45 -250h-33zM75 -89l44 250h33l-44 -250h-33z" />
    <glyph glyph-name="section" unicode="&#xa7;" horiz-adv-x="500" 
d="M520 538h-41q13 73 -18 107.5t-93 34.5q-64 0 -106.5 -31t-42.5 -88q0 -35 27 -61.5t106 -80.5q70 -48 101 -83.5t31 -82.5q0 -105 -130 -163q64 -48 64 -118q0 -75 -55 -116.5t-133 -41.5q-83 0 -128 42.5t-32 137.5h41q-18 -142 128 -142q60 0 99 30t39 81
q0 41 -26.5 68t-105.5 82q-74 50 -106 85.5t-32 82.5q0 60 39 101t92 63q-60 46 -60 108q0 80 58.5 122.5t140.5 42.5q76 0 118 -43t25 -137zM377 346q-44 33 -110 78q-50 -18 -84 -51t-34 -79q0 -57 74 -111q49 -36 102 -73q48 19 82.5 52t34.5 80q0 57 -65 104z" />
    <glyph glyph-name="dieresis" unicode="&#xa8;" horiz-adv-x="242" 
d="M156 631q-12 0 -20 8t-8 21q0 17 9.5 26.5t24.5 9.5q13 0 21 -8t8 -21q0 -17 -10 -26.5t-25 -9.5zM313 631q-12 0 -20 8t-8 21q0 17 9.5 26.5t24.5 9.5q13 0 21 -8t8 -21q0 -17 -10 -26.5t-25 -9.5z" />
    <glyph glyph-name="copyright" unicode="&#xa9;" horiz-adv-x="863" 
d="M457 -17q-152 0 -248 92t-96 235q0 97 35 177.5t92.5 133t131.5 81.5t154 29q151 0 247 -92t96 -235q0 -128 -58.5 -225.5t-151 -146.5t-202.5 -49zM463 14q154 0 262 104.5t108 280.5q0 131 -87 216t-226 85q-98 0 -181.5 -45t-137 -135t-53.5 -207q0 -131 87 -215
t228 -84zM466 127q-88 0 -138.5 56t-50.5 145q0 108 66 182t173 74q77 0 124.5 -41t47.5 -111h-31q-2 57 -42.5 89t-102.5 32q-92 0 -147 -63.5t-55 -156.5q0 -76 43 -125.5t119 -49.5q62 0 105.5 33t60.5 93h31q-19 -72 -72.5 -114.5t-130.5 -42.5z" />
    <glyph glyph-name="ordfeminine" unicode="&#xaa;" horiz-adv-x="400" 
d="M231 378q-44 0 -70 20t-26 60q0 89 128 108l78 12q26 4 34.5 14.5t8.5 37.5q0 56 -77 56q-93 0 -104 -75h-29q6 46 41.5 73.5t96.5 27.5q102 0 102 -79q0 -14 -3 -29l-25 -140q-6 -31 -6 -41q0 -12 18 -12h15l-5 -25h-30q-13 0 -21.5 6t-7.5 19q0 7 5 32h-1
q-42 -65 -122 -65zM238 403q44 0 81.5 28.5t45.5 71.5l11 62q-10 -6 -41 -13l-68 -8q-102 -12 -102 -80q0 -61 73 -61z" />
    <glyph glyph-name="guillemotleft" unicode="&#xab;" horiz-adv-x="347" 
d="M183 125l-83 127l6 34l127 126l-8 -45l-94 -98l59 -99zM289 125l-82 127l6 34l127 126l-8 -45l-94 -98l59 -99z" />
    <glyph glyph-name="logicalnot" unicode="&#xac;" horiz-adv-x="637" 
d="M542 94l42 240h-446l6 33h479l-48 -273h-33z" />
    <glyph glyph-name="uni00AD" unicode="&#xad;" horiz-adv-x="335" 
d="M118 251l6 35h187l-6 -35h-187z" />
    <glyph glyph-name="registered" unicode="&#xae;" horiz-adv-x="863" 
d="M457 -17q-152 0 -248 92t-96 235q0 97 35 177.5t92.5 133t131.5 81.5t154 29q151 0 247 -92t96 -235q0 -128 -58.5 -225.5t-151 -146.5t-202.5 -49zM463 14q154 0 262 104.5t108 280.5q0 131 -87 216t-226 85q-98 0 -181.5 -45t-137 -135t-53.5 -207q0 -131 87 -215
t228 -84zM320 151l76 428h145q127 0 127 -95q0 -62 -38.5 -95.5t-95.5 -38.5l94 -199h-38l-88 196h-116l-34 -196h-32zM391 374h98q146 0 146 105q0 72 -103 72h-110z" />
    <glyph glyph-name="macron" unicode="&#xaf;" horiz-adv-x="263" 
d="M122 637l5 28h243l-5 -28h-243z" />
    <glyph glyph-name="degree" unicode="&#xb0;" horiz-adv-x="384" 
d="M274 406q-56 0 -90 34.5t-34 89.5q0 75 46 120t109 45q55 0 89 -35.5t34 -88.5q0 -75 -45.5 -120t-108.5 -45zM278 432q50 0 87 36t37 99q0 44 -27.5 73t-74.5 29q-48 0 -85.5 -36.5t-37.5 -97.5q0 -46 28.5 -74.5t72.5 -28.5z" />
    <glyph glyph-name="plusminus" unicode="&#xb1;" horiz-adv-x="627" 
d="M315 97l33 188h-224l6 33h223l33 188h32l-33 -188h224l-5 -33h-224l-33 -188h-32zM74 0l6 33h479l-6 -33h-479z" />
    <glyph glyph-name="uni00B2" unicode="&#xb2;" horiz-adv-x="445" 
d="M117 276q5 29 18 52t44 47t47 34.5t66 39.5q86 49 113 73.5t27 66.5q0 75 -96 75q-115 0 -131 -115h-34q22 147 170 147q59 0 93 -24.5t34 -74.5q0 -53 -31.5 -85.5t-126.5 -86.5q-132 -72 -147 -118h264l-5 -31h-305z" />
    <glyph glyph-name="uni00B3" unicode="&#xb3;" horiz-adv-x="436" 
d="M273 269q-79 0 -117.5 39t-23.5 109h33q-12 -57 18 -87t93 -30q62 0 99.5 28t37.5 80q0 74 -105 74h-25l4 29h40q44 0 76 23t32 63q0 68 -99 68q-115 0 -133 -105h-32q9 66 54 101t117 35q57 0 92 -23t35 -72q0 -45 -31 -72t-72 -31q37 -5 59 -28t22 -60
q0 -65 -48.5 -103t-125.5 -38z" />
    <glyph glyph-name="acute" unicode="&#xb4;" horiz-adv-x="169" 
d="M131 573l111 144h48l-131 -144h-28z" />
    <glyph glyph-name="uni00B5" unicode="&#xb5;" horiz-adv-x="585" 
d="M62 -178l123 693h37l-59 -331q-14 -81 21 -120t102 -39q82 0 137.5 58t69.5 141l51 291h39l-91 -515h-38l19 108q-26 -54 -79 -87t-117 -33q-106 0 -134 79l-43 -245h-38z" />
    <glyph glyph-name="paragraph" unicode="&#xb6;" horiz-adv-x="565" 
d="M95 -160l7 35h37q54 0 76.5 21t33.5 84l62 352q-90 0 -139.5 44.5t-49.5 115.5q0 100 68 161t183 61h263l-6 -34h-51l-145 -821h-35l145 821h-136l-125 -706q-14 -77 -48.5 -105.5t-101.5 -28.5h-38z" />
    <glyph glyph-name="periodcentered" unicode="&#xb7;" horiz-adv-x="225" 
d="M164 293q-14 0 -23 9.5t-9 23.5q0 19 14 32.5t33 13.5q14 0 23 -9.5t9 -23.5q0 -19 -14 -32.5t-33 -13.5z" />
    <glyph glyph-name="cedilla" unicode="&#xb8;" horiz-adv-x="205" 
d="M82 -187q-58 0 -90 29l16 22q28 -24 74 -24q33 0 53 14.5t20 42.5q0 33 -43 33q-36 0 -57 -12l-14 15l69 67h27l-52 -51l1 -1q17 6 39 6q29 0 47.5 -14t18.5 -40q0 -41 -31.5 -64t-77.5 -23z" />
    <glyph glyph-name="uni00B9" unicode="&#xb9;" horiz-adv-x="270" 
d="M204 276l65 366q-49 -42 -128 -59l5 28q79 19 133 77h32l-73 -412h-34z" />
    <glyph glyph-name="ordmasculine" unicode="&#xba;" horiz-adv-x="416" 
d="M281 381q-66 0 -102 38t-36 98q0 85 51 142t129 57q67 0 103 -38t36 -98q0 -85 -51 -142t-130 -57zM286 411q63 0 103.5 47.5t40.5 118.5q0 48 -29 79t-81 31q-64 0 -104.5 -48t-40.5 -119q0 -49 28.5 -79t82.5 -30z" />
    <glyph glyph-name="guillemotright" unicode="&#xbb;" horiz-adv-x="350" 
d="M102 125l7 45l94 99l-59 98l8 45l82 -126l-6 -34zM212 125l8 45l94 99l-59 98l8 45l82 -126l-6 -34z" />
    <glyph glyph-name="onequarter" unicode="&#xbc;" horiz-adv-x="724" 
d="M86 -32l575 747h34l-574 -747h-35zM201 276l64 364q-51 -39 -127 -57l4 28q79 17 133 77h33l-73 -412h-34zM581 0l18 98h-219l6 35l264 279h38l-50 -284h74l-5 -30h-75l-17 -98h-34zM420 128h184l42 239h-1z" />
    <glyph glyph-name="onehalf" unicode="&#xbd;" horiz-adv-x="802" 
d="M95 -32l575 747h35l-575 -747h-35zM200 276l65 367q-46 -41 -128 -60l5 28q44 10 73 27t60 50h32l-73 -412h-34zM453 0q4 23 16 44t23.5 34.5t39 32.5t41.5 27.5t51 29.5q41 24 54.5 32t38 25t31.5 27t14 26t7 34q0 75 -95 75q-114 0 -133 -115h-34q27 147 175 147
q56 0 89 -24.5t33 -74.5q0 -55 -32 -87t-134 -89q-125 -71 -138 -114h263l-5 -30h-305z" />
    <glyph glyph-name="threequarters" unicode="&#xbe;" horiz-adv-x="824" 
d="M197 -32l575 747h35l-575 -747h-35zM258 269q-79 0 -117 39t-23 109h33q-12 -57 18 -87t93 -30q62 0 99 28t37 80q0 74 -105 74h-25l5 29h40q44 0 75.5 23t31.5 63q0 68 -99 68q-114 0 -132 -105h-33q10 66 55 101t117 35q56 0 91 -23t35 -72q0 -45 -30.5 -72t-72.5 -31
q37 -5 59 -28t22 -60q0 -65 -48.5 -103t-125.5 -38zM683 0l17 98h-218l5 35l264 279h38l-49 -284h73l-5 -30h-74l-18 -98h-33zM522 128h184l42 237l-2 -1z" />
    <glyph glyph-name="questiondown" unicode="&#xbf;" horiz-adv-x="492" 
d="M342 534q13 0 21 -8.5t8 -20.5q0 -15 -12.5 -27t-27.5 -12q-13 0 -21 8.5t-8 20.5q0 15 12.5 27t27.5 12zM331 356q-4 -24 -7 -35q-13 -54 -40.5 -93.5t-85.5 -82.5l-30 -24q-97 -71 -97 -161q0 -54 37 -85t103 -31q89 0 144.5 52t70.5 145h40q-17 -106 -87.5 -170
t-174.5 -64q-80 0 -127.5 38t-47.5 106q0 63 28.5 104.5t85.5 88.5l31 25q50 39 74 71.5t37 81.5q4 15 7 34h39z" />
    <glyph glyph-name="Agrave" unicode="&#xc0;" horiz-adv-x="641" 
d="M481 776h-30l-95 129h49zM569 0l-48 246h-316l-136 -246h-42l398 715h46l141 -715h-43zM226 285h288l-74 383h-2z" />
    <glyph glyph-name="Aacute" unicode="&#xc1;" horiz-adv-x="641" 
d="M586 905l-141 -129h-31l122 129h50zM569 0l-48 246h-316l-136 -246h-42l398 715h46l141 -715h-43zM226 285h288l-74 383h-2z" />
    <glyph glyph-name="Acircumflex" unicode="&#xc2;" horiz-adv-x="641" 
d="M471 875l-106 -99h-34l129 129h32l86 -129h-32zM569 0l-48 246h-316l-136 -246h-42l398 715h46l141 -715h-43zM226 285h288l-74 383h-2z" />
    <glyph glyph-name="Atilde" unicode="&#xc3;" horiz-adv-x="641" 
d="M407 851q-20 0 -33.5 -15t-17.5 -36h-31q8 36 31 59.5t54 23.5q26 0 61 -25t54 -25q37 0 52 48h31q-21 -80 -85 -80q-26 0 -60.5 25t-55.5 25zM569 0l-48 246h-316l-136 -246h-42l398 715h46l141 -715h-43zM226 285h288l-74 383h-2z" />
    <glyph glyph-name="Adieresis" unicode="&#xc4;" horiz-adv-x="641" 
d="M377 805q-14 0 -24 10t-10 24q0 13 10 22.5t24 9.5q13 0 22.5 -9.5t9.5 -22.5q0 -14 -9.5 -24t-22.5 -10zM557 805q-14 0 -23.5 10t-9.5 24q0 13 10 22.5t23 9.5q14 0 23.5 -9.5t9.5 -22.5q0 -14 -9.5 -24t-23.5 -10zM569 0l-48 246h-316l-136 -246h-42l398 715h46
l141 -715h-43zM226 285h288l-74 383h-2z" />
    <glyph glyph-name="Aring" unicode="&#xc5;" horiz-adv-x="641" 
d="M457 752q-37 0 -60.5 23t-22.5 60q1 40 29 67.5t70 27.5q37 0 61 -24t22 -60q-1 -40 -29 -67t-70 -27zM402 837q-1 -27 15.5 -43.5t43.5 -16.5q29 0 47 19.5t19 47.5q0 27 -15.5 43.5t-42.5 16.5q-29 0 -47.5 -19.5t-19.5 -47.5zM569 0l-48 246h-316l-136 -246h-42
l398 715h46l141 -715h-43zM226 285h288l-74 383h-2z" />
    <glyph glyph-name="AE" unicode="&#xc6;" horiz-adv-x="869" 
d="M933 678h-363l-51 -289h334l-5 -35h-334l-56 -318h364l-6 -36h-405l46 262h-231l-189 -262h-43l517 714h428zM463 297l68 382h-5l-275 -382h212z" />
    <glyph glyph-name="Ccedilla" unicode="&#xc7;" horiz-adv-x="712" 
d="M403 24q102 0 170.5 57.5t93.5 149.5h40q-29 -106 -104 -173t-187 -73l-37 -36l1 -1q16 6 39 6q29 0 47.5 -14t18.5 -40q0 -41 -31.5 -64t-77.5 -23q-58 0 -90 29l16 22q28 -24 74 -24q33 0 53 14.5t20 42.5q0 33 -43 33q-36 0 -57 -12l-14 15l54 52q-121 3 -199 88.5
t-78 224.5q0 185 96.5 308t252.5 123q118 0 190.5 -70.5t81.5 -180.5h-38q-13 101 -77.5 156.5t-163.5 55.5q-139 0 -220 -112t-81 -271q0 -127 69 -205t181 -78z" />
    <glyph glyph-name="Egrave" unicode="&#xc8;" horiz-adv-x="616" 
d="M491 776l-95 129h49l76 -129h-30zM107 0l126 715h456l-7 -38h-416l-51 -288h375l-6 -38h-375l-55 -314h421l-7 -37h-461z" />
    <glyph glyph-name="Eacute" unicode="&#xc9;" horiz-adv-x="616" 
d="M425 776l122 129h50l-141 -129h-31zM107 0l126 715h456l-7 -38h-416l-51 -288h375l-6 -38h-375l-55 -314h421l-7 -37h-461z" />
    <glyph glyph-name="Ecircumflex" unicode="&#xca;" horiz-adv-x="616" 
d="M355 776l129 129h32l86 -129h-32l-75 99l-106 -99h-34zM107 0l126 715h456l-7 -38h-416l-51 -288h375l-6 -38h-375l-55 -314h421l-7 -37h-461z" />
    <glyph glyph-name="Edieresis" unicode="&#xcb;" horiz-adv-x="616" 
d="M401 805q-14 0 -24 10t-10 24q0 13 10 22.5t24 9.5q13 0 22.5 -9.5t9.5 -22.5q0 -14 -9.5 -24t-22.5 -10zM581 805q-14 0 -23.5 10t-9.5 24q0 13 10 22.5t23 9.5q14 0 23.5 -9.5t9.5 -22.5q0 -14 -9.5 -24t-23.5 -10zM107 0l126 715h456l-7 -38h-416l-51 -288h375l-6 -38
h-375l-55 -314h421l-7 -37h-461z" />
    <glyph glyph-name="Igrave" unicode="&#xcc;" horiz-adv-x="254" 
d="M252 776l-95 129h49l76 -129h-30zM107 0l126 715h40l-126 -715h-40z" />
    <glyph glyph-name="Iacute" unicode="&#xcd;" horiz-adv-x="254" 
d="M230 776l122 129h50l-141 -129h-31zM107 0l126 715h40l-126 -715h-40z" />
    <glyph glyph-name="Icircumflex" unicode="&#xce;" horiz-adv-x="254" 
d="M138 776l129 129h32l86 -129h-32l-75 99l-106 -99h-34zM107 0l126 715h40l-126 -715h-40z" />
    <glyph glyph-name="Idieresis" unicode="&#xcf;" horiz-adv-x="254" 
d="M180 805q-14 0 -24 10t-10 24q0 13 10 22.5t24 9.5q13 0 22.5 -9.5t9.5 -22.5q0 -14 -9.5 -24t-22.5 -10zM360 805q-14 0 -23.5 10t-9.5 24q0 13 10 22.5t23 9.5q14 0 23.5 -9.5t9.5 -22.5q0 -14 -9.5 -24t-23.5 -10zM107 0l126 715h40l-126 -715h-40z" />
    <glyph glyph-name="Eth" unicode="&#xd0;" horiz-adv-x="716" 
d="M426 715q127 0 214.5 -78.5t87.5 -222.5q0 -187 -110 -300.5t-276 -113.5h-235l60 335h-111l7 33h109l62 347h192zM347 37q149 0 245 103t96 270q0 128 -77.5 198t-192.5 70h-150l-55 -310h124l-6 -33h-124l-53 -298h193z" />
    <glyph glyph-name="Ntilde" unicode="&#xd1;" horiz-adv-x="742" 
d="M374 800q8 36 31 59.5t54 23.5q26 0 61 -25t54 -25q37 0 52 48h31q-21 -80 -85 -80q-26 0 -60.5 25t-55.5 25q-20 0 -33.5 -15t-17.5 -36h-31zM107 0l126 715h37l337 -651l114 651h40l-126 -715h-38l-337 650l-115 -650h-38z" />
    <glyph glyph-name="Ograve" unicode="&#xd2;" horiz-adv-x="786" 
d="M513 776l-95 129h49l76 -129h-30zM421 -15q-141 0 -224.5 89.5t-83.5 227.5q0 181 102 304t267 123q141 0 224.5 -90.5t83.5 -226.5q0 -183 -100.5 -305t-268.5 -122zM424 24q102 0 177 53.5t111.5 139t36.5 190.5q0 124 -73 203.5t-198 79.5q-99 0 -174 -53.5
t-112.5 -139.5t-37.5 -189q0 -125 72.5 -204.5t197.5 -79.5z" />
    <glyph glyph-name="Oacute" unicode="&#xd3;" horiz-adv-x="786" 
d="M466 776l122 129h50l-141 -129h-31zM421 -15q-141 0 -224.5 89.5t-83.5 227.5q0 181 102 304t267 123q141 0 224.5 -90.5t83.5 -226.5q0 -183 -100.5 -305t-268.5 -122zM424 24q102 0 177 53.5t111.5 139t36.5 190.5q0 124 -73 203.5t-198 79.5q-99 0 -174 -53.5
t-112.5 -139.5t-37.5 -189q0 -125 72.5 -204.5t197.5 -79.5z" />
    <glyph glyph-name="Ocircumflex" unicode="&#xd4;" horiz-adv-x="786" 
d="M358 776l129 129h32l86 -129h-32l-75 99l-106 -99h-34zM421 -15q-141 0 -224.5 89.5t-83.5 227.5q0 181 102 304t267 123q141 0 224.5 -90.5t83.5 -226.5q0 -183 -100.5 -305t-268.5 -122zM424 24q102 0 177 53.5t111.5 139t36.5 190.5q0 124 -73 203.5t-198 79.5
q-99 0 -174 -53.5t-112.5 -139.5t-37.5 -189q0 -125 72.5 -204.5t197.5 -79.5z" />
    <glyph glyph-name="Otilde" unicode="&#xd5;" horiz-adv-x="786" 
d="M377 800q8 36 31 59.5t54 23.5q26 0 61 -25t54 -25q37 0 52 48h31q-21 -80 -85 -80q-26 0 -60.5 25t-55.5 25q-20 0 -33.5 -15t-17.5 -36h-31zM421 -15q-141 0 -224.5 89.5t-83.5 227.5q0 181 102 304t267 123q141 0 224.5 -90.5t83.5 -226.5q0 -183 -100.5 -305
t-268.5 -122zM424 24q102 0 177 53.5t111.5 139t36.5 190.5q0 124 -73 203.5t-198 79.5q-99 0 -174 -53.5t-112.5 -139.5t-37.5 -189q0 -125 72.5 -204.5t197.5 -79.5z" />
    <glyph glyph-name="Odieresis" unicode="&#xd6;" horiz-adv-x="786" 
d="M426 805q-14 0 -24 10t-10 24q0 13 10 22.5t24 9.5q13 0 22.5 -9.5t9.5 -22.5q0 -14 -9.5 -24t-22.5 -10zM606 805q-14 0 -23.5 10t-9.5 24q0 13 10 22.5t23 9.5q14 0 23.5 -9.5t9.5 -22.5q0 -14 -9.5 -24t-23.5 -10zM421 -15q-141 0 -224.5 89.5t-83.5 227.5
q0 181 102 304t267 123q141 0 224.5 -90.5t83.5 -226.5q0 -183 -100.5 -305t-268.5 -122zM424 24q102 0 177 53.5t111.5 139t36.5 190.5q0 124 -73 203.5t-198 79.5q-99 0 -174 -53.5t-112.5 -139.5t-37.5 -189q0 -125 72.5 -204.5t197.5 -79.5z" />
    <glyph glyph-name="multiply" unicode="&#xd7;" horiz-adv-x="521" 
d="M95 61l-18 23l208 185l-143 186l27 22l142 -186l209 186l20 -22l-210 -186l144 -185l-28 -23l-143 186z" />
    <glyph glyph-name="Oslash" unicode="&#xd8;" horiz-adv-x="786" 
d="M712 633q78 -89 78 -221q0 -183 -100.5 -305t-268.5 -122q-128 0 -211 77l-53 -60l-20 19l53 61q-77 86 -77 220q0 181 102 304t267 123q127 0 209 -76l58 66l22 -19zM154 308q0 -119 64 -195l446 509q-73 68 -186 68q-99 0 -174 -53.5t-112.5 -139.5t-37.5 -189zM424 24
q102 0 177 53.5t111.5 139t36.5 190.5q0 117 -65 194l-447 -508q74 -69 187 -69z" />
    <glyph glyph-name="Ugrave" unicode="&#xd9;" horiz-adv-x="705" 
d="M489 776l-95 129h49l76 -129h-30zM354 -17q-104 0 -160.5 52.5t-56.5 151.5q0 44 8 87l78 441h40l-77 -441q-8 -45 -8 -79q0 -82 46.5 -127.5t137.5 -45.5q109 0 170.5 63t83.5 189l78 441h40l-78 -441q-52 -291 -302 -291z" />
    <glyph glyph-name="Uacute" unicode="&#xda;" horiz-adv-x="705" 
d="M443 776l122 129h50l-141 -129h-31zM354 -17q-104 0 -160.5 52.5t-56.5 151.5q0 44 8 87l78 441h40l-77 -441q-8 -45 -8 -79q0 -82 46.5 -127.5t137.5 -45.5q109 0 170.5 63t83.5 189l78 441h40l-78 -441q-52 -291 -302 -291z" />
    <glyph glyph-name="Ucircumflex" unicode="&#xdb;" horiz-adv-x="705" 
d="M363 776l129 129h32l86 -129h-32l-75 99l-106 -99h-34zM354 -17q-104 0 -160.5 52.5t-56.5 151.5q0 44 8 87l78 441h40l-77 -441q-8 -45 -8 -79q0 -82 46.5 -127.5t137.5 -45.5q109 0 170.5 63t83.5 189l78 441h40l-78 -441q-52 -291 -302 -291z" />
    <glyph glyph-name="Udieresis" unicode="&#xdc;" horiz-adv-x="705" 
d="M412 805q-14 0 -24 10t-10 24q0 13 10 22.5t24 9.5q13 0 22.5 -9.5t9.5 -22.5q0 -14 -9.5 -24t-22.5 -10zM592 805q-14 0 -23.5 10t-9.5 24q0 13 10 22.5t23 9.5q14 0 23.5 -9.5t9.5 -22.5q0 -14 -9.5 -24t-23.5 -10zM354 -17q-104 0 -160.5 52.5t-56.5 151.5q0 44 8 87
l78 441h40l-77 -441q-8 -45 -8 -79q0 -82 46.5 -127.5t137.5 -45.5q109 0 170.5 63t83.5 189l78 441h40l-78 -441q-52 -291 -302 -291z" />
    <glyph glyph-name="Yacute" unicode="&#xdd;" horiz-adv-x="638" 
d="M402 774l122 129h50l-141 -129h-31zM299 0l52 298l-198 416h44l180 -378l312 378h46l-344 -417l-52 -297h-40z" />
    <glyph glyph-name="Thorn" unicode="&#xde;" horiz-adv-x="636" 
d="M107 0l126 714h40l-27 -154h236q90 0 136.5 -41.5t46.5 -118.5q0 -109 -71 -174t-185 -65h-234l-28 -161h-40zM182 196h235q89 0 148.5 52t59.5 146q0 131 -153 131h-233z" />
    <glyph glyph-name="germandbls" unicode="&#xdf;" horiz-adv-x="548" 
d="M85 0l91 515q19 106 84 158t146 52q72 0 115 -37.5t43 -104.5q0 -69 -40.5 -122t-107.5 -68q56 -9 88.5 -49.5t32.5 -101.5q0 -107 -67.5 -174.5t-202.5 -67.5h-50l7 36h50q100 0 162 50t62 154q0 132 -173 132h-13l7 36h13q82 0 137.5 43.5t55.5 125.5q0 53 -33.5 82.5
t-92.5 29.5q-37 0 -71.5 -13t-68 -54.5t-44.5 -106.5l-91 -515h-39z" />
    <glyph glyph-name="agrave" unicode="&#xe0;" horiz-adv-x="524" 
d="M369 573h-27l-87 144h46zM213 -12q-63 0 -105 34t-42 96q0 138 188 170l142 23q38 6 53 23.5t15 67.5q0 46 -28.5 68t-93.5 22q-148 0 -173 -128h-37q13 75 67 119t147 44q156 0 156 -123q0 -23 -4 -46l-50 -286q-1 -4 -1 -12q0 -25 27 -25h22l-6 -35h-42q-42 0 -42 39
q0 4 2 16l7 37q-33 -48 -86 -76t-116 -28zM222 24q74 0 135 45.5t72 112.5l21 116q-22 -17 -63 -23l-126 -20q-80 -13 -116.5 -45.5t-36.5 -87.5q0 -47 31 -72.5t83 -25.5z" />
    <glyph glyph-name="aacute" unicode="&#xe1;" horiz-adv-x="524" 
d="M313 573l111 144h48l-131 -144h-28zM213 -12q-63 0 -105 34t-42 96q0 138 188 170l142 23q38 6 53 23.5t15 67.5q0 46 -28.5 68t-93.5 22q-148 0 -173 -128h-37q13 75 67 119t147 44q156 0 156 -123q0 -23 -4 -46l-50 -286q-1 -4 -1 -12q0 -25 27 -25h22l-6 -35h-42
q-42 0 -42 39q0 4 2 16l7 37q-33 -48 -86 -76t-116 -28zM222 24q74 0 135 45.5t72 112.5l21 116q-22 -17 -63 -23l-126 -20q-80 -13 -116.5 -45.5t-36.5 -87.5q0 -47 31 -72.5t83 -25.5z" />
    <glyph glyph-name="acircumflex" unicode="&#xe2;" horiz-adv-x="524" 
d="M235 573l132 144h31l84 -144h-34l-72 113l-109 -113h-32zM213 -12q-63 0 -105 34t-42 96q0 138 188 170l142 23q38 6 53 23.5t15 67.5q0 46 -28.5 68t-93.5 22q-148 0 -173 -128h-37q13 75 67 119t147 44q156 0 156 -123q0 -23 -4 -46l-50 -286q-1 -4 -1 -12
q0 -25 27 -25h22l-6 -35h-42q-42 0 -42 39q0 4 2 16l7 37q-33 -48 -86 -76t-116 -28zM222 24q74 0 135 45.5t72 112.5l21 116q-22 -17 -63 -23l-126 -20q-80 -13 -116.5 -45.5t-36.5 -87.5q0 -47 31 -72.5t83 -25.5z" />
    <glyph glyph-name="atilde" unicode="&#xe3;" horiz-adv-x="524" 
d="M230 613q4 39 25.5 61t52.5 22q29 0 67 -25t59 -25q22 0 33.5 9t14.5 38h31q-9 -80 -79 -80q-28 0 -65.5 25.5t-61.5 25.5q-44 0 -47 -51h-30zM213 -12q-63 0 -105 34t-42 96q0 138 188 170l142 23q38 6 53 23.5t15 67.5q0 46 -28.5 68t-93.5 22q-148 0 -173 -128h-37
q13 75 67 119t147 44q156 0 156 -123q0 -23 -4 -46l-50 -286q-1 -4 -1 -12q0 -25 27 -25h22l-6 -35h-42q-42 0 -42 39q0 4 2 16l7 37q-33 -48 -86 -76t-116 -28zM222 24q74 0 135 45.5t72 112.5l21 116q-22 -17 -63 -23l-126 -20q-80 -13 -116.5 -45.5t-36.5 -87.5
q0 -47 31 -72.5t83 -25.5z" />
    <glyph glyph-name="adieresis" unicode="&#xe4;" horiz-adv-x="524" 
d="M292 631q-12 0 -20 8t-8 21q0 17 9.5 26.5t24.5 9.5q13 0 21 -8t8 -21q0 -17 -10 -26.5t-25 -9.5zM449 631q-12 0 -20 8t-8 21q0 17 9.5 26.5t24.5 9.5q13 0 21 -8t8 -21q0 -17 -10 -26.5t-25 -9.5zM213 -12q-63 0 -105 34t-42 96q0 138 188 170l142 23q38 6 53 23.5
t15 67.5q0 46 -28.5 68t-93.5 22q-148 0 -173 -128h-37q13 75 67 119t147 44q156 0 156 -123q0 -23 -4 -46l-50 -286q-1 -4 -1 -12q0 -25 27 -25h22l-6 -35h-42q-42 0 -42 39q0 4 2 16l7 37q-33 -48 -86 -76t-116 -28zM222 24q74 0 135 45.5t72 112.5l21 116
q-22 -17 -63 -23l-126 -20q-80 -13 -116.5 -45.5t-36.5 -87.5q0 -47 31 -72.5t83 -25.5z" />
    <glyph glyph-name="aring" unicode="&#xe5;" horiz-adv-x="524" 
d="M359 556q-36 0 -58 22t-22 58q0 44 30 74.5t73 30.5q36 0 58 -22.5t22 -58.5q0 -43 -29.5 -73.5t-73.5 -30.5zM364 583q30 0 49 21t19 52q0 26 -14.5 42t-39.5 16q-30 0 -50 -21.5t-20 -51.5q0 -26 15 -42t41 -16zM213 -12q-63 0 -105 34t-42 96q0 138 188 170l142 23
q38 6 53 23.5t15 67.5q0 46 -28.5 68t-93.5 22q-148 0 -173 -128h-37q13 75 67 119t147 44q156 0 156 -123q0 -23 -4 -46l-50 -286q-1 -4 -1 -12q0 -25 27 -25h22l-6 -35h-42q-42 0 -42 39q0 4 2 16l7 37q-33 -48 -86 -76t-116 -28zM222 24q74 0 135 45.5t72 112.5l21 116
q-22 -17 -63 -23l-126 -20q-80 -13 -116.5 -45.5t-36.5 -87.5q0 -47 31 -72.5t83 -25.5z" />
    <glyph glyph-name="ae" unicode="&#xe6;" horiz-adv-x="894" 
d="M701 527q88 0 140.5 -57.5t52.5 -155.5q0 -20 -6 -64h-37l-367 1q-2 -24 -2 -35q0 -94 43 -142.5t121 -48.5q65 0 110.5 33t67.5 92h38q-27 -76 -83 -119t-140 -43q-74 0 -124 39t-66 112q-32 -73 -93 -112t-143 -39q-68 0 -109 34t-41 97q0 138 191 169l142 23
q38 6 53 23.5t15 67.5q0 88 -122 88q-147 0 -172 -126h-38q13 75 68 119t149 44q144 0 153 -110q74 110 199 110zM488 285l366 -1q2 16 2 24q1 83 -43 132.5t-118 49.5q-83 0 -137 -58t-70 -147zM222 24q82 0 139.5 48.5t72.5 135.5l16 90q-22 -17 -63 -23l-126 -20
q-81 -13 -117.5 -44.5t-36.5 -86.5q0 -48 30 -74t85 -26z" />
    <glyph glyph-name="ccedilla" unicode="&#xe7;" horiz-adv-x="528" 
d="M293 25q67 0 114 32.5t68 97.5h37q-21 -72 -70 -114.5t-118 -50.5l-42 -41l1 -1q17 6 39 6q29 0 47.5 -14t18.5 -40q0 -41 -31.5 -64t-77.5 -23q-58 0 -90 29l16 22q28 -24 74 -24q33 0 53 14.5t20 42.5q0 33 -43 33q-36 0 -57 -12l-14 15l57 55h-6q-91 0 -143.5 61
t-52.5 166q0 132 71 222t186 90q81 0 131 -46t56 -124h-37q-24 133 -158 133q-100 0 -156 -82t-56 -188q0 -94 40.5 -144.5t122.5 -50.5z" />
    <glyph glyph-name="egrave" unicode="&#xe8;" horiz-adv-x="543" 
d="M366 573h-27l-87 144h46zM347 527q86 0 140 -59t54 -157q0 -39 -4 -60h-406q-1 -11 -1 -33q0 -97 44 -145.5t123 -48.5q64 0 109.5 33.5t67.5 92.5h38q-26 -76 -82.5 -119t-136.5 -43q-91 0 -146 59.5t-55 166.5q0 131 70 222t185 91zM136 285l368 -1q1 8 1 23
q0 83 -45 133t-118 50q-84 0 -137 -58t-69 -147z" />
    <glyph glyph-name="eacute" unicode="&#xe9;" horiz-adv-x="543" 
d="M474 717l-131 -144h-28l111 144h48zM347 527q86 0 140 -59t54 -157q0 -39 -4 -60h-406q-1 -11 -1 -33q0 -97 44 -145.5t123 -48.5q64 0 109.5 33.5t67.5 92.5h38q-26 -76 -82.5 -119t-136.5 -43q-91 0 -146 59.5t-55 166.5q0 131 70 222t185 91zM136 285l368 -1q1 8 1 23
q0 83 -45 133t-118 50q-84 0 -137 -58t-69 -147z" />
    <glyph glyph-name="ecircumflex" unicode="&#xea;" horiz-adv-x="543" 
d="M370 686l-109 -113h-32l132 144h31l84 -144h-34zM347 527q86 0 140 -59t54 -157q0 -39 -4 -60h-406q-1 -11 -1 -33q0 -97 44 -145.5t123 -48.5q64 0 109.5 33.5t67.5 92.5h38q-26 -76 -82.5 -119t-136.5 -43q-91 0 -146 59.5t-55 166.5q0 131 70 222t185 91zM136 285
l368 -1q1 8 1 23q0 83 -45 133t-118 50q-84 0 -137 -58t-69 -147z" />
    <glyph glyph-name="edieresis" unicode="&#xeb;" horiz-adv-x="543" 
d="M272 631q-12 0 -20 8t-8 21q0 17 9.5 26.5t24.5 9.5q13 0 21 -8t8 -21q0 -17 -10 -26.5t-25 -9.5zM429 631q-12 0 -20 8t-8 21q0 17 9.5 26.5t24.5 9.5q13 0 21 -8t8 -21q0 -17 -10 -26.5t-25 -9.5zM347 527q86 0 140 -59t54 -157q0 -39 -4 -60h-406q-1 -11 -1 -33
q0 -97 44 -145.5t123 -48.5q64 0 109.5 33.5t67.5 92.5h38q-26 -76 -82.5 -119t-136.5 -43q-91 0 -146 59.5t-55 166.5q0 131 70 222t185 91zM136 285l368 -1q1 8 1 23q0 83 -45 133t-118 50q-84 0 -137 -58t-69 -147z" />
    <glyph glyph-name="igrave" unicode="&#xec;" horiz-adv-x="209" 
d="M215 573h-27l-87 144h46zM85 0l91 515h38l-91 -515h-38z" />
    <glyph glyph-name="iacute" unicode="&#xed;" horiz-adv-x="209" 
d="M157 573l111 144h48l-131 -144h-28zM85 0l91 515h38l-91 -515h-38z" />
    <glyph glyph-name="icircumflex" unicode="&#xee;" horiz-adv-x="209" 
d="M86 573l129 144h30l82 -144h-33l-70 113l-107 -113h-31zM85 0l91 515h38l-91 -515h-38z" />
    <glyph glyph-name="idieresis" unicode="&#xef;" horiz-adv-x="209" 
d="M139 631q-12 0 -20 8t-8 21q0 17 9.5 26.5t24.5 9.5q13 0 21 -8t8 -21q0 -17 -10 -26.5t-25 -9.5zM296 631q-12 0 -20 8t-8 21q0 17 9.5 26.5t24.5 9.5q13 0 21 -8t8 -21q0 -17 -10 -26.5t-25 -9.5zM85 0l91 515h38l-91 -515h-38z" />
    <glyph glyph-name="eth" unicode="&#xf0;" horiz-adv-x="567" 
d="M565 336q0 -37 -6 -77q-9 -117 -78.5 -194t-182.5 -77q-97 0 -151.5 59.5t-54.5 161.5q0 132 72 216.5t186 84.5q117 0 177 -96q-20 61 -56.5 120t-68.5 93l-125 -66l-10 25l116 61q-31 31 -70 54l24 28q48 -29 83 -64l127 66l11 -25l-119 -62q126 -156 126 -308zM302 23
q105 0 163 76t58 187q0 83 -48.5 135.5t-128.5 52.5q-97 0 -156.5 -73t-59.5 -187q0 -91 44.5 -141t127.5 -50z" />
    <glyph glyph-name="ntilde" unicode="&#xf1;" horiz-adv-x="552" 
d="M247 613q4 39 25.5 61t52.5 22q29 0 67 -25t59 -25q22 0 33.5 9t14.5 38h31q-9 -80 -79 -80q-28 0 -65.5 25.5t-61.5 25.5q-44 0 -47 -51h-30zM85 0l91 515h38l-20 -108q29 56 78 88t105 32q77 0 117 -39.5t40 -110.5q0 -26 -5 -59l-56 -318h-38l54 311q6 38 6 52
q0 61 -32 94.5t-94 33.5q-70 0 -124 -53.5t-68 -132.5l-54 -305h-38z" />
    <glyph glyph-name="ograve" unicode="&#xf2;" horiz-adv-x="566" 
d="M404 573h-27l-87 144h46zM303 -12q-100 0 -154.5 61t-54.5 160q0 136 73 227t187 91q99 0 153.5 -61.5t55.5 -159.5q1 -139 -72.5 -228.5t-187.5 -89.5zM307 23q96 0 157 79.5t61 198.5q0 86 -45.5 138t-128.5 52q-98 0 -158 -79.5t-60 -197.5q0 -87 45 -139t129 -52z
" />
    <glyph glyph-name="oacute" unicode="&#xf3;" horiz-adv-x="566" 
d="M326 573l111 144h48l-131 -144h-28zM303 -12q-100 0 -154.5 61t-54.5 160q0 136 73 227t187 91q99 0 153.5 -61.5t55.5 -159.5q1 -139 -72.5 -228.5t-187.5 -89.5zM307 23q96 0 157 79.5t61 198.5q0 86 -45.5 138t-128.5 52q-98 0 -158 -79.5t-60 -197.5q0 -87 45 -139
t129 -52z" />
    <glyph glyph-name="ocircumflex" unicode="&#xf4;" horiz-adv-x="566" 
d="M256 573l132 144h31l84 -144h-34l-72 113l-109 -113h-32zM303 -12q-100 0 -154.5 61t-54.5 160q0 136 73 227t187 91q99 0 153.5 -61.5t55.5 -159.5q1 -139 -72.5 -228.5t-187.5 -89.5zM307 23q96 0 157 79.5t61 198.5q0 86 -45.5 138t-128.5 52q-98 0 -158 -79.5
t-60 -197.5q0 -87 45 -139t129 -52z" />
    <glyph glyph-name="otilde" unicode="&#xf5;" horiz-adv-x="566" 
d="M234 613q4 39 25.5 61t52.5 22q29 0 67 -25t59 -25q22 0 33.5 9t14.5 38h31q-9 -80 -79 -80q-28 0 -65.5 25.5t-61.5 25.5q-44 0 -47 -51h-30zM303 -12q-100 0 -154.5 61t-54.5 160q0 136 73 227t187 91q99 0 153.5 -61.5t55.5 -159.5q1 -139 -72.5 -228.5t-187.5 -89.5z
M307 23q96 0 157 79.5t61 198.5q0 86 -45.5 138t-128.5 52q-98 0 -158 -79.5t-60 -197.5q0 -87 45 -139t129 -52z" />
    <glyph glyph-name="odieresis" unicode="&#xf6;" horiz-adv-x="566" 
d="M303 631q-12 0 -20 8t-8 21q0 17 9.5 26.5t24.5 9.5q13 0 21 -8t8 -21q0 -17 -10 -26.5t-25 -9.5zM460 631q-12 0 -20 8t-8 21q0 17 9.5 26.5t24.5 9.5q13 0 21 -8t8 -21q0 -17 -10 -26.5t-25 -9.5zM303 -12q-100 0 -154.5 61t-54.5 160q0 136 73 227t187 91
q99 0 153.5 -61.5t55.5 -159.5q1 -139 -72.5 -228.5t-187.5 -89.5zM307 23q96 0 157 79.5t61 198.5q0 86 -45.5 138t-128.5 52q-98 0 -158 -79.5t-60 -197.5q0 -87 45 -139t129 -52z" />
    <glyph glyph-name="divide" unicode="&#xf7;" horiz-adv-x="627" 
d="M389 433q-17 0 -27 11t-10 28q0 24 16.5 40t38.5 16q16 0 27 -11.5t11 -28.5q0 -22 -14 -38.5t-42 -16.5zM118 253l6 33h480l-6 -33h-480zM315 10q-18 0 -28 11t-10 29q0 23 16.5 39t38.5 16q17 0 28 -11.5t11 -28.5q0 -22 -14.5 -38.5t-41.5 -16.5z" />
    <glyph glyph-name="oslash" unicode="&#xf8;" horiz-adv-x="566" 
d="M563 306q1 -139 -72.5 -228.5t-187.5 -89.5q-58 0 -102 22l-44 -77l-20 11l44 78q-87 58 -87 187q0 136 73 227t187 91q55 0 100 -21l41 73l21 -12l-41 -73q86 -59 88 -188zM133 214q0 -110 67 -159l235 418q-36 18 -84 18q-98 0 -158 -79.5t-60 -197.5zM307 23
q96 0 157 79.5t61 198.5q0 108 -69 159l-237 -417q37 -20 88 -20z" />
    <glyph glyph-name="ugrave" unicode="&#xf9;" horiz-adv-x="550" 
d="M397 573h-27l-87 144h46zM254 -12q-80 0 -119 50t-24 141l60 336h38l-59 -331q-14 -81 18.5 -120t97.5 -39q79 0 129.5 45t64.5 125l57 320h38l-91 -515h-37l13 78q-26 -41 -74.5 -65.5t-111.5 -24.5z" />
    <glyph glyph-name="uacute" unicode="&#xfa;" horiz-adv-x="550" 
d="M325 573l111 144h48l-131 -144h-28zM254 -12q-80 0 -119 50t-24 141l60 336h38l-59 -331q-14 -81 18.5 -120t97.5 -39q79 0 129.5 45t64.5 125l57 320h38l-91 -515h-37l13 78q-26 -41 -74.5 -65.5t-111.5 -24.5z" />
    <glyph glyph-name="ucircumflex" unicode="&#xfb;" horiz-adv-x="550" 
d="M249 573l132 144h31l84 -144h-34l-72 113l-109 -113h-32zM254 -12q-80 0 -119 50t-24 141l60 336h38l-59 -331q-14 -81 18.5 -120t97.5 -39q79 0 129.5 45t64.5 125l57 320h38l-91 -515h-37l13 78q-26 -41 -74.5 -65.5t-111.5 -24.5z" />
    <glyph glyph-name="udieresis" unicode="&#xfc;" horiz-adv-x="550" 
d="M300 631q-12 0 -20 8t-8 21q0 17 9.5 26.5t24.5 9.5q13 0 21 -8t8 -21q0 -17 -10 -26.5t-25 -9.5zM457 631q-12 0 -20 8t-8 21q0 17 9.5 26.5t24.5 9.5q13 0 21 -8t8 -21q0 -17 -10 -26.5t-25 -9.5zM254 -12q-80 0 -119 50t-24 141l60 336h38l-59 -331q-14 -81 18.5 -120
t97.5 -39q79 0 129.5 45t64.5 125l57 320h38l-91 -515h-37l13 78q-26 -41 -74.5 -65.5t-111.5 -24.5z" />
    <glyph glyph-name="yacute" unicode="&#xfd;" horiz-adv-x="487" 
d="M301 573l111 144h48l-131 -144h-28zM24 -209l6 37h75q49 0 84 56q32 47 32 71q0 10 -6 48l-93 512h43l46 -287l41 -230l257 517h41l-321 -631q-25 -50 -56 -71.5t-74 -21.5h-75z" />
    <glyph glyph-name="thorn" unicode="&#xfe;" horiz-adv-x="581" 
d="M383 527q89 0 142 -60.5t53 -157.5q0 -138 -69.5 -229.5t-182.5 -91.5q-69 0 -116 35.5t-64 102.5l-59 -334h-38l162 925h37l-52 -295q69 105 187 105zM329 24q96 0 154 80t58 199q0 84 -43.5 135.5t-123.5 51.5q-92 0 -150 -79t-58 -205q0 -85 44 -133.5t119 -48.5z" />
    <glyph glyph-name="ydieresis" unicode="&#xff;" horiz-adv-x="487" 
d="M281 631q-12 0 -20 8t-8 21q0 17 9.5 26.5t24.5 9.5q13 0 21 -8t8 -21q0 -17 -10 -26.5t-25 -9.5zM438 631q-12 0 -20 8t-8 21q0 17 9.5 26.5t24.5 9.5q13 0 21 -8t8 -21q0 -17 -10 -26.5t-25 -9.5zM24 -209l6 37h75q49 0 84 56q32 47 32 71q0 10 -6 48l-93 512h43
l46 -287l41 -230l257 517h41l-321 -631q-25 -50 -56 -71.5t-74 -21.5h-75z" />
    <glyph glyph-name="dotlessi" unicode="&#x131;" horiz-adv-x="209" 
d="M85 0l91 515h38l-91 -515h-38z" />
    <glyph glyph-name="Ldot" unicode="&#x13f;" horiz-adv-x="553" 
d="M107 0l126 715h40l-119 -676h386l-7 -39h-426zM450 332q-14 0 -23 9.5t-9 23.5q0 19 14 32.5t33 13.5q14 0 23 -9.5t9 -23.5q0 -19 -14 -32.5t-33 -13.5z" />
    <glyph glyph-name="ldot" unicode="&#x140;" horiz-adv-x="237" 
d="M155 0q-71 0 -60 69l114 648h39l-114 -643q-8 -40 34 -40h28l-6 -34h-35zM280 334q-14 0 -23 9.5t-9 23.5q0 19 14 32.5t33 13.5q14 0 23 -9.5t9 -23.5q0 -19 -14 -32.5t-33 -13.5z" />
    <glyph glyph-name="Lslash" unicode="&#x141;" horiz-adv-x="553" 
d="M154 39h386l-7 -39h-426l56 320l-109 -72l7 37l109 72l63 358h40l-58 -329l132 87l-7 -37l-131 -86z" />
    <glyph glyph-name="lslash" unicode="&#x142;" horiz-adv-x="221" 
d="M186 370l-52 -296q-8 -40 34 -40h28l-6 -34h-35q-71 0 -60 69l47 267l-77 -59l7 38l76 58l61 344h39l-55 -310l82 62l-8 -38z" />
    <glyph glyph-name="OE" unicode="&#x152;" horiz-adv-x="1075" 
d="M383 -17q-130 0 -200.5 85t-70.5 217q0 114 47.5 215t141 166t212.5 65q126 0 184 -82l12 66h441l-7 -38h-401l-51 -288h358l-6 -38h-358l-55 -314h402l-7 -37h-442l11 66q-93 -83 -211 -83zM390 22q123 0 215 101l82 469q-32 52 -73.5 76t-105.5 24q-137 0 -231.5 -99.5
t-117.5 -257.5q-18 -139 43 -226t188 -87z" />
    <glyph glyph-name="oe" unicode="&#x153;" horiz-adv-x="971" 
d="M775 527q86 0 140 -59t54 -157q0 -39 -4 -60h-405q0 -2 -0.5 -6t-0.5 -6q-1 -7 -1 -21q0 -97 44 -145.5t123 -48.5q64 0 109.5 33.5t67.5 92.5h38q-26 -76 -82.5 -119t-136.5 -43q-73 0 -123.5 38.5t-68.5 111.5q-33 -70 -92.5 -110t-133.5 -40q-100 0 -154.5 61
t-54.5 160q0 136 73 227t187 91q79 0 130.5 -40.5t69.5 -109.5q32 69 89 109.5t132 40.5zM307 23q84 0 142 62t72 160l3 27q1 10 1 29q0 86 -45.5 138t-128.5 52q-98 0 -158 -79.5t-60 -197.5q0 -87 45 -139t129 -52zM564 285l368 -1q1 8 1 23q0 83 -45 133t-118 50
q-84 0 -137 -58t-69 -147z" />
    <glyph glyph-name="Scaron" unicode="&#x160;" horiz-adv-x="619" 
d="M412 776l-86 129h34l74 -100l109 100h33l-131 -129h-33zM335 -17q-119 0 -185 45t-66 137q0 27 6 59h39q-4 -34 -4 -49q0 -155 213 -155q101 0 160 42.5t59 126.5q0 68 -45.5 101.5t-138.5 61.5q-38 12 -63.5 21.5t-54.5 25t-46.5 33t-29 43.5t-11.5 58q0 97 71 147.5
t188 50.5q96 0 156.5 -43t60.5 -134q0 -20 -3 -42h-40q2 12 2 35q0 148 -180 148q-97 0 -156 -38.5t-59 -116.5q0 -33 12.5 -56.5t42 -41t55.5 -28t75 -26.5q50 -16 82.5 -30t63 -36t45 -53t14.5 -72q0 -105 -71 -159.5t-192 -54.5z" />
    <glyph glyph-name="scaron" unicode="&#x161;" horiz-adv-x="478" 
d="M320 573l-82 143h34l70 -116l109 116h34l-132 -143h-33zM242 -12q-173 0 -173 130q0 15 3 33h37q-2 -9 -2 -24q0 -51 36.5 -77.5t104.5 -26.5q73 0 118.5 29t45.5 90q0 65 -89 93l-76 24q-54 18 -84 44t-30 74q0 70 50.5 110t141.5 40q76 0 119.5 -30.5t43.5 -93.5
q0 -11 -4 -39h-37q2 22 2 29q0 98 -130 98q-79 0 -112.5 -31t-33.5 -76q0 -36 20.5 -55t69.5 -35l75 -24q59 -20 86.5 -48.5t27.5 -70.5q0 -83 -60 -123t-150 -40z" />
    <glyph glyph-name="Ydieresis" unicode="&#x178;" horiz-adv-x="638" 
d="M377 803q-14 0 -24 10t-10 24q0 13 10 22.5t24 9.5q13 0 22.5 -9.5t9.5 -22.5q0 -14 -9.5 -24t-22.5 -10zM557 803q-14 0 -23.5 10t-9.5 24q0 13 10 22.5t23 9.5q14 0 23.5 -9.5t9.5 -22.5q0 -14 -9.5 -24t-23.5 -10zM299 0l52 298l-198 416h44l180 -378l312 378h46
l-344 -417l-52 -297h-40z" />
    <glyph glyph-name="Zcaron" unicode="&#x17d;" horiz-adv-x="578" 
d="M408 776l-86 129h34l74 -100l109 100h33l-131 -129h-33zM28 0l8 42l453 506q114 122 119 128h-439l7 38h485l-8 -42l-463 -516q-99 -107 -110 -118h471l-8 -38h-515z" />
    <glyph glyph-name="zcaron" unicode="&#x17e;" horiz-adv-x="474" 
d="M311 573l-82 143h34l70 -116l109 116h34l-132 -143h-33zM33 0l6 37l424 443h-337l6 35h383l-8 -38l-424 -443h366l-7 -34h-409z" />
    <glyph glyph-name="florin" unicode="&#x192;" horiz-adv-x="453" 
d="M-60 -158l7 35h66q82 0 114 101l136 419h-109l13 34h109l58 168q21 61 59.5 88t98.5 27h62l-7 -35h-62q-43 0 -70.5 -20.5t-44.5 -70.5l-54 -157h117l-13 -34h-115l-138 -422q-45 -133 -156 -133h-71z" />
    <glyph glyph-name="uni0237" unicode="&#x237;" horiz-adv-x="217" 
d="M-66 -209l7 37h52q39 0 57 14.5t26 59.5l108 613h38l-109 -621q-11 -59 -40.5 -81t-81.5 -22h-57z" />
    <glyph glyph-name="circumflex" unicode="&#x2c6;" horiz-adv-x="267" 
d="M111 573l132 144h31l84 -144h-34l-72 113l-109 -113h-32z" />
    <glyph glyph-name="caron" unicode="&#x2c7;" horiz-adv-x="267" 
d="M218 573l-82 143h34l70 -116l109 116h34l-132 -143h-33z" />
    <glyph glyph-name="uni02C9" unicode="&#x2c9;" horiz-adv-x="176" 
d="M79 637l5 28h243l-5 -28h-243z" />
    <glyph glyph-name="breve" unicode="&#x2d8;" horiz-adv-x="267" 
d="M236 599q-51 0 -77.5 30.5t-22.5 84.5h28q-3 -43 18 -65t59 -22q90 0 115 87h27q-15 -54 -54.5 -84.5t-92.5 -30.5z" />
    <glyph glyph-name="dotaccent" unicode="&#x2d9;" horiz-adv-x="93" 
d="M226 631q-14 0 -23.5 9.5t-9.5 24.5q0 17 11 28t28 11q14 0 23.5 -9.5t9.5 -24.5q0 -16 -11 -27.5t-28 -11.5z" />
    <glyph glyph-name="ring" unicode="&#x2da;" horiz-adv-x="200" 
d="M202 556q-36 0 -58 22t-22 58q0 44 30 74.5t73 30.5q36 0 58 -22.5t22 -58.5q0 -43 -29.5 -73.5t-73.5 -30.5zM207 583q30 0 49 21t19 52q0 26 -14.5 42t-39.5 16q-30 0 -50 -21.5t-20 -51.5q0 -26 15 -42t41 -16z" />
    <glyph glyph-name="ogonek" unicode="&#x2db;" horiz-adv-x="194" 
d="M55 -194q-32 0 -50.5 15t-18.5 41q0 70 129 138h27q-67 -44 -92 -72t-25 -56q0 -38 42 -38q43 0 73 30l18 -13q-47 -45 -103 -45z" />
    <glyph glyph-name="tilde" unicode="&#x2dc;" horiz-adv-x="287" 
d="M116 613q4 39 25.5 61t52.5 22q29 0 67 -25t59 -25q22 0 33.5 9t14.5 38h31q-9 -80 -79 -80q-28 0 -65.5 25.5t-61.5 25.5q-44 0 -47 -51h-30z" />
    <glyph glyph-name="hungarumlaut" unicode="&#x2dd;" horiz-adv-x="311" 
d="M118 573l109 144h47l-127 -144h-29zM261 573l110 144h48l-130 -144h-28z" />
    <glyph glyph-name="gravecomb" unicode="&#x300;" 
d="M102 573h-27l-87 144h46z" />
    <glyph glyph-name="acutecomb" unicode="&#x301;" 
d="M-69 573l111 144h48l-131 -144h-28z" />
    <glyph glyph-name="uni0302" unicode="&#x302;" 
d="M-156 573l132 144h31l84 -144h-34l-72 113l-109 -113h-32z" />
    <glyph glyph-name="tildecomb" unicode="&#x303;" 
d="M-169 613q4 39 25.5 61t52.5 22q29 0 67 -25t59 -25q22 0 33.5 9t14.5 38h31q-9 -80 -79 -80q-28 0 -65.5 25.5t-61.5 25.5q-44 0 -47 -51h-30z" />
    <glyph glyph-name="uni0304" unicode="&#x304;" 
d="M-141 637l5 28h243l-5 -28h-243z" />
    <glyph glyph-name="uni0306" unicode="&#x306;" 
d="M-31 599q-51 0 -77.5 30.5t-22.5 84.5h28q-3 -43 18 -65t59 -22q90 0 115 87h27q-15 -54 -54.5 -84.5t-92.5 -30.5z" />
    <glyph glyph-name="uni0307" unicode="&#x307;" 
d="M5 631q-14 0 -23.5 9.5t-9.5 24.5q0 17 11 28t28 11q14 0 23.5 -9.5t9.5 -24.5q0 -16 -11 -27.5t-28 -11.5z" />
    <glyph glyph-name="uni0308" unicode="&#x308;" 
d="M-86 631q-12 0 -20 8t-8 21q0 17 9.5 26.5t24.5 9.5q13 0 21 -8t8 -21q0 -17 -10 -26.5t-25 -9.5zM71 631q-12 0 -20 8t-8 21q0 17 9.5 26.5t24.5 9.5q13 0 21 -8t8 -21q0 -17 -10 -26.5t-25 -9.5z" />
    <glyph glyph-name="uni030A" unicode="&#x30a;" 
d="M3 556q-36 0 -58 22t-22 58q0 44 30 74.5t73 30.5q36 0 58 -22.5t22 -58.5q0 -43 -29.5 -73.5t-73.5 -30.5zM8 583q30 0 49 21t19 52q0 26 -14.5 42t-39.5 16q-30 0 -50 -21.5t-20 -51.5q0 -26 15 -42t41 -16z" />
    <glyph glyph-name="uni030B" unicode="&#x30b;" 
d="M-193 573l109 144h47l-127 -144h-29zM-50 573l110 144h48l-130 -144h-28z" />
    <glyph glyph-name="uni030C" unicode="&#x30c;" 
d="M-49 573l-82 143h34l70 -116l109 116h34l-132 -143h-33z" />
    <glyph glyph-name="uni0326" unicode="&#x326;" 
d="M-214 -218l4 25q20 4 34.5 18.5t18.5 35.5h-3q-16 0 -25.5 9t-9.5 23q0 19 14 32t32 13q33 0 33 -38q0 -47 -28.5 -80.5t-69.5 -37.5z" />
    <glyph glyph-name="uni0327" unicode="&#x327;" 
d="M-142 -187q-58 0 -90 29l16 22q28 -24 74 -24q33 0 53 14.5t20 42.5q0 33 -43 33q-36 0 -57 -12l-14 15l69 67h27l-52 -51l1 -1q17 6 39 6q29 0 47.5 -14t18.5 -40q0 -41 -31.5 -64t-77.5 -23z" />
    <glyph glyph-name="uni0328" unicode="&#x328;" 
d="M-139 -194q-32 0 -50.5 15t-18.5 41q0 70 129 138h27q-67 -44 -92 -72t-25 -56q0 -38 42 -38q43 0 73 30l18 -13q-46 -45 -103 -45z" />
    <glyph glyph-name="uni0335" unicode="&#x335;" 
d="M-178 605l7 33h274l-6 -33h-275z" />
    <glyph glyph-name="uni0336" unicode="&#x336;" 
d="M-484 522h523l-5 -28h-524z" />
    <glyph glyph-name="uni0337" unicode="&#x337;" 
d="M-133 299l7 38l203 154l-8 -38z" />
    <glyph glyph-name="uni0338" unicode="&#x338;" 
d="M-402 -71l-20 11l358 635l21 -12z" />
    <glyph glyph-name="uni0394" unicode="&#x394;" horiz-adv-x="628" 
d="M28 0l396 712h28l150 -712h-574zM83 34h474l-130 622z" />
    <glyph glyph-name="uni03A9" unicode="&#x3a9;" horiz-adv-x="700" 
d="M60 0l6 34h185l18 99q-69 29 -105 92t-36 137q0 164 97.5 261.5t243.5 97.5q111 0 180.5 -69.5t69.5 -176.5q0 -132 -66.5 -221.5t-172.5 -120.5l-18 -99h184l-6 -34h-214l28 160q94 19 160 101t66 208q0 95 -60 156t-156 61q-128 0 -213.5 -88t-85.5 -232
q0 -72 36.5 -129.5t104.5 -76.5l-29 -160h-217z" />
    <glyph glyph-name="uni03BC" unicode="&#x3bc;" horiz-adv-x="555" 
d="M54 -177l122 692h38l-58 -331q-15 -81 18.5 -120t96.5 -39q82 0 132 46.5t63 123.5l56 320h39l-91 -515h-37l13 78q-25 -39 -73 -64.5t-109 -25.5q-105 0 -128 80l-43 -245h-39z" />
    <glyph glyph-name="pi" unicode="&#x3c0;" horiz-adv-x="556" 
d="M453 -5q-40 0 -48.5 31.5t2.5 66.5l59 332h-243l-75 -425h-34l75 425h-80l5 33h474l-5 -33h-82l-59 -329q-7 -21 -3.5 -45t28.5 -24q21 0 44 15l-6 -32q-25 -15 -52 -15z" />
    <glyph glyph-name="endash" unicode="&#x2013;" horiz-adv-x="623" 
d="M118 251l6 35h475l-6 -35h-475z" />
    <glyph glyph-name="emdash" unicode="&#x2014;" horiz-adv-x="851" 
d="M118 251l6 35h703l-6 -35h-703z" />
    <glyph glyph-name="quoteleft" unicode="&#x2018;" horiz-adv-x="209" 
d="M198 530q-33 0 -33 40q0 38 24.5 80t77.5 57l-4 -27q-25 -7 -41 -28.5t-19 -48.5q3 1 7 1q14 0 22.5 -8.5t8.5 -22.5q0 -19 -12.5 -31t-30.5 -12z" />
    <glyph glyph-name="quoteright" unicode="&#x2019;" horiz-adv-x="208" 
d="M233 707q34 0 34 -41q0 -37 -24.5 -79.5t-77.5 -57.5l4 27q25 8 41 29.5t18 48.5q-2 -1 -7 -1q-31 0 -31 31q0 19 13 31t30 12z" />
    <glyph glyph-name="quotesinglbase" unicode="&#x201a;" horiz-adv-x="224" 
d="M121 70q34 0 34 -40q0 -37 -25 -79.5t-78 -57.5l5 27q25 7 40.5 28.5t18.5 48.5q-2 -1 -7 -1q-31 0 -31 31q0 19 13 31t30 12z" />
    <glyph glyph-name="quotedblleft" unicode="&#x201c;" horiz-adv-x="328" 
d="M198 530q-33 0 -33 40q0 38 24.5 80t77.5 57l-4 -27q-25 -7 -41 -28.5t-19 -48.5q3 1 7 1q14 0 22.5 -8.5t8.5 -22.5q0 -19 -12.5 -31t-30.5 -12zM318 530q-34 0 -34 40q0 37 25 79.5t78 57.5l-5 -27q-25 -7 -41 -28.5t-18 -48.5q2 1 7 1q14 0 22.5 -8.5t8.5 -22.5
q0 -19 -13 -31t-30 -12z" />
    <glyph glyph-name="quotedblright" unicode="&#x201d;" horiz-adv-x="328" 
d="M233 707q34 0 34 -41q0 -37 -24.5 -79.5t-77.5 -57.5l4 27q25 8 41 29.5t18 48.5q-2 -1 -7 -1q-31 0 -31 31q0 19 13 31t30 12zM353 707q33 0 33 -41q0 -37 -24.5 -79.5t-77.5 -57.5l4 27q26 8 41.5 29.5t17.5 48.5q-2 -1 -6 -1q-31 0 -31 31q0 19 12.5 31t30.5 12z" />
    <glyph glyph-name="quotedblbase" unicode="&#x201e;" horiz-adv-x="347" 
d="M121 70q34 0 34 -40q0 -37 -25 -79.5t-78 -57.5l5 27q25 7 40.5 28.5t18.5 48.5q-2 -1 -7 -1q-31 0 -31 31q0 19 13 31t30 12zM245 70q33 0 33 -40q0 -38 -24.5 -80t-77.5 -57l5 27q25 7 40.5 28.5t18.5 48.5q-3 -1 -7 -1q-31 0 -31 31q0 19 12.5 31t30.5 12z" />
    <glyph glyph-name="dagger" unicode="&#x2020;" horiz-adv-x="558" 
d="M234 -144l104 588h-194l6 34h194l42 236h37l-42 -236h195l-6 -34h-195l-104 -588h-37z" />
    <glyph glyph-name="daggerdbl" unicode="&#x2021;" horiz-adv-x="558" 
d="M234 -144l35 197h-194l6 34h194l70 396h-194l6 34h194l35 197h37l-35 -197h195l-6 -34h-195l-70 -396h195l-6 -34h-195l-35 -197h-37z" />
    <glyph glyph-name="bullet" unicode="&#x2022;" horiz-adv-x="446" 
d="M275 151q-59 0 -101 41.5t-42 100.5t42 100.5t101 41.5t100.5 -41.5t41.5 -100.5t-41.5 -100.5t-100.5 -41.5z" />
    <glyph glyph-name="ellipsis" unicode="&#x2026;" horiz-adv-x="648" 
d="M107 -3q-15 0 -25 10.5t-10 25.5q0 16 12 27.5t28 11.5q15 0 25.5 -10t10.5 -25q0 -16 -12.5 -28t-28.5 -12zM331 -3q-15 0 -25 10.5t-10 25.5q0 16 12 27.5t28 11.5q15 0 25.5 -10t10.5 -25q0 -16 -12.5 -28t-28.5 -12zM545 -3q-15 0 -25 10.5t-10 25.5q0 16 12 27.5
t28 11.5q15 0 25.5 -10t10.5 -25q0 -16 -12.5 -28t-28.5 -12z" />
    <glyph glyph-name="perthousand" unicode="&#x2030;" horiz-adv-x="1165" 
d="M151 -33l551 749h33l-550 -749h-34zM287 350q-75 0 -118.5 46t-43.5 112q0 86 51.5 138t130.5 52q75 0 118.5 -45t43.5 -113q0 -87 -51 -138.5t-131 -51.5zM293 384q62 0 102 41t40 110q0 54 -35 92t-98 38t-103 -42t-40 -110q0 -54 36 -91.5t98 -37.5zM596 -6
q-75 0 -119 46t-44 112q0 86 51.5 138t131.5 52q75 0 118 -45t43 -113q0 -87 -50.5 -138.5t-130.5 -51.5zM983 -6q-75 0 -119 46t-44 112q0 86 51.5 138t131.5 52q75 0 118 -45t43 -113q0 -87 -50.5 -138.5t-130.5 -51.5zM601 28q62 0 102.5 41t40.5 110q0 54 -35.5 92
t-98.5 38t-103 -42t-40 -110q0 -54 36.5 -91.5t97.5 -37.5zM988 28q62 0 102.5 41t40.5 110q0 54 -35.5 92t-98.5 38t-103 -42t-40 -110q0 -54 36.5 -91.5t97.5 -37.5z" />
    <glyph glyph-name="guilsinglleft" unicode="&#x2039;" horiz-adv-x="240" 
d="M183 125l-83 127l6 34l127 126l-8 -45l-94 -98l59 -99z" />
    <glyph glyph-name="guilsinglright" unicode="&#x203a;" horiz-adv-x="240" 
d="M102 125l7 45l94 99l-59 98l8 45l82 -126l-6 -34z" />
    <glyph glyph-name="fraction" unicode="&#x2044;" horiz-adv-x="480" 
d="M-4 -32l574 747h35l-574 -747h-35z" />
    <glyph glyph-name="Euro" unicode="&#x20ac;" horiz-adv-x="610" 
d="M335 -16q-101 0 -147.5 80t-32.5 216h-63l5 28h61q1 5 2 14.5t2 17.5l2 16q1 5 4.5 20.5t4.5 22.5h-60l5 28h63q37 137 111 216t175 79q87 0 133 -53.5t38 -163.5h-35q7 181 -141 181q-84 0 -146 -71.5t-94 -187.5h297l-5 -28h-300q0 -3 -9 -43q-5 -28 -6 -48h300l-5 -28
h-297q-12 -119 24 -189t118 -70q158 0 214 198h36q-62 -235 -254 -235z" />
    <glyph glyph-name="trademark" unicode="&#x2122;" horiz-adv-x="902" 
d="M217 302l67 381h-137l4 30h310l-5 -30h-137l-68 -381h-34zM472 302l72 411h39l115 -230l196 230h37l-72 -411h-32l63 361l-185 -217h-28l-108 217l-64 -361h-33z" />
    <glyph glyph-name="minus" unicode="&#x2212;" horiz-adv-x="631" 
d="M123 253l6 33h474l-6 -33h-474z" />
    <glyph glyph-name="uniF004" unicode="&#xf004;" horiz-adv-x="265" 
d="M52 -218l4 25q42 8 52 53h-3q-16 0 -25 9t-9 23q0 20 13.5 33t32.5 13q33 0 33 -37q0 -50 -27.5 -82.5t-70.5 -36.5z" />
    <glyph glyph-name="uniF8FF" unicode="&#xf8ff;" horiz-adv-x="878" 
d="M239 717h372v-120h-246v-189q40 -14 95.5 -43.5t97.5 -53.5t96.5 -43t102.5 -19l47 4q-2 -4 -8 -9t-30.5 -14t-58.5 -9q-125 0 -342 113v-334h-126v386q-24 10 -52 10q-34 0 -56 -14.5t-22 -42.5q0 -19 10 -35t27 -22q-26 1 -41 18t-15 45q0 40 33.5 65t92.5 25
q14 0 23 -2v284z" />
    <glyph glyph-name="a.ss01" horiz-adv-x="583" 
d="M550 515h38l-91 -515h-38l16 91q-68 -103 -185 -103q-90 0 -142 59.5t-52 155.5q0 141 70 232.5t180 91.5q70 0 117.5 -35.5t64.5 -101.5zM297 25q97 0 154 81.5t57 204.5q0 84 -44 131.5t-121 47.5q-92 0 -151 -79t-59 -200q0 -84 43 -135t121 -51z" />
    <glyph glyph-name="aacute.ss01" horiz-adv-x="583" 
d="M501 717l-131 -144h-28l111 144h48zM550 515h38l-91 -515h-38l16 91q-68 -103 -185 -103q-90 0 -142 59.5t-52 155.5q0 141 70 232.5t180 91.5q70 0 117.5 -35.5t64.5 -101.5zM297 25q97 0 154 81.5t57 204.5q0 84 -44 131.5t-121 47.5q-92 0 -151 -79t-59 -200
q0 -84 43 -135t121 -51z" />
    <glyph glyph-name="acircumflex.ss01" horiz-adv-x="583" 
d="M404 686l-109 -113h-32l132 144h31l84 -144h-34zM550 515h38l-91 -515h-38l16 91q-68 -103 -185 -103q-90 0 -142 59.5t-52 155.5q0 141 70 232.5t180 91.5q70 0 117.5 -35.5t64.5 -101.5zM297 25q97 0 154 81.5t57 204.5q0 84 -44 131.5t-121 47.5q-92 0 -151 -79
t-59 -200q0 -84 43 -135t121 -51z" />
    <glyph glyph-name="adieresis.ss01" horiz-adv-x="583" 
d="M322 631q-12 0 -20 8t-8 21q0 17 9.5 26.5t24.5 9.5q13 0 21 -8t8 -21q0 -17 -10 -26.5t-25 -9.5zM479 631q-12 0 -20 8t-8 21q0 17 9.5 26.5t24.5 9.5q13 0 21 -8t8 -21q0 -17 -10 -26.5t-25 -9.5zM550 515h38l-91 -515h-38l16 91q-68 -103 -185 -103q-90 0 -142 59.5
t-52 155.5q0 141 70 232.5t180 91.5q70 0 117.5 -35.5t64.5 -101.5zM297 25q97 0 154 81.5t57 204.5q0 84 -44 131.5t-121 47.5q-92 0 -151 -79t-59 -200q0 -84 43 -135t121 -51z" />
    <glyph glyph-name="agrave.ss01" horiz-adv-x="583" 
d="M415 573h-27l-87 144h46zM550 515h38l-91 -515h-38l16 91q-68 -103 -185 -103q-90 0 -142 59.5t-52 155.5q0 141 70 232.5t180 91.5q70 0 117.5 -35.5t64.5 -101.5zM297 25q97 0 154 81.5t57 204.5q0 84 -44 131.5t-121 47.5q-92 0 -151 -79t-59 -200q0 -84 43 -135
t121 -51z" />
    <glyph glyph-name="aring.ss01" horiz-adv-x="583" 
d="M389 556q-36 0 -58 22t-22 58q0 44 30 74.5t73 30.5q36 0 58 -22.5t22 -58.5q0 -43 -29.5 -73.5t-73.5 -30.5zM408 714q-30 0 -50 -21.5t-20 -51.5q0 -26 15 -42t41 -16q30 0 49 21t19 52q0 26 -14.5 42t-39.5 16zM550 515h38l-91 -515h-38l16 91q-68 -103 -185 -103
q-90 0 -142 59.5t-52 155.5q0 141 70 232.5t180 91.5q70 0 117.5 -35.5t64.5 -101.5zM297 25q97 0 154 81.5t57 204.5q0 84 -44 131.5t-121 47.5q-92 0 -151 -79t-59 -200q0 -84 43 -135t121 -51z" />
    <glyph glyph-name="atilde.ss01" horiz-adv-x="583" 
d="M337 664q-44 0 -47 -51h-30q4 39 25.5 61t52.5 22q29 0 67 -25t59 -25q22 0 33.5 9t14.5 38h31q-9 -80 -79 -80q-28 0 -65.5 25.5t-61.5 25.5zM550 515h38l-91 -515h-38l16 91q-68 -103 -185 -103q-90 0 -142 59.5t-52 155.5q0 141 70 232.5t180 91.5q70 0 117.5 -35.5
t64.5 -101.5zM297 25q97 0 154 81.5t57 204.5q0 84 -44 131.5t-121 47.5q-92 0 -151 -79t-59 -200q0 -84 43 -135t121 -51z" />
    <glyph glyph-name="g.ss01" horiz-adv-x="588" 
d="M605 515h40l-7 -35h-26q-32 0 -37 -31l-76 -437q-20 -111 -72 -166t-153 -55h-190l7 37h179q87 0 131 45t60 141l13 76q-70 -102 -185 -102q-90 0 -142 59.5t-52 155.5q0 140 69.5 232t180.5 92q69 0 117 -36t65 -102l13 72q9 54 65 54zM296 25q97 0 153.5 81.5
t56.5 204.5q0 83 -44 131t-120 48q-93 0 -151.5 -78.5t-58.5 -199.5q0 -85 43 -136t121 -51z" />
    <glyph glyph-name="k.ss01" horiz-adv-x="482" 
d="M543 515l-246 -238l179 -277h-47l-167 257l-93 -1l-46 -256h-38l126 714h38l-74 -421h90l230 222h48z" />
    <glyph glyph-name="t.ss01" horiz-adv-x="299" 
d="M129 0l84 479h-109l7 36h109l28 160h38l-28 -160h115l-7 -36h-115l-84 -479h-38z" />
    <glyph glyph-name="y.ss01" horiz-adv-x="495" 
d="M69 -209l7 37h70q34 0 49 13t23 51l20 89l-119 534h41l105 -489l255 489h40l-286 -539l-22 -101q-10 -46 -34.5 -65t-70.5 -19h-78z" />
    <glyph glyph-name="yacute.ss01" horiz-adv-x="495" 
d="M294 573l111 144h48l-131 -144h-28zM69 -209l7 37h70q34 0 49 13t23 51l20 89l-119 534h41l105 -489l255 489h40l-286 -539l-22 -101q-10 -46 -34.5 -65t-70.5 -19h-78z" />
    <glyph glyph-name="ydieresis.ss01" horiz-adv-x="495" 
d="M273 631q-12 0 -20 8t-8 21q0 17 9.5 26.5t24.5 9.5q13 0 21 -8t8 -21q0 -17 -10 -26.5t-25 -9.5zM430 631q-12 0 -20 8t-8 21q0 17 9.5 26.5t24.5 9.5q13 0 21 -8t8 -21q0 -17 -10 -26.5t-25 -9.5zM69 -209l7 37h70q34 0 49 13t23 51l20 89l-119 534h41l105 -489
l255 489h40l-286 -539l-22 -101q-10 -46 -34.5 -65t-70.5 -19h-78z" />
    <glyph glyph-name="zero.osf" horiz-adv-x="614" 
d="M315 -9q-108 0 -163 62t-55 159q0 84 32 157t100.5 121.5t161.5 48.5q108 0 164 -63.5t56 -160.5q0 -84 -32 -156.5t-101 -120t-163 -47.5zM321 25q65 0 115 27.5t78 71t42 91.5t14 96q0 80 -45.5 136.5t-139.5 56.5q-63 0 -113 -27.5t-78 -71t-42.5 -92t-14.5 -96.5
q0 -80 45.5 -136t138.5 -56z" />
    <glyph glyph-name="one.osf" horiz-adv-x="319" 
d="M191 0l81 458q-79 -47 -171 -63l5 33q64 10 103.5 31.5t79.5 65.5h33l-92 -525h-39z" />
    <glyph glyph-name="two.osf" horiz-adv-x="524" 
d="M52 0q10 65 68.5 115t157.5 96q59 28 85.5 41.5t59.5 38t45.5 51.5t12.5 63q0 47 -35.5 72.5t-97.5 25.5q-82 0 -128.5 -39t-58.5 -104h-39q15 85 76 132t155 47q78 0 123.5 -33.5t45.5 -95.5q0 -36 -13 -66.5t-29.5 -50.5t-53 -43t-61.5 -35.5t-76 -36.5
q-164 -74 -182 -142h381l-6 -36h-430z" />
    <glyph glyph-name="three.osf" horiz-adv-x="574" 
d="M266 -170q-119 0 -176.5 59.5t-31.5 164.5h39q-22 -89 25.5 -138.5t149.5 -49.5q93 0 154.5 49.5t61.5 139.5q0 66 -43 99.5t-122 33.5h-44l6 33h45q81 0 140 40.5t59 123.5q0 58 -43.5 88t-115.5 30q-183 0 -212 -179h-39q16 105 81.5 160t173.5 55q88 0 141 -38.5
t53 -111.5q0 -76 -43 -122t-119 -60q123 -25 123 -146q0 -110 -71 -170.5t-192 -60.5z" />
    <glyph glyph-name="four.osf" horiz-adv-x="563" 
d="M359 -173l30 173h-365l6 40l448 484h42l-87 -489h112l-6 -35h-112l-30 -173h-38zM69 35h326l77 435h-2z" />
    <glyph glyph-name="five.osf" horiz-adv-x="542" 
d="M260 -170q-111 0 -165.5 62.5t-37.5 169.5h39q-13 -92 30 -144.5t139 -52.5q95 0 153.5 64t58.5 171q0 75 -43.5 118.5t-119.5 43.5q-111 0 -180 -85h-39l94 349h366l-7 -36h-333l-70 -268q65 75 180 75q89 0 140 -50.5t51 -138.5q0 -124 -72.5 -201t-183.5 -77z" />
    <glyph glyph-name="six.osf" horiz-adv-x="578" 
d="M357 453q96 0 153 -52.5t57 -147.5q0 -118 -68 -191.5t-182 -73.5q-101 0 -157.5 61.5t-56.5 172.5q0 93 17.5 175.5t52.5 150.5t95 107.5t138 39.5q91 0 137.5 -44t46.5 -123h-39q0 62 -38.5 97t-115.5 35q-58 0 -105.5 -29.5t-77 -80t-47 -111.5t-22.5 -129
q27 71 85 107t127 36zM321 23q97 0 152 63.5t55 160.5q0 81 -46 126t-131 45q-94 0 -151 -63.5t-57 -157.5q0 -72 46 -123t132 -51z" />
    <glyph glyph-name="seven.osf" horiz-adv-x="469" 
d="M106 -157q24 173 128 338t262 309h-392l7 36h437l-8 -41q-344 -302 -395 -642h-39z" />
    <glyph glyph-name="eight.osf" horiz-adv-x="567" 
d="M301 -12q-100 0 -157.5 45.5t-57.5 133.5q0 83 50 138t133 71q-92 40 -92 137q0 84 61 133t149 49q87 0 137.5 -39.5t50.5 -112.5q0 -65 -40.5 -110.5t-103.5 -59.5q55 -15 87 -57.5t32 -104.5q0 -106 -71 -164.5t-178 -58.5zM363 391q67 0 120 36.5t53 108.5
q0 63 -41.5 93t-112.5 30q-68 0 -117 -36.5t-49 -107.5q0 -62 41.5 -93t105.5 -31zM307 24q87 0 145 46.5t58 136.5q0 74 -47 111t-127 37q-87 0 -148.5 -47.5t-61.5 -135.5q0 -75 48 -111.5t133 -36.5z" />
    <glyph glyph-name="nine.osf" horiz-adv-x="578" 
d="M345 538q101 0 157.5 -61.5t56.5 -172.5q0 -93 -17.5 -175.5t-52.5 -150.5t-95 -107.5t-138 -39.5q-91 0 -137.5 44t-46.5 123h39q0 -62 38.5 -97t115.5 -35q58 0 105.5 29.5t77 80t47 111.5t22.5 129q-27 -71 -85 -107t-127 -36q-96 0 -153 52.5t-57 147.5
q0 118 68 191.5t182 73.5zM311 108q94 0 151 63.5t57 157.5q0 72 -46 123t-132 51q-97 0 -152 -63.5t-55 -160.5q0 -81 46 -126t131 -45z" />
    <glyph glyph-name="zero.tf" horiz-adv-x="597" 
d="M308 -11q-101 0 -149.5 71t-48.5 184q0 75 16.5 150t50 144.5t93 113t136.5 43.5q102 0 150.5 -71.5t48.5 -184.5q0 -59 -10 -119.5t-33 -120.5t-56 -106t-84.5 -75t-113.5 -29zM312 24q67 0 118 41.5t79 106t41.5 131.5t13.5 130q0 97 -38 161.5t-125 64.5
q-66 0 -116.5 -41.5t-78.5 -106t-41.5 -131.5t-13.5 -130q0 -62 13.5 -110t51 -82t96.5 -34z" />
    <glyph glyph-name="one.tf" horiz-adv-x="597" 
d="M319 0l108 613q-86 -69 -194 -92l5 34q72 17 116 44.5t90 83.5h34l-120 -683h-39z" />
    <glyph glyph-name="two.tf" horiz-adv-x="597" 
d="M85 0q11 82 75 145.5t179 128.5q111 62 168.5 118.5t57.5 131.5q0 64 -38.5 99t-106.5 35q-94 0 -145 -52.5t-64 -144.5h-39q16 111 82 172.5t172 61.5q81 0 129.5 -43t48.5 -122q0 -49 -20 -91t-61.5 -79.5t-80 -64t-101.5 -62.5q-89 -52 -140.5 -97.5t-65.5 -98.5h399
l-7 -37h-442z" />
    <glyph glyph-name="three.tf" horiz-adv-x="597" 
d="M309 -14q-119 0 -176.5 59.5t-31.5 164.5h39q-22 -89 25.5 -138.5t149.5 -49.5q93 0 154.5 49.5t61.5 139.5q0 66 -43 99.5t-122 33.5h-44l6 33h45q81 0 140 40.5t59 123.5q0 58 -43.5 88t-115.5 30q-183 0 -212 -179h-39q16 105 81.5 160t173.5 55q88 0 141 -38.5
t53 -111.5q0 -76 -43 -122t-119 -60q123 -25 123 -146q0 -110 -71 -170.5t-192 -60.5z" />
    <glyph glyph-name="four.tf" horiz-adv-x="597" 
d="M406 0l30 173h-352l7 40l432 470h42l-84 -475h111l-6 -35h-112l-30 -173h-38zM130 208h313l74 421h-2z" />
    <glyph glyph-name="five.tf" horiz-adv-x="597" 
d="M325 -13q-111 0 -165.5 62.5t-37.5 169.5h39q-13 -92 30 -144.5t139 -52.5q95 0 153.5 64t58.5 171q0 75 -43.5 118.5t-119.5 43.5q-111 0 -180 -85h-39l94 349h366l-7 -36h-333l-70 -268q65 75 180 75q89 0 140 -50.5t51 -138.5q0 -124 -72.5 -201t-183.5 -77z" />
    <glyph glyph-name="six.tf" horiz-adv-x="597" 
d="M373 453q96 0 153 -52.5t57 -147.5q0 -118 -68 -191.5t-182 -73.5q-101 0 -157.5 61.5t-56.5 172.5q0 93 17.5 175.5t52.5 150.5t95 107.5t138 39.5q91 0 137.5 -44t46.5 -123h-39q0 62 -38.5 97t-115.5 35q-58 0 -105.5 -29.5t-77 -80t-47 -111.5t-22.5 -129
q27 71 85 107t127 36zM337 23q97 0 152 63.5t55 160.5q0 81 -46 126t-131 45q-94 0 -151 -63.5t-57 -157.5q0 -72 46 -123t132 -51z" />
    <glyph glyph-name="seven.tf" horiz-adv-x="597" 
d="M202 0q58 338 399 646h-414l7 37h458l-8 -41q-344 -305 -403 -642h-39z" />
    <glyph glyph-name="eight.tf" horiz-adv-x="597" 
d="M326 -12q-100 0 -157.5 45.5t-57.5 133.5q0 83 50 138t133 71q-92 40 -92 137q0 84 61 133t149 49q87 0 137.5 -39.5t50.5 -112.5q0 -65 -40.5 -110.5t-103.5 -59.5q55 -15 87 -57.5t32 -104.5q0 -106 -71 -164.5t-178 -58.5zM388 391q67 0 120 36.5t53 108.5
q0 63 -41.5 93t-112.5 30q-68 0 -117 -36.5t-49 -107.5q0 -62 41.5 -93t105.5 -31zM332 24q87 0 145 46.5t58 136.5q0 74 -47 111t-127 37q-87 0 -148.5 -47.5t-61.5 -135.5q0 -75 48 -111.5t133 -36.5z" />
    <glyph glyph-name="nine.tf" horiz-adv-x="597" 
d="M393 695q101 0 157.5 -61.5t56.5 -172.5q0 -93 -17.5 -175.5t-52.5 -150.5t-95 -107.5t-138 -39.5q-91 0 -137.5 44t-46.5 123h39q0 -62 38.5 -97t115.5 -35q58 0 105.5 29.5t77 80t47 111.5t22.5 129q-27 -71 -85 -107t-127 -36q-96 0 -153 52.5t-57 147.5
q0 118 68 191.5t182 73.5zM359 265q94 0 151 63.5t57 157.5q0 72 -46 123t-132 51q-97 0 -152 -63.5t-55 -160.5q0 -81 46 -126t131 -45z" />
    <glyph glyph-name="dollar.osf" horiz-adv-x="519" 
d="M523 374h-39q8 59 -25 90.5t-94 36.5l-38 -212q81 -15 124.5 -44.5t43.5 -89.5q0 -85 -60.5 -126t-160.5 -42l-12 -65h-25l12 65q-95 5 -142 51.5t-30 133.5h38q-12 -70 25.5 -106.5t114.5 -40.5l41 230q-79 13 -120.5 42t-41.5 88q0 77 59.5 114.5t152.5 38.5l12 65h25
l-12 -66q77 -5 120 -45.5t32 -117.5zM175 396q0 -45 32 -67t96 -35l37 208q-74 0 -119.5 -25t-45.5 -81zM455 146q0 48 -34 70.5t-101 34.5l-40 -227q175 2 175 122z" />
    <glyph glyph-name="Euro.osf" horiz-adv-x="567" 
d="M311 -12q-88 0 -135 60t-41 164h-57l5 24h54q4 35 12 65h-55l4 24h58q28 100 93.5 160t160.5 60q82 0 127 -39t41 -122h-36q-1 127 -138 127q-77 0 -131.5 -51t-78.5 -135h271l-4 -24h-275q-10 -46 -10 -65h274l-5 -24h-271q-6 -86 33 -138.5t111 -52.5q142 0 186 141h36
q-25 -88 -86 -131t-143 -43z" />
    <glyph glyph-name="florin.osf" horiz-adv-x="356" 
d="M369 540h56l-5 -35h-56q-82 0 -101 -66l-32 -115h103l-12 -31h-99l-85 -307q-31 -107 -141 -107h-64l6 35h60q78 0 99 73l86 306h-103l12 31h99l35 124q26 92 142 92z" />
    <glyph glyph-name="sterling.osf" horiz-adv-x="562" 
d="M409 539q89 0 129.5 -38.5t26.5 -112.5h-37q8 55 -22.5 85.5t-101.5 30.5q-61 0 -102.5 -31t-41.5 -96q0 -30 16 -96h143l-5 -30h-131q11 -50 11 -80q0 -40 -17 -77q27 -18 47.5 -29t58.5 -20.5t83 -9.5h53l-6 -35h-58q-108 0 -196 61q-49 -68 -123 -68q-39 0 -61.5 18.5
t-22.5 51.5q0 38 27.5 59.5t71.5 21.5q48 0 96 -30q8 26 8 51q0 35 -14 86h-133l5 30h120q-14 60 -14 91q0 86 56 126.5t134 40.5zM139 25q58 0 93 56q-46 32 -86 32q-29 0 -44 -13t-15 -34q0 -18 13.5 -29.5t38.5 -11.5z" />
    <glyph glyph-name="yen.osf" horiz-adv-x="545" 
d="M252 0l34 198h-160l5 29h158l-51 93h-120l6 29h103l-103 191h49l145 -279l249 279h47l-171 -191h98l-5 -29h-116l-85 -93h157l-5 -29h-160l-35 -198h-40z" />
    <glyph glyph-name="caroncomb.alt" 
d="M-6 570l4 22q41 1 53 63q-2 -1 -7 -1q-13 0 -20.5 8t-7.5 21q0 16 12.5 28t28.5 12q31 0 31 -34q0 -43 -24.5 -81t-69.5 -38z" />
    <glyph glyph-name="uni0326.alt" 
d="M-30 596q-34 0 -34 37q0 50 28.5 83t71.5 36l-5 -25q-42 -7 -52 -53h3q35 0 35 -32q0 -20 -14 -33t-33 -13z" />
    <glyph glyph-name="uni0308.case" 
d="M-77 805q-14 0 -24 10t-10 24q0 13 10 22.5t24 9.5q13 0 22.5 -9.5t9.5 -22.5q0 -14 -9.5 -24t-22.5 -10zM103 805q-14 0 -23.5 10t-9.5 24q0 13 10 22.5t23 9.5q14 0 23.5 -9.5t9.5 -22.5q0 -14 -9.5 -24t-23.5 -10z" />
    <glyph glyph-name="uni0307.case" 
d="M32 805q-13 0 -22 9t-9 22q0 16 13.5 28.5t29.5 12.5q13 0 22 -9t9 -22q0 -16 -13 -28.5t-30 -12.5z" />
    <glyph glyph-name="gravecomb.case" 
d="M94 776l-95 129h49l76 -129h-30z" />
    <glyph glyph-name="acutecomb.case" 
d="M-25 776l122 129h50l-141 -129h-31z" />
    <glyph glyph-name="uni030B.case" 
d="M-151 776l96 129h44l-112 -129h-28zM-9 776l98 129h44l-114 -129h-28z" />
    <glyph glyph-name="uni0302.case" 
d="M-123 776l129 129h32l86 -129h-32l-75 99l-106 -99h-34z" />
    <glyph glyph-name="uni030C.case" 
d="M-13 776l-86 129h34l74 -100l109 100h33l-131 -129h-33z" />
    <glyph glyph-name="uni0306.case" 
d="M2 783q-51 0 -77.5 30t-22.5 86h28q-2 -42 18.5 -64.5t58.5 -22.5q41 0 71.5 22.5t42.5 64.5h28q-15 -55 -54.5 -85.5t-92.5 -30.5z" />
    <glyph glyph-name="uni030A.case" 
d="M42 752q-37 0 -60.5 23t-22.5 60q1 40 29 67.5t70 27.5q37 0 61 -24t22 -60q-1 -40 -29 -67t-70 -27zM46 777q29 0 47 19.5t19 47.5q0 27 -15.5 43.5t-42.5 16.5q-29 0 -47.5 -19.5t-19.5 -47.5q-1 -27 15.5 -43.5t43.5 -16.5z" />
    <glyph glyph-name="tildecomb.case" 
d="M-136 800q8 36 31 59.5t54 23.5q26 0 61 -25t54 -25q37 0 52 48h31q-21 -80 -85 -80q-26 0 -60.5 25t-55.5 25q-20 0 -33.5 -15t-17.5 -36h-31z" />
    <glyph glyph-name="uni0304.case" 
d="M-109 818l6 29h242l-5 -29h-243z" />
    <glyph glyph-name="uni0337.case" 
d="M-255 239l7 37l286 188l-7 -37z" />
    <glyph glyph-name="uni0338.case" 
d="M-596 -4l-20 19l612 698l22 -19z" />
    <glyph glyph-name="caron.alt" horiz-adv-x="108" 
d="M133 570l4 22q41 1 53 63q-2 -1 -7 -1q-13 0 -20.5 8t-7.5 21q0 16 12.5 28t28.5 12q31 0 31 -34q0 -43 -24.5 -81t-69.5 -38z" />
    <glyph glyph-name="acute.case" horiz-adv-x="169" 
d="M149 776l122 129h50l-141 -129h-31z" />
    <glyph glyph-name="breve.case" horiz-adv-x="267" 
d="M269 783q-51 0 -77.5 30t-22.5 86h28q-2 -42 18.5 -64.5t58.5 -22.5q41 0 71.5 22.5t42.5 64.5h28q-15 -55 -54.5 -85.5t-92.5 -30.5z" />
    <glyph glyph-name="caron.case" horiz-adv-x="270" 
d="M254 776l-86 129h34l74 -100l109 100h33l-131 -129h-33z" />
    <glyph glyph-name="circumflex.case" horiz-adv-x="272" 
d="M149 776l129 129h32l86 -129h-32l-75 99l-106 -99h-34z" />
    <glyph glyph-name="dieresis.case" horiz-adv-x="266" 
d="M189 805q-14 0 -24 10t-10 24q0 13 10 22.5t24 9.5q13 0 22.5 -9.5t9.5 -22.5q0 -14 -9.5 -24t-22.5 -10zM369 805q-14 0 -23.5 10t-9.5 24q0 13 10 22.5t23 9.5q14 0 23.5 -9.5t9.5 -22.5q0 -14 -9.5 -24t-23.5 -10z" />
    <glyph glyph-name="dotaccent.case" horiz-adv-x="93" 
d="M253 805q-13 0 -22 9t-9 22q0 16 13.5 28.5t29.5 12.5q13 0 22 -9t9 -22q0 -16 -13 -28.5t-30 -12.5z" />
    <glyph glyph-name="grave.case" horiz-adv-x="169" 
d="M268 776l-95 129h49l76 -129h-30z" />
    <glyph glyph-name="hungarumlaut.case" horiz-adv-x="281" 
d="M164 776l96 129h44l-112 -129h-28zM306 776l98 129h44l-114 -129h-28z" />
    <glyph glyph-name="macron.case" horiz-adv-x="263" 
d="M154 818l6 29h242l-5 -29h-243z" />
    <glyph glyph-name="ring.case" horiz-adv-x="200" 
d="M241 752q-37 0 -60.5 23t-22.5 60q1 40 29 67.5t70 27.5q37 0 61 -24t22 -60q-1 -40 -29 -67t-70 -27zM245 777q29 0 47 19.5t19 47.5q0 27 -15.5 43.5t-42.5 16.5q-29 0 -47.5 -19.5t-19.5 -47.5q-1 -27 15.5 -43.5t43.5 -16.5z" />
    <glyph glyph-name="tilde.case" horiz-adv-x="287" 
d="M149 800q8 36 31 59.5t54 23.5q26 0 61 -25t54 -25q37 0 52 48h31q-21 -80 -85 -80q-26 0 -60.5 25t-55.5 25q-20 0 -33.5 -15t-17.5 -36h-31z" />
    </font>
</defs>
</svg>
